%TF.GenerationSoftware,KiCad,Pcbnew,7.0.8*%
%TF.CreationDate,2024-12-11T22:38:04+01:00*%
%TF.ProjectId,USB-C_PD_Board_V2_CYPD3177,5553422d-435f-4504-945f-426f6172645f,rev?*%
%TF.SameCoordinates,Original*%
%TF.FileFunction,Paste,Top*%
%TF.FilePolarity,Positive*%
%FSLAX46Y46*%
G04 Gerber Fmt 4.6, Leading zero omitted, Abs format (unit mm)*
G04 Created by KiCad (PCBNEW 7.0.8) date 2024-12-11 22:38:04*
%MOMM*%
%LPD*%
G01*
G04 APERTURE LIST*
G04 Aperture macros list*
%AMRoundRect*
0 Rectangle with rounded corners*
0 $1 Rounding radius*
0 $2 $3 $4 $5 $6 $7 $8 $9 X,Y pos of 4 corners*
0 Add a 4 corners polygon primitive as box body*
4,1,4,$2,$3,$4,$5,$6,$7,$8,$9,$2,$3,0*
0 Add four circle primitives for the rounded corners*
1,1,$1+$1,$2,$3*
1,1,$1+$1,$4,$5*
1,1,$1+$1,$6,$7*
1,1,$1+$1,$8,$9*
0 Add four rect primitives between the rounded corners*
20,1,$1+$1,$2,$3,$4,$5,0*
20,1,$1+$1,$4,$5,$6,$7,0*
20,1,$1+$1,$6,$7,$8,$9,0*
20,1,$1+$1,$8,$9,$2,$3,0*%
G04 Aperture macros list end*
%ADD10RoundRect,0.200000X-0.200000X-0.275000X0.200000X-0.275000X0.200000X0.275000X-0.200000X0.275000X0*%
%ADD11RoundRect,0.175000X-0.750000X0.175000X-0.750000X-0.175000X0.750000X-0.175000X0.750000X0.175000X0*%
%ADD12RoundRect,0.190000X0.735000X-0.190000X0.735000X0.190000X-0.735000X0.190000X-0.735000X-0.190000X0*%
%ADD13RoundRect,0.200000X0.725000X-0.200000X0.725000X0.200000X-0.725000X0.200000X-0.725000X-0.200000X0*%
%ADD14RoundRect,0.175000X0.750000X-0.175000X0.750000X0.175000X-0.750000X0.175000X-0.750000X-0.175000X0*%
%ADD15RoundRect,0.190000X-0.735000X0.190000X-0.735000X-0.190000X0.735000X-0.190000X0.735000X0.190000X0*%
%ADD16RoundRect,0.200000X-0.725000X0.200000X-0.725000X-0.200000X0.725000X-0.200000X0.725000X0.200000X0*%
%ADD17O,1.700000X1.100000*%
%ADD18RoundRect,0.250000X0.337500X0.475000X-0.337500X0.475000X-0.337500X-0.475000X0.337500X-0.475000X0*%
%ADD19RoundRect,0.200000X-0.275000X0.200000X-0.275000X-0.200000X0.275000X-0.200000X0.275000X0.200000X0*%
%ADD20RoundRect,0.230000X-0.230000X-0.375000X0.230000X-0.375000X0.230000X0.375000X-0.230000X0.375000X0*%
%ADD21RoundRect,0.150000X-0.825000X-0.150000X0.825000X-0.150000X0.825000X0.150000X-0.825000X0.150000X0*%
%ADD22RoundRect,0.237500X0.300000X0.237500X-0.300000X0.237500X-0.300000X-0.237500X0.300000X-0.237500X0*%
%ADD23RoundRect,0.250000X-0.475000X0.337500X-0.475000X-0.337500X0.475000X-0.337500X0.475000X0.337500X0*%
%ADD24RoundRect,0.200000X0.275000X-0.200000X0.275000X0.200000X-0.275000X0.200000X-0.275000X-0.200000X0*%
%ADD25RoundRect,0.250000X0.475000X-0.337500X0.475000X0.337500X-0.475000X0.337500X-0.475000X-0.337500X0*%
%ADD26RoundRect,0.250000X0.305000X0.305000X-0.305000X0.305000X-0.305000X-0.305000X0.305000X-0.305000X0*%
%ADD27RoundRect,0.062500X0.337500X0.062500X-0.337500X0.062500X-0.337500X-0.062500X0.337500X-0.062500X0*%
%ADD28RoundRect,0.062500X0.062500X0.337500X-0.062500X0.337500X-0.062500X-0.337500X0.062500X-0.337500X0*%
%ADD29RoundRect,0.237500X-0.237500X0.300000X-0.237500X-0.300000X0.237500X-0.300000X0.237500X0.300000X0*%
%ADD30RoundRect,0.250000X-0.450000X0.325000X-0.450000X-0.325000X0.450000X-0.325000X0.450000X0.325000X0*%
%ADD31RoundRect,0.200000X0.200000X0.275000X-0.200000X0.275000X-0.200000X-0.275000X0.200000X-0.275000X0*%
%ADD32RoundRect,0.243750X-0.243750X-0.456250X0.243750X-0.456250X0.243750X0.456250X-0.243750X0.456250X0*%
G04 APERTURE END LIST*
D10*
%TO.C,R12*%
X161646000Y-93893000D03*
X163296000Y-93893000D03*
%TD*%
%TO.C,R18*%
X155677000Y-89067000D03*
X157327000Y-89067000D03*
%TD*%
%TO.C,R3*%
X137875000Y-94577000D03*
X139525000Y-94577000D03*
%TD*%
%TO.C,R17*%
X155677000Y-86781000D03*
X157327000Y-86781000D03*
%TD*%
%TO.C,R7*%
X157392000Y-91480000D03*
X159042000Y-91480000D03*
%TD*%
D11*
%TO.C,J2*%
X123570000Y-88906000D03*
D12*
X123570000Y-90926000D03*
D13*
X123570000Y-92156000D03*
D14*
X123570000Y-89906000D03*
D15*
X123570000Y-87886000D03*
D16*
X123570000Y-86656000D03*
D17*
X123165000Y-85086000D03*
X119365000Y-85086000D03*
X123165000Y-93726000D03*
X119365000Y-93726000D03*
%TD*%
D18*
%TO.C,C4*%
X128545500Y-92075000D03*
X126470500Y-92075000D03*
%TD*%
D19*
%TO.C,R1*%
X137401000Y-91182000D03*
X137401000Y-92832000D03*
%TD*%
D20*
%TO.C,Q1*%
X128462000Y-95151000D03*
X128462000Y-96651000D03*
X129602000Y-95151000D03*
X129602000Y-96651000D03*
D21*
X126557000Y-93996000D03*
X126557000Y-95266000D03*
X126557000Y-96536000D03*
X126557000Y-97806000D03*
X131507000Y-97806000D03*
X131507000Y-96536000D03*
X131507000Y-95266000D03*
X131507000Y-93996000D03*
%TD*%
D22*
%TO.C,C8*%
X128243500Y-90170000D03*
X126518500Y-90170000D03*
%TD*%
D10*
%TO.C,R8*%
X161583000Y-91480000D03*
X163233000Y-91480000D03*
%TD*%
D23*
%TO.C,C1*%
X134700000Y-91362500D03*
X134700000Y-93437500D03*
%TD*%
D22*
%TO.C,C9*%
X128243500Y-88392000D03*
X126518500Y-88392000D03*
%TD*%
D24*
%TO.C,R19*%
X134112000Y-88074000D03*
X134112000Y-86424000D03*
%TD*%
D25*
%TO.C,C2*%
X134685000Y-97585500D03*
X134685000Y-95510500D03*
%TD*%
D10*
%TO.C,R4*%
X130645000Y-87122000D03*
X132295000Y-87122000D03*
%TD*%
D26*
%TO.C,U1*%
X142696000Y-91438000D03*
X142696000Y-90058000D03*
X141316000Y-91438000D03*
X141316000Y-90058000D03*
D27*
X143981000Y-91998000D03*
X143981000Y-91498000D03*
X143981000Y-90998000D03*
X143981000Y-90498000D03*
X143981000Y-89998000D03*
X143981000Y-89498000D03*
D28*
X143256000Y-88773000D03*
X142756000Y-88773000D03*
X142256000Y-88773000D03*
X141756000Y-88773000D03*
X141256000Y-88773000D03*
X140756000Y-88773000D03*
D27*
X140031000Y-89498000D03*
X140031000Y-89998000D03*
X140031000Y-90498000D03*
X140031000Y-90998000D03*
X140031000Y-91498000D03*
X140031000Y-91998000D03*
D28*
X140756000Y-92723000D03*
X141256000Y-92723000D03*
X141756000Y-92723000D03*
X142256000Y-92723000D03*
X142756000Y-92723000D03*
X143256000Y-92723000D03*
%TD*%
D10*
%TO.C,R14*%
X157392000Y-93893000D03*
X159042000Y-93893000D03*
%TD*%
D29*
%TO.C,C6*%
X151100000Y-94237500D03*
X151100000Y-95962500D03*
%TD*%
D30*
%TO.C,D2*%
X148717000Y-86494000D03*
X148717000Y-88544000D03*
%TD*%
D10*
%TO.C,R15*%
X159868000Y-86781000D03*
X161518000Y-86781000D03*
%TD*%
D23*
%TO.C,C5*%
X148900000Y-94262500D03*
X148900000Y-96337500D03*
%TD*%
D18*
%TO.C,C3*%
X165794500Y-86527000D03*
X163719500Y-86527000D03*
%TD*%
D31*
%TO.C,R5*%
X129095000Y-86614000D03*
X127445000Y-86614000D03*
%TD*%
D10*
%TO.C,R16*%
X159868000Y-89067000D03*
X161518000Y-89067000D03*
%TD*%
D24*
%TO.C,R6*%
X146600000Y-87925000D03*
X146600000Y-86275000D03*
%TD*%
D18*
%TO.C,C10*%
X144637500Y-94900000D03*
X142562500Y-94900000D03*
%TD*%
D19*
%TO.C,R10*%
X146700000Y-95175000D03*
X146700000Y-96825000D03*
%TD*%
D10*
%TO.C,R11*%
X161646000Y-96179000D03*
X163296000Y-96179000D03*
%TD*%
%TO.C,R2*%
X128461000Y-100457000D03*
X130111000Y-100457000D03*
%TD*%
D32*
%TO.C,D3*%
X120904000Y-82423000D03*
X122779000Y-82423000D03*
%TD*%
D29*
%TO.C,C7*%
X153000000Y-94237500D03*
X153000000Y-95962500D03*
%TD*%
D10*
%TO.C,R13*%
X157392000Y-96179000D03*
X159042000Y-96179000D03*
%TD*%
D24*
%TO.C,R9*%
X151003000Y-88725000D03*
X151003000Y-87075000D03*
%TD*%
M02*
