%TF.GenerationSoftware,KiCad,Pcbnew,7.0.8*%
%TF.CreationDate,2024-12-11T22:38:04+01:00*%
%TF.ProjectId,USB-C_PD_Board_V2_CYPD3177,5553422d-435f-4504-945f-426f6172645f,rev?*%
%TF.SameCoordinates,Original*%
%TF.FileFunction,Copper,L2,Inr*%
%TF.FilePolarity,Positive*%
%FSLAX46Y46*%
G04 Gerber Fmt 4.6, Leading zero omitted, Abs format (unit mm)*
G04 Created by KiCad (PCBNEW 7.0.8) date 2024-12-11 22:38:04*
%MOMM*%
%LPD*%
G01*
G04 APERTURE LIST*
%TA.AperFunction,ComponentPad*%
%ADD10C,5.600000*%
%TD*%
%TA.AperFunction,ComponentPad*%
%ADD11R,1.700000X1.700000*%
%TD*%
%TA.AperFunction,ComponentPad*%
%ADD12O,1.700000X1.700000*%
%TD*%
%TA.AperFunction,ComponentPad*%
%ADD13C,1.524000*%
%TD*%
%TA.AperFunction,ComponentPad*%
%ADD14O,1.143000X2.286000*%
%TD*%
%TA.AperFunction,ComponentPad*%
%ADD15C,1.676400*%
%TD*%
%TA.AperFunction,ComponentPad*%
%ADD16O,1.700000X1.100000*%
%TD*%
%TA.AperFunction,ComponentPad*%
%ADD17R,1.600000X1.600000*%
%TD*%
%TA.AperFunction,ComponentPad*%
%ADD18O,1.600000X1.600000*%
%TD*%
%TA.AperFunction,ViaPad*%
%ADD19C,0.800000*%
%TD*%
%TA.AperFunction,ViaPad*%
%ADD20C,0.700000*%
%TD*%
G04 APERTURE END LIST*
D10*
%TO.N,N/C*%
%TO.C,H1*%
X138000000Y-85000000D03*
%TD*%
D11*
%TO.N,GND*%
%TO.C,J4*%
X170160000Y-94040000D03*
D12*
X170160000Y-96580000D03*
X170160000Y-99120000D03*
%TD*%
D13*
%TO.N,Net-(R18-Pad1)*%
%TO.C,SW4*%
X144565000Y-83225000D03*
%TO.N,Net-(R17-Pad1)*%
X146565000Y-83225000D03*
%TO.N,Net-(SW2-C)*%
X148565000Y-83225000D03*
X150565000Y-83225000D03*
%TO.N,Net-(R16-Pad1)*%
X152565000Y-83225000D03*
%TO.N,Net-(R15-Pad1)*%
X154565000Y-83225000D03*
D14*
%TO.N,N/C*%
X142465000Y-83225000D03*
X156665000Y-83225000D03*
%TD*%
D15*
%TO.N,Net-(SW1-A)*%
%TO.C,SW1*%
X159995000Y-99735000D03*
%TO.N,Net-(SW1-B)*%
X162535000Y-99735000D03*
%TO.N,unconnected-(SW1-C-Pad3)*%
X165075000Y-99735000D03*
%TD*%
D11*
%TO.N,+VSW*%
%TO.C,J1*%
X170160000Y-88960000D03*
D12*
X170160000Y-86420000D03*
X170160000Y-83880000D03*
%TD*%
D16*
%TO.N,unconnected-(J2-SHIELD-PadS1)*%
%TO.C,J2*%
X123165000Y-85086000D03*
X119365000Y-85086000D03*
X123165000Y-93726000D03*
X119365000Y-93726000D03*
%TD*%
D15*
%TO.N,unconnected-(SW2-A-Pad1)*%
%TO.C,SW2*%
X165075000Y-83225000D03*
%TO.N,Net-(SW2-B)*%
X162535000Y-83225000D03*
%TO.N,Net-(SW2-C)*%
X159995000Y-83225000D03*
%TD*%
D10*
%TO.N,N/C*%
%TO.C,H2*%
X121000000Y-98000000D03*
%TD*%
D13*
%TO.N,Net-(R14-Pad1)*%
%TO.C,SW3*%
X144835000Y-99735000D03*
%TO.N,Net-(R13-Pad1)*%
X146835000Y-99735000D03*
%TO.N,Net-(SW1-A)*%
X148835000Y-99735000D03*
X150835000Y-99735000D03*
%TO.N,Net-(R12-Pad1)*%
X152835000Y-99735000D03*
%TO.N,Net-(R11-Pad1)*%
X154835000Y-99735000D03*
D14*
%TO.N,N/C*%
X142735000Y-99735000D03*
X156935000Y-99735000D03*
%TD*%
D15*
%TO.N,Net-(SW5-A)*%
%TO.C,SW5*%
X127500000Y-83230000D03*
%TO.N,VBUS*%
X130040000Y-83230000D03*
X132580000Y-83230000D03*
%TD*%
D17*
%TO.N,Net-(D1-K)*%
%TO.C,D1*%
X125439000Y-100165000D03*
D18*
%TO.N,Net-(D1-A)*%
X133059000Y-100165000D03*
%TD*%
D19*
%TO.N,VBUS*%
X130937000Y-92583000D03*
X129921000Y-92583000D03*
X131953000Y-92583000D03*
X132969000Y-92583000D03*
%TO.N,Net-(D1-A)*%
X136400000Y-94700000D03*
D20*
X124797122Y-94952122D03*
D19*
%TO.N,+VSW*%
X136525000Y-98933000D03*
X170180000Y-81169000D03*
X135382000Y-101219000D03*
X167894000Y-85741000D03*
X167894000Y-82312000D03*
X167894000Y-84598000D03*
X138811000Y-100076000D03*
X167894000Y-81169000D03*
X137668000Y-100076000D03*
X136525000Y-96647000D03*
X167894000Y-90313000D03*
X136525000Y-97790000D03*
X141605000Y-87122000D03*
X167894000Y-89170000D03*
X169037000Y-80026000D03*
X137668000Y-98933000D03*
X135382000Y-100076000D03*
X167894000Y-80026000D03*
X137668000Y-101219000D03*
X169037000Y-81169000D03*
X138811000Y-101219000D03*
X167894000Y-83455000D03*
X138800000Y-97800000D03*
X137668000Y-97790000D03*
X167894000Y-86884000D03*
X167894000Y-88027000D03*
X136525000Y-100076000D03*
X136525000Y-101219000D03*
X137668000Y-96647000D03*
X138811000Y-98933000D03*
%TO.N,GND*%
X143900000Y-98100000D03*
X121900000Y-92200000D03*
X166751000Y-97298000D03*
X119300000Y-86585000D03*
X167894000Y-93869000D03*
X138960000Y-93250000D03*
X159300000Y-95000000D03*
X142875000Y-91567000D03*
X151384000Y-85995000D03*
X140970000Y-100330000D03*
X141100000Y-91600000D03*
X162433000Y-85614000D03*
X140970000Y-99060000D03*
X119300000Y-88871000D03*
X157700000Y-87900000D03*
X118000000Y-91157000D03*
X167894000Y-97298000D03*
X118000000Y-90014000D03*
X156210000Y-80010000D03*
X165608000Y-97298000D03*
X158200000Y-95000000D03*
X119300000Y-90014000D03*
X169037000Y-103013000D03*
X167894000Y-100727000D03*
X167894000Y-101870000D03*
X128397000Y-94742000D03*
X122000000Y-86600000D03*
X143510000Y-80010000D03*
X142006000Y-90748000D03*
X142240000Y-80010000D03*
X119300000Y-92300000D03*
X161544000Y-87900000D03*
X167894000Y-98441000D03*
X157480000Y-80010000D03*
X163322000Y-95012000D03*
X169037000Y-101870000D03*
X167894000Y-103013000D03*
X164465000Y-97298000D03*
X118000000Y-86585000D03*
X118000000Y-87728000D03*
X156600000Y-87900000D03*
X167894000Y-92726000D03*
X129697000Y-97028000D03*
X166751000Y-95012000D03*
X167894000Y-99584000D03*
X141097000Y-89916000D03*
X119300000Y-87728000D03*
X144780000Y-80010000D03*
X129697000Y-94742000D03*
X141200000Y-96000000D03*
X167894000Y-95012000D03*
X154559000Y-95123000D03*
X117983000Y-83439000D03*
X154940000Y-80010000D03*
X128397000Y-95885000D03*
X142875000Y-89916000D03*
X167894000Y-96155000D03*
X125222000Y-90182500D03*
X161290000Y-80010000D03*
X161290000Y-85614000D03*
X129697000Y-95885000D03*
X118000000Y-88871000D03*
X128397000Y-97028000D03*
X119300000Y-91157000D03*
X161544000Y-90186000D03*
X162560000Y-80010000D03*
X150241000Y-85995000D03*
X165608000Y-95012000D03*
X118000000Y-92300000D03*
X164465000Y-95012000D03*
X125222000Y-88392000D03*
X170180000Y-101870000D03*
X163322000Y-97298000D03*
X125100000Y-92200000D03*
%TO.N,+3V3*%
X131445000Y-88900000D03*
X142400000Y-96800000D03*
%TO.N,Net-(J2-CC1)*%
X121539000Y-88773000D03*
X132905500Y-90614500D03*
%TO.N,Net-(J2-CC2)*%
X121920000Y-89916000D03*
X131445000Y-90043000D03*
%TO.N,Net-(U1-VBUS_FET_EN)*%
X140723000Y-94577000D03*
X155200000Y-92675500D03*
D20*
%TO.N,Net-(U1-FAULT)*%
X144653000Y-87630000D03*
D19*
%TO.N,Net-(SW1-B)*%
X160274000Y-91837000D03*
%TO.N,Net-(SW2-B)*%
X162687000Y-92726000D03*
X155200000Y-90500000D03*
%TO.N,Net-(R14-Pad1)*%
X156845000Y-94996000D03*
%TO.N,Net-(R18-Pad1)*%
X154432000Y-87773000D03*
%TO.N,Net-(U1-SAFE_PWR_EN)*%
X155200000Y-91600000D03*
D20*
%TO.N,Net-(U1-FLIP)*%
X143383000Y-86995000D03*
D19*
%TO.N,Net-(SW5-A)*%
X121158000Y-85344000D03*
X120523000Y-86614000D03*
X120525000Y-87886000D03*
%TO.N,Net-(U1-HPI_SCL)*%
X132334000Y-85852000D03*
%TO.N,Net-(U1-HPI_SDA)*%
X125095000Y-85217000D03*
D20*
X139688183Y-88188183D03*
D19*
%TO.N,Net-(D3-A)*%
X135509000Y-88138000D03*
X125176000Y-81580000D03*
%TD*%
%TA.AperFunction,Conductor*%
%TO.N,GND*%
G36*
X167467014Y-79020185D02*
G01*
X167512769Y-79072989D01*
X167522713Y-79142147D01*
X167493688Y-79205703D01*
X167450413Y-79237778D01*
X167445876Y-79239797D01*
X167441267Y-79241850D01*
X167441265Y-79241851D01*
X167288129Y-79353111D01*
X167161466Y-79493785D01*
X167066821Y-79657715D01*
X167066818Y-79657722D01*
X167008327Y-79837740D01*
X167008326Y-79837744D01*
X166988540Y-80026000D01*
X167008326Y-80214256D01*
X167008327Y-80214259D01*
X167066818Y-80394277D01*
X167066820Y-80394281D01*
X167066821Y-80394284D01*
X167084235Y-80424446D01*
X167148352Y-80535501D01*
X167164824Y-80603401D01*
X167148352Y-80659499D01*
X167066820Y-80800718D01*
X167066818Y-80800722D01*
X167021817Y-80939223D01*
X167008326Y-80980744D01*
X166988540Y-81169000D01*
X167008326Y-81357256D01*
X167008327Y-81357259D01*
X167066818Y-81537277D01*
X167066820Y-81537281D01*
X167066821Y-81537284D01*
X167107059Y-81606979D01*
X167148352Y-81678501D01*
X167164824Y-81746401D01*
X167148352Y-81802499D01*
X167066820Y-81943718D01*
X167066818Y-81943722D01*
X167008327Y-82123740D01*
X167008326Y-82123744D01*
X166988540Y-82312000D01*
X167008326Y-82500256D01*
X167008327Y-82500259D01*
X167066818Y-82680277D01*
X167066820Y-82680281D01*
X167066821Y-82680284D01*
X167093743Y-82726914D01*
X167148352Y-82821501D01*
X167164824Y-82889401D01*
X167148352Y-82945499D01*
X167066820Y-83086718D01*
X167066818Y-83086722D01*
X167011636Y-83256557D01*
X167008326Y-83266744D01*
X166988540Y-83455000D01*
X167008326Y-83643256D01*
X167008327Y-83643259D01*
X167066818Y-83823277D01*
X167066820Y-83823281D01*
X167066821Y-83823284D01*
X167099566Y-83880000D01*
X167148352Y-83964501D01*
X167164824Y-84032401D01*
X167148352Y-84088499D01*
X167066820Y-84229718D01*
X167066818Y-84229722D01*
X167013514Y-84393776D01*
X167008326Y-84409744D01*
X166988540Y-84598000D01*
X167008326Y-84786256D01*
X167008327Y-84786259D01*
X167066818Y-84966277D01*
X167066820Y-84966281D01*
X167066821Y-84966284D01*
X167086287Y-85000000D01*
X167148352Y-85107501D01*
X167164824Y-85175401D01*
X167148352Y-85231499D01*
X167113460Y-85291934D01*
X167075681Y-85357371D01*
X167066820Y-85372718D01*
X167066818Y-85372722D01*
X167008327Y-85552740D01*
X167008326Y-85552744D01*
X166988540Y-85741000D01*
X167008326Y-85929256D01*
X167008327Y-85929259D01*
X167066818Y-86109277D01*
X167066820Y-86109281D01*
X167066821Y-86109284D01*
X167108613Y-86181670D01*
X167148352Y-86250501D01*
X167164824Y-86318401D01*
X167148352Y-86374499D01*
X167066820Y-86515718D01*
X167066818Y-86515722D01*
X167021432Y-86655408D01*
X167008326Y-86695744D01*
X166988540Y-86884000D01*
X167008326Y-87072256D01*
X167008327Y-87072259D01*
X167066818Y-87252277D01*
X167066820Y-87252281D01*
X167066821Y-87252284D01*
X167089406Y-87291402D01*
X167148352Y-87393501D01*
X167164824Y-87461401D01*
X167148352Y-87517499D01*
X167066820Y-87658718D01*
X167066818Y-87658722D01*
X167008327Y-87838740D01*
X167008326Y-87838744D01*
X166988540Y-88027000D01*
X167008326Y-88215256D01*
X167008327Y-88215259D01*
X167066818Y-88395277D01*
X167066820Y-88395281D01*
X167066821Y-88395284D01*
X167080060Y-88418214D01*
X167148352Y-88536501D01*
X167164824Y-88604401D01*
X167148352Y-88660499D01*
X167066820Y-88801718D01*
X167066818Y-88801722D01*
X167014982Y-88961259D01*
X167008326Y-88981744D01*
X166988540Y-89170000D01*
X167008326Y-89358256D01*
X167008327Y-89358259D01*
X167066818Y-89538277D01*
X167066820Y-89538281D01*
X167066821Y-89538284D01*
X167102164Y-89599500D01*
X167148352Y-89679501D01*
X167164824Y-89747401D01*
X167148352Y-89803499D01*
X167066820Y-89944718D01*
X167066818Y-89944722D01*
X167014983Y-90104256D01*
X167008326Y-90124744D01*
X166988540Y-90313000D01*
X167008326Y-90501256D01*
X167008327Y-90501259D01*
X167066818Y-90681277D01*
X167066821Y-90681284D01*
X167161467Y-90845216D01*
X167217595Y-90907552D01*
X167288129Y-90985888D01*
X167441265Y-91097148D01*
X167441270Y-91097151D01*
X167614192Y-91174142D01*
X167614197Y-91174144D01*
X167799354Y-91213500D01*
X167799355Y-91213500D01*
X167988644Y-91213500D01*
X167988646Y-91213500D01*
X168173803Y-91174144D01*
X168346730Y-91097151D01*
X168499871Y-90985888D01*
X168626533Y-90845216D01*
X168721179Y-90681284D01*
X168779674Y-90501256D01*
X168799460Y-90313000D01*
X168799460Y-90312997D01*
X168799460Y-90306502D01*
X168800709Y-90306502D01*
X168812048Y-90244480D01*
X168859778Y-90193455D01*
X168927518Y-90176334D01*
X168993760Y-90198554D01*
X168997094Y-90200964D01*
X169067665Y-90253793D01*
X169067668Y-90253795D01*
X169067671Y-90253797D01*
X169202517Y-90304091D01*
X169202516Y-90304091D01*
X169209444Y-90304835D01*
X169262127Y-90310500D01*
X171057872Y-90310499D01*
X171117483Y-90304091D01*
X171252331Y-90253796D01*
X171367546Y-90167546D01*
X171453796Y-90052331D01*
X171504091Y-89917483D01*
X171510500Y-89857873D01*
X171510499Y-88062128D01*
X171504091Y-88002517D01*
X171498993Y-87988849D01*
X171453797Y-87867671D01*
X171453793Y-87867664D01*
X171367547Y-87752455D01*
X171367544Y-87752452D01*
X171252335Y-87666206D01*
X171252328Y-87666202D01*
X171120917Y-87617189D01*
X171064983Y-87575318D01*
X171040566Y-87509853D01*
X171055418Y-87441580D01*
X171076563Y-87413332D01*
X171198495Y-87291401D01*
X171334035Y-87097830D01*
X171433903Y-86883663D01*
X171495063Y-86655408D01*
X171515659Y-86420000D01*
X171495063Y-86184592D01*
X171433903Y-85956337D01*
X171334035Y-85742171D01*
X171319374Y-85721232D01*
X171198494Y-85548597D01*
X171031402Y-85381506D01*
X171031396Y-85381501D01*
X170845842Y-85251575D01*
X170802217Y-85196998D01*
X170795023Y-85127500D01*
X170826546Y-85065145D01*
X170845842Y-85048425D01*
X170963151Y-84966284D01*
X171031401Y-84918495D01*
X171198495Y-84751401D01*
X171334035Y-84557830D01*
X171433903Y-84343663D01*
X171495063Y-84115408D01*
X171515659Y-83880000D01*
X171495063Y-83644592D01*
X171445162Y-83458356D01*
X171433905Y-83416344D01*
X171433904Y-83416343D01*
X171433903Y-83416337D01*
X171334035Y-83202171D01*
X171325531Y-83190025D01*
X171198494Y-83008597D01*
X171031402Y-82841506D01*
X171031395Y-82841501D01*
X170837834Y-82705967D01*
X170837830Y-82705965D01*
X170782757Y-82680284D01*
X170623663Y-82606097D01*
X170623659Y-82606096D01*
X170623655Y-82606094D01*
X170395413Y-82544938D01*
X170395403Y-82544936D01*
X170160001Y-82524341D01*
X170159999Y-82524341D01*
X169924596Y-82544936D01*
X169924586Y-82544938D01*
X169696344Y-82606094D01*
X169696335Y-82606098D01*
X169482171Y-82705964D01*
X169482169Y-82705965D01*
X169288597Y-82841505D01*
X169121505Y-83008597D01*
X168985965Y-83202169D01*
X168985962Y-83202174D01*
X168985055Y-83204121D01*
X168984427Y-83204833D01*
X168983257Y-83206861D01*
X168982849Y-83206625D01*
X168938878Y-83256557D01*
X168871682Y-83275703D01*
X168804803Y-83255481D01*
X168759473Y-83202312D01*
X168754746Y-83190025D01*
X168721181Y-83086721D01*
X168721179Y-83086718D01*
X168721179Y-83086716D01*
X168639647Y-82945499D01*
X168623175Y-82877600D01*
X168639648Y-82821500D01*
X168653583Y-82797364D01*
X168721179Y-82680284D01*
X168779674Y-82500256D01*
X168799460Y-82312000D01*
X168787964Y-82202624D01*
X168800533Y-82133897D01*
X168848265Y-82082873D01*
X168916006Y-82065755D01*
X168937054Y-82068373D01*
X168942354Y-82069500D01*
X168942360Y-82069500D01*
X169131644Y-82069500D01*
X169131646Y-82069500D01*
X169316803Y-82030144D01*
X169489730Y-81953151D01*
X169535614Y-81919813D01*
X169601421Y-81896334D01*
X169669475Y-81912159D01*
X169681386Y-81919814D01*
X169727271Y-81953152D01*
X169900192Y-82030142D01*
X169900197Y-82030144D01*
X170085354Y-82069500D01*
X170085355Y-82069500D01*
X170274644Y-82069500D01*
X170274646Y-82069500D01*
X170459803Y-82030144D01*
X170632730Y-81953151D01*
X170785871Y-81841888D01*
X170912533Y-81701216D01*
X171007179Y-81537284D01*
X171065674Y-81357256D01*
X171085460Y-81169000D01*
X171065674Y-80980744D01*
X171007179Y-80800716D01*
X170912533Y-80636784D01*
X170785871Y-80496112D01*
X170785870Y-80496111D01*
X170632734Y-80384851D01*
X170632729Y-80384848D01*
X170459807Y-80307857D01*
X170459802Y-80307855D01*
X170314001Y-80276865D01*
X170274646Y-80268500D01*
X170085354Y-80268500D01*
X170080061Y-80269624D01*
X170010397Y-80264307D01*
X169954664Y-80222169D01*
X169930560Y-80156589D01*
X169930963Y-80135381D01*
X169942460Y-80026000D01*
X169922674Y-79837744D01*
X169864179Y-79657716D01*
X169769533Y-79493784D01*
X169642871Y-79353112D01*
X169569408Y-79299738D01*
X169526744Y-79244409D01*
X169520765Y-79174795D01*
X169553371Y-79113001D01*
X169614210Y-79078643D01*
X169674386Y-79079645D01*
X169796693Y-79112418D01*
X169889122Y-79139046D01*
X169951724Y-79157082D01*
X169956759Y-79158769D01*
X170106183Y-79216127D01*
X170254007Y-79277358D01*
X170258412Y-79279388D01*
X170298352Y-79299739D01*
X170401921Y-79352511D01*
X170477428Y-79394241D01*
X170541480Y-79429641D01*
X170545215Y-79431882D01*
X170605961Y-79471331D01*
X170680872Y-79519980D01*
X170768357Y-79582053D01*
X170810764Y-79612142D01*
X170813886Y-79614510D01*
X170938748Y-79715621D01*
X170941034Y-79717567D01*
X171058721Y-79822738D01*
X171061248Y-79825128D01*
X171174870Y-79938750D01*
X171177260Y-79941277D01*
X171282431Y-80058964D01*
X171284383Y-80061258D01*
X171375324Y-80173561D01*
X171385480Y-80186102D01*
X171387862Y-80189243D01*
X171480019Y-80319127D01*
X171522702Y-80384851D01*
X171568106Y-80454767D01*
X171570364Y-80458531D01*
X171647488Y-80598078D01*
X171720604Y-80741575D01*
X171722643Y-80745997D01*
X171783877Y-80893829D01*
X171841221Y-81043217D01*
X171842916Y-81048273D01*
X171887579Y-81203297D01*
X171928541Y-81356171D01*
X171929778Y-81361835D01*
X171957394Y-81524369D01*
X171981530Y-81676758D01*
X171982196Y-81682985D01*
X171992509Y-81866617D01*
X171999415Y-81998377D01*
X171999500Y-82001623D01*
X171999500Y-100998376D01*
X171999415Y-101001622D01*
X171992509Y-101133382D01*
X171982196Y-101317013D01*
X171981530Y-101323240D01*
X171957394Y-101475630D01*
X171929778Y-101638163D01*
X171928541Y-101643827D01*
X171887579Y-101796702D01*
X171842916Y-101951725D01*
X171841221Y-101956781D01*
X171783877Y-102106170D01*
X171722643Y-102254001D01*
X171720604Y-102258423D01*
X171647488Y-102401921D01*
X171570364Y-102541467D01*
X171568097Y-102545246D01*
X171480019Y-102680872D01*
X171387862Y-102810755D01*
X171385480Y-102813896D01*
X171284385Y-102938738D01*
X171282431Y-102941034D01*
X171177260Y-103058721D01*
X171174870Y-103061248D01*
X171061248Y-103174870D01*
X171058721Y-103177260D01*
X170941034Y-103282431D01*
X170938738Y-103284385D01*
X170813896Y-103385480D01*
X170810755Y-103387862D01*
X170680872Y-103480019D01*
X170545246Y-103568097D01*
X170541467Y-103570364D01*
X170401921Y-103647488D01*
X170258423Y-103720604D01*
X170254001Y-103722643D01*
X170106170Y-103783877D01*
X169956781Y-103841221D01*
X169951725Y-103842916D01*
X169796702Y-103887579D01*
X169643827Y-103928541D01*
X169638163Y-103929778D01*
X169475630Y-103957394D01*
X169323240Y-103981530D01*
X169317013Y-103982196D01*
X169133382Y-103992509D01*
X169001622Y-103999415D01*
X168998376Y-103999500D01*
X142002710Y-103999500D01*
X141997303Y-103999264D01*
X141995015Y-103999063D01*
X141954554Y-103995523D01*
X141828238Y-103983082D01*
X141808299Y-103979454D01*
X141741669Y-103961601D01*
X141648435Y-103933319D01*
X141632027Y-103927040D01*
X141578837Y-103902238D01*
X141564618Y-103895607D01*
X141561605Y-103894101D01*
X141477671Y-103849236D01*
X141471331Y-103845341D01*
X141405170Y-103799015D01*
X141401398Y-103796154D01*
X141329190Y-103736895D01*
X141324688Y-103732815D01*
X141267182Y-103675309D01*
X141263103Y-103670808D01*
X141203844Y-103598600D01*
X141200983Y-103594828D01*
X141154657Y-103528667D01*
X141150762Y-103522327D01*
X141125982Y-103475969D01*
X141105888Y-103438375D01*
X141104406Y-103435411D01*
X141072958Y-103367971D01*
X141066682Y-103351570D01*
X141038403Y-103258349D01*
X141020541Y-103191685D01*
X141016918Y-103171771D01*
X141004482Y-103045519D01*
X141000735Y-103002695D01*
X141000500Y-102997293D01*
X141000500Y-102912472D01*
X141000500Y-102912468D01*
X140970101Y-102740062D01*
X140910225Y-102575555D01*
X140822692Y-102423945D01*
X140822691Y-102423943D01*
X140822690Y-102423942D01*
X140710163Y-102289836D01*
X140576057Y-102177309D01*
X140424446Y-102089775D01*
X140259937Y-102029898D01*
X140087534Y-101999500D01*
X140087532Y-101999500D01*
X140000099Y-101999500D01*
X139598485Y-101999500D01*
X139531446Y-101979815D01*
X139485691Y-101927011D01*
X139475747Y-101857853D01*
X139504772Y-101794297D01*
X139506268Y-101792602D01*
X139543533Y-101751216D01*
X139638179Y-101587284D01*
X139696674Y-101407256D01*
X139716460Y-101219000D01*
X139696674Y-101030744D01*
X139638179Y-100850716D01*
X139556647Y-100709499D01*
X139540175Y-100641600D01*
X139556648Y-100585500D01*
X139577363Y-100549620D01*
X139638179Y-100444284D01*
X139666355Y-100357567D01*
X141663000Y-100357567D01*
X141677583Y-100510289D01*
X141677584Y-100510296D01*
X141677585Y-100510300D01*
X141735263Y-100706734D01*
X141809494Y-100850722D01*
X141829074Y-100888703D01*
X141919853Y-101004139D01*
X141955628Y-101049630D01*
X142110351Y-101183697D01*
X142287650Y-101286061D01*
X142481117Y-101353021D01*
X142683758Y-101382155D01*
X142683759Y-101382156D01*
X142683759Y-101382155D01*
X142683760Y-101382156D01*
X142888255Y-101372415D01*
X143087212Y-101324149D01*
X143087219Y-101324146D01*
X143273428Y-101239107D01*
X143273431Y-101239105D01*
X143273438Y-101239102D01*
X143440204Y-101120349D01*
X143581482Y-100972181D01*
X143692166Y-100799953D01*
X143743039Y-100672875D01*
X143786229Y-100617957D01*
X143852255Y-100595104D01*
X143920156Y-100611577D01*
X143945837Y-100631283D01*
X144020378Y-100705824D01*
X144020384Y-100705829D01*
X144201333Y-100832531D01*
X144201335Y-100832532D01*
X144201338Y-100832534D01*
X144401550Y-100925894D01*
X144614932Y-100983070D01*
X144772123Y-100996822D01*
X144834998Y-101002323D01*
X144835000Y-101002323D01*
X144835002Y-101002323D01*
X144890017Y-100997509D01*
X145055068Y-100983070D01*
X145268450Y-100925894D01*
X145468662Y-100832534D01*
X145649620Y-100705826D01*
X145747319Y-100608127D01*
X145808642Y-100574642D01*
X145878334Y-100579626D01*
X145922681Y-100608127D01*
X146020378Y-100705824D01*
X146020384Y-100705829D01*
X146201333Y-100832531D01*
X146201335Y-100832532D01*
X146201338Y-100832534D01*
X146401550Y-100925894D01*
X146614932Y-100983070D01*
X146772123Y-100996822D01*
X146834998Y-101002323D01*
X146835000Y-101002323D01*
X146835002Y-101002323D01*
X146890017Y-100997509D01*
X147055068Y-100983070D01*
X147268450Y-100925894D01*
X147468662Y-100832534D01*
X147649620Y-100705826D01*
X147747319Y-100608127D01*
X147808642Y-100574642D01*
X147878334Y-100579626D01*
X147922681Y-100608127D01*
X148020378Y-100705824D01*
X148020384Y-100705829D01*
X148201333Y-100832531D01*
X148201335Y-100832532D01*
X148201338Y-100832534D01*
X148401550Y-100925894D01*
X148614932Y-100983070D01*
X148772123Y-100996822D01*
X148834998Y-101002323D01*
X148835000Y-101002323D01*
X148835002Y-101002323D01*
X148890017Y-100997509D01*
X149055068Y-100983070D01*
X149268450Y-100925894D01*
X149468662Y-100832534D01*
X149649620Y-100705826D01*
X149747319Y-100608127D01*
X149808642Y-100574642D01*
X149878334Y-100579626D01*
X149922681Y-100608127D01*
X150020378Y-100705824D01*
X150020384Y-100705829D01*
X150201333Y-100832531D01*
X150201335Y-100832532D01*
X150201338Y-100832534D01*
X150401550Y-100925894D01*
X150614932Y-100983070D01*
X150772123Y-100996822D01*
X150834998Y-101002323D01*
X150835000Y-101002323D01*
X150835002Y-101002323D01*
X150890017Y-100997509D01*
X151055068Y-100983070D01*
X151268450Y-100925894D01*
X151468662Y-100832534D01*
X151649620Y-100705826D01*
X151747319Y-100608127D01*
X151808642Y-100574642D01*
X151878334Y-100579626D01*
X151922681Y-100608127D01*
X152020378Y-100705824D01*
X152020384Y-100705829D01*
X152201333Y-100832531D01*
X152201335Y-100832532D01*
X152201338Y-100832534D01*
X152401550Y-100925894D01*
X152614932Y-100983070D01*
X152772123Y-100996822D01*
X152834998Y-101002323D01*
X152835000Y-101002323D01*
X152835002Y-101002323D01*
X152890017Y-100997509D01*
X153055068Y-100983070D01*
X153268450Y-100925894D01*
X153468662Y-100832534D01*
X153649620Y-100705826D01*
X153747319Y-100608127D01*
X153808642Y-100574642D01*
X153878334Y-100579626D01*
X153922681Y-100608127D01*
X154020378Y-100705824D01*
X154020384Y-100705829D01*
X154201333Y-100832531D01*
X154201335Y-100832532D01*
X154201338Y-100832534D01*
X154401550Y-100925894D01*
X154614932Y-100983070D01*
X154772123Y-100996822D01*
X154834998Y-101002323D01*
X154835000Y-101002323D01*
X154835002Y-101002323D01*
X154890017Y-100997509D01*
X155055068Y-100983070D01*
X155268450Y-100925894D01*
X155468662Y-100832534D01*
X155649620Y-100705826D01*
X155722443Y-100633003D01*
X155783766Y-100599518D01*
X155853458Y-100604502D01*
X155909391Y-100646374D01*
X155929101Y-100685748D01*
X155934995Y-100705824D01*
X155935263Y-100706734D01*
X155964302Y-100763062D01*
X156029074Y-100888703D01*
X156119853Y-101004139D01*
X156155628Y-101049630D01*
X156310351Y-101183697D01*
X156487650Y-101286061D01*
X156681117Y-101353021D01*
X156883758Y-101382155D01*
X156883759Y-101382156D01*
X156883759Y-101382155D01*
X156883760Y-101382156D01*
X157088255Y-101372415D01*
X157287212Y-101324149D01*
X157287219Y-101324146D01*
X157473428Y-101239107D01*
X157473431Y-101239105D01*
X157473438Y-101239102D01*
X157640204Y-101120349D01*
X157781482Y-100972181D01*
X157892166Y-100799953D01*
X157968255Y-100609891D01*
X158007000Y-100408864D01*
X158007000Y-99735000D01*
X158651186Y-99735000D01*
X158671601Y-99968346D01*
X158671603Y-99968356D01*
X158732225Y-100194603D01*
X158732227Y-100194607D01*
X158732228Y-100194611D01*
X158831223Y-100406907D01*
X158965579Y-100598787D01*
X159131213Y-100764421D01*
X159323093Y-100898777D01*
X159535389Y-100997772D01*
X159535395Y-100997773D01*
X159535396Y-100997774D01*
X159570041Y-101007057D01*
X159761649Y-101058398D01*
X159922638Y-101072483D01*
X159994999Y-101078814D01*
X159995000Y-101078814D01*
X159995001Y-101078814D01*
X160033891Y-101075411D01*
X160228351Y-101058398D01*
X160454611Y-100997772D01*
X160666907Y-100898777D01*
X160858787Y-100764421D01*
X161024421Y-100598787D01*
X161158777Y-100406907D01*
X161158777Y-100406905D01*
X161161882Y-100402472D01*
X161163323Y-100403481D01*
X161208172Y-100360712D01*
X161276778Y-100347484D01*
X161341645Y-100373447D01*
X161367294Y-100403048D01*
X161368118Y-100402472D01*
X161371222Y-100406905D01*
X161371223Y-100406907D01*
X161505579Y-100598787D01*
X161671213Y-100764421D01*
X161863093Y-100898777D01*
X162075389Y-100997772D01*
X162075395Y-100997773D01*
X162075396Y-100997774D01*
X162110041Y-101007057D01*
X162301649Y-101058398D01*
X162462638Y-101072483D01*
X162534999Y-101078814D01*
X162535000Y-101078814D01*
X162535001Y-101078814D01*
X162573891Y-101075411D01*
X162768351Y-101058398D01*
X162994611Y-100997772D01*
X163206907Y-100898777D01*
X163398787Y-100764421D01*
X163564421Y-100598787D01*
X163698777Y-100406907D01*
X163698777Y-100406905D01*
X163701882Y-100402472D01*
X163703323Y-100403481D01*
X163748172Y-100360712D01*
X163816778Y-100347484D01*
X163881645Y-100373447D01*
X163907294Y-100403048D01*
X163908118Y-100402472D01*
X163911222Y-100406905D01*
X163911223Y-100406907D01*
X164045579Y-100598787D01*
X164211213Y-100764421D01*
X164403093Y-100898777D01*
X164615389Y-100997772D01*
X164615395Y-100997773D01*
X164615396Y-100997774D01*
X164650041Y-101007057D01*
X164841649Y-101058398D01*
X165002638Y-101072483D01*
X165074999Y-101078814D01*
X165075000Y-101078814D01*
X165075001Y-101078814D01*
X165113891Y-101075411D01*
X165308351Y-101058398D01*
X165534611Y-100997772D01*
X165746907Y-100898777D01*
X165938787Y-100764421D01*
X166104421Y-100598787D01*
X166238777Y-100406907D01*
X166337772Y-100194611D01*
X166398398Y-99968351D01*
X166418814Y-99735000D01*
X166416109Y-99704088D01*
X166404072Y-99566500D01*
X166398398Y-99501649D01*
X166342183Y-99291851D01*
X166337774Y-99275396D01*
X166337773Y-99275395D01*
X166337772Y-99275389D01*
X166238777Y-99063093D01*
X166104421Y-98871213D01*
X165938787Y-98705579D01*
X165746907Y-98571223D01*
X165534611Y-98472228D01*
X165534607Y-98472227D01*
X165534603Y-98472225D01*
X165308356Y-98411603D01*
X165308346Y-98411601D01*
X165075001Y-98391186D01*
X165074999Y-98391186D01*
X164841653Y-98411601D01*
X164841643Y-98411603D01*
X164615396Y-98472225D01*
X164615389Y-98472227D01*
X164615389Y-98472228D01*
X164403093Y-98571223D01*
X164211213Y-98705579D01*
X164211211Y-98705580D01*
X164211208Y-98705583D01*
X164045583Y-98871208D01*
X164045580Y-98871211D01*
X164045579Y-98871213D01*
X163911223Y-99063093D01*
X163908118Y-99067528D01*
X163906680Y-99066521D01*
X163861810Y-99109297D01*
X163793202Y-99122513D01*
X163728340Y-99096540D01*
X163702702Y-99066953D01*
X163701882Y-99067528D01*
X163698777Y-99063093D01*
X163564421Y-98871213D01*
X163398787Y-98705579D01*
X163206907Y-98571223D01*
X162994611Y-98472228D01*
X162994607Y-98472227D01*
X162994603Y-98472225D01*
X162768356Y-98411603D01*
X162768346Y-98411601D01*
X162535001Y-98391186D01*
X162534999Y-98391186D01*
X162301653Y-98411601D01*
X162301643Y-98411603D01*
X162075396Y-98472225D01*
X162075389Y-98472227D01*
X162075389Y-98472228D01*
X161863093Y-98571223D01*
X161671213Y-98705579D01*
X161671211Y-98705580D01*
X161671208Y-98705583D01*
X161505583Y-98871208D01*
X161505580Y-98871211D01*
X161505579Y-98871213D01*
X161371223Y-99063093D01*
X161368118Y-99067528D01*
X161366680Y-99066521D01*
X161321810Y-99109297D01*
X161253202Y-99122513D01*
X161188340Y-99096540D01*
X161162702Y-99066953D01*
X161161882Y-99067528D01*
X161158777Y-99063093D01*
X161024421Y-98871213D01*
X160858787Y-98705579D01*
X160666907Y-98571223D01*
X160454611Y-98472228D01*
X160454607Y-98472227D01*
X160454603Y-98472225D01*
X160228356Y-98411603D01*
X160228346Y-98411601D01*
X159995001Y-98391186D01*
X159994999Y-98391186D01*
X159761653Y-98411601D01*
X159761643Y-98411603D01*
X159535396Y-98472225D01*
X159535389Y-98472227D01*
X159535389Y-98472228D01*
X159323093Y-98571223D01*
X159131213Y-98705579D01*
X159131211Y-98705580D01*
X159131208Y-98705583D01*
X158965583Y-98871208D01*
X158965580Y-98871211D01*
X158965579Y-98871213D01*
X158831223Y-99063093D01*
X158760455Y-99214857D01*
X158732229Y-99275387D01*
X158732225Y-99275396D01*
X158671603Y-99501643D01*
X158671601Y-99501653D01*
X158651186Y-99734999D01*
X158651186Y-99735000D01*
X158007000Y-99735000D01*
X158007000Y-99112437D01*
X158006700Y-99109297D01*
X157992416Y-98959710D01*
X157992415Y-98959709D01*
X157992415Y-98959700D01*
X157934737Y-98763266D01*
X157840926Y-98581297D01*
X157714372Y-98420370D01*
X157559649Y-98286303D01*
X157382350Y-98183939D01*
X157382344Y-98183936D01*
X157382342Y-98183936D01*
X157188884Y-98116979D01*
X156986242Y-98087844D01*
X156986240Y-98087843D01*
X156781747Y-98097584D01*
X156582784Y-98145852D01*
X156582780Y-98145853D01*
X156396571Y-98230892D01*
X156396559Y-98230899D01*
X156229796Y-98349650D01*
X156229793Y-98349653D01*
X156088517Y-98497819D01*
X155977833Y-98670048D01*
X155926960Y-98797122D01*
X155883770Y-98852043D01*
X155817743Y-98874895D01*
X155749842Y-98858422D01*
X155724162Y-98838716D01*
X155649621Y-98764175D01*
X155649615Y-98764170D01*
X155468666Y-98637468D01*
X155468662Y-98637466D01*
X155468660Y-98637465D01*
X155268450Y-98544106D01*
X155268447Y-98544105D01*
X155268445Y-98544104D01*
X155055070Y-98486930D01*
X155055062Y-98486929D01*
X154835002Y-98467677D01*
X154834998Y-98467677D01*
X154614937Y-98486929D01*
X154614929Y-98486930D01*
X154401554Y-98544104D01*
X154401548Y-98544107D01*
X154201340Y-98637465D01*
X154201338Y-98637466D01*
X154020381Y-98764172D01*
X153922680Y-98861873D01*
X153861356Y-98895357D01*
X153791665Y-98890373D01*
X153747318Y-98861872D01*
X153649621Y-98764175D01*
X153649615Y-98764170D01*
X153468666Y-98637468D01*
X153468662Y-98637466D01*
X153468660Y-98637465D01*
X153268450Y-98544106D01*
X153268447Y-98544105D01*
X153268445Y-98544104D01*
X153055070Y-98486930D01*
X153055062Y-98486929D01*
X152835002Y-98467677D01*
X152834998Y-98467677D01*
X152614937Y-98486929D01*
X152614929Y-98486930D01*
X152401554Y-98544104D01*
X152401548Y-98544107D01*
X152201340Y-98637465D01*
X152201338Y-98637466D01*
X152020381Y-98764172D01*
X151922680Y-98861873D01*
X151861356Y-98895357D01*
X151791665Y-98890373D01*
X151747318Y-98861872D01*
X151649621Y-98764175D01*
X151649615Y-98764170D01*
X151468666Y-98637468D01*
X151468662Y-98637466D01*
X151468660Y-98637465D01*
X151268450Y-98544106D01*
X151268447Y-98544105D01*
X151268445Y-98544104D01*
X151055070Y-98486930D01*
X151055062Y-98486929D01*
X150835002Y-98467677D01*
X150834998Y-98467677D01*
X150614937Y-98486929D01*
X150614929Y-98486930D01*
X150401554Y-98544104D01*
X150401548Y-98544107D01*
X150201340Y-98637465D01*
X150201338Y-98637466D01*
X150020381Y-98764172D01*
X149922680Y-98861873D01*
X149861356Y-98895357D01*
X149791665Y-98890373D01*
X149747318Y-98861872D01*
X149649621Y-98764175D01*
X149649615Y-98764170D01*
X149468666Y-98637468D01*
X149468662Y-98637466D01*
X149468660Y-98637465D01*
X149268450Y-98544106D01*
X149268447Y-98544105D01*
X149268445Y-98544104D01*
X149055070Y-98486930D01*
X149055062Y-98486929D01*
X148835002Y-98467677D01*
X148834998Y-98467677D01*
X148614937Y-98486929D01*
X148614929Y-98486930D01*
X148401554Y-98544104D01*
X148401548Y-98544107D01*
X148201340Y-98637465D01*
X148201338Y-98637466D01*
X148020381Y-98764172D01*
X147922680Y-98861873D01*
X147861356Y-98895357D01*
X147791665Y-98890373D01*
X147747318Y-98861872D01*
X147649621Y-98764175D01*
X147649615Y-98764170D01*
X147468666Y-98637468D01*
X147468662Y-98637466D01*
X147468660Y-98637465D01*
X147268450Y-98544106D01*
X147268447Y-98544105D01*
X147268445Y-98544104D01*
X147055070Y-98486930D01*
X147055062Y-98486929D01*
X146835002Y-98467677D01*
X146834998Y-98467677D01*
X146614937Y-98486929D01*
X146614929Y-98486930D01*
X146401554Y-98544104D01*
X146401548Y-98544107D01*
X146201340Y-98637465D01*
X146201338Y-98637466D01*
X146020381Y-98764172D01*
X145922680Y-98861873D01*
X145861356Y-98895357D01*
X145791665Y-98890373D01*
X145747318Y-98861872D01*
X145649621Y-98764175D01*
X145649615Y-98764170D01*
X145468666Y-98637468D01*
X145468662Y-98637466D01*
X145468660Y-98637465D01*
X145268450Y-98544106D01*
X145268447Y-98544105D01*
X145268445Y-98544104D01*
X145055070Y-98486930D01*
X145055062Y-98486929D01*
X144835002Y-98467677D01*
X144834998Y-98467677D01*
X144614937Y-98486929D01*
X144614929Y-98486930D01*
X144401554Y-98544104D01*
X144401548Y-98544107D01*
X144201340Y-98637465D01*
X144201338Y-98637466D01*
X144020381Y-98764172D01*
X143947556Y-98836997D01*
X143886232Y-98870481D01*
X143816541Y-98865496D01*
X143760607Y-98823625D01*
X143740899Y-98784252D01*
X143734737Y-98763266D01*
X143640926Y-98581297D01*
X143514372Y-98420370D01*
X143359649Y-98286303D01*
X143182350Y-98183939D01*
X143182344Y-98183936D01*
X143182342Y-98183936D01*
X142988884Y-98116979D01*
X142786242Y-98087844D01*
X142786240Y-98087843D01*
X142581747Y-98097584D01*
X142382784Y-98145852D01*
X142382780Y-98145853D01*
X142196571Y-98230892D01*
X142196559Y-98230899D01*
X142029796Y-98349650D01*
X142029793Y-98349653D01*
X141888517Y-98497819D01*
X141777834Y-98670046D01*
X141701744Y-98860110D01*
X141663000Y-99061135D01*
X141663000Y-100357567D01*
X139666355Y-100357567D01*
X139696674Y-100264256D01*
X139716460Y-100076000D01*
X139696674Y-99887744D01*
X139638179Y-99707716D01*
X139556647Y-99566499D01*
X139540175Y-99498600D01*
X139556648Y-99442500D01*
X139638179Y-99301284D01*
X139696674Y-99121256D01*
X139716460Y-98933000D01*
X139696674Y-98744744D01*
X139638179Y-98564716D01*
X139638176Y-98564710D01*
X139554035Y-98418972D01*
X139537562Y-98351072D01*
X139554035Y-98294973D01*
X139559041Y-98286303D01*
X139627179Y-98168284D01*
X139685674Y-97988256D01*
X139705460Y-97800000D01*
X139685674Y-97611744D01*
X139627179Y-97431716D01*
X139532533Y-97267784D01*
X139405871Y-97127112D01*
X139405870Y-97127111D01*
X139252734Y-97015851D01*
X139252729Y-97015848D01*
X139079807Y-96938857D01*
X139079802Y-96938855D01*
X138897840Y-96900179D01*
X138894646Y-96899500D01*
X138705354Y-96899500D01*
X138705353Y-96899500D01*
X138698897Y-96900179D01*
X138698623Y-96897578D01*
X138640556Y-96893138D01*
X138584829Y-96850992D01*
X138566096Y-96800000D01*
X141494540Y-96800000D01*
X141514326Y-96988256D01*
X141514327Y-96988259D01*
X141572818Y-97168277D01*
X141572821Y-97168284D01*
X141667467Y-97332216D01*
X141757063Y-97431722D01*
X141794129Y-97472888D01*
X141947265Y-97584148D01*
X141947270Y-97584151D01*
X142120192Y-97661142D01*
X142120197Y-97661144D01*
X142305354Y-97700500D01*
X142305355Y-97700500D01*
X142494644Y-97700500D01*
X142494646Y-97700500D01*
X142679803Y-97661144D01*
X142852730Y-97584151D01*
X143005871Y-97472888D01*
X143132533Y-97332216D01*
X143227179Y-97168284D01*
X143285674Y-96988256D01*
X143305460Y-96800000D01*
X143285674Y-96611744D01*
X143227179Y-96431716D01*
X143132533Y-96267784D01*
X143005871Y-96127112D01*
X143005870Y-96127111D01*
X142852734Y-96015851D01*
X142852729Y-96015848D01*
X142679807Y-95938857D01*
X142679802Y-95938855D01*
X142534001Y-95907865D01*
X142494646Y-95899500D01*
X142305354Y-95899500D01*
X142272897Y-95906398D01*
X142120197Y-95938855D01*
X142120192Y-95938857D01*
X141947270Y-96015848D01*
X141947265Y-96015851D01*
X141794129Y-96127111D01*
X141667466Y-96267785D01*
X141572821Y-96431715D01*
X141572818Y-96431722D01*
X141514327Y-96611740D01*
X141514326Y-96611744D01*
X141494540Y-96800000D01*
X138566096Y-96800000D01*
X138560735Y-96785408D01*
X138561139Y-96764222D01*
X138573460Y-96647000D01*
X138553674Y-96458744D01*
X138495179Y-96278716D01*
X138400533Y-96114784D01*
X138273871Y-95974112D01*
X138239500Y-95949140D01*
X138120734Y-95862851D01*
X138120729Y-95862848D01*
X137947807Y-95785857D01*
X137947802Y-95785855D01*
X137802001Y-95754865D01*
X137762646Y-95746500D01*
X137573354Y-95746500D01*
X137540897Y-95753398D01*
X137388197Y-95785855D01*
X137388192Y-95785857D01*
X137215270Y-95862848D01*
X137215266Y-95862851D01*
X137169384Y-95896186D01*
X137103578Y-95919665D01*
X137035524Y-95903839D01*
X137023616Y-95896186D01*
X136977733Y-95862851D01*
X136977729Y-95862848D01*
X136804807Y-95785857D01*
X136804802Y-95785855D01*
X136751868Y-95774604D01*
X136690386Y-95741411D01*
X136656610Y-95680248D01*
X136661262Y-95610534D01*
X136702867Y-95554402D01*
X136727202Y-95540039D01*
X136852730Y-95484151D01*
X137005871Y-95372888D01*
X137132533Y-95232216D01*
X137227179Y-95068284D01*
X137285674Y-94888256D01*
X137305460Y-94700000D01*
X137292533Y-94577000D01*
X139817540Y-94577000D01*
X139837326Y-94765256D01*
X139837327Y-94765259D01*
X139895818Y-94945277D01*
X139895821Y-94945284D01*
X139990467Y-95109216D01*
X140101215Y-95232214D01*
X140117129Y-95249888D01*
X140270265Y-95361148D01*
X140270270Y-95361151D01*
X140443192Y-95438142D01*
X140443197Y-95438144D01*
X140628354Y-95477500D01*
X140628355Y-95477500D01*
X140817644Y-95477500D01*
X140817646Y-95477500D01*
X141002803Y-95438144D01*
X141175730Y-95361151D01*
X141328871Y-95249888D01*
X141455533Y-95109216D01*
X141520898Y-94996000D01*
X155939540Y-94996000D01*
X155959326Y-95184256D01*
X155959327Y-95184259D01*
X156017818Y-95364277D01*
X156017821Y-95364284D01*
X156112467Y-95528216D01*
X156186587Y-95610534D01*
X156239129Y-95668888D01*
X156392265Y-95780148D01*
X156392270Y-95780151D01*
X156565192Y-95857142D01*
X156565197Y-95857144D01*
X156750354Y-95896500D01*
X156750355Y-95896500D01*
X156939644Y-95896500D01*
X156939646Y-95896500D01*
X157124803Y-95857144D01*
X157297730Y-95780151D01*
X157450871Y-95668888D01*
X157577533Y-95528216D01*
X157672179Y-95364284D01*
X157730674Y-95184256D01*
X157750460Y-94996000D01*
X157730674Y-94807744D01*
X157672179Y-94627716D01*
X157577533Y-94463784D01*
X157450871Y-94323112D01*
X157441908Y-94316600D01*
X157297734Y-94211851D01*
X157297729Y-94211848D01*
X157124807Y-94134857D01*
X157124802Y-94134855D01*
X156968448Y-94101622D01*
X156939646Y-94095500D01*
X156750354Y-94095500D01*
X156721552Y-94101622D01*
X156565197Y-94134855D01*
X156565192Y-94134857D01*
X156392270Y-94211848D01*
X156392265Y-94211851D01*
X156239129Y-94323111D01*
X156112466Y-94463785D01*
X156017821Y-94627715D01*
X156017818Y-94627722D01*
X155959327Y-94807740D01*
X155959326Y-94807744D01*
X155939540Y-94996000D01*
X141520898Y-94996000D01*
X141550179Y-94945284D01*
X141608674Y-94765256D01*
X141628460Y-94577000D01*
X141608674Y-94388744D01*
X141550179Y-94208716D01*
X141455533Y-94044784D01*
X141328871Y-93904112D01*
X141328870Y-93904111D01*
X141175734Y-93792851D01*
X141175729Y-93792848D01*
X141002807Y-93715857D01*
X141002802Y-93715855D01*
X140857001Y-93684865D01*
X140817646Y-93676500D01*
X140628354Y-93676500D01*
X140595897Y-93683398D01*
X140443197Y-93715855D01*
X140443192Y-93715857D01*
X140270270Y-93792848D01*
X140270265Y-93792851D01*
X140117129Y-93904111D01*
X139990466Y-94044785D01*
X139895821Y-94208715D01*
X139895818Y-94208722D01*
X139837327Y-94388740D01*
X139837326Y-94388744D01*
X139817540Y-94577000D01*
X137292533Y-94577000D01*
X137285674Y-94511744D01*
X137227179Y-94331716D01*
X137132533Y-94167784D01*
X137005871Y-94027112D01*
X137005870Y-94027111D01*
X136852734Y-93915851D01*
X136852729Y-93915848D01*
X136679807Y-93838857D01*
X136679802Y-93838855D01*
X136534001Y-93807865D01*
X136494646Y-93799500D01*
X136305354Y-93799500D01*
X136272897Y-93806398D01*
X136120197Y-93838855D01*
X136120192Y-93838857D01*
X135947270Y-93915848D01*
X135947265Y-93915851D01*
X135794129Y-94027111D01*
X135667466Y-94167785D01*
X135572821Y-94331715D01*
X135572818Y-94331722D01*
X135527106Y-94472410D01*
X135514326Y-94511744D01*
X135494540Y-94700000D01*
X135514326Y-94888256D01*
X135514327Y-94888259D01*
X135572818Y-95068277D01*
X135572821Y-95068284D01*
X135667467Y-95232216D01*
X135783558Y-95361148D01*
X135794129Y-95372888D01*
X135947265Y-95484148D01*
X135947270Y-95484151D01*
X136120191Y-95561142D01*
X136120193Y-95561142D01*
X136120197Y-95561144D01*
X136173133Y-95572395D01*
X136234612Y-95605586D01*
X136268389Y-95666749D01*
X136263737Y-95736464D01*
X136222133Y-95792596D01*
X136197787Y-95806964D01*
X136072267Y-95862850D01*
X136072265Y-95862851D01*
X135919129Y-95974111D01*
X135792466Y-96114785D01*
X135697821Y-96278715D01*
X135697818Y-96278722D01*
X135648108Y-96431715D01*
X135639326Y-96458744D01*
X135619540Y-96647000D01*
X135639326Y-96835256D01*
X135639327Y-96835259D01*
X135697818Y-97015277D01*
X135697820Y-97015281D01*
X135697821Y-97015284D01*
X135745712Y-97098235D01*
X135779352Y-97156501D01*
X135795824Y-97224401D01*
X135779352Y-97280499D01*
X135697820Y-97421718D01*
X135697818Y-97421722D01*
X135645043Y-97584148D01*
X135639326Y-97601744D01*
X135619540Y-97790000D01*
X135639326Y-97978256D01*
X135639327Y-97978259D01*
X135697818Y-98158277D01*
X135697820Y-98158281D01*
X135697821Y-98158284D01*
X135712633Y-98183939D01*
X135779352Y-98299501D01*
X135795824Y-98367401D01*
X135779352Y-98423499D01*
X135736444Y-98497819D01*
X135697825Y-98564710D01*
X135697820Y-98564718D01*
X135697818Y-98564722D01*
X135650431Y-98710565D01*
X135639326Y-98744744D01*
X135625177Y-98879364D01*
X135619540Y-98933000D01*
X135631035Y-99042373D01*
X135618465Y-99111103D01*
X135570733Y-99162127D01*
X135502992Y-99179244D01*
X135481935Y-99176624D01*
X135476646Y-99175500D01*
X135287354Y-99175500D01*
X135269740Y-99179244D01*
X135102197Y-99214855D01*
X135102192Y-99214857D01*
X134929270Y-99291848D01*
X134929265Y-99291851D01*
X134776129Y-99403111D01*
X134649466Y-99543785D01*
X134554821Y-99707715D01*
X134554819Y-99707719D01*
X134535127Y-99768327D01*
X134495689Y-99826002D01*
X134431330Y-99853200D01*
X134362484Y-99841285D01*
X134311008Y-99794041D01*
X134297421Y-99762101D01*
X134285741Y-99718511D01*
X134285738Y-99718502D01*
X134279015Y-99704085D01*
X134189568Y-99512266D01*
X134059047Y-99325861D01*
X134059045Y-99325858D01*
X133898141Y-99164954D01*
X133711734Y-99034432D01*
X133711732Y-99034431D01*
X133505497Y-98938261D01*
X133505488Y-98938258D01*
X133285697Y-98879366D01*
X133285693Y-98879365D01*
X133285692Y-98879365D01*
X133285691Y-98879364D01*
X133285686Y-98879364D01*
X133059002Y-98859532D01*
X133058998Y-98859532D01*
X132832313Y-98879364D01*
X132832302Y-98879366D01*
X132612511Y-98938258D01*
X132612502Y-98938261D01*
X132406267Y-99034431D01*
X132406265Y-99034432D01*
X132219858Y-99164954D01*
X132058954Y-99325858D01*
X131928432Y-99512265D01*
X131928431Y-99512267D01*
X131832261Y-99718502D01*
X131832258Y-99718511D01*
X131773366Y-99938302D01*
X131773364Y-99938313D01*
X131753532Y-100164998D01*
X131753532Y-100165001D01*
X131773364Y-100391686D01*
X131773366Y-100391697D01*
X131832258Y-100611488D01*
X131832261Y-100611497D01*
X131928431Y-100817732D01*
X131928432Y-100817734D01*
X132058954Y-101004141D01*
X132219858Y-101165045D01*
X132219861Y-101165047D01*
X132406266Y-101295568D01*
X132612504Y-101391739D01*
X132832308Y-101450635D01*
X132994230Y-101464801D01*
X133058998Y-101470468D01*
X133059000Y-101470468D01*
X133059002Y-101470468D01*
X133115807Y-101465498D01*
X133285692Y-101450635D01*
X133505496Y-101391739D01*
X133711734Y-101295568D01*
X133898139Y-101165047D01*
X134059047Y-101004139D01*
X134189568Y-100817734D01*
X134285739Y-100611496D01*
X134324178Y-100468037D01*
X134360541Y-100408380D01*
X134423388Y-100377850D01*
X134492764Y-100386144D01*
X134546642Y-100430629D01*
X134551216Y-100438863D01*
X134551573Y-100438657D01*
X134554820Y-100444281D01*
X134554821Y-100444284D01*
X134598080Y-100519211D01*
X134636352Y-100585501D01*
X134652824Y-100653401D01*
X134636352Y-100709499D01*
X134554820Y-100850718D01*
X134554818Y-100850722D01*
X134502129Y-101012883D01*
X134496326Y-101030744D01*
X134476540Y-101219000D01*
X134496326Y-101407256D01*
X134496327Y-101407259D01*
X134554818Y-101587277D01*
X134554821Y-101587284D01*
X134649467Y-101751216D01*
X134686666Y-101792530D01*
X134716895Y-101855519D01*
X134708270Y-101924854D01*
X134663529Y-101978520D01*
X134596876Y-101999478D01*
X134594515Y-101999500D01*
X120001624Y-101999500D01*
X119998378Y-101999415D01*
X119866617Y-101992509D01*
X119682985Y-101982196D01*
X119676758Y-101981530D01*
X119524369Y-101957394D01*
X119361835Y-101929778D01*
X119356171Y-101928541D01*
X119203297Y-101887579D01*
X119048273Y-101842916D01*
X119043217Y-101841221D01*
X118893829Y-101783877D01*
X118745997Y-101722643D01*
X118741575Y-101720604D01*
X118598078Y-101647488D01*
X118458531Y-101570364D01*
X118454767Y-101568106D01*
X118401875Y-101533758D01*
X118319127Y-101480019D01*
X118189243Y-101387862D01*
X118186102Y-101385480D01*
X118146018Y-101353021D01*
X118061258Y-101284383D01*
X118058964Y-101282431D01*
X117941277Y-101177260D01*
X117938750Y-101174870D01*
X117825128Y-101061248D01*
X117822738Y-101058721D01*
X117822449Y-101058398D01*
X117755132Y-100983070D01*
X117717567Y-100941034D01*
X117715613Y-100938738D01*
X117705213Y-100925895D01*
X117614510Y-100813886D01*
X117612136Y-100810755D01*
X117519980Y-100680872D01*
X117487406Y-100630715D01*
X117431882Y-100545215D01*
X117429641Y-100541480D01*
X117389053Y-100468040D01*
X117352511Y-100401921D01*
X117286865Y-100273086D01*
X117279388Y-100258412D01*
X117277355Y-100254000D01*
X117240489Y-100164998D01*
X117216127Y-100106183D01*
X117158769Y-99956759D01*
X117157082Y-99951724D01*
X117128697Y-99853200D01*
X117112414Y-99796679D01*
X117091467Y-99718504D01*
X117071453Y-99643811D01*
X117070226Y-99638194D01*
X117042601Y-99475606D01*
X117018465Y-99323212D01*
X117017803Y-99317027D01*
X117007503Y-99133628D01*
X117000584Y-99001620D01*
X117000500Y-98998377D01*
X117000500Y-98000000D01*
X117694652Y-98000000D01*
X117713686Y-98351072D01*
X117714028Y-98357368D01*
X117714029Y-98357385D01*
X117771926Y-98710539D01*
X117771932Y-98710565D01*
X117867672Y-99055392D01*
X117867674Y-99055399D01*
X118000142Y-99387870D01*
X118000151Y-99387888D01*
X118167784Y-99704077D01*
X118167787Y-99704082D01*
X118167789Y-99704085D01*
X118346962Y-99968346D01*
X118368634Y-100000309D01*
X118368641Y-100000319D01*
X118555246Y-100220007D01*
X118600332Y-100273086D01*
X118860163Y-100519211D01*
X119145081Y-100735800D01*
X119451747Y-100920315D01*
X119451749Y-100920316D01*
X119451751Y-100920317D01*
X119451755Y-100920319D01*
X119731256Y-101049629D01*
X119776565Y-101070591D01*
X120115726Y-101184868D01*
X120465254Y-101261805D01*
X120821052Y-101300500D01*
X120821058Y-101300500D01*
X121178942Y-101300500D01*
X121178948Y-101300500D01*
X121534746Y-101261805D01*
X121884274Y-101184868D01*
X122223435Y-101070591D01*
X122548253Y-100920315D01*
X122854919Y-100735800D01*
X123139837Y-100519211D01*
X123399668Y-100273086D01*
X123631365Y-100000311D01*
X123832211Y-99704085D01*
X123904945Y-99566893D01*
X123953738Y-99516886D01*
X124021823Y-99501194D01*
X124087583Y-99524804D01*
X124130140Y-99580217D01*
X124138500Y-99624978D01*
X124138500Y-101012870D01*
X124138501Y-101012876D01*
X124144908Y-101072483D01*
X124195202Y-101207328D01*
X124195206Y-101207335D01*
X124281452Y-101322544D01*
X124281455Y-101322547D01*
X124396664Y-101408793D01*
X124396671Y-101408797D01*
X124531517Y-101459091D01*
X124531516Y-101459091D01*
X124538444Y-101459835D01*
X124591127Y-101465500D01*
X126286872Y-101465499D01*
X126346483Y-101459091D01*
X126481331Y-101408796D01*
X126596546Y-101322546D01*
X126682796Y-101207331D01*
X126733091Y-101072483D01*
X126739500Y-101012873D01*
X126739499Y-99317128D01*
X126733091Y-99257517D01*
X126717179Y-99214856D01*
X126682797Y-99122671D01*
X126682793Y-99122664D01*
X126596547Y-99007455D01*
X126596544Y-99007452D01*
X126481335Y-98921206D01*
X126481328Y-98921202D01*
X126346482Y-98870908D01*
X126346483Y-98870908D01*
X126286883Y-98864501D01*
X126286881Y-98864500D01*
X126286873Y-98864500D01*
X126286864Y-98864500D01*
X124591129Y-98864500D01*
X124591123Y-98864501D01*
X124531516Y-98870908D01*
X124396671Y-98921202D01*
X124388886Y-98925454D01*
X124387527Y-98922966D01*
X124335574Y-98942335D01*
X124267304Y-98927473D01*
X124217906Y-98878059D01*
X124203065Y-98809784D01*
X124207266Y-98785482D01*
X124228071Y-98710552D01*
X124277081Y-98411603D01*
X124285970Y-98357385D01*
X124285970Y-98357382D01*
X124285972Y-98357371D01*
X124305348Y-98000000D01*
X124304711Y-97988259D01*
X124293962Y-97790000D01*
X124285972Y-97642629D01*
X124279269Y-97601744D01*
X124228073Y-97289460D01*
X124228072Y-97289459D01*
X124228071Y-97289448D01*
X124182999Y-97127111D01*
X124132327Y-96944607D01*
X124132325Y-96944600D01*
X124130036Y-96938856D01*
X124060451Y-96764209D01*
X123999857Y-96612129D01*
X123999848Y-96612111D01*
X123999653Y-96611744D01*
X123904212Y-96431722D01*
X123832215Y-96295922D01*
X123832213Y-96295919D01*
X123832211Y-96295915D01*
X123631365Y-95999689D01*
X123631361Y-95999684D01*
X123631358Y-95999680D01*
X123399668Y-95726914D01*
X123139837Y-95480789D01*
X123139830Y-95480783D01*
X123139827Y-95480781D01*
X123072245Y-95429407D01*
X122854919Y-95264200D01*
X122548253Y-95079685D01*
X122548252Y-95079684D01*
X122548248Y-95079682D01*
X122548244Y-95079680D01*
X122223447Y-94929414D01*
X122223441Y-94929411D01*
X122223435Y-94929409D01*
X122053854Y-94872270D01*
X121884273Y-94815131D01*
X121534744Y-94738194D01*
X121178949Y-94699500D01*
X121178948Y-94699500D01*
X120821052Y-94699500D01*
X120821050Y-94699500D01*
X120465254Y-94738194D01*
X120454285Y-94740609D01*
X120384581Y-94735793D01*
X120328546Y-94694058D01*
X120303971Y-94628653D01*
X120318657Y-94560344D01*
X120348967Y-94523655D01*
X120411410Y-94472410D01*
X120542685Y-94312450D01*
X120640232Y-94129954D01*
X120700300Y-93931934D01*
X120720583Y-93726000D01*
X121809417Y-93726000D01*
X121829699Y-93931932D01*
X121829700Y-93931934D01*
X121889768Y-94129954D01*
X121987315Y-94312450D01*
X121987317Y-94312452D01*
X122118589Y-94472410D01*
X122181030Y-94523653D01*
X122278550Y-94603685D01*
X122461046Y-94701232D01*
X122659066Y-94761300D01*
X122659065Y-94761300D01*
X122697647Y-94765100D01*
X122813392Y-94776500D01*
X122813395Y-94776500D01*
X123516605Y-94776500D01*
X123516608Y-94776500D01*
X123670934Y-94761300D01*
X123792726Y-94724354D01*
X123862592Y-94723731D01*
X123921705Y-94760979D01*
X123951296Y-94824273D01*
X123952042Y-94855976D01*
X123941937Y-94952121D01*
X123960625Y-95129927D01*
X123960626Y-95129929D01*
X124015869Y-95299951D01*
X124015872Y-95299957D01*
X124105263Y-95454787D01*
X124131699Y-95484147D01*
X124224886Y-95587643D01*
X124224889Y-95587645D01*
X124224892Y-95587648D01*
X124369529Y-95692734D01*
X124532855Y-95765451D01*
X124707731Y-95802622D01*
X124707732Y-95802622D01*
X124886511Y-95802622D01*
X124886513Y-95802622D01*
X125061389Y-95765451D01*
X125224715Y-95692734D01*
X125369352Y-95587648D01*
X125488981Y-95454787D01*
X125578372Y-95299957D01*
X125633619Y-95129925D01*
X125652307Y-94952122D01*
X125633619Y-94774319D01*
X125585985Y-94627716D01*
X125578374Y-94604292D01*
X125578371Y-94604286D01*
X125578024Y-94603685D01*
X125488981Y-94449457D01*
X125434311Y-94388740D01*
X125369357Y-94316600D01*
X125369354Y-94316598D01*
X125369353Y-94316597D01*
X125369352Y-94316596D01*
X125224715Y-94211510D01*
X125061389Y-94138793D01*
X125061387Y-94138792D01*
X124932854Y-94111472D01*
X124886513Y-94101622D01*
X124707731Y-94101622D01*
X124636376Y-94116788D01*
X124566710Y-94111472D01*
X124510977Y-94069334D01*
X124486872Y-94003754D01*
X124491936Y-93959505D01*
X124500300Y-93931934D01*
X124520583Y-93726000D01*
X124500300Y-93520066D01*
X124440232Y-93322046D01*
X124342685Y-93139550D01*
X124290702Y-93076209D01*
X124211410Y-92979589D01*
X124093677Y-92882969D01*
X124051450Y-92848315D01*
X123868954Y-92750768D01*
X123670934Y-92690700D01*
X123670932Y-92690699D01*
X123670934Y-92690699D01*
X123551805Y-92678966D01*
X123516608Y-92675500D01*
X122813392Y-92675500D01*
X122775298Y-92679251D01*
X122659067Y-92690699D01*
X122461043Y-92750769D01*
X122422710Y-92771259D01*
X122278550Y-92848315D01*
X122278548Y-92848316D01*
X122278547Y-92848317D01*
X122118589Y-92979589D01*
X121987317Y-93139547D01*
X121889769Y-93322043D01*
X121829699Y-93520067D01*
X121809417Y-93726000D01*
X120720583Y-93726000D01*
X120700300Y-93520066D01*
X120640232Y-93322046D01*
X120542685Y-93139550D01*
X120490702Y-93076209D01*
X120411410Y-92979589D01*
X120293677Y-92882969D01*
X120251450Y-92848315D01*
X120068954Y-92750768D01*
X119870934Y-92690700D01*
X119870932Y-92690699D01*
X119870934Y-92690699D01*
X119751805Y-92678966D01*
X119716608Y-92675500D01*
X119013392Y-92675500D01*
X118975298Y-92679251D01*
X118859067Y-92690699D01*
X118661043Y-92750769D01*
X118622710Y-92771259D01*
X118478550Y-92848315D01*
X118478548Y-92848316D01*
X118478547Y-92848317D01*
X118318589Y-92979589D01*
X118187317Y-93139547D01*
X118089769Y-93322043D01*
X118029699Y-93520067D01*
X118009417Y-93726000D01*
X118029699Y-93931932D01*
X118029700Y-93931934D01*
X118089768Y-94129954D01*
X118187315Y-94312450D01*
X118187317Y-94312452D01*
X118318589Y-94472410D01*
X118381030Y-94523653D01*
X118478550Y-94603685D01*
X118661046Y-94701232D01*
X118859066Y-94761300D01*
X118859065Y-94761300D01*
X118897647Y-94765100D01*
X119013392Y-94776500D01*
X119013395Y-94776500D01*
X119543734Y-94776500D01*
X119610773Y-94796185D01*
X119656528Y-94848989D01*
X119666472Y-94918147D01*
X119637447Y-94981703D01*
X119595802Y-95013038D01*
X119536049Y-95040682D01*
X119451745Y-95079685D01*
X119198242Y-95232214D01*
X119145081Y-95264200D01*
X119056768Y-95331333D01*
X118860172Y-95480781D01*
X118860163Y-95480789D01*
X118600331Y-95726914D01*
X118368641Y-95999680D01*
X118368634Y-95999690D01*
X118167790Y-96295913D01*
X118167784Y-96295922D01*
X118000151Y-96612111D01*
X118000142Y-96612129D01*
X117867674Y-96944600D01*
X117867672Y-96944607D01*
X117771932Y-97289434D01*
X117771926Y-97289460D01*
X117714029Y-97642614D01*
X117714028Y-97642631D01*
X117695289Y-97988259D01*
X117694652Y-98000000D01*
X117000500Y-98000000D01*
X117000500Y-92583000D01*
X129015540Y-92583000D01*
X129035326Y-92771256D01*
X129035327Y-92771259D01*
X129093818Y-92951277D01*
X129093821Y-92951284D01*
X129188467Y-93115216D01*
X129271753Y-93207714D01*
X129315129Y-93255888D01*
X129468265Y-93367148D01*
X129468270Y-93367151D01*
X129641192Y-93444142D01*
X129641197Y-93444144D01*
X129826354Y-93483500D01*
X129826355Y-93483500D01*
X130015644Y-93483500D01*
X130015646Y-93483500D01*
X130200803Y-93444144D01*
X130373730Y-93367151D01*
X130373734Y-93367148D01*
X130378563Y-93364998D01*
X130447813Y-93355712D01*
X130479437Y-93364998D01*
X130484265Y-93367148D01*
X130484270Y-93367151D01*
X130657197Y-93444144D01*
X130842354Y-93483500D01*
X130842355Y-93483500D01*
X131031644Y-93483500D01*
X131031646Y-93483500D01*
X131216803Y-93444144D01*
X131389730Y-93367151D01*
X131389734Y-93367148D01*
X131394563Y-93364998D01*
X131463813Y-93355712D01*
X131495437Y-93364998D01*
X131500265Y-93367148D01*
X131500270Y-93367151D01*
X131673197Y-93444144D01*
X131858354Y-93483500D01*
X131858355Y-93483500D01*
X132047644Y-93483500D01*
X132047646Y-93483500D01*
X132232803Y-93444144D01*
X132405730Y-93367151D01*
X132405734Y-93367148D01*
X132410563Y-93364998D01*
X132479813Y-93355712D01*
X132511437Y-93364998D01*
X132516265Y-93367148D01*
X132516270Y-93367151D01*
X132689197Y-93444144D01*
X132874354Y-93483500D01*
X132874355Y-93483500D01*
X133063644Y-93483500D01*
X133063646Y-93483500D01*
X133248803Y-93444144D01*
X133421730Y-93367151D01*
X133574871Y-93255888D01*
X133701533Y-93115216D01*
X133796179Y-92951284D01*
X133854674Y-92771256D01*
X133864738Y-92675500D01*
X154294540Y-92675500D01*
X154314326Y-92863756D01*
X154314327Y-92863759D01*
X154372818Y-93043777D01*
X154372821Y-93043784D01*
X154467467Y-93207716D01*
X154574867Y-93326995D01*
X154594129Y-93348388D01*
X154747265Y-93459648D01*
X154747270Y-93459651D01*
X154920192Y-93536642D01*
X154920197Y-93536644D01*
X155105354Y-93576000D01*
X155105355Y-93576000D01*
X155294644Y-93576000D01*
X155294646Y-93576000D01*
X155479803Y-93536644D01*
X155652730Y-93459651D01*
X155805871Y-93348388D01*
X155932533Y-93207716D01*
X156027179Y-93043784D01*
X156085674Y-92863756D01*
X156105460Y-92675500D01*
X156085674Y-92487244D01*
X156027179Y-92307216D01*
X155965132Y-92199748D01*
X155948660Y-92131850D01*
X155965133Y-92075751D01*
X156027179Y-91968284D01*
X156069836Y-91837000D01*
X159368540Y-91837000D01*
X159388326Y-92025256D01*
X159388327Y-92025259D01*
X159446818Y-92205277D01*
X159446821Y-92205284D01*
X159541467Y-92369216D01*
X159564453Y-92394744D01*
X159668129Y-92509888D01*
X159821265Y-92621148D01*
X159821270Y-92621151D01*
X159994192Y-92698142D01*
X159994197Y-92698144D01*
X160179354Y-92737500D01*
X160179355Y-92737500D01*
X160368644Y-92737500D01*
X160368646Y-92737500D01*
X160422750Y-92726000D01*
X161781540Y-92726000D01*
X161801326Y-92914256D01*
X161801327Y-92914259D01*
X161859818Y-93094277D01*
X161859821Y-93094284D01*
X161954467Y-93258216D01*
X162042253Y-93355712D01*
X162081129Y-93398888D01*
X162234265Y-93510148D01*
X162234270Y-93510151D01*
X162407192Y-93587142D01*
X162407197Y-93587144D01*
X162592354Y-93626500D01*
X162592355Y-93626500D01*
X162781644Y-93626500D01*
X162781646Y-93626500D01*
X162966803Y-93587144D01*
X163139730Y-93510151D01*
X163292871Y-93398888D01*
X163419533Y-93258216D01*
X163514179Y-93094284D01*
X163572674Y-92914256D01*
X163592460Y-92726000D01*
X163572674Y-92537744D01*
X163514179Y-92357716D01*
X163419533Y-92193784D01*
X163292871Y-92053112D01*
X163292870Y-92053111D01*
X163139734Y-91941851D01*
X163139729Y-91941848D01*
X162966807Y-91864857D01*
X162966802Y-91864855D01*
X162821001Y-91833865D01*
X162781646Y-91825500D01*
X162592354Y-91825500D01*
X162559897Y-91832398D01*
X162407197Y-91864855D01*
X162407192Y-91864857D01*
X162234270Y-91941848D01*
X162234265Y-91941851D01*
X162081129Y-92053111D01*
X161954466Y-92193785D01*
X161859821Y-92357715D01*
X161859818Y-92357722D01*
X161810377Y-92509888D01*
X161801326Y-92537744D01*
X161781540Y-92726000D01*
X160422750Y-92726000D01*
X160553803Y-92698144D01*
X160726730Y-92621151D01*
X160879871Y-92509888D01*
X161006533Y-92369216D01*
X161101179Y-92205284D01*
X161159674Y-92025256D01*
X161179460Y-91837000D01*
X161159674Y-91648744D01*
X161101179Y-91468716D01*
X161006533Y-91304784D01*
X160879871Y-91164112D01*
X160879870Y-91164111D01*
X160726734Y-91052851D01*
X160726729Y-91052848D01*
X160553807Y-90975857D01*
X160553802Y-90975855D01*
X160401579Y-90943500D01*
X160368646Y-90936500D01*
X160179354Y-90936500D01*
X160146897Y-90943398D01*
X159994197Y-90975855D01*
X159994192Y-90975857D01*
X159821270Y-91052848D01*
X159821265Y-91052851D01*
X159668129Y-91164111D01*
X159541466Y-91304785D01*
X159446821Y-91468715D01*
X159446818Y-91468722D01*
X159388327Y-91648740D01*
X159388326Y-91648744D01*
X159368540Y-91837000D01*
X156069836Y-91837000D01*
X156085674Y-91788256D01*
X156105460Y-91600000D01*
X156085674Y-91411744D01*
X156027179Y-91231716D01*
X155958060Y-91111999D01*
X155941588Y-91044100D01*
X155958061Y-90988000D01*
X155959280Y-90985888D01*
X156027179Y-90868284D01*
X156085674Y-90688256D01*
X156105460Y-90500000D01*
X156085674Y-90311744D01*
X156027179Y-90131716D01*
X155932533Y-89967784D01*
X155805871Y-89827112D01*
X155805870Y-89827111D01*
X155652734Y-89715851D01*
X155652729Y-89715848D01*
X155479807Y-89638857D01*
X155479802Y-89638855D01*
X155334001Y-89607865D01*
X155294646Y-89599500D01*
X155105354Y-89599500D01*
X155072897Y-89606398D01*
X154920197Y-89638855D01*
X154920192Y-89638857D01*
X154747270Y-89715848D01*
X154747265Y-89715851D01*
X154594129Y-89827111D01*
X154467466Y-89967785D01*
X154372821Y-90131715D01*
X154372818Y-90131722D01*
X154314730Y-90310500D01*
X154314326Y-90311744D01*
X154294540Y-90500000D01*
X154314326Y-90688256D01*
X154314327Y-90688259D01*
X154372818Y-90868277D01*
X154372821Y-90868284D01*
X154438927Y-90982784D01*
X154441939Y-90988000D01*
X154458412Y-91055900D01*
X154441939Y-91112000D01*
X154372821Y-91231715D01*
X154372818Y-91231722D01*
X154349079Y-91304785D01*
X154314326Y-91411744D01*
X154294540Y-91600000D01*
X154314326Y-91788256D01*
X154314327Y-91788259D01*
X154372818Y-91968277D01*
X154372820Y-91968281D01*
X154372821Y-91968284D01*
X154434866Y-92075750D01*
X154434867Y-92075751D01*
X154451339Y-92143651D01*
X154434867Y-92199749D01*
X154372820Y-92307218D01*
X154372818Y-92307222D01*
X154344381Y-92394744D01*
X154314326Y-92487244D01*
X154294540Y-92675500D01*
X133864738Y-92675500D01*
X133874460Y-92583000D01*
X133854674Y-92394744D01*
X133796179Y-92214716D01*
X133701533Y-92050784D01*
X133574871Y-91910112D01*
X133512583Y-91864857D01*
X133421734Y-91798851D01*
X133421729Y-91798848D01*
X133248807Y-91721857D01*
X133248802Y-91721855D01*
X133204811Y-91712505D01*
X133143329Y-91679313D01*
X133109553Y-91618150D01*
X133114205Y-91548435D01*
X133155810Y-91492303D01*
X133180156Y-91477936D01*
X133262154Y-91441426D01*
X133358230Y-91398651D01*
X133511371Y-91287388D01*
X133638033Y-91146716D01*
X133732679Y-90982784D01*
X133791174Y-90802756D01*
X133810960Y-90614500D01*
X133791174Y-90426244D01*
X133732679Y-90246216D01*
X133638033Y-90082284D01*
X133511371Y-89941612D01*
X133511370Y-89941611D01*
X133358234Y-89830351D01*
X133358229Y-89830348D01*
X133185307Y-89753357D01*
X133185302Y-89753355D01*
X133008854Y-89715851D01*
X133000146Y-89714000D01*
X132810854Y-89714000D01*
X132802146Y-89715851D01*
X132625697Y-89753355D01*
X132625692Y-89753357D01*
X132464990Y-89824908D01*
X132395740Y-89834193D01*
X132332463Y-89804565D01*
X132296623Y-89749947D01*
X132293878Y-89741500D01*
X132284943Y-89714000D01*
X132272181Y-89674721D01*
X132272179Y-89674718D01*
X132272179Y-89674716D01*
X132190647Y-89533499D01*
X132174175Y-89465600D01*
X132190648Y-89409500D01*
X132272179Y-89268284D01*
X132330674Y-89088256D01*
X132350460Y-88900000D01*
X132330674Y-88711744D01*
X132272179Y-88531716D01*
X132177533Y-88367784D01*
X132050871Y-88227112D01*
X132034553Y-88215256D01*
X131928219Y-88138000D01*
X134603540Y-88138000D01*
X134623326Y-88326256D01*
X134623327Y-88326259D01*
X134681818Y-88506277D01*
X134681821Y-88506284D01*
X134776467Y-88670216D01*
X134894872Y-88801718D01*
X134903129Y-88810888D01*
X135056265Y-88922148D01*
X135056270Y-88922151D01*
X135229192Y-88999142D01*
X135229197Y-88999144D01*
X135414354Y-89038500D01*
X135414355Y-89038500D01*
X135603644Y-89038500D01*
X135603646Y-89038500D01*
X135788803Y-88999144D01*
X135961730Y-88922151D01*
X136114871Y-88810888D01*
X136241533Y-88670216D01*
X136336179Y-88506284D01*
X136394674Y-88326256D01*
X136414460Y-88138000D01*
X136411334Y-88108259D01*
X136423904Y-88039530D01*
X136471636Y-87988507D01*
X136539376Y-87971389D01*
X136586719Y-87982759D01*
X136776565Y-88070591D01*
X137115726Y-88184868D01*
X137465254Y-88261805D01*
X137821052Y-88300500D01*
X137821058Y-88300500D01*
X138178942Y-88300500D01*
X138178948Y-88300500D01*
X138534746Y-88261805D01*
X138698342Y-88225794D01*
X138768043Y-88230607D01*
X138824079Y-88272340D01*
X138848316Y-88333931D01*
X138851685Y-88365979D01*
X138851687Y-88365990D01*
X138906930Y-88536012D01*
X138906933Y-88536018D01*
X138996324Y-88690848D01*
X139015139Y-88711744D01*
X139115947Y-88823704D01*
X139115950Y-88823706D01*
X139115953Y-88823709D01*
X139260590Y-88928795D01*
X139423916Y-89001512D01*
X139598792Y-89038683D01*
X139598793Y-89038683D01*
X139777572Y-89038683D01*
X139777574Y-89038683D01*
X139952450Y-89001512D01*
X140115776Y-88928795D01*
X140260413Y-88823709D01*
X140380042Y-88690848D01*
X140469433Y-88536018D01*
X140524680Y-88365986D01*
X140543368Y-88188183D01*
X140524680Y-88010380D01*
X140492668Y-87911857D01*
X140469435Y-87840353D01*
X140469432Y-87840347D01*
X140468507Y-87838744D01*
X140380042Y-87685518D01*
X140297670Y-87594035D01*
X140269559Y-87562814D01*
X140239329Y-87499823D01*
X140247954Y-87430487D01*
X140276435Y-87389818D01*
X140314408Y-87353848D01*
X140399668Y-87273086D01*
X140493105Y-87163083D01*
X140551507Y-87124732D01*
X140621373Y-87124043D01*
X140680520Y-87161237D01*
X140710170Y-87224504D01*
X140710931Y-87230384D01*
X140719326Y-87310256D01*
X140719327Y-87310259D01*
X140777818Y-87490277D01*
X140777820Y-87490282D01*
X140777821Y-87490284D01*
X140872467Y-87654216D01*
X140979421Y-87773000D01*
X140999129Y-87794888D01*
X141152265Y-87906148D01*
X141152270Y-87906151D01*
X141325192Y-87983142D01*
X141325197Y-87983144D01*
X141510354Y-88022500D01*
X141510355Y-88022500D01*
X141699644Y-88022500D01*
X141699646Y-88022500D01*
X141884803Y-87983144D01*
X142057730Y-87906151D01*
X142210871Y-87794888D01*
X142337533Y-87654216D01*
X142432179Y-87490284D01*
X142437836Y-87472873D01*
X142477272Y-87415199D01*
X142541630Y-87388000D01*
X142610476Y-87399913D01*
X142661953Y-87447156D01*
X142663154Y-87449191D01*
X142691140Y-87497663D01*
X142691139Y-87497663D01*
X142810764Y-87630521D01*
X142810767Y-87630523D01*
X142810770Y-87630526D01*
X142955407Y-87735612D01*
X143118733Y-87808329D01*
X143293609Y-87845500D01*
X143293610Y-87845500D01*
X143472389Y-87845500D01*
X143472391Y-87845500D01*
X143647267Y-87808329D01*
X143669451Y-87798451D01*
X143738701Y-87789165D01*
X143801978Y-87818792D01*
X143837820Y-87873411D01*
X143871748Y-87977831D01*
X143871750Y-87977835D01*
X143961141Y-88132665D01*
X143968902Y-88141284D01*
X144080764Y-88265521D01*
X144080767Y-88265523D01*
X144080770Y-88265526D01*
X144225407Y-88370612D01*
X144388733Y-88443329D01*
X144563609Y-88480500D01*
X144563610Y-88480500D01*
X144742389Y-88480500D01*
X144742391Y-88480500D01*
X144917267Y-88443329D01*
X145080593Y-88370612D01*
X145225230Y-88265526D01*
X145228581Y-88261805D01*
X145261005Y-88225794D01*
X145344859Y-88132665D01*
X145434250Y-87977835D01*
X145489497Y-87807803D01*
X145493155Y-87773000D01*
X153526540Y-87773000D01*
X153546326Y-87961256D01*
X153546327Y-87961259D01*
X153604818Y-88141277D01*
X153604821Y-88141284D01*
X153699467Y-88305216D01*
X153789063Y-88404722D01*
X153826129Y-88445888D01*
X153979265Y-88557148D01*
X153979270Y-88557151D01*
X154152192Y-88634142D01*
X154152197Y-88634144D01*
X154337354Y-88673500D01*
X154337355Y-88673500D01*
X154526644Y-88673500D01*
X154526646Y-88673500D01*
X154711803Y-88634144D01*
X154884730Y-88557151D01*
X155037871Y-88445888D01*
X155164533Y-88305216D01*
X155259179Y-88141284D01*
X155317674Y-87961256D01*
X155337460Y-87773000D01*
X155317674Y-87584744D01*
X155259179Y-87404716D01*
X155164533Y-87240784D01*
X155037871Y-87100112D01*
X155029954Y-87094360D01*
X154884734Y-86988851D01*
X154884729Y-86988848D01*
X154711807Y-86911857D01*
X154711802Y-86911855D01*
X154566001Y-86880865D01*
X154526646Y-86872500D01*
X154337354Y-86872500D01*
X154304897Y-86879398D01*
X154152197Y-86911855D01*
X154152192Y-86911857D01*
X153979270Y-86988848D01*
X153979265Y-86988851D01*
X153826129Y-87100111D01*
X153699466Y-87240785D01*
X153604821Y-87404715D01*
X153604818Y-87404722D01*
X153546327Y-87584740D01*
X153546326Y-87584744D01*
X153526540Y-87773000D01*
X145493155Y-87773000D01*
X145508185Y-87630000D01*
X145489497Y-87452197D01*
X145450398Y-87331862D01*
X145434252Y-87282170D01*
X145434249Y-87282164D01*
X145431185Y-87276857D01*
X145344859Y-87127335D01*
X145295268Y-87072259D01*
X145225235Y-86994478D01*
X145225232Y-86994476D01*
X145225231Y-86994475D01*
X145225230Y-86994474D01*
X145080593Y-86889388D01*
X144917267Y-86816671D01*
X144917265Y-86816670D01*
X144789594Y-86789533D01*
X144742391Y-86779500D01*
X144563609Y-86779500D01*
X144526439Y-86787400D01*
X144388734Y-86816670D01*
X144388729Y-86816672D01*
X144366542Y-86826550D01*
X144297291Y-86835833D01*
X144234016Y-86806202D01*
X144198179Y-86751587D01*
X144164252Y-86647170D01*
X144164249Y-86647164D01*
X144131121Y-86589784D01*
X144074859Y-86492335D01*
X144014898Y-86425742D01*
X143955235Y-86359478D01*
X143955232Y-86359476D01*
X143955231Y-86359475D01*
X143955230Y-86359474D01*
X143810593Y-86254388D01*
X143647267Y-86181671D01*
X143647265Y-86181670D01*
X143519594Y-86154533D01*
X143472391Y-86144500D01*
X143293609Y-86144500D01*
X143262954Y-86151015D01*
X143118733Y-86181670D01*
X143118728Y-86181672D01*
X142955408Y-86254387D01*
X142810768Y-86359475D01*
X142691140Y-86492336D01*
X142601745Y-86647173D01*
X142600111Y-86650843D01*
X142598602Y-86652617D01*
X142598501Y-86652793D01*
X142598468Y-86652774D01*
X142554853Y-86704074D01*
X142488001Y-86724386D01*
X142420780Y-86705330D01*
X142379453Y-86662392D01*
X142337533Y-86589784D01*
X142210871Y-86449112D01*
X142178705Y-86425742D01*
X142057734Y-86337851D01*
X142057729Y-86337848D01*
X141884807Y-86260857D01*
X141884802Y-86260855D01*
X141739001Y-86229865D01*
X141699646Y-86221500D01*
X141510354Y-86221500D01*
X141477897Y-86228398D01*
X141325197Y-86260855D01*
X141325192Y-86260857D01*
X141269663Y-86285581D01*
X141200413Y-86294866D01*
X141137136Y-86265238D01*
X141099923Y-86206103D01*
X141100588Y-86136237D01*
X141104034Y-86126405D01*
X141107582Y-86117500D01*
X141132324Y-86055403D01*
X141228071Y-85710552D01*
X141278122Y-85405256D01*
X141285970Y-85357385D01*
X141285970Y-85357382D01*
X141285972Y-85357371D01*
X141305348Y-85000000D01*
X141285972Y-84642629D01*
X141283584Y-84628065D01*
X141228073Y-84289460D01*
X141228072Y-84289459D01*
X141228071Y-84289448D01*
X141178461Y-84110768D01*
X141132327Y-83944607D01*
X141132325Y-83944600D01*
X141113322Y-83896907D01*
X141093663Y-83847567D01*
X141393000Y-83847567D01*
X141407583Y-84000289D01*
X141407584Y-84000296D01*
X141407585Y-84000300D01*
X141465263Y-84196734D01*
X141538910Y-84339590D01*
X141559074Y-84378703D01*
X141658373Y-84504973D01*
X141685628Y-84539630D01*
X141840351Y-84673697D01*
X142017650Y-84776061D01*
X142211117Y-84843021D01*
X142413758Y-84872155D01*
X142413759Y-84872156D01*
X142413759Y-84872155D01*
X142413760Y-84872156D01*
X142618255Y-84862415D01*
X142817212Y-84814149D01*
X142817219Y-84814146D01*
X143003428Y-84729107D01*
X143003431Y-84729105D01*
X143003438Y-84729102D01*
X143170204Y-84610349D01*
X143311482Y-84462181D01*
X143422166Y-84289953D01*
X143473039Y-84162875D01*
X143516229Y-84107957D01*
X143582255Y-84085104D01*
X143650156Y-84101577D01*
X143675837Y-84121283D01*
X143750378Y-84195824D01*
X143750384Y-84195829D01*
X143931333Y-84322531D01*
X143931335Y-84322532D01*
X143931338Y-84322534D01*
X144131550Y-84415894D01*
X144344932Y-84473070D01*
X144502123Y-84486822D01*
X144564998Y-84492323D01*
X144565000Y-84492323D01*
X144565002Y-84492323D01*
X144620017Y-84487509D01*
X144785068Y-84473070D01*
X144998450Y-84415894D01*
X145198662Y-84322534D01*
X145379620Y-84195826D01*
X145477319Y-84098127D01*
X145538642Y-84064642D01*
X145608334Y-84069626D01*
X145652681Y-84098127D01*
X145750378Y-84195824D01*
X145750384Y-84195829D01*
X145931333Y-84322531D01*
X145931335Y-84322532D01*
X145931338Y-84322534D01*
X146131550Y-84415894D01*
X146344932Y-84473070D01*
X146502123Y-84486822D01*
X146564998Y-84492323D01*
X146565000Y-84492323D01*
X146565002Y-84492323D01*
X146620017Y-84487509D01*
X146785068Y-84473070D01*
X146998450Y-84415894D01*
X147198662Y-84322534D01*
X147379620Y-84195826D01*
X147477319Y-84098127D01*
X147538642Y-84064642D01*
X147608334Y-84069626D01*
X147652681Y-84098127D01*
X147750378Y-84195824D01*
X147750384Y-84195829D01*
X147931333Y-84322531D01*
X147931335Y-84322532D01*
X147931338Y-84322534D01*
X148131550Y-84415894D01*
X148344932Y-84473070D01*
X148502123Y-84486822D01*
X148564998Y-84492323D01*
X148565000Y-84492323D01*
X148565002Y-84492323D01*
X148620017Y-84487509D01*
X148785068Y-84473070D01*
X148998450Y-84415894D01*
X149198662Y-84322534D01*
X149379620Y-84195826D01*
X149477319Y-84098127D01*
X149538642Y-84064642D01*
X149608334Y-84069626D01*
X149652681Y-84098127D01*
X149750378Y-84195824D01*
X149750384Y-84195829D01*
X149931333Y-84322531D01*
X149931335Y-84322532D01*
X149931338Y-84322534D01*
X150131550Y-84415894D01*
X150344932Y-84473070D01*
X150502123Y-84486822D01*
X150564998Y-84492323D01*
X150565000Y-84492323D01*
X150565002Y-84492323D01*
X150620017Y-84487509D01*
X150785068Y-84473070D01*
X150998450Y-84415894D01*
X151198662Y-84322534D01*
X151379620Y-84195826D01*
X151477319Y-84098127D01*
X151538642Y-84064642D01*
X151608334Y-84069626D01*
X151652681Y-84098127D01*
X151750378Y-84195824D01*
X151750384Y-84195829D01*
X151931333Y-84322531D01*
X151931335Y-84322532D01*
X151931338Y-84322534D01*
X152131550Y-84415894D01*
X152344932Y-84473070D01*
X152502123Y-84486822D01*
X152564998Y-84492323D01*
X152565000Y-84492323D01*
X152565002Y-84492323D01*
X152620017Y-84487509D01*
X152785068Y-84473070D01*
X152998450Y-84415894D01*
X153198662Y-84322534D01*
X153379620Y-84195826D01*
X153477319Y-84098127D01*
X153538642Y-84064642D01*
X153608334Y-84069626D01*
X153652681Y-84098127D01*
X153750378Y-84195824D01*
X153750384Y-84195829D01*
X153931333Y-84322531D01*
X153931335Y-84322532D01*
X153931338Y-84322534D01*
X154131550Y-84415894D01*
X154344932Y-84473070D01*
X154502123Y-84486822D01*
X154564998Y-84492323D01*
X154565000Y-84492323D01*
X154565002Y-84492323D01*
X154620017Y-84487509D01*
X154785068Y-84473070D01*
X154998450Y-84415894D01*
X155198662Y-84322534D01*
X155379620Y-84195826D01*
X155452443Y-84123003D01*
X155513766Y-84089518D01*
X155583458Y-84094502D01*
X155639391Y-84136374D01*
X155659101Y-84175748D01*
X155665262Y-84196732D01*
X155759074Y-84378703D01*
X155858373Y-84504973D01*
X155885628Y-84539630D01*
X156040351Y-84673697D01*
X156217650Y-84776061D01*
X156411117Y-84843021D01*
X156613758Y-84872155D01*
X156613759Y-84872156D01*
X156613759Y-84872155D01*
X156613760Y-84872156D01*
X156818255Y-84862415D01*
X157017212Y-84814149D01*
X157017219Y-84814146D01*
X157203428Y-84729107D01*
X157203431Y-84729105D01*
X157203438Y-84729102D01*
X157370204Y-84610349D01*
X157511482Y-84462181D01*
X157622166Y-84289953D01*
X157698255Y-84099891D01*
X157737000Y-83898864D01*
X157737000Y-83225000D01*
X158651186Y-83225000D01*
X158671601Y-83458346D01*
X158671603Y-83458356D01*
X158732225Y-83684603D01*
X158732227Y-83684607D01*
X158732228Y-83684611D01*
X158831223Y-83896907D01*
X158965579Y-84088787D01*
X159131213Y-84254421D01*
X159323093Y-84388777D01*
X159535389Y-84487772D01*
X159535395Y-84487773D01*
X159535396Y-84487774D01*
X159579334Y-84499547D01*
X159761649Y-84548398D01*
X159948329Y-84564730D01*
X159994999Y-84568814D01*
X159995000Y-84568814D01*
X159995001Y-84568814D01*
X160033891Y-84565411D01*
X160228351Y-84548398D01*
X160454611Y-84487772D01*
X160666907Y-84388777D01*
X160858787Y-84254421D01*
X161024421Y-84088787D01*
X161158777Y-83896907D01*
X161158777Y-83896905D01*
X161161882Y-83892472D01*
X161163323Y-83893481D01*
X161208172Y-83850712D01*
X161276778Y-83837484D01*
X161341645Y-83863447D01*
X161367294Y-83893048D01*
X161368118Y-83892472D01*
X161371222Y-83896905D01*
X161371223Y-83896907D01*
X161505579Y-84088787D01*
X161671213Y-84254421D01*
X161863093Y-84388777D01*
X162075389Y-84487772D01*
X162075395Y-84487773D01*
X162075396Y-84487774D01*
X162119334Y-84499547D01*
X162301649Y-84548398D01*
X162488329Y-84564730D01*
X162534999Y-84568814D01*
X162535000Y-84568814D01*
X162535001Y-84568814D01*
X162573891Y-84565411D01*
X162768351Y-84548398D01*
X162994611Y-84487772D01*
X163206907Y-84388777D01*
X163398787Y-84254421D01*
X163564421Y-84088787D01*
X163698777Y-83896907D01*
X163698777Y-83896905D01*
X163701882Y-83892472D01*
X163703323Y-83893481D01*
X163748172Y-83850712D01*
X163816778Y-83837484D01*
X163881645Y-83863447D01*
X163907294Y-83893048D01*
X163908118Y-83892472D01*
X163911222Y-83896905D01*
X163911223Y-83896907D01*
X164045579Y-84088787D01*
X164211213Y-84254421D01*
X164403093Y-84388777D01*
X164615389Y-84487772D01*
X164615395Y-84487773D01*
X164615396Y-84487774D01*
X164659334Y-84499547D01*
X164841649Y-84548398D01*
X165028329Y-84564730D01*
X165074999Y-84568814D01*
X165075000Y-84568814D01*
X165075001Y-84568814D01*
X165113891Y-84565411D01*
X165308351Y-84548398D01*
X165534611Y-84487772D01*
X165746907Y-84388777D01*
X165938787Y-84254421D01*
X166104421Y-84088787D01*
X166238777Y-83896907D01*
X166337772Y-83684611D01*
X166398398Y-83458351D01*
X166418814Y-83225000D01*
X166398398Y-82991649D01*
X166337772Y-82765389D01*
X166238777Y-82553093D01*
X166104421Y-82361213D01*
X165938787Y-82195579D01*
X165746907Y-82061223D01*
X165534611Y-81962228D01*
X165534607Y-81962227D01*
X165534603Y-81962225D01*
X165308356Y-81901603D01*
X165308346Y-81901601D01*
X165075001Y-81881186D01*
X165074999Y-81881186D01*
X164841653Y-81901601D01*
X164841643Y-81901603D01*
X164615396Y-81962225D01*
X164615389Y-81962227D01*
X164615389Y-81962228D01*
X164403093Y-82061223D01*
X164211213Y-82195579D01*
X164211211Y-82195580D01*
X164211208Y-82195583D01*
X164045583Y-82361208D01*
X164045580Y-82361211D01*
X164045579Y-82361213D01*
X163911223Y-82553093D01*
X163908118Y-82557528D01*
X163906680Y-82556521D01*
X163861810Y-82599297D01*
X163793202Y-82612513D01*
X163728340Y-82586540D01*
X163702702Y-82556953D01*
X163701882Y-82557528D01*
X163698777Y-82553093D01*
X163564421Y-82361213D01*
X163398787Y-82195579D01*
X163206907Y-82061223D01*
X162994611Y-81962228D01*
X162994607Y-81962227D01*
X162994603Y-81962225D01*
X162768356Y-81901603D01*
X162768346Y-81901601D01*
X162535001Y-81881186D01*
X162534999Y-81881186D01*
X162301653Y-81901601D01*
X162301643Y-81901603D01*
X162075396Y-81962225D01*
X162075389Y-81962227D01*
X162075389Y-81962228D01*
X161863093Y-82061223D01*
X161671213Y-82195579D01*
X161671211Y-82195580D01*
X161671208Y-82195583D01*
X161505583Y-82361208D01*
X161505580Y-82361211D01*
X161505579Y-82361213D01*
X161371223Y-82553093D01*
X161368118Y-82557528D01*
X161366680Y-82556521D01*
X161321810Y-82599297D01*
X161253202Y-82612513D01*
X161188340Y-82586540D01*
X161162702Y-82556953D01*
X161161882Y-82557528D01*
X161158777Y-82553093D01*
X161024421Y-82361213D01*
X160858787Y-82195579D01*
X160666907Y-82061223D01*
X160454611Y-81962228D01*
X160454607Y-81962227D01*
X160454603Y-81962225D01*
X160228356Y-81901603D01*
X160228346Y-81901601D01*
X159995001Y-81881186D01*
X159994999Y-81881186D01*
X159761653Y-81901601D01*
X159761643Y-81901603D01*
X159535396Y-81962225D01*
X159535389Y-81962227D01*
X159535389Y-81962228D01*
X159323093Y-82061223D01*
X159131213Y-82195579D01*
X159131211Y-82195580D01*
X159131208Y-82195583D01*
X158965583Y-82361208D01*
X158965580Y-82361211D01*
X158965579Y-82361213D01*
X158881851Y-82480789D01*
X158831223Y-82553093D01*
X158732229Y-82765387D01*
X158732225Y-82765396D01*
X158671603Y-82991643D01*
X158671601Y-82991653D01*
X158651186Y-83224999D01*
X158651186Y-83225000D01*
X157737000Y-83225000D01*
X157737000Y-82602437D01*
X157736700Y-82599297D01*
X157722416Y-82449710D01*
X157722415Y-82449709D01*
X157722415Y-82449700D01*
X157664737Y-82253266D01*
X157570926Y-82071297D01*
X157444372Y-81910370D01*
X157289649Y-81776303D01*
X157275716Y-81768259D01*
X157159595Y-81701216D01*
X157112350Y-81673939D01*
X157112344Y-81673936D01*
X157112342Y-81673936D01*
X156918884Y-81606979D01*
X156716242Y-81577844D01*
X156716240Y-81577843D01*
X156511747Y-81587584D01*
X156312784Y-81635852D01*
X156312780Y-81635853D01*
X156126571Y-81720892D01*
X156126559Y-81720899D01*
X155959796Y-81839650D01*
X155959793Y-81839653D01*
X155818517Y-81987819D01*
X155707833Y-82160048D01*
X155656960Y-82287122D01*
X155613770Y-82342043D01*
X155547743Y-82364895D01*
X155479842Y-82348422D01*
X155454162Y-82328716D01*
X155379621Y-82254175D01*
X155379615Y-82254170D01*
X155198666Y-82127468D01*
X155198662Y-82127466D01*
X155190680Y-82123744D01*
X154998450Y-82034106D01*
X154998447Y-82034105D01*
X154998445Y-82034104D01*
X154785070Y-81976930D01*
X154785062Y-81976929D01*
X154565002Y-81957677D01*
X154564998Y-81957677D01*
X154344937Y-81976929D01*
X154344929Y-81976930D01*
X154131554Y-82034104D01*
X154131548Y-82034107D01*
X153931340Y-82127465D01*
X153931338Y-82127466D01*
X153750381Y-82254172D01*
X153652680Y-82351873D01*
X153591356Y-82385357D01*
X153521665Y-82380373D01*
X153477318Y-82351872D01*
X153379621Y-82254175D01*
X153379615Y-82254170D01*
X153198666Y-82127468D01*
X153198662Y-82127466D01*
X153190680Y-82123744D01*
X152998450Y-82034106D01*
X152998447Y-82034105D01*
X152998445Y-82034104D01*
X152785070Y-81976930D01*
X152785062Y-81976929D01*
X152565002Y-81957677D01*
X152564998Y-81957677D01*
X152344937Y-81976929D01*
X152344929Y-81976930D01*
X152131554Y-82034104D01*
X152131548Y-82034107D01*
X151931340Y-82127465D01*
X151931338Y-82127466D01*
X151750381Y-82254172D01*
X151652680Y-82351873D01*
X151591356Y-82385357D01*
X151521665Y-82380373D01*
X151477318Y-82351872D01*
X151379621Y-82254175D01*
X151379615Y-82254170D01*
X151198666Y-82127468D01*
X151198662Y-82127466D01*
X151190680Y-82123744D01*
X150998450Y-82034106D01*
X150998447Y-82034105D01*
X150998445Y-82034104D01*
X150785070Y-81976930D01*
X150785062Y-81976929D01*
X150565002Y-81957677D01*
X150564998Y-81957677D01*
X150344937Y-81976929D01*
X150344929Y-81976930D01*
X150131554Y-82034104D01*
X150131548Y-82034107D01*
X149931340Y-82127465D01*
X149931338Y-82127466D01*
X149750381Y-82254172D01*
X149652680Y-82351873D01*
X149591356Y-82385357D01*
X149521665Y-82380373D01*
X149477318Y-82351872D01*
X149379621Y-82254175D01*
X149379615Y-82254170D01*
X149198666Y-82127468D01*
X149198662Y-82127466D01*
X149190680Y-82123744D01*
X148998450Y-82034106D01*
X148998447Y-82034105D01*
X148998445Y-82034104D01*
X148785070Y-81976930D01*
X148785062Y-81976929D01*
X148565002Y-81957677D01*
X148564998Y-81957677D01*
X148344937Y-81976929D01*
X148344929Y-81976930D01*
X148131554Y-82034104D01*
X148131548Y-82034107D01*
X147931340Y-82127465D01*
X147931338Y-82127466D01*
X147750381Y-82254172D01*
X147652680Y-82351873D01*
X147591356Y-82385357D01*
X147521665Y-82380373D01*
X147477318Y-82351872D01*
X147379621Y-82254175D01*
X147379615Y-82254170D01*
X147198666Y-82127468D01*
X147198662Y-82127466D01*
X147190680Y-82123744D01*
X146998450Y-82034106D01*
X146998447Y-82034105D01*
X146998445Y-82034104D01*
X146785070Y-81976930D01*
X146785062Y-81976929D01*
X146565002Y-81957677D01*
X146564998Y-81957677D01*
X146344937Y-81976929D01*
X146344929Y-81976930D01*
X146131554Y-82034104D01*
X146131548Y-82034107D01*
X145931340Y-82127465D01*
X145931338Y-82127466D01*
X145750381Y-82254172D01*
X145652680Y-82351873D01*
X145591356Y-82385357D01*
X145521665Y-82380373D01*
X145477318Y-82351872D01*
X145379621Y-82254175D01*
X145379615Y-82254170D01*
X145198666Y-82127468D01*
X145198662Y-82127466D01*
X145190680Y-82123744D01*
X144998450Y-82034106D01*
X144998447Y-82034105D01*
X144998445Y-82034104D01*
X144785070Y-81976930D01*
X144785062Y-81976929D01*
X144565002Y-81957677D01*
X144564998Y-81957677D01*
X144344937Y-81976929D01*
X144344929Y-81976930D01*
X144131554Y-82034104D01*
X144131548Y-82034107D01*
X143931340Y-82127465D01*
X143931338Y-82127466D01*
X143750381Y-82254172D01*
X143677556Y-82326997D01*
X143616232Y-82360481D01*
X143546541Y-82355496D01*
X143490607Y-82313625D01*
X143470899Y-82274252D01*
X143464737Y-82253266D01*
X143370926Y-82071297D01*
X143244372Y-81910370D01*
X143089649Y-81776303D01*
X143075716Y-81768259D01*
X142959595Y-81701216D01*
X142912350Y-81673939D01*
X142912344Y-81673936D01*
X142912342Y-81673936D01*
X142718884Y-81606979D01*
X142516242Y-81577844D01*
X142516240Y-81577843D01*
X142311747Y-81587584D01*
X142112784Y-81635852D01*
X142112780Y-81635853D01*
X141926571Y-81720892D01*
X141926559Y-81720899D01*
X141759796Y-81839650D01*
X141759793Y-81839653D01*
X141618517Y-81987819D01*
X141507834Y-82160046D01*
X141431744Y-82350110D01*
X141393000Y-82551135D01*
X141393000Y-83847567D01*
X141093663Y-83847567D01*
X141030729Y-83689612D01*
X140999857Y-83612129D01*
X140999848Y-83612111D01*
X140832215Y-83295922D01*
X140832213Y-83295919D01*
X140832211Y-83295915D01*
X140631365Y-82999689D01*
X140631361Y-82999684D01*
X140631358Y-82999680D01*
X140399668Y-82726914D01*
X140139837Y-82480789D01*
X140139830Y-82480783D01*
X140139827Y-82480781D01*
X140072245Y-82429407D01*
X139854919Y-82264200D01*
X139548253Y-82079685D01*
X139548252Y-82079684D01*
X139548248Y-82079682D01*
X139548244Y-82079680D01*
X139223447Y-81929414D01*
X139223441Y-81929411D01*
X139223435Y-81929409D01*
X139037076Y-81866617D01*
X138884273Y-81815131D01*
X138534744Y-81738194D01*
X138178949Y-81699500D01*
X138178948Y-81699500D01*
X137821052Y-81699500D01*
X137821050Y-81699500D01*
X137465255Y-81738194D01*
X137115726Y-81815131D01*
X136874728Y-81896334D01*
X136776565Y-81929409D01*
X136776563Y-81929410D01*
X136776552Y-81929414D01*
X136451755Y-82079680D01*
X136451751Y-82079682D01*
X136259130Y-82195579D01*
X136145081Y-82264200D01*
X136114928Y-82287122D01*
X135860172Y-82480781D01*
X135860163Y-82480789D01*
X135600331Y-82726914D01*
X135368641Y-82999680D01*
X135368634Y-82999690D01*
X135167790Y-83295913D01*
X135167784Y-83295922D01*
X135000151Y-83612111D01*
X135000142Y-83612129D01*
X134867674Y-83944600D01*
X134867672Y-83944607D01*
X134771932Y-84289434D01*
X134771926Y-84289460D01*
X134714029Y-84642614D01*
X134714028Y-84642627D01*
X134714028Y-84642629D01*
X134711742Y-84684785D01*
X134694652Y-84999997D01*
X134694652Y-85000002D01*
X134701565Y-85127500D01*
X134707203Y-85231499D01*
X134714028Y-85357368D01*
X134714029Y-85357385D01*
X134771926Y-85710539D01*
X134771932Y-85710565D01*
X134867672Y-86055392D01*
X134867674Y-86055399D01*
X135000142Y-86387870D01*
X135000151Y-86387888D01*
X135167784Y-86704077D01*
X135167787Y-86704082D01*
X135167789Y-86704085D01*
X135368635Y-87000311D01*
X135411769Y-87051092D01*
X135440166Y-87114929D01*
X135429542Y-87183986D01*
X135383270Y-87236337D01*
X135343042Y-87252657D01*
X135229196Y-87276856D01*
X135229192Y-87276857D01*
X135056270Y-87353848D01*
X135056265Y-87353851D01*
X134903129Y-87465111D01*
X134776466Y-87605785D01*
X134681821Y-87769715D01*
X134681818Y-87769722D01*
X134635636Y-87911857D01*
X134623326Y-87949744D01*
X134603540Y-88138000D01*
X131928219Y-88138000D01*
X131897734Y-88115851D01*
X131897729Y-88115848D01*
X131724807Y-88038857D01*
X131724802Y-88038855D01*
X131579001Y-88007865D01*
X131539646Y-87999500D01*
X131350354Y-87999500D01*
X131317897Y-88006398D01*
X131165197Y-88038855D01*
X131165192Y-88038857D01*
X130992270Y-88115848D01*
X130992265Y-88115851D01*
X130839129Y-88227111D01*
X130712466Y-88367785D01*
X130617821Y-88531715D01*
X130617818Y-88531722D01*
X130559327Y-88711740D01*
X130559326Y-88711744D01*
X130539540Y-88900000D01*
X130559326Y-89088256D01*
X130559327Y-89088259D01*
X130617818Y-89268277D01*
X130617820Y-89268281D01*
X130617821Y-89268284D01*
X130639143Y-89305214D01*
X130699352Y-89409501D01*
X130715824Y-89477401D01*
X130699352Y-89533499D01*
X130617820Y-89674718D01*
X130617818Y-89674722D01*
X130566003Y-89834193D01*
X130559326Y-89854744D01*
X130539540Y-90043000D01*
X130559326Y-90231256D01*
X130559327Y-90231259D01*
X130617818Y-90411277D01*
X130617821Y-90411284D01*
X130712467Y-90575216D01*
X130814249Y-90688256D01*
X130839129Y-90715888D01*
X130992265Y-90827148D01*
X130992270Y-90827151D01*
X131165192Y-90904142D01*
X131165197Y-90904144D01*
X131350354Y-90943500D01*
X131350355Y-90943500D01*
X131539644Y-90943500D01*
X131539646Y-90943500D01*
X131724803Y-90904144D01*
X131885509Y-90832591D01*
X131954759Y-90823307D01*
X132018035Y-90852935D01*
X132053876Y-90907552D01*
X132078319Y-90982780D01*
X132078321Y-90982784D01*
X132172967Y-91146716D01*
X132233100Y-91213500D01*
X132299629Y-91287388D01*
X132452765Y-91398648D01*
X132452770Y-91398651D01*
X132625692Y-91475642D01*
X132625693Y-91475642D01*
X132625697Y-91475644D01*
X132669689Y-91484994D01*
X132731169Y-91518185D01*
X132764946Y-91579348D01*
X132760294Y-91649062D01*
X132718691Y-91705195D01*
X132694344Y-91719563D01*
X132540062Y-91788256D01*
X132516273Y-91798848D01*
X132511437Y-91801001D01*
X132442187Y-91810287D01*
X132410564Y-91801001D01*
X132232807Y-91721857D01*
X132232802Y-91721855D01*
X132087001Y-91690865D01*
X132047646Y-91682500D01*
X131858354Y-91682500D01*
X131825897Y-91689398D01*
X131673197Y-91721855D01*
X131673192Y-91721857D01*
X131495436Y-91801001D01*
X131426186Y-91810286D01*
X131394564Y-91801001D01*
X131216807Y-91721857D01*
X131216802Y-91721855D01*
X131071001Y-91690865D01*
X131031646Y-91682500D01*
X130842354Y-91682500D01*
X130809897Y-91689398D01*
X130657197Y-91721855D01*
X130657192Y-91721857D01*
X130479436Y-91801001D01*
X130410186Y-91810286D01*
X130378564Y-91801001D01*
X130200807Y-91721857D01*
X130200802Y-91721855D01*
X130055001Y-91690865D01*
X130015646Y-91682500D01*
X129826354Y-91682500D01*
X129793897Y-91689398D01*
X129641197Y-91721855D01*
X129641192Y-91721857D01*
X129468270Y-91798848D01*
X129468265Y-91798851D01*
X129315129Y-91910111D01*
X129188466Y-92050785D01*
X129093821Y-92214715D01*
X129093818Y-92214722D01*
X129035327Y-92394740D01*
X129035326Y-92394744D01*
X129015540Y-92583000D01*
X117000500Y-92583000D01*
X117000500Y-85086000D01*
X118009417Y-85086000D01*
X118029699Y-85291932D01*
X118056871Y-85381505D01*
X118089768Y-85489954D01*
X118187315Y-85672450D01*
X118211514Y-85701937D01*
X118318589Y-85832410D01*
X118415209Y-85911702D01*
X118478550Y-85963685D01*
X118661046Y-86061232D01*
X118859066Y-86121300D01*
X118859065Y-86121300D01*
X118897647Y-86125100D01*
X119013392Y-86136500D01*
X119013395Y-86136500D01*
X119560636Y-86136500D01*
X119627675Y-86156185D01*
X119673430Y-86208989D01*
X119683374Y-86278147D01*
X119678567Y-86298818D01*
X119639193Y-86419999D01*
X119637326Y-86425744D01*
X119617540Y-86614000D01*
X119637326Y-86802256D01*
X119637327Y-86802259D01*
X119695818Y-86982277D01*
X119695821Y-86982284D01*
X119790466Y-87146215D01*
X119810205Y-87168137D01*
X119840436Y-87231129D01*
X119831811Y-87300464D01*
X119810207Y-87334081D01*
X119792468Y-87353782D01*
X119792464Y-87353787D01*
X119697821Y-87517715D01*
X119697818Y-87517722D01*
X119649574Y-87666203D01*
X119639326Y-87697744D01*
X119619540Y-87886000D01*
X119639326Y-88074256D01*
X119639327Y-88074259D01*
X119697818Y-88254277D01*
X119697821Y-88254284D01*
X119792467Y-88418216D01*
X119848548Y-88480500D01*
X119919129Y-88558888D01*
X120072265Y-88670148D01*
X120072270Y-88670151D01*
X120245192Y-88747142D01*
X120245197Y-88747144D01*
X120430354Y-88786500D01*
X120430355Y-88786500D01*
X120523309Y-88786500D01*
X120590348Y-88806185D01*
X120636103Y-88858989D01*
X120646628Y-88897534D01*
X120653326Y-88961256D01*
X120653327Y-88961259D01*
X120711818Y-89141277D01*
X120711821Y-89141284D01*
X120806467Y-89305216D01*
X120877211Y-89383785D01*
X120933129Y-89445888D01*
X121016203Y-89506245D01*
X121058869Y-89561575D01*
X121064848Y-89631188D01*
X121061249Y-89644880D01*
X121034328Y-89727737D01*
X121034326Y-89727743D01*
X121020978Y-89854744D01*
X121014540Y-89916000D01*
X121034326Y-90104256D01*
X121034327Y-90104259D01*
X121092818Y-90284277D01*
X121092821Y-90284284D01*
X121187467Y-90448216D01*
X121301817Y-90575214D01*
X121314129Y-90588888D01*
X121467265Y-90700148D01*
X121467270Y-90700151D01*
X121640192Y-90777142D01*
X121640197Y-90777144D01*
X121825354Y-90816500D01*
X121825355Y-90816500D01*
X122014644Y-90816500D01*
X122014646Y-90816500D01*
X122199803Y-90777144D01*
X122372730Y-90700151D01*
X122525871Y-90588888D01*
X122652533Y-90448216D01*
X122747179Y-90284284D01*
X122805674Y-90104256D01*
X122825460Y-89916000D01*
X122805674Y-89727744D01*
X122747179Y-89547716D01*
X122652533Y-89383784D01*
X122525871Y-89243112D01*
X122442794Y-89182753D01*
X122400130Y-89127424D01*
X122394151Y-89057810D01*
X122397747Y-89044125D01*
X122424674Y-88961256D01*
X122444460Y-88773000D01*
X122424674Y-88584744D01*
X122366179Y-88404716D01*
X122271533Y-88240784D01*
X122144871Y-88100112D01*
X122144870Y-88100111D01*
X121991734Y-87988851D01*
X121991729Y-87988848D01*
X121818807Y-87911857D01*
X121818802Y-87911855D01*
X121673001Y-87880865D01*
X121633646Y-87872500D01*
X121540692Y-87872500D01*
X121473653Y-87852815D01*
X121427898Y-87800011D01*
X121417371Y-87761461D01*
X121410674Y-87697745D01*
X121410672Y-87697740D01*
X121352179Y-87517716D01*
X121257533Y-87353784D01*
X121237793Y-87331861D01*
X121207564Y-87268871D01*
X121216188Y-87199535D01*
X121237793Y-87165918D01*
X121255533Y-87146216D01*
X121350179Y-86982284D01*
X121408674Y-86802256D01*
X121428460Y-86614000D01*
X121408674Y-86425744D01*
X121384237Y-86350538D01*
X121382243Y-86280698D01*
X121418323Y-86220865D01*
X121451733Y-86198942D01*
X121547765Y-86156185D01*
X121610730Y-86128151D01*
X121763871Y-86016888D01*
X121890533Y-85876216D01*
X121909979Y-85842533D01*
X121960545Y-85794317D01*
X122029152Y-85781093D01*
X122094017Y-85807060D01*
X122113221Y-85825869D01*
X122118587Y-85832408D01*
X122171968Y-85876216D01*
X122278550Y-85963685D01*
X122461046Y-86061232D01*
X122659066Y-86121300D01*
X122659065Y-86121300D01*
X122697647Y-86125100D01*
X122813392Y-86136500D01*
X122813395Y-86136500D01*
X123516605Y-86136500D01*
X123516608Y-86136500D01*
X123670934Y-86121300D01*
X123868954Y-86061232D01*
X124051450Y-85963685D01*
X124211410Y-85832410D01*
X124227663Y-85812605D01*
X124285404Y-85773272D01*
X124355248Y-85771399D01*
X124415018Y-85807585D01*
X124415642Y-85808272D01*
X124437378Y-85832413D01*
X124489129Y-85889888D01*
X124642265Y-86001148D01*
X124642270Y-86001151D01*
X124815192Y-86078142D01*
X124815197Y-86078144D01*
X125000354Y-86117500D01*
X125000355Y-86117500D01*
X125189644Y-86117500D01*
X125189646Y-86117500D01*
X125374803Y-86078144D01*
X125547730Y-86001151D01*
X125700871Y-85889888D01*
X125734986Y-85852000D01*
X131428540Y-85852000D01*
X131448326Y-86040256D01*
X131448327Y-86040259D01*
X131506818Y-86220277D01*
X131506821Y-86220284D01*
X131601467Y-86384216D01*
X131719872Y-86515718D01*
X131728129Y-86524888D01*
X131881265Y-86636148D01*
X131881270Y-86636151D01*
X132054192Y-86713142D01*
X132054197Y-86713144D01*
X132239354Y-86752500D01*
X132239355Y-86752500D01*
X132428644Y-86752500D01*
X132428646Y-86752500D01*
X132613803Y-86713144D01*
X132786730Y-86636151D01*
X132939871Y-86524888D01*
X133066533Y-86384216D01*
X133161179Y-86220284D01*
X133219674Y-86040256D01*
X133239460Y-85852000D01*
X133219674Y-85663744D01*
X133161179Y-85483716D01*
X133066533Y-85319784D01*
X132939871Y-85179112D01*
X132939870Y-85179111D01*
X132786734Y-85067851D01*
X132786729Y-85067848D01*
X132613807Y-84990857D01*
X132613802Y-84990855D01*
X132468001Y-84959865D01*
X132428646Y-84951500D01*
X132239354Y-84951500D01*
X132206897Y-84958398D01*
X132054197Y-84990855D01*
X132054192Y-84990857D01*
X131881270Y-85067848D01*
X131881265Y-85067851D01*
X131728129Y-85179111D01*
X131601466Y-85319785D01*
X131506821Y-85483715D01*
X131506818Y-85483722D01*
X131473819Y-85585284D01*
X131448326Y-85663744D01*
X131428540Y-85852000D01*
X125734986Y-85852000D01*
X125827533Y-85749216D01*
X125922179Y-85585284D01*
X125980674Y-85405256D01*
X126000460Y-85217000D01*
X125980674Y-85028744D01*
X125922179Y-84848716D01*
X125827533Y-84684784D01*
X125700871Y-84544112D01*
X125647001Y-84504973D01*
X125547734Y-84432851D01*
X125547729Y-84432848D01*
X125374807Y-84355857D01*
X125374802Y-84355855D01*
X125218020Y-84322531D01*
X125189646Y-84316500D01*
X125000354Y-84316500D01*
X124971980Y-84322531D01*
X124815197Y-84355855D01*
X124815192Y-84355857D01*
X124642270Y-84432848D01*
X124642265Y-84432851D01*
X124514873Y-84525407D01*
X124449067Y-84548887D01*
X124381013Y-84533061D01*
X124346134Y-84503753D01*
X124342682Y-84499547D01*
X124287945Y-84432849D01*
X124211410Y-84339589D01*
X124093677Y-84242969D01*
X124051450Y-84208315D01*
X123868954Y-84110768D01*
X123670934Y-84050700D01*
X123670932Y-84050699D01*
X123670934Y-84050699D01*
X123551805Y-84038966D01*
X123516608Y-84035500D01*
X122813392Y-84035500D01*
X122775298Y-84039251D01*
X122659067Y-84050699D01*
X122461043Y-84110769D01*
X122363556Y-84162878D01*
X122278550Y-84208315D01*
X122278548Y-84208316D01*
X122278547Y-84208317D01*
X122118589Y-84339589D01*
X121987315Y-84499548D01*
X121925855Y-84614530D01*
X121876892Y-84664373D01*
X121808755Y-84679833D01*
X121743613Y-84656393D01*
X121610734Y-84559851D01*
X121610729Y-84559848D01*
X121437807Y-84482857D01*
X121437802Y-84482855D01*
X121292001Y-84451865D01*
X121252646Y-84443500D01*
X121063354Y-84443500D01*
X121030897Y-84450398D01*
X120878197Y-84482855D01*
X120878192Y-84482857D01*
X120705379Y-84559800D01*
X120636129Y-84569085D01*
X120572852Y-84539457D01*
X120545584Y-84504973D01*
X120542686Y-84499551D01*
X120542684Y-84499549D01*
X120542682Y-84499547D01*
X120487945Y-84432849D01*
X120411410Y-84339589D01*
X120293677Y-84242969D01*
X120251450Y-84208315D01*
X120068954Y-84110768D01*
X119870934Y-84050700D01*
X119870932Y-84050699D01*
X119870934Y-84050699D01*
X119751805Y-84038966D01*
X119716608Y-84035500D01*
X119013392Y-84035500D01*
X118975298Y-84039251D01*
X118859067Y-84050699D01*
X118661043Y-84110769D01*
X118563556Y-84162878D01*
X118478550Y-84208315D01*
X118478548Y-84208316D01*
X118478547Y-84208317D01*
X118318589Y-84339589D01*
X118187317Y-84499547D01*
X118187316Y-84499548D01*
X118187315Y-84499550D01*
X118158532Y-84553398D01*
X118089769Y-84682043D01*
X118089768Y-84682045D01*
X118089768Y-84682046D01*
X118088937Y-84684785D01*
X118029699Y-84880067D01*
X118009417Y-85086000D01*
X117000500Y-85086000D01*
X117000500Y-84001622D01*
X117000585Y-83998376D01*
X117003403Y-83944600D01*
X117007497Y-83866486D01*
X117017803Y-83682968D01*
X117018464Y-83676791D01*
X117042611Y-83524331D01*
X117070227Y-83361796D01*
X117071451Y-83356196D01*
X117105265Y-83230000D01*
X126156186Y-83230000D01*
X126176601Y-83463346D01*
X126176603Y-83463356D01*
X126237225Y-83689603D01*
X126237227Y-83689607D01*
X126237228Y-83689611D01*
X126336223Y-83901907D01*
X126470579Y-84093787D01*
X126636213Y-84259421D01*
X126828093Y-84393777D01*
X127040389Y-84492772D01*
X127040395Y-84492773D01*
X127040396Y-84492774D01*
X127081371Y-84503753D01*
X127266649Y-84553398D01*
X127453329Y-84569730D01*
X127499999Y-84573814D01*
X127500000Y-84573814D01*
X127500001Y-84573814D01*
X127538891Y-84570411D01*
X127733351Y-84553398D01*
X127959611Y-84492772D01*
X128171907Y-84393777D01*
X128363787Y-84259421D01*
X128529421Y-84093787D01*
X128663777Y-83901907D01*
X128663777Y-83901905D01*
X128666882Y-83897472D01*
X128668323Y-83898481D01*
X128713172Y-83855712D01*
X128781778Y-83842484D01*
X128846645Y-83868447D01*
X128872294Y-83898048D01*
X128873118Y-83897472D01*
X128876222Y-83901905D01*
X128876223Y-83901907D01*
X129010579Y-84093787D01*
X129176213Y-84259421D01*
X129368093Y-84393777D01*
X129580389Y-84492772D01*
X129580395Y-84492773D01*
X129580396Y-84492774D01*
X129621371Y-84503753D01*
X129806649Y-84553398D01*
X129993329Y-84569730D01*
X130039999Y-84573814D01*
X130040000Y-84573814D01*
X130040001Y-84573814D01*
X130078891Y-84570411D01*
X130273351Y-84553398D01*
X130499611Y-84492772D01*
X130711907Y-84393777D01*
X130903787Y-84259421D01*
X131069421Y-84093787D01*
X131203777Y-83901907D01*
X131203777Y-83901905D01*
X131206882Y-83897472D01*
X131208323Y-83898481D01*
X131253172Y-83855712D01*
X131321778Y-83842484D01*
X131386645Y-83868447D01*
X131412294Y-83898048D01*
X131413118Y-83897472D01*
X131416222Y-83901905D01*
X131416223Y-83901907D01*
X131550579Y-84093787D01*
X131716213Y-84259421D01*
X131908093Y-84393777D01*
X132120389Y-84492772D01*
X132120395Y-84492773D01*
X132120396Y-84492774D01*
X132161371Y-84503753D01*
X132346649Y-84553398D01*
X132533329Y-84569730D01*
X132579999Y-84573814D01*
X132580000Y-84573814D01*
X132580001Y-84573814D01*
X132618891Y-84570411D01*
X132813351Y-84553398D01*
X133039611Y-84492772D01*
X133251907Y-84393777D01*
X133443787Y-84259421D01*
X133609421Y-84093787D01*
X133743777Y-83901907D01*
X133842772Y-83689611D01*
X133903398Y-83463351D01*
X133923814Y-83230000D01*
X133923376Y-83224999D01*
X133919730Y-83183329D01*
X133903398Y-82996649D01*
X133842772Y-82770389D01*
X133743777Y-82558093D01*
X133609421Y-82366213D01*
X133443787Y-82200579D01*
X133251907Y-82066223D01*
X133039611Y-81967228D01*
X133039607Y-81967227D01*
X133039603Y-81967225D01*
X132813356Y-81906603D01*
X132813346Y-81906601D01*
X132580001Y-81886186D01*
X132579999Y-81886186D01*
X132346653Y-81906601D01*
X132346643Y-81906603D01*
X132120396Y-81967225D01*
X132120389Y-81967227D01*
X132120389Y-81967228D01*
X131908093Y-82066223D01*
X131716213Y-82200579D01*
X131716211Y-82200580D01*
X131716208Y-82200583D01*
X131550583Y-82366208D01*
X131550580Y-82366211D01*
X131550579Y-82366213D01*
X131416619Y-82557528D01*
X131413118Y-82562528D01*
X131411680Y-82561521D01*
X131366810Y-82604297D01*
X131298202Y-82617513D01*
X131233340Y-82591540D01*
X131207702Y-82561953D01*
X131206882Y-82562528D01*
X131203381Y-82557528D01*
X131069421Y-82366213D01*
X130903787Y-82200579D01*
X130711907Y-82066223D01*
X130499611Y-81967228D01*
X130499607Y-81967227D01*
X130499603Y-81967225D01*
X130273356Y-81906603D01*
X130273346Y-81906601D01*
X130040001Y-81886186D01*
X130039999Y-81886186D01*
X129806653Y-81906601D01*
X129806643Y-81906603D01*
X129580396Y-81967225D01*
X129580389Y-81967227D01*
X129580389Y-81967228D01*
X129368093Y-82066223D01*
X129176213Y-82200579D01*
X129176211Y-82200580D01*
X129176208Y-82200583D01*
X129010583Y-82366208D01*
X129010580Y-82366211D01*
X129010579Y-82366213D01*
X128876619Y-82557528D01*
X128873118Y-82562528D01*
X128871680Y-82561521D01*
X128826810Y-82604297D01*
X128758202Y-82617513D01*
X128693340Y-82591540D01*
X128667702Y-82561953D01*
X128666882Y-82562528D01*
X128663381Y-82557528D01*
X128529421Y-82366213D01*
X128363787Y-82200579D01*
X128171907Y-82066223D01*
X127959611Y-81967228D01*
X127959607Y-81967227D01*
X127959603Y-81967225D01*
X127733356Y-81906603D01*
X127733346Y-81906601D01*
X127500001Y-81886186D01*
X127499999Y-81886186D01*
X127266653Y-81906601D01*
X127266643Y-81906603D01*
X127040396Y-81967225D01*
X127040389Y-81967227D01*
X127040389Y-81967228D01*
X126828093Y-82066223D01*
X126636213Y-82200579D01*
X126636211Y-82200580D01*
X126636208Y-82200583D01*
X126470583Y-82366208D01*
X126470580Y-82366211D01*
X126470579Y-82366213D01*
X126336223Y-82558093D01*
X126239561Y-82765387D01*
X126237229Y-82770387D01*
X126237225Y-82770396D01*
X126176603Y-82996643D01*
X126176601Y-82996653D01*
X126156186Y-83229999D01*
X126156186Y-83230000D01*
X117105265Y-83230000D01*
X117112425Y-83203279D01*
X117157083Y-83048268D01*
X117158764Y-83043254D01*
X117216127Y-82893815D01*
X117277366Y-82745972D01*
X117279379Y-82741606D01*
X117348425Y-82606097D01*
X117352511Y-82598078D01*
X117359688Y-82585090D01*
X117429655Y-82458494D01*
X117431867Y-82454808D01*
X117519980Y-82319127D01*
X117558953Y-82264199D01*
X117612154Y-82189220D01*
X117614486Y-82186143D01*
X117715655Y-82061209D01*
X117717537Y-82058998D01*
X117822773Y-81941239D01*
X117825092Y-81938787D01*
X117938787Y-81825092D01*
X117941239Y-81822773D01*
X118058998Y-81717537D01*
X118061209Y-81715655D01*
X118186143Y-81614486D01*
X118189220Y-81612154D01*
X118319127Y-81519980D01*
X118329046Y-81513537D01*
X118454808Y-81431867D01*
X118458494Y-81429655D01*
X118589487Y-81357259D01*
X118598078Y-81352511D01*
X118610063Y-81346403D01*
X118741606Y-81279379D01*
X118745972Y-81277366D01*
X118893815Y-81216127D01*
X119043254Y-81158764D01*
X119048268Y-81157083D01*
X119203279Y-81112425D01*
X119356196Y-81071451D01*
X119361796Y-81070227D01*
X119524284Y-81042618D01*
X119676791Y-81018464D01*
X119682968Y-81017803D01*
X119866566Y-81007493D01*
X119998380Y-81000584D01*
X120001622Y-81000500D01*
X124255993Y-81000500D01*
X124323032Y-81020185D01*
X124368787Y-81072989D01*
X124378731Y-81142147D01*
X124363381Y-81186496D01*
X124358503Y-81194947D01*
X124348819Y-81211720D01*
X124348818Y-81211722D01*
X124290327Y-81391740D01*
X124290326Y-81391744D01*
X124270540Y-81580000D01*
X124290326Y-81768256D01*
X124290327Y-81768259D01*
X124348818Y-81948277D01*
X124348821Y-81948284D01*
X124443467Y-82112216D01*
X124524874Y-82202627D01*
X124570129Y-82252888D01*
X124723265Y-82364148D01*
X124723270Y-82364151D01*
X124896192Y-82441142D01*
X124896197Y-82441144D01*
X125081354Y-82480500D01*
X125081355Y-82480500D01*
X125270644Y-82480500D01*
X125270646Y-82480500D01*
X125455803Y-82441144D01*
X125628730Y-82364151D01*
X125781871Y-82252888D01*
X125908533Y-82112216D01*
X126003179Y-81948284D01*
X126061674Y-81768256D01*
X126081460Y-81580000D01*
X126061674Y-81391744D01*
X126003179Y-81211716D01*
X125988619Y-81186497D01*
X125972147Y-81118600D01*
X125994999Y-81052573D01*
X126049920Y-81009383D01*
X126096007Y-81000500D01*
X140087528Y-81000500D01*
X140087532Y-81000500D01*
X140259938Y-80970101D01*
X140424445Y-80910225D01*
X140576055Y-80822692D01*
X140710163Y-80710163D01*
X140822692Y-80576055D01*
X140910225Y-80424445D01*
X140970101Y-80259938D01*
X141000500Y-80087532D01*
X141000500Y-80002705D01*
X141000736Y-79997299D01*
X141004476Y-79954554D01*
X141005784Y-79941277D01*
X141016918Y-79828223D01*
X141020542Y-79808309D01*
X141038402Y-79741653D01*
X141066683Y-79648424D01*
X141072953Y-79632037D01*
X141104420Y-79564558D01*
X141105872Y-79561653D01*
X141150764Y-79477666D01*
X141154657Y-79471331D01*
X141200994Y-79405155D01*
X141203827Y-79401420D01*
X141263122Y-79329168D01*
X141267162Y-79324710D01*
X141324710Y-79267162D01*
X141329168Y-79263122D01*
X141401420Y-79203827D01*
X141405155Y-79200994D01*
X141471334Y-79154654D01*
X141477666Y-79150764D01*
X141561653Y-79105872D01*
X141564558Y-79104420D01*
X141632037Y-79072953D01*
X141648424Y-79066683D01*
X141741653Y-79038402D01*
X141808309Y-79020542D01*
X141828223Y-79016918D01*
X141954542Y-79004477D01*
X141997305Y-79000735D01*
X142002706Y-79000500D01*
X167399975Y-79000500D01*
X167467014Y-79020185D01*
G37*
%TD.AperFunction*%
%TD*%
M02*
