%TF.GenerationSoftware,KiCad,Pcbnew,7.0.8*%
%TF.CreationDate,2024-12-11T22:38:04+01:00*%
%TF.ProjectId,USB-C_PD_Board_V2_CYPD3177,5553422d-435f-4504-945f-426f6172645f,rev?*%
%TF.SameCoordinates,Original*%
%TF.FileFunction,Copper,L4,Bot*%
%TF.FilePolarity,Positive*%
%FSLAX46Y46*%
G04 Gerber Fmt 4.6, Leading zero omitted, Abs format (unit mm)*
G04 Created by KiCad (PCBNEW 7.0.8) date 2024-12-11 22:38:04*
%MOMM*%
%LPD*%
G01*
G04 APERTURE LIST*
%TA.AperFunction,ComponentPad*%
%ADD10C,5.600000*%
%TD*%
%TA.AperFunction,ComponentPad*%
%ADD11R,1.700000X1.700000*%
%TD*%
%TA.AperFunction,ComponentPad*%
%ADD12O,1.700000X1.700000*%
%TD*%
%TA.AperFunction,ComponentPad*%
%ADD13C,1.524000*%
%TD*%
%TA.AperFunction,ComponentPad*%
%ADD14O,1.143000X2.286000*%
%TD*%
%TA.AperFunction,ComponentPad*%
%ADD15C,1.676400*%
%TD*%
%TA.AperFunction,ComponentPad*%
%ADD16O,1.700000X1.100000*%
%TD*%
%TA.AperFunction,SMDPad,CuDef*%
%ADD17R,1.000000X1.000000*%
%TD*%
%TA.AperFunction,ComponentPad*%
%ADD18R,1.600000X1.600000*%
%TD*%
%TA.AperFunction,ComponentPad*%
%ADD19O,1.600000X1.600000*%
%TD*%
%TA.AperFunction,ViaPad*%
%ADD20C,0.800000*%
%TD*%
%TA.AperFunction,ViaPad*%
%ADD21C,0.700000*%
%TD*%
%TA.AperFunction,Conductor*%
%ADD22C,0.300000*%
%TD*%
%TA.AperFunction,Conductor*%
%ADD23C,0.250000*%
%TD*%
G04 APERTURE END LIST*
D10*
%TO.P,H1,1*%
%TO.N,N/C*%
X138000000Y-85000000D03*
%TD*%
D11*
%TO.P,J4,1,Pin_1*%
%TO.N,GND*%
X170160000Y-94040000D03*
D12*
%TO.P,J4,2,Pin_2*%
X170160000Y-96580000D03*
%TO.P,J4,3,Pin_3*%
X170160000Y-99120000D03*
%TD*%
D13*
%TO.P,SW4,1*%
%TO.N,Net-(R18-Pad1)*%
X144565000Y-83225000D03*
%TO.P,SW4,2*%
%TO.N,Net-(R17-Pad1)*%
X146565000Y-83225000D03*
%TO.P,SW4,3*%
%TO.N,Net-(SW2-C)*%
X148565000Y-83225000D03*
%TO.P,SW4,4*%
X150565000Y-83225000D03*
%TO.P,SW4,5*%
%TO.N,Net-(R16-Pad1)*%
X152565000Y-83225000D03*
%TO.P,SW4,6*%
%TO.N,Net-(R15-Pad1)*%
X154565000Y-83225000D03*
D14*
%TO.P,SW4,S1*%
%TO.N,N/C*%
X142465000Y-83225000D03*
%TO.P,SW4,S2*%
X156665000Y-83225000D03*
%TD*%
D15*
%TO.P,SW1,1,A*%
%TO.N,Net-(SW1-A)*%
X159995000Y-99735000D03*
%TO.P,SW1,2,B*%
%TO.N,Net-(SW1-B)*%
X162535000Y-99735000D03*
%TO.P,SW1,3,C*%
%TO.N,unconnected-(SW1-C-Pad3)*%
X165075000Y-99735000D03*
%TD*%
D11*
%TO.P,J1,1,Pin_1*%
%TO.N,+VSW*%
X170160000Y-88960000D03*
D12*
%TO.P,J1,2,Pin_2*%
X170160000Y-86420000D03*
%TO.P,J1,3,Pin_3*%
X170160000Y-83880000D03*
%TD*%
D16*
%TO.P,J2,S1,SHIELD*%
%TO.N,unconnected-(J2-SHIELD-PadS1)*%
X123165000Y-85086000D03*
X119365000Y-85086000D03*
X123165000Y-93726000D03*
X119365000Y-93726000D03*
%TD*%
D15*
%TO.P,SW2,1,A*%
%TO.N,unconnected-(SW2-A-Pad1)*%
X165075000Y-83225000D03*
%TO.P,SW2,2,B*%
%TO.N,Net-(SW2-B)*%
X162535000Y-83225000D03*
%TO.P,SW2,3,C*%
%TO.N,Net-(SW2-C)*%
X159995000Y-83225000D03*
%TD*%
D10*
%TO.P,H2,1*%
%TO.N,N/C*%
X121000000Y-98000000D03*
%TD*%
D13*
%TO.P,SW3,1*%
%TO.N,Net-(R14-Pad1)*%
X144835000Y-99735000D03*
%TO.P,SW3,2*%
%TO.N,Net-(R13-Pad1)*%
X146835000Y-99735000D03*
%TO.P,SW3,3*%
%TO.N,Net-(SW1-A)*%
X148835000Y-99735000D03*
%TO.P,SW3,4*%
X150835000Y-99735000D03*
%TO.P,SW3,5*%
%TO.N,Net-(R12-Pad1)*%
X152835000Y-99735000D03*
%TO.P,SW3,6*%
%TO.N,Net-(R11-Pad1)*%
X154835000Y-99735000D03*
D14*
%TO.P,SW3,S1*%
%TO.N,N/C*%
X142735000Y-99735000D03*
%TO.P,SW3,S2*%
X156935000Y-99735000D03*
%TD*%
D15*
%TO.P,SW5,1,A*%
%TO.N,Net-(SW5-A)*%
X127500000Y-83230000D03*
%TO.P,SW5,2,B*%
%TO.N,VBUS*%
X130040000Y-83230000D03*
%TO.P,SW5,3,C*%
X132580000Y-83230000D03*
%TD*%
D17*
%TO.P,TP2,1,1*%
%TO.N,Net-(U1-FLIP)*%
X142113000Y-85598000D03*
%TD*%
%TO.P,TP3,1,1*%
%TO.N,Net-(U1-FAULT)*%
X144272000Y-85598000D03*
%TD*%
%TO.P,TP1,1,1*%
%TO.N,Net-(U1-SAFE_PWR_EN)*%
X156900000Y-92200000D03*
%TD*%
D18*
%TO.P,D1,1,K*%
%TO.N,Net-(D1-K)*%
X125439000Y-100165000D03*
D19*
%TO.P,D1,2,A*%
%TO.N,Net-(D1-A)*%
X133059000Y-100165000D03*
%TD*%
D17*
%TO.P,TP5,1,1*%
%TO.N,Net-(U1-HPI_SCL)*%
X123317000Y-82169000D03*
%TD*%
%TO.P,TP4,1,1*%
%TO.N,Net-(U1-HPI_SDA)*%
X120396000Y-82169000D03*
%TD*%
D20*
%TO.N,VBUS*%
X130937000Y-92583000D03*
X129921000Y-92583000D03*
X131953000Y-92583000D03*
X132969000Y-92583000D03*
%TO.N,Net-(D1-A)*%
X136400000Y-94700000D03*
D21*
X124797122Y-94952122D03*
D20*
%TO.N,+VSW*%
X136525000Y-98933000D03*
X170180000Y-81169000D03*
X135382000Y-101219000D03*
X167894000Y-85741000D03*
X167894000Y-82312000D03*
X167894000Y-84598000D03*
X138811000Y-100076000D03*
X167894000Y-81169000D03*
X137668000Y-100076000D03*
X136525000Y-96647000D03*
X167894000Y-90313000D03*
X136525000Y-97790000D03*
X141605000Y-87122000D03*
X167894000Y-89170000D03*
X169037000Y-80026000D03*
X137668000Y-98933000D03*
X135382000Y-100076000D03*
X167894000Y-80026000D03*
X137668000Y-101219000D03*
X169037000Y-81169000D03*
X138811000Y-101219000D03*
X167894000Y-83455000D03*
X138800000Y-97800000D03*
X137668000Y-97790000D03*
X167894000Y-86884000D03*
X167894000Y-88027000D03*
X136525000Y-100076000D03*
X136525000Y-101219000D03*
X137668000Y-96647000D03*
X138811000Y-98933000D03*
%TO.N,GND*%
X143900000Y-98100000D03*
X121900000Y-92200000D03*
X166751000Y-97298000D03*
X119300000Y-86585000D03*
X167894000Y-93869000D03*
X138960000Y-93250000D03*
X159300000Y-95000000D03*
X142875000Y-91567000D03*
X151384000Y-85995000D03*
X140970000Y-100330000D03*
X141100000Y-91600000D03*
X162433000Y-85614000D03*
X140970000Y-99060000D03*
X119300000Y-88871000D03*
X157700000Y-87900000D03*
X118000000Y-91157000D03*
X167894000Y-97298000D03*
X118000000Y-90014000D03*
X156210000Y-80010000D03*
X165608000Y-97298000D03*
X158200000Y-95000000D03*
X119300000Y-90014000D03*
X169037000Y-103013000D03*
X167894000Y-100727000D03*
X167894000Y-101870000D03*
X128397000Y-94742000D03*
X122000000Y-86600000D03*
X143510000Y-80010000D03*
X142006000Y-90748000D03*
X142240000Y-80010000D03*
X119300000Y-92300000D03*
X161544000Y-87900000D03*
X167894000Y-98441000D03*
X157480000Y-80010000D03*
X163322000Y-95012000D03*
X169037000Y-101870000D03*
X167894000Y-103013000D03*
X164465000Y-97298000D03*
X118000000Y-86585000D03*
X118000000Y-87728000D03*
X156600000Y-87900000D03*
X167894000Y-92726000D03*
X129697000Y-97028000D03*
X166751000Y-95012000D03*
X167894000Y-99584000D03*
X141097000Y-89916000D03*
X119300000Y-87728000D03*
X144780000Y-80010000D03*
X129697000Y-94742000D03*
X141200000Y-96000000D03*
X167894000Y-95012000D03*
X154559000Y-95123000D03*
X117983000Y-83439000D03*
X154940000Y-80010000D03*
X128397000Y-95885000D03*
X142875000Y-89916000D03*
X167894000Y-96155000D03*
X125222000Y-90182500D03*
X161290000Y-80010000D03*
X161290000Y-85614000D03*
X129697000Y-95885000D03*
X118000000Y-88871000D03*
X128397000Y-97028000D03*
X119300000Y-91157000D03*
X161544000Y-90186000D03*
X162560000Y-80010000D03*
X150241000Y-85995000D03*
X165608000Y-95012000D03*
X118000000Y-92300000D03*
X164465000Y-95012000D03*
X125222000Y-88392000D03*
X170180000Y-101870000D03*
X163322000Y-97298000D03*
X125100000Y-92200000D03*
%TO.N,+3V3*%
X131445000Y-88900000D03*
X142400000Y-96800000D03*
%TO.N,Net-(J2-CC1)*%
X121539000Y-88773000D03*
X132905500Y-90614500D03*
%TO.N,Net-(J2-CC2)*%
X121920000Y-89916000D03*
X131445000Y-90043000D03*
%TO.N,Net-(U1-VBUS_FET_EN)*%
X140723000Y-94577000D03*
X155200000Y-92675500D03*
D21*
%TO.N,Net-(U1-FAULT)*%
X144653000Y-87630000D03*
D20*
%TO.N,Net-(SW1-B)*%
X160274000Y-91837000D03*
%TO.N,Net-(SW2-B)*%
X162687000Y-92726000D03*
X155200000Y-90500000D03*
%TO.N,Net-(R14-Pad1)*%
X156845000Y-94996000D03*
%TO.N,Net-(R18-Pad1)*%
X154432000Y-87773000D03*
%TO.N,Net-(U1-SAFE_PWR_EN)*%
X155200000Y-91600000D03*
D21*
%TO.N,Net-(U1-FLIP)*%
X143383000Y-86995000D03*
D20*
%TO.N,Net-(SW5-A)*%
X121158000Y-85344000D03*
X120523000Y-86614000D03*
X120525000Y-87886000D03*
%TO.N,Net-(U1-HPI_SCL)*%
X132334000Y-85852000D03*
%TO.N,Net-(U1-HPI_SDA)*%
X125095000Y-85217000D03*
D21*
X139688183Y-88188183D03*
D20*
%TO.N,Net-(D3-A)*%
X135509000Y-88138000D03*
X125176000Y-81580000D03*
%TD*%
D22*
%TO.N,Net-(D1-A)*%
X133059000Y-100165000D02*
X133059000Y-98455214D01*
X133351893Y-97748107D02*
X136400000Y-94700000D01*
X130424214Y-100165000D02*
X133059000Y-100165000D01*
X124797122Y-94952122D02*
X129717107Y-99872107D01*
X133351886Y-97748100D02*
G75*
G03*
X133059000Y-98455214I707114J-707100D01*
G01*
X129717100Y-99872114D02*
G75*
G03*
X130424214Y-100165000I707100J707114D01*
G01*
%TO.N,+3V3*%
X132753893Y-89192893D02*
X140068107Y-96507107D01*
X140775214Y-96800000D02*
X142400000Y-96800000D01*
X131445000Y-88900000D02*
X132046786Y-88900000D01*
X140068100Y-96507114D02*
G75*
G03*
X140775214Y-96800000I707100J707114D01*
G01*
X132753900Y-89192886D02*
G75*
G03*
X132046786Y-88900000I-707100J-707114D01*
G01*
%TO.N,Net-(J2-CC1)*%
X121492107Y-88773000D02*
X121539000Y-88773000D01*
X121266053Y-90786053D02*
X121050446Y-90570446D01*
X120904000Y-90216893D02*
X120904000Y-89361107D01*
X132905500Y-90614500D02*
X132733946Y-90786054D01*
X121050447Y-89007553D02*
X121138554Y-88919446D01*
X132380393Y-90932500D02*
X121619607Y-90932500D01*
X121050444Y-89007550D02*
G75*
G03*
X120904000Y-89361107I353556J-353550D01*
G01*
X132380393Y-90932495D02*
G75*
G03*
X132733946Y-90786054I7J499995D01*
G01*
X121492107Y-88773005D02*
G75*
G03*
X121138554Y-88919446I-7J-499995D01*
G01*
X121266050Y-90786056D02*
G75*
G03*
X121619607Y-90932500I353550J353556D01*
G01*
X120904005Y-90216893D02*
G75*
G03*
X121050446Y-90570446I499995J-7D01*
G01*
%TO.N,Net-(J2-CC2)*%
X129078893Y-89281000D02*
X123905107Y-89281000D01*
X123551553Y-89427447D02*
X123209446Y-89769554D01*
X122855893Y-89916000D02*
X121920000Y-89916000D01*
X129901553Y-89896553D02*
X129432446Y-89427446D01*
X131445000Y-90043000D02*
X130255107Y-90043000D01*
X123905107Y-89281005D02*
G75*
G03*
X123551553Y-89427447I-7J-499995D01*
G01*
X129901550Y-89896556D02*
G75*
G03*
X130255107Y-90043000I353550J353556D01*
G01*
X122855893Y-89915995D02*
G75*
G03*
X123209446Y-89769554I7J499995D01*
G01*
X129432449Y-89427443D02*
G75*
G03*
X129078893Y-89281000I-353549J-353557D01*
G01*
D23*
%TO.N,Net-(U1-VBUS_FET_EN)*%
X144253553Y-97253553D02*
X141723446Y-94723446D01*
X153852893Y-97400000D02*
X144607107Y-97400000D01*
X155956000Y-93638607D02*
X155956000Y-95296893D01*
X155809553Y-95650447D02*
X154206446Y-97253554D01*
X155200000Y-92675500D02*
X155809554Y-93285054D01*
X141369893Y-94577000D02*
X140723000Y-94577000D01*
X144253550Y-97253556D02*
G75*
G03*
X144607107Y-97400000I353550J353556D01*
G01*
X155955995Y-93638607D02*
G75*
G03*
X155809554Y-93285054I-499995J7D01*
G01*
X141723449Y-94723443D02*
G75*
G03*
X141369893Y-94577000I-353549J-353557D01*
G01*
X153852893Y-97399995D02*
G75*
G03*
X154206446Y-97253554I7J499995D01*
G01*
X155809556Y-95650450D02*
G75*
G03*
X155956000Y-95296893I-353556J353550D01*
G01*
D22*
%TO.N,Net-(U1-FAULT)*%
X144653000Y-87630000D02*
X144653000Y-87202107D01*
X144272000Y-86406893D02*
X144272000Y-85598000D01*
X144506553Y-86848553D02*
X144418446Y-86760446D01*
X144272005Y-86406893D02*
G75*
G03*
X144418446Y-86760446I499995J-7D01*
G01*
X144652995Y-87202107D02*
G75*
G03*
X144506553Y-86848553I-499995J7D01*
G01*
%TO.N,Net-(SW1-B)*%
X161817447Y-99017447D02*
X162535000Y-99735000D01*
X161671000Y-93441107D02*
X161671000Y-98663893D01*
X160274000Y-91837000D02*
X161524554Y-93087554D01*
X161671005Y-98663893D02*
G75*
G03*
X161817447Y-99017447I499995J-7D01*
G01*
X161670995Y-93441107D02*
G75*
G03*
X161524554Y-93087554I-499995J7D01*
G01*
D23*
%TO.N,Net-(SW2-B)*%
X159692500Y-90132500D02*
X160093500Y-90132500D01*
X155200000Y-90500000D02*
X159117893Y-90500000D01*
D22*
X160335500Y-90374500D02*
X159893000Y-89932000D01*
D23*
X159692500Y-90132500D02*
X159893000Y-89932000D01*
D22*
X162687000Y-92726000D02*
X160335500Y-90374500D01*
D23*
X160093500Y-90132500D02*
X160335500Y-90374500D01*
X159692500Y-90132500D02*
X159471447Y-90353553D01*
D22*
X159893000Y-89932000D02*
X159893000Y-86074107D01*
X160039447Y-85720553D02*
X162535000Y-83225000D01*
D23*
X159117893Y-90499995D02*
G75*
G03*
X159471447Y-90353553I7J499995D01*
G01*
D22*
X160039444Y-85720550D02*
G75*
G03*
X159893000Y-86074107I353556J-353550D01*
G01*
%TO.N,Net-(R14-Pad1)*%
X153825786Y-98060000D02*
X146924214Y-98060000D01*
X156552107Y-95747893D02*
X154532893Y-97767107D01*
X156845000Y-94996000D02*
X156845000Y-95040786D01*
X146217107Y-98352893D02*
X144835000Y-99735000D01*
X153825786Y-98059990D02*
G75*
G03*
X154532893Y-97767107I14J999990D01*
G01*
X146924214Y-98060010D02*
G75*
G03*
X146217107Y-98352893I-14J-999990D01*
G01*
X156552114Y-95747900D02*
G75*
G03*
X156845000Y-95040786I-707114J707100D01*
G01*
D23*
%TO.N,Net-(SW2-C)*%
X152097107Y-81692893D02*
X150565000Y-83225000D01*
X157755786Y-81400000D02*
X152804214Y-81400000D01*
X159995000Y-83225000D02*
X158462893Y-81692893D01*
X150565000Y-83225000D02*
X148565000Y-83225000D01*
X152804214Y-81400010D02*
G75*
G03*
X152097107Y-81692893I-14J-999990D01*
G01*
X158462900Y-81692886D02*
G75*
G03*
X157755786Y-81400000I-707100J-707114D01*
G01*
%TO.N,Net-(SW1-A)*%
X150835000Y-99735000D02*
X148835000Y-99735000D01*
X152307107Y-101207107D02*
X150835000Y-99735000D01*
X157815786Y-101500000D02*
X153014214Y-101500000D01*
X159995000Y-99735000D02*
X158522893Y-101207107D01*
X157815786Y-101499990D02*
G75*
G03*
X158522893Y-101207107I14J999990D01*
G01*
X152307100Y-101207114D02*
G75*
G03*
X153014214Y-101500000I707100J707114D01*
G01*
D22*
%TO.N,Net-(R18-Pad1)*%
X144565000Y-83621000D02*
X144565000Y-83225000D01*
X154432000Y-87773000D02*
X151676893Y-85017893D01*
X150969786Y-84725000D02*
X146083214Y-84725000D01*
X145376107Y-84432107D02*
X144565000Y-83621000D01*
X151676900Y-85017886D02*
G75*
G03*
X150969786Y-84725000I-707100J-707114D01*
G01*
X145376100Y-84432114D02*
G75*
G03*
X146083214Y-84725000I707100J707114D01*
G01*
D23*
%TO.N,Net-(U1-SAFE_PWR_EN)*%
X155200000Y-91600000D02*
X156092893Y-91600000D01*
X156446447Y-91746447D02*
X156900000Y-92200000D01*
X156446450Y-91746444D02*
G75*
G03*
X156092893Y-91600000I-353550J-353556D01*
G01*
%TO.N,Net-(U1-FLIP)*%
X142113000Y-85725000D02*
X142113000Y-85598000D01*
D22*
X141986000Y-85598000D02*
X141986000Y-85344000D01*
D23*
X143383000Y-86995000D02*
X142113000Y-85725000D01*
D22*
%TO.N,Net-(U1-HPI_SCL)*%
X126699107Y-85471000D02*
X131745893Y-85471000D01*
X124352447Y-82315447D02*
X124821554Y-82784554D01*
X124968000Y-83138107D02*
X124968000Y-83739893D01*
X123317000Y-82169000D02*
X123998893Y-82169000D01*
X125114447Y-84093447D02*
X126345554Y-85324554D01*
X132099447Y-85617447D02*
X132334000Y-85852000D01*
X124967995Y-83138107D02*
G75*
G03*
X124821554Y-82784554I-499995J7D01*
G01*
X124352450Y-82315444D02*
G75*
G03*
X123998893Y-82169000I-353550J-353556D01*
G01*
X126345551Y-85324557D02*
G75*
G03*
X126699107Y-85471000I353549J353557D01*
G01*
X132099450Y-85617444D02*
G75*
G03*
X131745893Y-85471000I-353550J-353556D01*
G01*
X124968005Y-83739893D02*
G75*
G03*
X125114447Y-84093447I499995J-7D01*
G01*
%TO.N,Net-(U1-HPI_SDA)*%
X120396000Y-82977893D02*
X120396000Y-82169000D01*
X123617893Y-83947000D02*
X121365107Y-83947000D01*
X127080107Y-87122000D02*
X131999893Y-87122000D01*
X125095000Y-85217000D02*
X125095000Y-85344000D01*
X138868813Y-89007553D02*
X139688183Y-88188183D01*
X132353447Y-87268447D02*
X134092554Y-89007554D01*
X121011553Y-83800553D02*
X120542446Y-83331446D01*
X125095000Y-85344000D02*
X126726554Y-86975554D01*
X125095000Y-85217000D02*
X123971446Y-84093446D01*
X134446107Y-89154000D02*
X138515259Y-89154000D01*
X120396005Y-82977893D02*
G75*
G03*
X120542446Y-83331446I499995J-7D01*
G01*
X123971449Y-84093443D02*
G75*
G03*
X123617893Y-83947000I-353549J-353557D01*
G01*
X134092551Y-89007557D02*
G75*
G03*
X134446107Y-89154000I353549J353557D01*
G01*
X132353450Y-87268444D02*
G75*
G03*
X131999893Y-87122000I-353550J-353556D01*
G01*
X138515259Y-89153971D02*
G75*
G03*
X138868813Y-89007553I41J499971D01*
G01*
X126726551Y-86975557D02*
G75*
G03*
X127080107Y-87122000I353549J353557D01*
G01*
X121011550Y-83800556D02*
G75*
G03*
X121365107Y-83947000I353550J353556D01*
G01*
%TO.N,Net-(D3-A)*%
X134493000Y-82630107D02*
X134493000Y-86914893D01*
X125176000Y-81580000D02*
X133442893Y-81580000D01*
X134639447Y-87268447D02*
X135509000Y-88138000D01*
X133796447Y-81726447D02*
X134346554Y-82276554D01*
X134493005Y-86914893D02*
G75*
G03*
X134639447Y-87268447I499995J-7D01*
G01*
X134492995Y-82630107D02*
G75*
G03*
X134346554Y-82276554I-499995J7D01*
G01*
X133796450Y-81726444D02*
G75*
G03*
X133442893Y-81580000I-353550J-353556D01*
G01*
%TD*%
%TA.AperFunction,Conductor*%
%TO.N,GND*%
G36*
X163881645Y-83863447D02*
G01*
X163907294Y-83893048D01*
X163908118Y-83892472D01*
X163911222Y-83896905D01*
X163911223Y-83896907D01*
X164045579Y-84088787D01*
X164211213Y-84254421D01*
X164403093Y-84388777D01*
X164413813Y-84393776D01*
X164446003Y-84408786D01*
X164498442Y-84454958D01*
X164517594Y-84522152D01*
X164515278Y-84545042D01*
X164514977Y-84546571D01*
X164497406Y-84668783D01*
X164494500Y-84689000D01*
X164494500Y-91126000D01*
X164494501Y-91126009D01*
X164506052Y-91233450D01*
X164506054Y-91233462D01*
X164517260Y-91284972D01*
X164551383Y-91387497D01*
X164551386Y-91387503D01*
X164629171Y-91508537D01*
X164629179Y-91508548D01*
X164674923Y-91561340D01*
X164674926Y-91561343D01*
X164674930Y-91561347D01*
X164783664Y-91655567D01*
X164783667Y-91655568D01*
X164783668Y-91655569D01*
X164908337Y-91712505D01*
X164914541Y-91715338D01*
X164959357Y-91728497D01*
X164981575Y-91735022D01*
X164981580Y-91735023D01*
X164981584Y-91735024D01*
X165124000Y-91755500D01*
X165124003Y-91755500D01*
X171875500Y-91755500D01*
X171942539Y-91775185D01*
X171988294Y-91827989D01*
X171999500Y-91879500D01*
X171999500Y-100998376D01*
X171999415Y-101001622D01*
X171992509Y-101133382D01*
X171982196Y-101317013D01*
X171981530Y-101323240D01*
X171957394Y-101475630D01*
X171929778Y-101638163D01*
X171928541Y-101643827D01*
X171887579Y-101796702D01*
X171842916Y-101951725D01*
X171841221Y-101956781D01*
X171783877Y-102106170D01*
X171722643Y-102254001D01*
X171720604Y-102258423D01*
X171647488Y-102401921D01*
X171570364Y-102541467D01*
X171568097Y-102545246D01*
X171480019Y-102680872D01*
X171387862Y-102810755D01*
X171385480Y-102813896D01*
X171284385Y-102938738D01*
X171282431Y-102941034D01*
X171177260Y-103058721D01*
X171174870Y-103061248D01*
X171061248Y-103174870D01*
X171058721Y-103177260D01*
X170941034Y-103282431D01*
X170938738Y-103284385D01*
X170813896Y-103385480D01*
X170810755Y-103387862D01*
X170680872Y-103480019D01*
X170545246Y-103568097D01*
X170541467Y-103570364D01*
X170401921Y-103647488D01*
X170258423Y-103720604D01*
X170254001Y-103722643D01*
X170106170Y-103783877D01*
X169956781Y-103841221D01*
X169951725Y-103842916D01*
X169796702Y-103887579D01*
X169643827Y-103928541D01*
X169638163Y-103929778D01*
X169475630Y-103957394D01*
X169323240Y-103981530D01*
X169317013Y-103982196D01*
X169133382Y-103992509D01*
X169001622Y-103999415D01*
X168998376Y-103999500D01*
X142002710Y-103999500D01*
X141997303Y-103999264D01*
X141995015Y-103999063D01*
X141954554Y-103995523D01*
X141828238Y-103983082D01*
X141808299Y-103979454D01*
X141741669Y-103961601D01*
X141648435Y-103933319D01*
X141632027Y-103927040D01*
X141578837Y-103902238D01*
X141564618Y-103895607D01*
X141561605Y-103894101D01*
X141477671Y-103849236D01*
X141471331Y-103845341D01*
X141405170Y-103799015D01*
X141401398Y-103796154D01*
X141329190Y-103736895D01*
X141324688Y-103732815D01*
X141267182Y-103675309D01*
X141263103Y-103670808D01*
X141203844Y-103598600D01*
X141200983Y-103594828D01*
X141154657Y-103528667D01*
X141150762Y-103522327D01*
X141125982Y-103475969D01*
X141105888Y-103438375D01*
X141104406Y-103435411D01*
X141072958Y-103367971D01*
X141066682Y-103351570D01*
X141038403Y-103258349D01*
X141020541Y-103191685D01*
X141016918Y-103171771D01*
X141004482Y-103045519D01*
X141000735Y-103002695D01*
X141000500Y-102997293D01*
X141000500Y-102912472D01*
X141000500Y-102912468D01*
X140970101Y-102740062D01*
X140910225Y-102575555D01*
X140822692Y-102423945D01*
X140822691Y-102423943D01*
X140822690Y-102423942D01*
X140710163Y-102289836D01*
X140576057Y-102177309D01*
X140424446Y-102089775D01*
X140259937Y-102029898D01*
X140087534Y-101999500D01*
X140087532Y-101999500D01*
X140000099Y-101999500D01*
X139598485Y-101999500D01*
X139531446Y-101979815D01*
X139485691Y-101927011D01*
X139475747Y-101857853D01*
X139504772Y-101794297D01*
X139506268Y-101792602D01*
X139543533Y-101751216D01*
X139638179Y-101587284D01*
X139696674Y-101407256D01*
X139716460Y-101219000D01*
X139696674Y-101030744D01*
X139638179Y-100850716D01*
X139556647Y-100709499D01*
X139540175Y-100641600D01*
X139556648Y-100585500D01*
X139560039Y-100579626D01*
X139638179Y-100444284D01*
X139696674Y-100264256D01*
X139716460Y-100076000D01*
X139696674Y-99887744D01*
X139638179Y-99707716D01*
X139556647Y-99566499D01*
X139540175Y-99498600D01*
X139556648Y-99442500D01*
X139638179Y-99301284D01*
X139696674Y-99121256D01*
X139716460Y-98933000D01*
X139696674Y-98744744D01*
X139638179Y-98564716D01*
X139634017Y-98557507D01*
X139554035Y-98418972D01*
X139537562Y-98351072D01*
X139554035Y-98294973D01*
X139559041Y-98286303D01*
X139627179Y-98168284D01*
X139685674Y-97988256D01*
X139705460Y-97800000D01*
X139685674Y-97611744D01*
X139627179Y-97431716D01*
X139532533Y-97267784D01*
X139405871Y-97127112D01*
X139405870Y-97127111D01*
X139252734Y-97015851D01*
X139252729Y-97015848D01*
X139079807Y-96938857D01*
X139079802Y-96938855D01*
X138897840Y-96900179D01*
X138894646Y-96899500D01*
X138705354Y-96899500D01*
X138705353Y-96899500D01*
X138698897Y-96900179D01*
X138698623Y-96897578D01*
X138640556Y-96893138D01*
X138584829Y-96850992D01*
X138560735Y-96785408D01*
X138561139Y-96764222D01*
X138573460Y-96647000D01*
X138553674Y-96458744D01*
X138495179Y-96278716D01*
X138400533Y-96114784D01*
X138356945Y-96066375D01*
X138326716Y-96003385D01*
X138329894Y-95977832D01*
X138329015Y-95978161D01*
X138260742Y-95963309D01*
X138247284Y-95954795D01*
X138120734Y-95862851D01*
X138120729Y-95862848D01*
X137947807Y-95785857D01*
X137947802Y-95785855D01*
X137802001Y-95754865D01*
X137762646Y-95746500D01*
X137573354Y-95746500D01*
X137540897Y-95753398D01*
X137388197Y-95785855D01*
X137388192Y-95785857D01*
X137215270Y-95862848D01*
X137215266Y-95862851D01*
X137169384Y-95896186D01*
X137103578Y-95919665D01*
X137035524Y-95903839D01*
X137023616Y-95896186D01*
X136977733Y-95862851D01*
X136977729Y-95862848D01*
X136804807Y-95785857D01*
X136804803Y-95785856D01*
X136762317Y-95776825D01*
X136700836Y-95743632D01*
X136667059Y-95682469D01*
X136671713Y-95612754D01*
X136713318Y-95556622D01*
X136733239Y-95544331D01*
X136766876Y-95527741D01*
X136799458Y-95510159D01*
X136799467Y-95510151D01*
X136801426Y-95508855D01*
X136819433Y-95498975D01*
X136852730Y-95484151D01*
X137005871Y-95372888D01*
X137132533Y-95232216D01*
X137227179Y-95068284D01*
X137232414Y-95052174D01*
X137255311Y-94981703D01*
X137282893Y-94896813D01*
X137322330Y-94839139D01*
X137386689Y-94811940D01*
X137455535Y-94823855D01*
X137488505Y-94847451D01*
X138407850Y-95766796D01*
X138441335Y-95828119D01*
X138438920Y-95861883D01*
X138446735Y-95859426D01*
X138514137Y-95877831D01*
X138536777Y-95895723D01*
X139569826Y-96928772D01*
X139569842Y-96928802D01*
X139684619Y-97043577D01*
X139684624Y-97043581D01*
X139684628Y-97043585D01*
X139856279Y-97175295D01*
X139985374Y-97249826D01*
X140043648Y-97283470D01*
X140043650Y-97283471D01*
X140043654Y-97283473D01*
X140243545Y-97366268D01*
X140450492Y-97421716D01*
X140452534Y-97422263D01*
X140452539Y-97422264D01*
X140524336Y-97431715D01*
X140667043Y-97450501D01*
X140775223Y-97450500D01*
X141481362Y-97450500D01*
X141521211Y-97457077D01*
X142074119Y-97644722D01*
X142098311Y-97651957D01*
X142105765Y-97654719D01*
X142120193Y-97661142D01*
X142120197Y-97661144D01*
X142305354Y-97700500D01*
X142305355Y-97700500D01*
X142494644Y-97700500D01*
X142494646Y-97700500D01*
X142679803Y-97661144D01*
X142852730Y-97584151D01*
X143005871Y-97472888D01*
X143132533Y-97332216D01*
X143167065Y-97272403D01*
X143217631Y-97224189D01*
X143286238Y-97210965D01*
X143351103Y-97236933D01*
X143362133Y-97246723D01*
X143755214Y-97639804D01*
X143755234Y-97639826D01*
X143774937Y-97659528D01*
X143774944Y-97659541D01*
X143811258Y-97695854D01*
X143811258Y-97695855D01*
X143873894Y-97758490D01*
X144017219Y-97862620D01*
X144175070Y-97943046D01*
X144175072Y-97943046D01*
X144175075Y-97943048D01*
X144262249Y-97971371D01*
X144343558Y-97997789D01*
X144518536Y-98025501D01*
X144607116Y-98025500D01*
X145091477Y-98025500D01*
X145158516Y-98045185D01*
X145204271Y-98097989D01*
X145214215Y-98167147D01*
X145185190Y-98230703D01*
X145135501Y-98265421D01*
X144606794Y-98466202D01*
X144404169Y-98543151D01*
X144400375Y-98544533D01*
X144398977Y-98545123D01*
X144370961Y-98555763D01*
X144366600Y-98557507D01*
X144366603Y-98557506D01*
X144312613Y-98582893D01*
X144307240Y-98586118D01*
X144307192Y-98586038D01*
X144291480Y-98595430D01*
X144201341Y-98637464D01*
X144201337Y-98637466D01*
X144020381Y-98764172D01*
X143947556Y-98836997D01*
X143886232Y-98870481D01*
X143816541Y-98865496D01*
X143760607Y-98823625D01*
X143740899Y-98784252D01*
X143734737Y-98763266D01*
X143640926Y-98581297D01*
X143514372Y-98420370D01*
X143359649Y-98286303D01*
X143339278Y-98274542D01*
X143182355Y-98183942D01*
X143182350Y-98183939D01*
X143182344Y-98183936D01*
X143182342Y-98183936D01*
X142988884Y-98116979D01*
X142786242Y-98087844D01*
X142786240Y-98087843D01*
X142581747Y-98097584D01*
X142382784Y-98145852D01*
X142382780Y-98145853D01*
X142196571Y-98230892D01*
X142196559Y-98230899D01*
X142029796Y-98349650D01*
X142029793Y-98349653D01*
X141888517Y-98497819D01*
X141777834Y-98670046D01*
X141701744Y-98860110D01*
X141663000Y-99061135D01*
X141663000Y-100357567D01*
X141677583Y-100510289D01*
X141677584Y-100510296D01*
X141677585Y-100510300D01*
X141680204Y-100519218D01*
X141730191Y-100689462D01*
X141735263Y-100706734D01*
X141809494Y-100850722D01*
X141829074Y-100888703D01*
X141919853Y-101004139D01*
X141955628Y-101049630D01*
X142110351Y-101183697D01*
X142287650Y-101286061D01*
X142481117Y-101353021D01*
X142683758Y-101382155D01*
X142683759Y-101382156D01*
X142683759Y-101382155D01*
X142683760Y-101382156D01*
X142888255Y-101372415D01*
X143087212Y-101324149D01*
X143087219Y-101324146D01*
X143273428Y-101239107D01*
X143273431Y-101239105D01*
X143273438Y-101239102D01*
X143440204Y-101120349D01*
X143581482Y-100972181D01*
X143692166Y-100799953D01*
X143743039Y-100672875D01*
X143786229Y-100617957D01*
X143852255Y-100595104D01*
X143920156Y-100611577D01*
X143945837Y-100631283D01*
X144020378Y-100705824D01*
X144020384Y-100705829D01*
X144201333Y-100832531D01*
X144201335Y-100832532D01*
X144201338Y-100832534D01*
X144401550Y-100925894D01*
X144614932Y-100983070D01*
X144772123Y-100996822D01*
X144834998Y-101002323D01*
X144835000Y-101002323D01*
X144835002Y-101002323D01*
X144890017Y-100997509D01*
X145055068Y-100983070D01*
X145268450Y-100925894D01*
X145468662Y-100832534D01*
X145649620Y-100705826D01*
X145747319Y-100608127D01*
X145808642Y-100574642D01*
X145878334Y-100579626D01*
X145922681Y-100608127D01*
X146020378Y-100705824D01*
X146020384Y-100705829D01*
X146201333Y-100832531D01*
X146201335Y-100832532D01*
X146201338Y-100832534D01*
X146401550Y-100925894D01*
X146614932Y-100983070D01*
X146772123Y-100996822D01*
X146834998Y-101002323D01*
X146835000Y-101002323D01*
X146835002Y-101002323D01*
X146890017Y-100997509D01*
X147055068Y-100983070D01*
X147268450Y-100925894D01*
X147468662Y-100832534D01*
X147649620Y-100705826D01*
X147747319Y-100608127D01*
X147808642Y-100574642D01*
X147878334Y-100579626D01*
X147922681Y-100608127D01*
X148020378Y-100705824D01*
X148020384Y-100705829D01*
X148201333Y-100832531D01*
X148201335Y-100832532D01*
X148201338Y-100832534D01*
X148401550Y-100925894D01*
X148614932Y-100983070D01*
X148772123Y-100996822D01*
X148834998Y-101002323D01*
X148835000Y-101002323D01*
X148835002Y-101002323D01*
X148890017Y-100997509D01*
X149055068Y-100983070D01*
X149268450Y-100925894D01*
X149319657Y-100902014D01*
X149327733Y-100898916D01*
X149352635Y-100891312D01*
X149782272Y-100689461D01*
X149851318Y-100678772D01*
X149887724Y-100689461D01*
X150322603Y-100893774D01*
X150324738Y-100894718D01*
X150328383Y-100896330D01*
X150328380Y-100896328D01*
X150328382Y-100896329D01*
X150366339Y-100910251D01*
X150374113Y-100913725D01*
X150383387Y-100918660D01*
X150392461Y-100921933D01*
X150397630Y-100924066D01*
X150401550Y-100925894D01*
X150406392Y-100927190D01*
X150411346Y-100928744D01*
X151531606Y-101332839D01*
X151577211Y-101361801D01*
X151808769Y-101593359D01*
X151808790Y-101593382D01*
X151826503Y-101611095D01*
X151826518Y-101611123D01*
X151864809Y-101649413D01*
X151940146Y-101724749D01*
X152009092Y-101777652D01*
X152109187Y-101854456D01*
X152109198Y-101854464D01*
X152293734Y-101961003D01*
X152490576Y-102042535D01*
X152490603Y-102042546D01*
X152618295Y-102076759D01*
X152696421Y-102097692D01*
X152696422Y-102097692D01*
X152696425Y-102097693D01*
X152855046Y-102118573D01*
X152907681Y-102125502D01*
X153014223Y-102125500D01*
X157815777Y-102125500D01*
X157855136Y-102125500D01*
X157857067Y-102125500D01*
X157857353Y-102125490D01*
X157922318Y-102125492D01*
X158038833Y-102110153D01*
X158133572Y-102097683D01*
X158133573Y-102097682D01*
X158133577Y-102097682D01*
X158339399Y-102042535D01*
X158536262Y-101960994D01*
X158720797Y-101854456D01*
X158889847Y-101724742D01*
X158902240Y-101712348D01*
X158902245Y-101712345D01*
X158906596Y-101707993D01*
X158909311Y-101705277D01*
X158909313Y-101705277D01*
X158965184Y-101649406D01*
X158965184Y-101649407D01*
X159018889Y-101595703D01*
X159018889Y-101595702D01*
X159025944Y-101588648D01*
X159025961Y-101588627D01*
X159143408Y-101471180D01*
X159189888Y-101441907D01*
X160436462Y-101002822D01*
X160440989Y-101001421D01*
X160454611Y-100997772D01*
X160463631Y-100993564D01*
X160469209Y-100991288D01*
X160478396Y-100988053D01*
X160478404Y-100988050D01*
X160485241Y-100985436D01*
X160485237Y-100985437D01*
X160485240Y-100985436D01*
X160546477Y-100957207D01*
X160546480Y-100957204D01*
X160552063Y-100953883D01*
X160552195Y-100954105D01*
X160566145Y-100945761D01*
X160666907Y-100898777D01*
X160858787Y-100764421D01*
X161024421Y-100598787D01*
X161158777Y-100406907D01*
X161158777Y-100406905D01*
X161161882Y-100402472D01*
X161163323Y-100403481D01*
X161208172Y-100360712D01*
X161276778Y-100347484D01*
X161341645Y-100373447D01*
X161367294Y-100403048D01*
X161368118Y-100402472D01*
X161371222Y-100406905D01*
X161371223Y-100406907D01*
X161505579Y-100598787D01*
X161671213Y-100764421D01*
X161863093Y-100898777D01*
X162075389Y-100997772D01*
X162075395Y-100997773D01*
X162075396Y-100997774D01*
X162110041Y-101007057D01*
X162301649Y-101058398D01*
X162462638Y-101072483D01*
X162534999Y-101078814D01*
X162535000Y-101078814D01*
X162535001Y-101078814D01*
X162573891Y-101075411D01*
X162768351Y-101058398D01*
X162994611Y-100997772D01*
X163206907Y-100898777D01*
X163398787Y-100764421D01*
X163564421Y-100598787D01*
X163698777Y-100406907D01*
X163698777Y-100406905D01*
X163701882Y-100402472D01*
X163703323Y-100403481D01*
X163748172Y-100360712D01*
X163816778Y-100347484D01*
X163881645Y-100373447D01*
X163907294Y-100403048D01*
X163908118Y-100402472D01*
X163911222Y-100406905D01*
X163911223Y-100406907D01*
X164045579Y-100598787D01*
X164211213Y-100764421D01*
X164403093Y-100898777D01*
X164615389Y-100997772D01*
X164615395Y-100997773D01*
X164615396Y-100997774D01*
X164650041Y-101007057D01*
X164841649Y-101058398D01*
X165002638Y-101072483D01*
X165074999Y-101078814D01*
X165075000Y-101078814D01*
X165075001Y-101078814D01*
X165113891Y-101075411D01*
X165308351Y-101058398D01*
X165534611Y-100997772D01*
X165746907Y-100898777D01*
X165938787Y-100764421D01*
X166104421Y-100598787D01*
X166238777Y-100406907D01*
X166337772Y-100194611D01*
X166398398Y-99968351D01*
X166418814Y-99735000D01*
X166416109Y-99704088D01*
X166404072Y-99566500D01*
X166398398Y-99501649D01*
X166342183Y-99291851D01*
X166337774Y-99275396D01*
X166337773Y-99275395D01*
X166337772Y-99275389D01*
X166238777Y-99063093D01*
X166104421Y-98871213D01*
X165938787Y-98705579D01*
X165746907Y-98571223D01*
X165534611Y-98472228D01*
X165534607Y-98472227D01*
X165534603Y-98472225D01*
X165308356Y-98411603D01*
X165308346Y-98411601D01*
X165075001Y-98391186D01*
X165074999Y-98391186D01*
X164841653Y-98411601D01*
X164841643Y-98411603D01*
X164615396Y-98472225D01*
X164615389Y-98472227D01*
X164615389Y-98472228D01*
X164403093Y-98571223D01*
X164211213Y-98705579D01*
X164211211Y-98705580D01*
X164211208Y-98705583D01*
X164045583Y-98871208D01*
X164045580Y-98871211D01*
X164045579Y-98871213D01*
X163911223Y-99063093D01*
X163908118Y-99067528D01*
X163906680Y-99066521D01*
X163861810Y-99109297D01*
X163793202Y-99122513D01*
X163728340Y-99096540D01*
X163702702Y-99066953D01*
X163701882Y-99067528D01*
X163698777Y-99063093D01*
X163564421Y-98871213D01*
X163398787Y-98705579D01*
X163206907Y-98571223D01*
X162994611Y-98472228D01*
X162994607Y-98472227D01*
X162994603Y-98472225D01*
X162768356Y-98411603D01*
X162768346Y-98411601D01*
X162535001Y-98391186D01*
X162534997Y-98391186D01*
X162456306Y-98398070D01*
X162387807Y-98384303D01*
X162337624Y-98335687D01*
X162321500Y-98274542D01*
X162321500Y-93722055D01*
X162341185Y-93655016D01*
X162393989Y-93609261D01*
X162463147Y-93599317D01*
X162471270Y-93600763D01*
X162592354Y-93626500D01*
X162592355Y-93626500D01*
X162781644Y-93626500D01*
X162781646Y-93626500D01*
X162966803Y-93587144D01*
X163139730Y-93510151D01*
X163292871Y-93398888D01*
X163419533Y-93258216D01*
X163514179Y-93094284D01*
X163572674Y-92914256D01*
X163592460Y-92726000D01*
X163572674Y-92537744D01*
X163514179Y-92357716D01*
X163419533Y-92193784D01*
X163292871Y-92053112D01*
X163292870Y-92053111D01*
X163139730Y-91941848D01*
X163086539Y-91918166D01*
X163066861Y-91907160D01*
X163053876Y-91898258D01*
X163053875Y-91898257D01*
X163053867Y-91898252D01*
X162530225Y-91639976D01*
X162497395Y-91616449D01*
X160579819Y-89698873D01*
X160546334Y-89637550D01*
X160543500Y-89611192D01*
X160543500Y-86187807D01*
X160563185Y-86120768D01*
X160579819Y-86100126D01*
X161047477Y-85632468D01*
X161704322Y-84975622D01*
X161749040Y-84946985D01*
X162984214Y-84490827D01*
X162989641Y-84489103D01*
X162994611Y-84487772D01*
X163000366Y-84485087D01*
X163005076Y-84483123D01*
X163023938Y-84476158D01*
X163028766Y-84474271D01*
X163028764Y-84474271D01*
X163028774Y-84474268D01*
X163028772Y-84474269D01*
X163054742Y-84462181D01*
X163086548Y-84447378D01*
X163086553Y-84447373D01*
X163092039Y-84444097D01*
X163092130Y-84444249D01*
X163106949Y-84435387D01*
X163116353Y-84431002D01*
X163206907Y-84388777D01*
X163398787Y-84254421D01*
X163564421Y-84088787D01*
X163698777Y-83896907D01*
X163698777Y-83896905D01*
X163701882Y-83892472D01*
X163703323Y-83893481D01*
X163748172Y-83850712D01*
X163816778Y-83837484D01*
X163881645Y-83863447D01*
G37*
%TD.AperFunction*%
%TA.AperFunction,Conductor*%
G36*
X119570776Y-81054687D02*
G01*
X119624729Y-81099081D01*
X119646116Y-81165597D01*
X119628146Y-81233117D01*
X119596468Y-81268024D01*
X119538452Y-81311455D01*
X119452206Y-81426664D01*
X119452202Y-81426671D01*
X119401908Y-81561517D01*
X119395981Y-81616650D01*
X119395501Y-81621123D01*
X119395500Y-81621135D01*
X119395500Y-82716870D01*
X119395501Y-82716876D01*
X119401908Y-82776482D01*
X119403218Y-82779993D01*
X119421131Y-82828021D01*
X119423500Y-82835219D01*
X119430927Y-82854284D01*
X119436306Y-82868706D01*
X119452202Y-82911327D01*
X119452204Y-82911331D01*
X119500333Y-82975624D01*
X119502971Y-82979437D01*
X119517430Y-83002103D01*
X119520524Y-83006953D01*
X119769213Y-83295922D01*
X119785764Y-83315153D01*
X119809707Y-83357720D01*
X119811032Y-83361796D01*
X119829787Y-83419521D01*
X119911996Y-83580871D01*
X119911999Y-83580875D01*
X119912001Y-83580879D01*
X119934705Y-83612129D01*
X120018441Y-83727385D01*
X120018442Y-83727386D01*
X120018443Y-83727387D01*
X120021603Y-83730547D01*
X120021626Y-83730573D01*
X120067532Y-83776478D01*
X120082469Y-83791416D01*
X120141354Y-83850302D01*
X120141368Y-83850314D01*
X120196721Y-83905667D01*
X120230206Y-83966990D01*
X120225222Y-84036682D01*
X120183350Y-84092615D01*
X120117886Y-84117032D01*
X120073045Y-84112009D01*
X120033090Y-84099889D01*
X119870934Y-84050700D01*
X119870932Y-84050699D01*
X119870934Y-84050699D01*
X119751805Y-84038966D01*
X119716608Y-84035500D01*
X119013392Y-84035500D01*
X118975298Y-84039251D01*
X118859067Y-84050699D01*
X118661043Y-84110769D01*
X118579806Y-84154192D01*
X118478550Y-84208315D01*
X118478548Y-84208316D01*
X118478547Y-84208317D01*
X118318589Y-84339589D01*
X118187816Y-84498939D01*
X118187315Y-84499550D01*
X118158532Y-84553398D01*
X118089769Y-84682043D01*
X118029699Y-84880067D01*
X118009417Y-85086000D01*
X118029699Y-85291932D01*
X118046484Y-85347264D01*
X118089768Y-85489954D01*
X118187315Y-85672450D01*
X118220006Y-85712284D01*
X118318589Y-85832410D01*
X118415209Y-85911702D01*
X118478550Y-85963685D01*
X118661046Y-86061232D01*
X118859066Y-86121300D01*
X118859065Y-86121300D01*
X118897647Y-86125100D01*
X119013392Y-86136500D01*
X119013395Y-86136500D01*
X119560636Y-86136500D01*
X119627675Y-86156185D01*
X119673430Y-86208989D01*
X119683374Y-86278147D01*
X119678567Y-86298818D01*
X119638047Y-86423526D01*
X119637326Y-86425744D01*
X119617540Y-86614000D01*
X119637326Y-86802256D01*
X119637327Y-86802259D01*
X119695818Y-86982277D01*
X119695821Y-86982284D01*
X119790466Y-87146215D01*
X119810205Y-87168137D01*
X119840436Y-87231129D01*
X119831811Y-87300464D01*
X119810207Y-87334081D01*
X119792468Y-87353782D01*
X119792464Y-87353787D01*
X119697821Y-87517715D01*
X119697818Y-87517722D01*
X119650162Y-87664394D01*
X119639326Y-87697744D01*
X119619540Y-87886000D01*
X119639326Y-88074256D01*
X119639327Y-88074259D01*
X119697818Y-88254277D01*
X119697821Y-88254284D01*
X119792467Y-88418216D01*
X119894662Y-88531715D01*
X119919129Y-88558888D01*
X120072265Y-88670148D01*
X120072270Y-88670151D01*
X120245191Y-88747142D01*
X120245193Y-88747142D01*
X120245197Y-88747144D01*
X120250054Y-88748176D01*
X120311536Y-88781363D01*
X120345317Y-88842523D01*
X120340670Y-88912238D01*
X120338845Y-88916910D01*
X120337784Y-88919472D01*
X120281825Y-89091702D01*
X120253498Y-89270568D01*
X120253500Y-89338519D01*
X120253500Y-90260135D01*
X120253503Y-90260262D01*
X120253503Y-90307429D01*
X120253503Y-90307430D01*
X120281830Y-90486294D01*
X120337788Y-90658523D01*
X120337789Y-90658525D01*
X120419996Y-90819871D01*
X120419999Y-90819875D01*
X120420001Y-90819879D01*
X120455169Y-90868284D01*
X120526441Y-90966385D01*
X120526442Y-90966386D01*
X120526443Y-90966387D01*
X120529603Y-90969547D01*
X120529626Y-90969573D01*
X120548054Y-90988000D01*
X120578606Y-91018552D01*
X120584538Y-91024484D01*
X120590469Y-91030416D01*
X120649354Y-91089302D01*
X120649368Y-91089314D01*
X120751919Y-91191865D01*
X120751929Y-91191876D01*
X120754256Y-91194203D01*
X120754257Y-91194204D01*
X120769760Y-91209707D01*
X120769767Y-91209719D01*
X120806081Y-91246033D01*
X120870107Y-91310059D01*
X121016616Y-91416502D01*
X121177973Y-91498716D01*
X121350204Y-91554675D01*
X121529069Y-91583002D01*
X121619616Y-91583000D01*
X129383728Y-91583000D01*
X129450767Y-91602685D01*
X129496522Y-91655489D01*
X129506466Y-91724647D01*
X129477441Y-91788203D01*
X129456613Y-91807318D01*
X129315129Y-91910111D01*
X129188466Y-92050785D01*
X129093821Y-92214715D01*
X129093818Y-92214722D01*
X129035327Y-92394740D01*
X129035326Y-92394744D01*
X129015540Y-92583000D01*
X129035326Y-92771256D01*
X129035327Y-92771259D01*
X129093818Y-92951277D01*
X129093821Y-92951284D01*
X129188467Y-93115216D01*
X129271753Y-93207714D01*
X129315129Y-93255888D01*
X129468265Y-93367148D01*
X129468270Y-93367151D01*
X129641192Y-93444142D01*
X129641197Y-93444144D01*
X129826354Y-93483500D01*
X129826355Y-93483500D01*
X130015644Y-93483500D01*
X130015646Y-93483500D01*
X130200803Y-93444144D01*
X130373730Y-93367151D01*
X130373734Y-93367148D01*
X130378563Y-93364998D01*
X130447813Y-93355712D01*
X130479437Y-93364998D01*
X130484265Y-93367148D01*
X130484270Y-93367151D01*
X130657197Y-93444144D01*
X130842354Y-93483500D01*
X130842355Y-93483500D01*
X131031644Y-93483500D01*
X131031646Y-93483500D01*
X131216803Y-93444144D01*
X131389730Y-93367151D01*
X131389734Y-93367148D01*
X131394563Y-93364998D01*
X131463813Y-93355712D01*
X131495437Y-93364998D01*
X131500265Y-93367148D01*
X131500270Y-93367151D01*
X131673197Y-93444144D01*
X131858354Y-93483500D01*
X131858355Y-93483500D01*
X132047644Y-93483500D01*
X132047646Y-93483500D01*
X132232803Y-93444144D01*
X132405730Y-93367151D01*
X132405734Y-93367148D01*
X132410563Y-93364998D01*
X132479813Y-93355712D01*
X132511437Y-93364998D01*
X132516265Y-93367148D01*
X132516270Y-93367151D01*
X132689197Y-93444144D01*
X132874354Y-93483500D01*
X132874355Y-93483500D01*
X133063644Y-93483500D01*
X133063646Y-93483500D01*
X133248803Y-93444144D01*
X133421730Y-93367151D01*
X133574871Y-93255888D01*
X133701533Y-93115216D01*
X133796179Y-92951284D01*
X133854674Y-92771256D01*
X133874460Y-92583000D01*
X133854674Y-92394744D01*
X133796179Y-92214716D01*
X133701533Y-92050784D01*
X133574871Y-91910112D01*
X133574870Y-91910111D01*
X133421734Y-91798851D01*
X133421729Y-91798848D01*
X133248807Y-91721857D01*
X133248802Y-91721855D01*
X133204811Y-91712505D01*
X133143329Y-91679313D01*
X133109553Y-91618150D01*
X133114205Y-91548435D01*
X133155810Y-91492303D01*
X133180156Y-91477936D01*
X133318136Y-91416502D01*
X133358230Y-91398651D01*
X133511371Y-91287388D01*
X133621544Y-91165027D01*
X133681029Y-91128380D01*
X133750886Y-91129710D01*
X133801374Y-91160320D01*
X136255365Y-93614311D01*
X136288850Y-93675634D01*
X136283866Y-93745326D01*
X136241994Y-93801259D01*
X136193465Y-93823282D01*
X136120197Y-93838855D01*
X136120192Y-93838857D01*
X135947270Y-93915848D01*
X135947265Y-93915851D01*
X135794129Y-94027111D01*
X135667465Y-94167785D01*
X135572816Y-94331722D01*
X135571596Y-94334463D01*
X135313975Y-94856775D01*
X135290448Y-94889604D01*
X132930227Y-97249826D01*
X132930198Y-97249841D01*
X132815422Y-97364619D01*
X132815417Y-97364625D01*
X132683709Y-97536273D01*
X132683707Y-97536276D01*
X132683705Y-97536279D01*
X132656069Y-97584148D01*
X132575529Y-97723648D01*
X132492729Y-97923553D01*
X132436736Y-98132534D01*
X132436735Y-98132539D01*
X132408500Y-98347030D01*
X132408499Y-98347050D01*
X132408500Y-98408269D01*
X132408500Y-98417451D01*
X132397353Y-98468834D01*
X132092924Y-99137453D01*
X132047229Y-99190309D01*
X132031454Y-99198923D01*
X131362835Y-99503353D01*
X131311452Y-99514500D01*
X130501254Y-99514500D01*
X130501238Y-99514499D01*
X130428269Y-99514499D01*
X130420169Y-99513968D01*
X130349933Y-99504722D01*
X130318666Y-99496345D01*
X130264535Y-99473924D01*
X130236500Y-99457738D01*
X130180350Y-99414653D01*
X130174253Y-99409307D01*
X125830245Y-95065299D01*
X125808413Y-95035780D01*
X125779693Y-94981703D01*
X125571896Y-94590443D01*
X125557408Y-94564975D01*
X125557403Y-94564969D01*
X125554386Y-94560588D01*
X125554451Y-94560543D01*
X125546475Y-94549039D01*
X125497253Y-94463785D01*
X125488981Y-94449457D01*
X125434311Y-94388740D01*
X125369357Y-94316600D01*
X125369354Y-94316598D01*
X125369353Y-94316597D01*
X125369352Y-94316596D01*
X125224715Y-94211510D01*
X125061389Y-94138793D01*
X125061387Y-94138792D01*
X124932854Y-94111472D01*
X124886513Y-94101622D01*
X124707731Y-94101622D01*
X124636376Y-94116788D01*
X124566710Y-94111472D01*
X124510977Y-94069334D01*
X124486872Y-94003754D01*
X124491936Y-93959505D01*
X124500300Y-93931934D01*
X124520583Y-93726000D01*
X124500300Y-93520066D01*
X124440232Y-93322046D01*
X124342685Y-93139550D01*
X124322713Y-93115214D01*
X124211410Y-92979589D01*
X124093677Y-92882969D01*
X124051450Y-92848315D01*
X123868954Y-92750768D01*
X123670934Y-92690700D01*
X123670932Y-92690699D01*
X123670934Y-92690699D01*
X123551805Y-92678966D01*
X123516608Y-92675500D01*
X122813392Y-92675500D01*
X122775298Y-92679251D01*
X122659067Y-92690699D01*
X122461043Y-92750769D01*
X122422710Y-92771259D01*
X122278550Y-92848315D01*
X122278548Y-92848316D01*
X122278547Y-92848317D01*
X122118589Y-92979589D01*
X122007285Y-93115216D01*
X121987315Y-93139550D01*
X121937289Y-93233142D01*
X121889769Y-93322043D01*
X121829699Y-93520067D01*
X121809417Y-93726000D01*
X121829699Y-93931932D01*
X121846258Y-93986519D01*
X121889768Y-94129954D01*
X121987315Y-94312450D01*
X122021969Y-94354677D01*
X122118589Y-94472410D01*
X122181030Y-94523653D01*
X122278550Y-94603685D01*
X122461046Y-94701232D01*
X122659066Y-94761300D01*
X122659065Y-94761300D01*
X122697647Y-94765100D01*
X122813392Y-94776500D01*
X122813395Y-94776500D01*
X123516605Y-94776500D01*
X123516608Y-94776500D01*
X123670934Y-94761300D01*
X123792726Y-94724354D01*
X123862592Y-94723731D01*
X123921705Y-94760979D01*
X123951296Y-94824273D01*
X123952042Y-94855976D01*
X123941937Y-94952121D01*
X123960625Y-95129927D01*
X123960626Y-95129929D01*
X124015869Y-95299951D01*
X124015872Y-95299957D01*
X124105263Y-95454787D01*
X124146934Y-95501068D01*
X124224886Y-95587643D01*
X124224889Y-95587645D01*
X124224892Y-95587648D01*
X124369529Y-95692734D01*
X124406510Y-95709198D01*
X124429230Y-95722357D01*
X124435433Y-95726889D01*
X124435443Y-95726896D01*
X124435449Y-95726899D01*
X124435452Y-95726901D01*
X124546458Y-95785856D01*
X124753326Y-95895723D01*
X124880780Y-95963413D01*
X124910299Y-95985245D01*
X129218826Y-100293772D01*
X129218842Y-100293802D01*
X129333619Y-100408577D01*
X129333624Y-100408581D01*
X129333628Y-100408585D01*
X129505279Y-100540295D01*
X129639797Y-100617957D01*
X129692648Y-100648470D01*
X129692650Y-100648471D01*
X129692654Y-100648473D01*
X129892545Y-100731268D01*
X129909460Y-100735800D01*
X130101534Y-100787263D01*
X130101539Y-100787264D01*
X130178968Y-100797456D01*
X130316043Y-100815501D01*
X130424223Y-100815500D01*
X131311455Y-100815500D01*
X131362838Y-100826647D01*
X132455496Y-101324146D01*
X132536127Y-101360858D01*
X132540266Y-101362661D01*
X132582653Y-101378079D01*
X132587638Y-101380143D01*
X132612504Y-101391739D01*
X132832308Y-101450635D01*
X132994230Y-101464801D01*
X133058998Y-101470468D01*
X133059000Y-101470468D01*
X133059002Y-101470468D01*
X133115807Y-101465498D01*
X133285692Y-101450635D01*
X133505496Y-101391739D01*
X133711734Y-101295568D01*
X133898139Y-101165047D01*
X134059047Y-101004139D01*
X134189568Y-100817734D01*
X134285739Y-100611496D01*
X134324178Y-100468037D01*
X134360541Y-100408380D01*
X134423388Y-100377850D01*
X134492764Y-100386144D01*
X134546642Y-100430629D01*
X134551216Y-100438863D01*
X134551573Y-100438657D01*
X134554820Y-100444281D01*
X134554821Y-100444284D01*
X134598080Y-100519211D01*
X134636352Y-100585501D01*
X134652824Y-100653401D01*
X134636352Y-100709499D01*
X134554820Y-100850718D01*
X134554818Y-100850722D01*
X134502129Y-101012883D01*
X134496326Y-101030744D01*
X134476540Y-101219000D01*
X134496326Y-101407256D01*
X134496327Y-101407259D01*
X134554818Y-101587277D01*
X134554821Y-101587284D01*
X134634180Y-101724739D01*
X134649467Y-101751216D01*
X134686666Y-101792530D01*
X134716895Y-101855519D01*
X134708270Y-101924854D01*
X134663529Y-101978520D01*
X134596876Y-101999478D01*
X134594515Y-101999500D01*
X120001624Y-101999500D01*
X119998378Y-101999415D01*
X119866617Y-101992509D01*
X119682985Y-101982196D01*
X119676758Y-101981530D01*
X119524369Y-101957394D01*
X119361835Y-101929778D01*
X119356171Y-101928541D01*
X119203297Y-101887579D01*
X119048273Y-101842916D01*
X119043217Y-101841221D01*
X118893829Y-101783877D01*
X118745997Y-101722643D01*
X118741575Y-101720604D01*
X118598078Y-101647488D01*
X118458531Y-101570364D01*
X118454767Y-101568106D01*
X118401875Y-101533758D01*
X118319127Y-101480019D01*
X118189243Y-101387862D01*
X118186102Y-101385480D01*
X118146018Y-101353021D01*
X118061258Y-101284383D01*
X118058964Y-101282431D01*
X117941277Y-101177260D01*
X117938750Y-101174870D01*
X117825128Y-101061248D01*
X117822738Y-101058721D01*
X117822449Y-101058398D01*
X117764519Y-100993574D01*
X117717567Y-100941034D01*
X117715613Y-100938738D01*
X117614510Y-100813886D01*
X117612136Y-100810755D01*
X117595468Y-100787264D01*
X117540292Y-100709500D01*
X117519980Y-100680872D01*
X117487406Y-100630715D01*
X117431882Y-100545215D01*
X117429641Y-100541480D01*
X117389053Y-100468040D01*
X117352511Y-100401921D01*
X117312899Y-100324180D01*
X117279388Y-100258412D01*
X117277355Y-100254000D01*
X117216122Y-100106170D01*
X117158769Y-99956759D01*
X117157082Y-99951724D01*
X117128697Y-99853200D01*
X117112414Y-99796679D01*
X117091467Y-99718504D01*
X117071453Y-99643811D01*
X117070226Y-99638194D01*
X117042601Y-99475606D01*
X117042335Y-99473924D01*
X117018465Y-99323212D01*
X117017803Y-99317027D01*
X117007503Y-99133628D01*
X117000584Y-99001620D01*
X117000500Y-98998377D01*
X117000500Y-98000002D01*
X117694652Y-98000002D01*
X117696035Y-98025501D01*
X117713686Y-98351072D01*
X117714028Y-98357368D01*
X117714029Y-98357385D01*
X117771926Y-98710539D01*
X117771932Y-98710565D01*
X117867672Y-99055392D01*
X117867674Y-99055399D01*
X118000142Y-99387870D01*
X118000151Y-99387888D01*
X118167784Y-99704077D01*
X118167787Y-99704082D01*
X118167789Y-99704085D01*
X118346962Y-99968346D01*
X118368634Y-100000309D01*
X118368641Y-100000319D01*
X118555246Y-100220007D01*
X118600332Y-100273086D01*
X118860163Y-100519211D01*
X119145081Y-100735800D01*
X119451747Y-100920315D01*
X119451749Y-100920316D01*
X119451751Y-100920317D01*
X119451755Y-100920319D01*
X119731256Y-101049629D01*
X119776565Y-101070591D01*
X120115726Y-101184868D01*
X120465254Y-101261805D01*
X120821052Y-101300500D01*
X120821058Y-101300500D01*
X121178942Y-101300500D01*
X121178948Y-101300500D01*
X121534746Y-101261805D01*
X121884274Y-101184868D01*
X122223435Y-101070591D01*
X122548253Y-100920315D01*
X122854919Y-100735800D01*
X123139837Y-100519211D01*
X123399668Y-100273086D01*
X123631365Y-100000311D01*
X123832211Y-99704085D01*
X123904945Y-99566893D01*
X123953738Y-99516886D01*
X124021823Y-99501194D01*
X124087583Y-99524804D01*
X124130140Y-99580217D01*
X124138500Y-99624978D01*
X124138500Y-101012870D01*
X124138501Y-101012876D01*
X124144908Y-101072483D01*
X124195202Y-101207328D01*
X124195206Y-101207335D01*
X124281452Y-101322544D01*
X124281455Y-101322547D01*
X124396664Y-101408793D01*
X124396671Y-101408797D01*
X124531517Y-101459091D01*
X124531516Y-101459091D01*
X124538444Y-101459835D01*
X124591127Y-101465500D01*
X126286872Y-101465499D01*
X126346483Y-101459091D01*
X126481331Y-101408796D01*
X126596546Y-101322546D01*
X126682796Y-101207331D01*
X126733091Y-101072483D01*
X126739500Y-101012873D01*
X126739499Y-99317128D01*
X126733091Y-99257517D01*
X126729379Y-99247565D01*
X126682797Y-99122671D01*
X126682793Y-99122664D01*
X126596547Y-99007455D01*
X126596544Y-99007452D01*
X126481335Y-98921206D01*
X126481328Y-98921202D01*
X126346482Y-98870908D01*
X126346483Y-98870908D01*
X126286883Y-98864501D01*
X126286881Y-98864500D01*
X126286873Y-98864500D01*
X126286864Y-98864500D01*
X124591129Y-98864500D01*
X124591123Y-98864501D01*
X124531516Y-98870908D01*
X124396671Y-98921202D01*
X124388886Y-98925454D01*
X124387527Y-98922966D01*
X124335574Y-98942335D01*
X124267304Y-98927473D01*
X124217906Y-98878059D01*
X124203065Y-98809784D01*
X124207266Y-98785482D01*
X124228071Y-98710552D01*
X124253447Y-98555763D01*
X124285970Y-98357385D01*
X124285970Y-98357382D01*
X124285972Y-98357371D01*
X124305348Y-98000000D01*
X124304711Y-97988259D01*
X124301203Y-97923545D01*
X124285972Y-97642629D01*
X124285893Y-97642148D01*
X124228073Y-97289460D01*
X124228072Y-97289459D01*
X124228071Y-97289448D01*
X124159806Y-97043577D01*
X124132327Y-96944607D01*
X124132325Y-96944600D01*
X124130036Y-96938856D01*
X124027857Y-96682404D01*
X123999857Y-96612129D01*
X123999848Y-96612111D01*
X123997501Y-96607685D01*
X123832211Y-96295915D01*
X123631365Y-95999689D01*
X123631361Y-95999684D01*
X123631358Y-95999680D01*
X123399668Y-95726914D01*
X123394857Y-95722357D01*
X123139837Y-95480789D01*
X123139830Y-95480783D01*
X123139827Y-95480781D01*
X123044858Y-95408588D01*
X122854919Y-95264200D01*
X122548253Y-95079685D01*
X122548252Y-95079684D01*
X122548248Y-95079682D01*
X122548244Y-95079680D01*
X122223447Y-94929414D01*
X122223441Y-94929411D01*
X122223435Y-94929409D01*
X122007866Y-94856775D01*
X121884273Y-94815131D01*
X121534744Y-94738194D01*
X121178949Y-94699500D01*
X121178948Y-94699500D01*
X120821052Y-94699500D01*
X120821050Y-94699500D01*
X120465254Y-94738194D01*
X120454285Y-94740609D01*
X120384581Y-94735793D01*
X120328546Y-94694058D01*
X120303971Y-94628653D01*
X120318657Y-94560344D01*
X120348967Y-94523655D01*
X120411410Y-94472410D01*
X120542685Y-94312450D01*
X120640232Y-94129954D01*
X120700300Y-93931934D01*
X120720583Y-93726000D01*
X120700300Y-93520066D01*
X120640232Y-93322046D01*
X120542685Y-93139550D01*
X120522713Y-93115214D01*
X120411410Y-92979589D01*
X120293677Y-92882969D01*
X120251450Y-92848315D01*
X120068954Y-92750768D01*
X119870934Y-92690700D01*
X119870932Y-92690699D01*
X119870934Y-92690699D01*
X119751805Y-92678966D01*
X119716608Y-92675500D01*
X119013392Y-92675500D01*
X118975298Y-92679251D01*
X118859067Y-92690699D01*
X118661043Y-92750769D01*
X118622710Y-92771259D01*
X118478550Y-92848315D01*
X118478548Y-92848316D01*
X118478547Y-92848317D01*
X118318589Y-92979589D01*
X118207285Y-93115216D01*
X118187315Y-93139550D01*
X118137289Y-93233142D01*
X118089769Y-93322043D01*
X118029699Y-93520067D01*
X118009417Y-93726000D01*
X118029699Y-93931932D01*
X118046258Y-93986519D01*
X118089768Y-94129954D01*
X118187315Y-94312450D01*
X118221969Y-94354677D01*
X118318589Y-94472410D01*
X118381030Y-94523653D01*
X118478550Y-94603685D01*
X118661046Y-94701232D01*
X118859066Y-94761300D01*
X118859065Y-94761300D01*
X118897647Y-94765100D01*
X119013392Y-94776500D01*
X119013395Y-94776500D01*
X119543734Y-94776500D01*
X119610773Y-94796185D01*
X119656528Y-94848989D01*
X119666472Y-94918147D01*
X119637447Y-94981703D01*
X119595802Y-95013038D01*
X119546647Y-95035780D01*
X119451745Y-95079685D01*
X119198242Y-95232214D01*
X119145081Y-95264200D01*
X119092474Y-95304191D01*
X118860172Y-95480781D01*
X118860163Y-95480789D01*
X118600331Y-95726914D01*
X118368641Y-95999680D01*
X118368634Y-95999690D01*
X118167790Y-96295913D01*
X118167784Y-96295922D01*
X118000151Y-96612111D01*
X118000142Y-96612129D01*
X117867674Y-96944600D01*
X117867672Y-96944607D01*
X117771932Y-97289434D01*
X117771926Y-97289460D01*
X117714029Y-97642614D01*
X117714028Y-97642631D01*
X117694652Y-97999997D01*
X117694652Y-98000002D01*
X117000500Y-98000002D01*
X117000500Y-84001622D01*
X117000585Y-83998376D01*
X117003403Y-83944600D01*
X117007497Y-83866486D01*
X117017803Y-83682968D01*
X117018464Y-83676791D01*
X117042611Y-83524331D01*
X117070227Y-83361796D01*
X117071451Y-83356196D01*
X117112425Y-83203279D01*
X117157083Y-83048268D01*
X117158764Y-83043254D01*
X117216127Y-82893815D01*
X117277366Y-82745972D01*
X117279379Y-82741606D01*
X117352511Y-82598078D01*
X117360790Y-82583098D01*
X117429655Y-82458494D01*
X117431867Y-82454808D01*
X117519980Y-82319127D01*
X117558953Y-82264199D01*
X117612154Y-82189220D01*
X117614486Y-82186143D01*
X117715655Y-82061209D01*
X117717537Y-82058998D01*
X117822773Y-81941239D01*
X117825092Y-81938787D01*
X117938787Y-81825092D01*
X117941239Y-81822773D01*
X118058998Y-81717537D01*
X118061209Y-81715655D01*
X118186143Y-81614486D01*
X118189220Y-81612154D01*
X118319127Y-81519980D01*
X118336444Y-81508734D01*
X118454808Y-81431867D01*
X118458494Y-81429655D01*
X118598078Y-81352511D01*
X118610063Y-81346403D01*
X118741606Y-81279379D01*
X118745972Y-81277366D01*
X118893815Y-81216127D01*
X119043254Y-81158764D01*
X119048268Y-81157083D01*
X119203279Y-81112425D01*
X119356196Y-81071451D01*
X119361817Y-81070224D01*
X119501387Y-81046510D01*
X119570776Y-81054687D01*
G37*
%TD.AperFunction*%
%TA.AperFunction,Conductor*%
G36*
X159560655Y-91115773D02*
G01*
X159591483Y-91178474D01*
X159583518Y-91247888D01*
X159561450Y-91282590D01*
X159541466Y-91304784D01*
X159446821Y-91468715D01*
X159446818Y-91468722D01*
X159397397Y-91620825D01*
X159388326Y-91648744D01*
X159368540Y-91837000D01*
X159388326Y-92025256D01*
X159388327Y-92025259D01*
X159446818Y-92205277D01*
X159446821Y-92205284D01*
X159541467Y-92369216D01*
X159564453Y-92394744D01*
X159668129Y-92509888D01*
X159821268Y-92621150D01*
X159821272Y-92621152D01*
X159874459Y-92644832D01*
X159894138Y-92655837D01*
X159907123Y-92664741D01*
X160430776Y-92923023D01*
X160463601Y-92946547D01*
X160984181Y-93467127D01*
X161017666Y-93528450D01*
X161020500Y-93554808D01*
X161020500Y-98580610D01*
X161000815Y-98647649D01*
X160948011Y-98693404D01*
X160878853Y-98703348D01*
X160825378Y-98682185D01*
X160666907Y-98571223D01*
X160454611Y-98472228D01*
X160454607Y-98472227D01*
X160454603Y-98472225D01*
X160228356Y-98411603D01*
X160228346Y-98411601D01*
X159995001Y-98391186D01*
X159994999Y-98391186D01*
X159761653Y-98411601D01*
X159761643Y-98411603D01*
X159535396Y-98472225D01*
X159535389Y-98472227D01*
X159535389Y-98472228D01*
X159323093Y-98571223D01*
X159131213Y-98705579D01*
X159131211Y-98705580D01*
X159131208Y-98705583D01*
X158965583Y-98871208D01*
X158965580Y-98871211D01*
X158965579Y-98871213D01*
X158929341Y-98922966D01*
X158831222Y-99063093D01*
X158746370Y-99245060D01*
X158745132Y-99247565D01*
X158739720Y-99257923D01*
X158739719Y-99257926D01*
X158738712Y-99260785D01*
X158736429Y-99266377D01*
X158732229Y-99275384D01*
X158732227Y-99275392D01*
X158728580Y-99288997D01*
X158727172Y-99293543D01*
X158288092Y-100540106D01*
X158258816Y-100586591D01*
X158190426Y-100654981D01*
X158129103Y-100688466D01*
X158059411Y-100683482D01*
X158003478Y-100641610D01*
X157979061Y-100576146D01*
X157980985Y-100543838D01*
X158007000Y-100408864D01*
X158007000Y-99112437D01*
X158006700Y-99109297D01*
X157992416Y-98959710D01*
X157992415Y-98959709D01*
X157992415Y-98959700D01*
X157934737Y-98763266D01*
X157840926Y-98581297D01*
X157714372Y-98420370D01*
X157559649Y-98286303D01*
X157539278Y-98274542D01*
X157382355Y-98183942D01*
X157382350Y-98183939D01*
X157382344Y-98183936D01*
X157382342Y-98183936D01*
X157188884Y-98116979D01*
X156986242Y-98087844D01*
X156986240Y-98087843D01*
X156781747Y-98097584D01*
X156582784Y-98145852D01*
X156582780Y-98145853D01*
X156396571Y-98230892D01*
X156396559Y-98230899D01*
X156229796Y-98349650D01*
X156229793Y-98349653D01*
X156088517Y-98497819D01*
X155977833Y-98670048D01*
X155926960Y-98797122D01*
X155883770Y-98852043D01*
X155817743Y-98874895D01*
X155749842Y-98858422D01*
X155724162Y-98838716D01*
X155649621Y-98764175D01*
X155649615Y-98764170D01*
X155468666Y-98637468D01*
X155468662Y-98637466D01*
X155378515Y-98595430D01*
X155268450Y-98544106D01*
X155268447Y-98544105D01*
X155268445Y-98544104D01*
X155055070Y-98486930D01*
X155055063Y-98486929D01*
X155023830Y-98484197D01*
X154958761Y-98458744D01*
X154917783Y-98402153D01*
X154913905Y-98332391D01*
X154946956Y-98272989D01*
X154992861Y-98227085D01*
X155044688Y-98175258D01*
X155044688Y-98175257D01*
X156950048Y-96269895D01*
X156950053Y-96269892D01*
X156960256Y-96259688D01*
X156960258Y-96259688D01*
X156973772Y-96246173D01*
X156973803Y-96246156D01*
X157012090Y-96207867D01*
X157012091Y-96207868D01*
X157062314Y-96157643D01*
X157073663Y-96147162D01*
X157075412Y-96145007D01*
X157079670Y-96140285D01*
X157088585Y-96131372D01*
X157124135Y-96085040D01*
X157513534Y-95605772D01*
X157530275Y-95583982D01*
X157530281Y-95583970D01*
X157532112Y-95581116D01*
X157544355Y-95565063D01*
X157577533Y-95528216D01*
X157672179Y-95364284D01*
X157730674Y-95184256D01*
X157750460Y-94996000D01*
X157730674Y-94807744D01*
X157672179Y-94627716D01*
X157577533Y-94463784D01*
X157450871Y-94323112D01*
X157448194Y-94321167D01*
X157297734Y-94211851D01*
X157297729Y-94211848D01*
X157124807Y-94134857D01*
X157124802Y-94134855D01*
X156968448Y-94101622D01*
X156939646Y-94095500D01*
X156750354Y-94095500D01*
X156731280Y-94099554D01*
X156661613Y-94094237D01*
X156605879Y-94052099D01*
X156581775Y-93986519D01*
X156581500Y-93978263D01*
X156581500Y-93597255D01*
X156581495Y-93597107D01*
X156581495Y-93587142D01*
X156581496Y-93550037D01*
X156553785Y-93375061D01*
X156549805Y-93362814D01*
X156547812Y-93292974D01*
X156583894Y-93233142D01*
X156646595Y-93202315D01*
X156667738Y-93200499D01*
X157447871Y-93200499D01*
X157447872Y-93200499D01*
X157507483Y-93194091D01*
X157642331Y-93143796D01*
X157757546Y-93057546D01*
X157843796Y-92942331D01*
X157894091Y-92807483D01*
X157900500Y-92747873D01*
X157900499Y-91652128D01*
X157894091Y-91592517D01*
X157891057Y-91584383D01*
X157843797Y-91457671D01*
X157843793Y-91457664D01*
X157757547Y-91342455D01*
X157752273Y-91337181D01*
X157718788Y-91275858D01*
X157723772Y-91206166D01*
X157765644Y-91150233D01*
X157831108Y-91125816D01*
X157839954Y-91125500D01*
X159159274Y-91125500D01*
X159159414Y-91125495D01*
X159206463Y-91125496D01*
X159381440Y-91097785D01*
X159430983Y-91081687D01*
X159500822Y-91079693D01*
X159560655Y-91115773D01*
G37*
%TD.AperFunction*%
%TA.AperFunction,Conductor*%
G36*
X157836540Y-82036129D02*
G01*
X157867802Y-82044506D01*
X157927963Y-82069424D01*
X157955999Y-82085610D01*
X158017322Y-82132665D01*
X158023424Y-82138016D01*
X158037523Y-82152114D01*
X158258815Y-82373405D01*
X158288091Y-82419890D01*
X158727175Y-83666464D01*
X158728583Y-83671012D01*
X158732226Y-83684605D01*
X158732228Y-83684611D01*
X158736426Y-83693613D01*
X158738713Y-83699218D01*
X158741946Y-83708396D01*
X158741948Y-83708400D01*
X158744563Y-83715241D01*
X158744563Y-83715240D01*
X158750162Y-83727385D01*
X158772790Y-83776475D01*
X158776113Y-83782059D01*
X158775892Y-83782190D01*
X158784237Y-83796147D01*
X158831221Y-83896904D01*
X158831222Y-83896906D01*
X158831223Y-83896907D01*
X158965579Y-84088787D01*
X159131213Y-84254421D01*
X159323093Y-84388777D01*
X159535389Y-84487772D01*
X159535395Y-84487773D01*
X159535396Y-84487774D01*
X159577065Y-84498939D01*
X159761649Y-84548398D01*
X159984109Y-84567861D01*
X160049177Y-84593314D01*
X160090156Y-84649904D01*
X160094034Y-84719666D01*
X160060982Y-84779070D01*
X159631298Y-85208755D01*
X159631292Y-85208759D01*
X159615794Y-85224259D01*
X159615782Y-85224265D01*
X159515442Y-85324605D01*
X159515440Y-85324608D01*
X159408998Y-85471116D01*
X159326786Y-85632468D01*
X159326781Y-85632479D01*
X159270825Y-85804702D01*
X159242498Y-85983568D01*
X159242500Y-86055403D01*
X159242500Y-89646546D01*
X159222815Y-89713585D01*
X159206181Y-89734227D01*
X159102227Y-89838181D01*
X159040904Y-89871666D01*
X159014546Y-89874500D01*
X156128236Y-89874500D01*
X156084391Y-89866489D01*
X155845443Y-89776162D01*
X155559437Y-89668045D01*
X155542407Y-89661608D01*
X155542401Y-89661606D01*
X155542393Y-89661603D01*
X155502016Y-89648388D01*
X155496088Y-89646106D01*
X155490567Y-89643648D01*
X155479804Y-89638856D01*
X155349653Y-89611192D01*
X155294646Y-89599500D01*
X155105354Y-89599500D01*
X155077046Y-89605517D01*
X154920197Y-89638855D01*
X154920192Y-89638857D01*
X154747270Y-89715848D01*
X154747265Y-89715851D01*
X154594129Y-89827111D01*
X154467466Y-89967785D01*
X154372821Y-90131715D01*
X154372818Y-90131722D01*
X154314327Y-90311740D01*
X154314326Y-90311744D01*
X154294540Y-90500000D01*
X154314326Y-90688256D01*
X154314327Y-90688259D01*
X154372818Y-90868277D01*
X154372821Y-90868284D01*
X154431280Y-90969539D01*
X154441939Y-90988000D01*
X154458412Y-91055900D01*
X154441939Y-91112000D01*
X154372821Y-91231715D01*
X154372818Y-91231722D01*
X154336839Y-91342455D01*
X154314326Y-91411744D01*
X154294540Y-91600000D01*
X154314326Y-91788256D01*
X154314327Y-91788259D01*
X154372818Y-91968277D01*
X154372820Y-91968281D01*
X154372821Y-91968284D01*
X154434867Y-92075751D01*
X154451339Y-92143651D01*
X154434867Y-92199749D01*
X154372820Y-92307218D01*
X154372818Y-92307222D01*
X154344381Y-92394744D01*
X154314326Y-92487244D01*
X154294540Y-92675500D01*
X154314326Y-92863756D01*
X154314327Y-92863759D01*
X154372818Y-93043777D01*
X154372821Y-93043784D01*
X154467467Y-93207716D01*
X154574867Y-93326995D01*
X154594129Y-93348388D01*
X154747265Y-93459648D01*
X154747267Y-93459649D01*
X154747270Y-93459651D01*
X154790013Y-93478681D01*
X154812757Y-93488808D01*
X154828898Y-93497477D01*
X154849271Y-93510443D01*
X154849279Y-93510448D01*
X155019204Y-93587144D01*
X155257513Y-93694706D01*
X155310518Y-93740226D01*
X155330499Y-93807178D01*
X155330500Y-93807726D01*
X155330500Y-95193546D01*
X155310815Y-95260585D01*
X155294181Y-95281227D01*
X153837227Y-96738181D01*
X153775904Y-96771666D01*
X153749546Y-96774500D01*
X144710452Y-96774500D01*
X144643413Y-96754815D01*
X144622771Y-96738181D01*
X142205758Y-94321167D01*
X142205747Y-94321147D01*
X142103110Y-94218513D01*
X142103105Y-94218509D01*
X141959786Y-94114383D01*
X141959780Y-94114379D01*
X141801923Y-94033950D01*
X141640207Y-93981408D01*
X141635230Y-93979551D01*
X141083672Y-93746396D01*
X141083664Y-93746393D01*
X141023041Y-93724675D01*
X141018734Y-93722947D01*
X141002809Y-93715857D01*
X141002803Y-93715856D01*
X141002798Y-93715855D01*
X140817646Y-93676500D01*
X140628354Y-93676500D01*
X140595897Y-93683398D01*
X140443197Y-93715855D01*
X140443192Y-93715857D01*
X140270270Y-93792848D01*
X140270265Y-93792851D01*
X140117129Y-93904111D01*
X139990466Y-94044785D01*
X139895821Y-94208715D01*
X139895818Y-94208722D01*
X139855398Y-94333123D01*
X139837326Y-94388744D01*
X139817540Y-94577000D01*
X139837326Y-94765256D01*
X139837327Y-94765259D01*
X139895818Y-94945277D01*
X139895821Y-94945284D01*
X139990467Y-95109216D01*
X140091070Y-95220947D01*
X140117129Y-95249888D01*
X140270265Y-95361148D01*
X140270270Y-95361151D01*
X140443192Y-95438142D01*
X140443195Y-95438143D01*
X140443197Y-95438144D01*
X140628354Y-95477500D01*
X140628355Y-95477500D01*
X140817644Y-95477500D01*
X140817646Y-95477500D01*
X141002803Y-95438144D01*
X141063211Y-95411247D01*
X141070317Y-95408593D01*
X141101951Y-95398944D01*
X141303796Y-95304190D01*
X141372843Y-95293522D01*
X141436700Y-95321877D01*
X141444167Y-95328757D01*
X141930542Y-95815132D01*
X141964027Y-95876455D01*
X141959043Y-95946147D01*
X141917171Y-96002080D01*
X141882712Y-96020235D01*
X141811803Y-96044300D01*
X141521204Y-96142922D01*
X141481356Y-96149500D01*
X140852254Y-96149500D01*
X140852238Y-96149499D01*
X140779269Y-96149499D01*
X140771169Y-96148968D01*
X140700933Y-96139722D01*
X140669666Y-96131345D01*
X140615535Y-96108924D01*
X140587500Y-96092738D01*
X140531350Y-96049653D01*
X140525253Y-96044307D01*
X134497127Y-90016181D01*
X134463642Y-89954858D01*
X134468626Y-89885166D01*
X134510498Y-89829233D01*
X134575962Y-89804816D01*
X134584808Y-89804500D01*
X138557724Y-89804500D01*
X138558528Y-89804474D01*
X138605753Y-89804478D01*
X138784619Y-89776162D01*
X138956854Y-89720213D01*
X139118215Y-89638009D01*
X139264729Y-89531574D01*
X139264737Y-89531566D01*
X139264786Y-89531524D01*
X139270673Y-89525636D01*
X139270678Y-89525634D01*
X139332435Y-89463877D01*
X139380589Y-89415728D01*
X139380589Y-89415726D01*
X139386404Y-89409913D01*
X139386446Y-89409865D01*
X139575008Y-89221302D01*
X139604520Y-89199475D01*
X140049861Y-88962957D01*
X140075329Y-88948469D01*
X140075329Y-88948468D01*
X140079966Y-88945831D01*
X140080126Y-88946113D01*
X140092639Y-88939095D01*
X140115776Y-88928795D01*
X140260413Y-88823709D01*
X140380042Y-88690848D01*
X140469433Y-88536018D01*
X140524680Y-88365986D01*
X140543368Y-88188183D01*
X140524680Y-88010380D01*
X140492668Y-87911857D01*
X140469435Y-87840353D01*
X140469432Y-87840347D01*
X140380042Y-87685518D01*
X140301122Y-87597869D01*
X140269559Y-87562814D01*
X140239329Y-87499823D01*
X140247954Y-87430487D01*
X140276435Y-87389818D01*
X140285338Y-87381385D01*
X140399668Y-87273086D01*
X140493105Y-87163083D01*
X140551507Y-87124732D01*
X140621373Y-87124043D01*
X140680520Y-87161237D01*
X140710170Y-87224504D01*
X140710931Y-87230384D01*
X140719326Y-87310256D01*
X140719327Y-87310259D01*
X140777818Y-87490277D01*
X140777820Y-87490282D01*
X140777821Y-87490284D01*
X140872467Y-87654216D01*
X140992300Y-87787304D01*
X140999129Y-87794888D01*
X141152265Y-87906148D01*
X141152270Y-87906151D01*
X141325192Y-87983142D01*
X141325197Y-87983144D01*
X141510354Y-88022500D01*
X141510355Y-88022500D01*
X141699644Y-88022500D01*
X141699646Y-88022500D01*
X141884803Y-87983144D01*
X142057730Y-87906151D01*
X142210871Y-87794888D01*
X142337533Y-87654216D01*
X142432179Y-87490284D01*
X142437836Y-87472873D01*
X142477272Y-87415199D01*
X142541630Y-87388000D01*
X142610476Y-87399913D01*
X142661953Y-87447156D01*
X142663154Y-87449191D01*
X142691140Y-87497663D01*
X142691139Y-87497663D01*
X142810764Y-87630521D01*
X142810767Y-87630523D01*
X142810770Y-87630526D01*
X142955407Y-87735612D01*
X143118733Y-87808329D01*
X143293609Y-87845500D01*
X143293610Y-87845500D01*
X143472389Y-87845500D01*
X143472391Y-87845500D01*
X143647267Y-87808329D01*
X143669451Y-87798451D01*
X143738701Y-87789165D01*
X143801978Y-87818792D01*
X143837820Y-87873411D01*
X143871748Y-87977831D01*
X143871750Y-87977835D01*
X143961141Y-88132665D01*
X144000944Y-88176871D01*
X144080764Y-88265521D01*
X144080767Y-88265523D01*
X144080770Y-88265526D01*
X144225407Y-88370612D01*
X144388733Y-88443329D01*
X144563609Y-88480500D01*
X144563610Y-88480500D01*
X144742389Y-88480500D01*
X144742391Y-88480500D01*
X144917267Y-88443329D01*
X145080593Y-88370612D01*
X145225230Y-88265526D01*
X145228581Y-88261805D01*
X145261678Y-88225046D01*
X145344859Y-88132665D01*
X145434250Y-87977835D01*
X145489497Y-87807803D01*
X145508185Y-87630000D01*
X145489497Y-87452197D01*
X145466489Y-87381385D01*
X145446832Y-87320888D01*
X145445633Y-87316704D01*
X145440139Y-87294634D01*
X145263229Y-86860298D01*
X145217636Y-86748360D01*
X145210593Y-86732628D01*
X145206106Y-86723455D01*
X145206108Y-86723458D01*
X145194419Y-86704085D01*
X145170228Y-86663989D01*
X145168085Y-86660133D01*
X145144580Y-86614000D01*
X145136999Y-86599120D01*
X145134228Y-86595306D01*
X145110747Y-86529500D01*
X145126571Y-86461446D01*
X145142821Y-86438977D01*
X145146274Y-86435181D01*
X145156879Y-86423523D01*
X145168145Y-86404565D01*
X145171786Y-86399118D01*
X145215796Y-86340331D01*
X145266091Y-86205483D01*
X145272500Y-86145873D01*
X145272499Y-85361262D01*
X145292183Y-85294224D01*
X145344987Y-85248469D01*
X145414146Y-85238525D01*
X145443947Y-85246701D01*
X145477458Y-85260581D01*
X145551544Y-85291268D01*
X145551548Y-85291269D01*
X145760534Y-85347263D01*
X145760539Y-85347264D01*
X145837968Y-85357456D01*
X145975043Y-85375501D01*
X146083223Y-85375500D01*
X150896497Y-85375500D01*
X150896501Y-85375501D01*
X150965729Y-85375500D01*
X150973827Y-85376030D01*
X151044066Y-85385277D01*
X151075333Y-85393654D01*
X151129464Y-85416075D01*
X151157498Y-85432260D01*
X151213648Y-85475345D01*
X151219744Y-85480690D01*
X152273892Y-86534838D01*
X153322449Y-87583395D01*
X153345976Y-87616224D01*
X153603600Y-88138542D01*
X153604819Y-88141279D01*
X153604821Y-88141284D01*
X153607832Y-88146500D01*
X153607833Y-88146501D01*
X153621843Y-88172463D01*
X153624909Y-88177097D01*
X153624742Y-88177206D01*
X153630047Y-88184977D01*
X153699467Y-88305216D01*
X153789063Y-88404722D01*
X153826129Y-88445888D01*
X153979265Y-88557148D01*
X153979270Y-88557151D01*
X154152192Y-88634142D01*
X154152197Y-88634144D01*
X154337354Y-88673500D01*
X154337355Y-88673500D01*
X154526644Y-88673500D01*
X154526646Y-88673500D01*
X154711803Y-88634144D01*
X154884730Y-88557151D01*
X155037871Y-88445888D01*
X155164533Y-88305216D01*
X155259179Y-88141284D01*
X155317674Y-87961256D01*
X155337460Y-87773000D01*
X155317674Y-87584744D01*
X155259179Y-87404716D01*
X155164533Y-87240784D01*
X155037871Y-87100112D01*
X155037870Y-87100111D01*
X154884730Y-86988848D01*
X154831539Y-86965166D01*
X154811861Y-86954160D01*
X154798876Y-86945258D01*
X154798875Y-86945257D01*
X154798867Y-86945252D01*
X154275225Y-86686976D01*
X154242395Y-86663449D01*
X152264833Y-84685887D01*
X152231348Y-84624564D01*
X152236332Y-84554872D01*
X152278204Y-84498939D01*
X152343668Y-84474522D01*
X152363310Y-84474677D01*
X152546733Y-84490724D01*
X152564999Y-84492323D01*
X152565000Y-84492323D01*
X152565002Y-84492323D01*
X152620017Y-84487509D01*
X152785068Y-84473070D01*
X152998450Y-84415894D01*
X153198662Y-84322534D01*
X153379620Y-84195826D01*
X153477319Y-84098127D01*
X153538642Y-84064642D01*
X153608334Y-84069626D01*
X153652681Y-84098127D01*
X153750378Y-84195824D01*
X153750384Y-84195829D01*
X153931333Y-84322531D01*
X153931335Y-84322532D01*
X153931338Y-84322534D01*
X154131550Y-84415894D01*
X154344932Y-84473070D01*
X154482359Y-84485093D01*
X154564998Y-84492323D01*
X154565000Y-84492323D01*
X154565002Y-84492323D01*
X154620017Y-84487509D01*
X154785068Y-84473070D01*
X154998450Y-84415894D01*
X155198662Y-84322534D01*
X155379620Y-84195826D01*
X155452443Y-84123003D01*
X155513766Y-84089518D01*
X155583458Y-84094502D01*
X155639391Y-84136374D01*
X155659101Y-84175748D01*
X155664995Y-84195824D01*
X155665263Y-84196734D01*
X155713053Y-84289434D01*
X155759074Y-84378703D01*
X155874300Y-84525226D01*
X155885628Y-84539630D01*
X156040351Y-84673697D01*
X156217650Y-84776061D01*
X156411117Y-84843021D01*
X156613758Y-84872155D01*
X156613759Y-84872156D01*
X156613759Y-84872155D01*
X156613760Y-84872156D01*
X156818255Y-84862415D01*
X157017212Y-84814149D01*
X157017219Y-84814146D01*
X157203428Y-84729107D01*
X157203431Y-84729105D01*
X157203438Y-84729102D01*
X157370204Y-84610349D01*
X157511482Y-84462181D01*
X157622166Y-84289953D01*
X157698255Y-84099891D01*
X157737000Y-83898864D01*
X157737000Y-82602437D01*
X157736700Y-82599297D01*
X157722416Y-82449710D01*
X157722415Y-82449709D01*
X157722415Y-82449700D01*
X157664737Y-82253266D01*
X157640757Y-82206752D01*
X157627536Y-82138147D01*
X157653504Y-82073282D01*
X157710418Y-82032754D01*
X157767155Y-82026995D01*
X157836540Y-82036129D01*
G37*
%TD.AperFunction*%
%TA.AperFunction,Conductor*%
G36*
X129032231Y-89951185D02*
G01*
X129052873Y-89967819D01*
X129155373Y-90070319D01*
X129188858Y-90131642D01*
X129183874Y-90201334D01*
X129142002Y-90257267D01*
X129076538Y-90281684D01*
X129067692Y-90282000D01*
X123916307Y-90282000D01*
X123849268Y-90262315D01*
X123803513Y-90209511D01*
X123793569Y-90140353D01*
X123822594Y-90076797D01*
X123828626Y-90070319D01*
X123931126Y-89967819D01*
X123992449Y-89934334D01*
X124018807Y-89931500D01*
X128965192Y-89931500D01*
X129032231Y-89951185D01*
G37*
%TD.AperFunction*%
%TA.AperFunction,Conductor*%
G36*
X124415018Y-85807585D02*
G01*
X124415642Y-85808272D01*
X124489129Y-85889888D01*
X124642270Y-86001151D01*
X124664305Y-86010961D01*
X124682018Y-86020648D01*
X125064649Y-86272427D01*
X125167632Y-86340192D01*
X125187151Y-86356097D01*
X126212417Y-87381362D01*
X126212438Y-87381385D01*
X126233856Y-87402803D01*
X126233864Y-87402818D01*
X126319609Y-87488561D01*
X126330609Y-87499561D01*
X126355828Y-87517883D01*
X126477116Y-87606003D01*
X126477118Y-87606004D01*
X126638475Y-87688216D01*
X126638477Y-87688216D01*
X126638480Y-87688218D01*
X126762202Y-87728416D01*
X126810705Y-87744175D01*
X126989569Y-87772502D01*
X127080116Y-87772500D01*
X131238525Y-87772500D01*
X131305564Y-87792185D01*
X131351319Y-87844989D01*
X131361263Y-87914147D01*
X131332238Y-87977703D01*
X131273460Y-88015477D01*
X131264306Y-88017790D01*
X131165197Y-88038855D01*
X131165192Y-88038857D01*
X130992270Y-88115848D01*
X130992265Y-88115851D01*
X130839129Y-88227111D01*
X130712466Y-88367785D01*
X130617821Y-88531715D01*
X130617818Y-88531722D01*
X130559327Y-88711740D01*
X130559326Y-88711744D01*
X130539540Y-88900000D01*
X130559326Y-89088256D01*
X130559327Y-89088259D01*
X130605441Y-89230182D01*
X130607436Y-89300023D01*
X130571356Y-89359856D01*
X130508655Y-89390684D01*
X130487510Y-89392500D01*
X130368808Y-89392500D01*
X130301769Y-89372815D01*
X130281127Y-89356181D01*
X129951314Y-89026368D01*
X129951310Y-89026363D01*
X129944239Y-89019292D01*
X129925143Y-89000196D01*
X129925134Y-89000180D01*
X129828393Y-88903441D01*
X129828391Y-88903439D01*
X129744546Y-88842523D01*
X129681883Y-88796996D01*
X129520519Y-88714781D01*
X129348303Y-88658827D01*
X129348299Y-88658826D01*
X129348295Y-88658825D01*
X129169431Y-88630498D01*
X129169429Y-88630498D01*
X129078884Y-88630500D01*
X123861916Y-88630500D01*
X123861784Y-88630503D01*
X123814571Y-88630503D01*
X123814570Y-88630503D01*
X123791580Y-88634144D01*
X123635704Y-88658830D01*
X123463481Y-88714786D01*
X123463474Y-88714789D01*
X123302116Y-88797002D01*
X123155607Y-88903445D01*
X123155605Y-88903447D01*
X123091584Y-88967470D01*
X123039759Y-89019292D01*
X123039755Y-89019298D01*
X122854311Y-89204741D01*
X122792988Y-89238226D01*
X122726780Y-89234482D01*
X122490622Y-89154336D01*
X122433465Y-89114151D01*
X122407107Y-89049444D01*
X122412540Y-88998597D01*
X122424674Y-88961256D01*
X122444460Y-88773000D01*
X122424674Y-88584744D01*
X122366179Y-88404716D01*
X122271533Y-88240784D01*
X122144871Y-88100112D01*
X122144870Y-88100111D01*
X121991734Y-87988851D01*
X121991729Y-87988848D01*
X121818807Y-87911857D01*
X121818802Y-87911855D01*
X121673001Y-87880865D01*
X121633646Y-87872500D01*
X121540692Y-87872500D01*
X121473653Y-87852815D01*
X121427898Y-87800011D01*
X121417371Y-87761461D01*
X121410674Y-87697745D01*
X121410672Y-87697740D01*
X121352179Y-87517716D01*
X121257533Y-87353784D01*
X121237793Y-87331861D01*
X121207564Y-87268871D01*
X121216188Y-87199535D01*
X121237793Y-87165918D01*
X121255533Y-87146216D01*
X121350179Y-86982284D01*
X121408674Y-86802256D01*
X121428460Y-86614000D01*
X121408674Y-86425744D01*
X121384237Y-86350538D01*
X121382243Y-86280698D01*
X121418323Y-86220865D01*
X121451733Y-86198942D01*
X121483516Y-86184791D01*
X121610730Y-86128151D01*
X121763871Y-86016888D01*
X121890533Y-85876216D01*
X121909979Y-85842533D01*
X121960545Y-85794317D01*
X122029152Y-85781093D01*
X122094017Y-85807060D01*
X122113221Y-85825869D01*
X122118587Y-85832408D01*
X122171968Y-85876216D01*
X122278550Y-85963685D01*
X122461046Y-86061232D01*
X122659066Y-86121300D01*
X122659065Y-86121300D01*
X122697647Y-86125100D01*
X122813392Y-86136500D01*
X122813395Y-86136500D01*
X123516605Y-86136500D01*
X123516608Y-86136500D01*
X123670934Y-86121300D01*
X123868954Y-86061232D01*
X124051450Y-85963685D01*
X124211410Y-85832410D01*
X124227663Y-85812605D01*
X124285404Y-85773272D01*
X124355248Y-85771399D01*
X124415018Y-85807585D01*
G37*
%TD.AperFunction*%
%TA.AperFunction,Conductor*%
G36*
X164437539Y-79020185D02*
G01*
X164483294Y-79072989D01*
X164494500Y-79124500D01*
X164494500Y-81761004D01*
X164501836Y-81846807D01*
X164508979Y-81888282D01*
X164508980Y-81888284D01*
X164511616Y-81898363D01*
X164509535Y-81968201D01*
X164470026Y-82025828D01*
X164444059Y-82042119D01*
X164403094Y-82061222D01*
X164331074Y-82111651D01*
X164211213Y-82195579D01*
X164211211Y-82195580D01*
X164211208Y-82195583D01*
X164045583Y-82361208D01*
X164045580Y-82361211D01*
X164045579Y-82361213D01*
X163911223Y-82553093D01*
X163908118Y-82557528D01*
X163906680Y-82556521D01*
X163861810Y-82599297D01*
X163793202Y-82612513D01*
X163728340Y-82586540D01*
X163702702Y-82556953D01*
X163701882Y-82557528D01*
X163698777Y-82553093D01*
X163564421Y-82361213D01*
X163398787Y-82195579D01*
X163206907Y-82061223D01*
X162994611Y-81962228D01*
X162994607Y-81962227D01*
X162994603Y-81962225D01*
X162768356Y-81901603D01*
X162768346Y-81901601D01*
X162535001Y-81881186D01*
X162534999Y-81881186D01*
X162301653Y-81901601D01*
X162301643Y-81901603D01*
X162075396Y-81962225D01*
X162075389Y-81962227D01*
X162075389Y-81962228D01*
X161863093Y-82061223D01*
X161671213Y-82195579D01*
X161671211Y-82195580D01*
X161671208Y-82195583D01*
X161505583Y-82361208D01*
X161505580Y-82361211D01*
X161505579Y-82361213D01*
X161371223Y-82553093D01*
X161368118Y-82557528D01*
X161366685Y-82556525D01*
X161321778Y-82599313D01*
X161253166Y-82612510D01*
X161188311Y-82586518D01*
X161162705Y-82556951D01*
X161161882Y-82557528D01*
X161158777Y-82553093D01*
X161024421Y-82361213D01*
X160858787Y-82195579D01*
X160666907Y-82061223D01*
X160666906Y-82061222D01*
X160666904Y-82061221D01*
X160484935Y-81976367D01*
X160482429Y-81975129D01*
X160472072Y-81969718D01*
X160471828Y-81969632D01*
X160469195Y-81968704D01*
X160463603Y-81966421D01*
X160454611Y-81962228D01*
X160454609Y-81962227D01*
X160454606Y-81962226D01*
X160441015Y-81958584D01*
X160436465Y-81957175D01*
X159189891Y-81518091D01*
X159143406Y-81488815D01*
X158965962Y-81311371D01*
X158965950Y-81311357D01*
X158943498Y-81288906D01*
X158943482Y-81288877D01*
X158829858Y-81175255D01*
X158829856Y-81175253D01*
X158829854Y-81175251D01*
X158726567Y-81095998D01*
X158660808Y-81045540D01*
X158660804Y-81045538D01*
X158660802Y-81045536D01*
X158508878Y-80957825D01*
X158476270Y-80938999D01*
X158476266Y-80938997D01*
X158279396Y-80857453D01*
X158073577Y-80802307D01*
X158073574Y-80802306D01*
X157862332Y-80774499D01*
X157862323Y-80774498D01*
X157862319Y-80774498D01*
X157862311Y-80774498D01*
X157755777Y-80774500D01*
X152762935Y-80774500D01*
X152762637Y-80774508D01*
X152697680Y-80774508D01*
X152486427Y-80802316D01*
X152486424Y-80802317D01*
X152280609Y-80857462D01*
X152280603Y-80857464D01*
X152280601Y-80857465D01*
X152203316Y-80889476D01*
X152083732Y-80939008D01*
X151899198Y-81045547D01*
X151730158Y-81175253D01*
X151712352Y-81193058D01*
X151712321Y-81193086D01*
X151654816Y-81250593D01*
X151601113Y-81304293D01*
X151601109Y-81304299D01*
X151307211Y-81598196D01*
X151261605Y-81627158D01*
X150141362Y-82031247D01*
X150136382Y-82032810D01*
X150131549Y-82034105D01*
X150127628Y-82035934D01*
X150122472Y-82038061D01*
X150107455Y-82043479D01*
X150107450Y-82043481D01*
X150101150Y-82045931D01*
X150065255Y-82062601D01*
X150057251Y-82065666D01*
X150047367Y-82068685D01*
X150047356Y-82068689D01*
X149617726Y-82270535D01*
X149548679Y-82281225D01*
X149512271Y-82270535D01*
X149218813Y-82132665D01*
X149076949Y-82066015D01*
X149070751Y-82063289D01*
X149041991Y-82052770D01*
X149028188Y-82047721D01*
X149023283Y-82045685D01*
X149007358Y-82038260D01*
X148998450Y-82034106D01*
X148966332Y-82025500D01*
X148785070Y-81976930D01*
X148785062Y-81976929D01*
X148565002Y-81957677D01*
X148564998Y-81957677D01*
X148344937Y-81976929D01*
X148344929Y-81976930D01*
X148131554Y-82034104D01*
X148131550Y-82034106D01*
X148122642Y-82038260D01*
X147931340Y-82127465D01*
X147931338Y-82127466D01*
X147750381Y-82254172D01*
X147652680Y-82351873D01*
X147591356Y-82385357D01*
X147521665Y-82380373D01*
X147477318Y-82351872D01*
X147379621Y-82254175D01*
X147379615Y-82254170D01*
X147198666Y-82127468D01*
X147198662Y-82127466D01*
X147197658Y-82126998D01*
X146998450Y-82034106D01*
X146998447Y-82034105D01*
X146998445Y-82034104D01*
X146785070Y-81976930D01*
X146785062Y-81976929D01*
X146565002Y-81957677D01*
X146564998Y-81957677D01*
X146344937Y-81976929D01*
X146344929Y-81976930D01*
X146131554Y-82034104D01*
X146131550Y-82034106D01*
X146122642Y-82038260D01*
X145931340Y-82127465D01*
X145931338Y-82127466D01*
X145750381Y-82254172D01*
X145652680Y-82351873D01*
X145591356Y-82385357D01*
X145521665Y-82380373D01*
X145477318Y-82351872D01*
X145379621Y-82254175D01*
X145379615Y-82254170D01*
X145198666Y-82127468D01*
X145198662Y-82127466D01*
X145197658Y-82126998D01*
X144998450Y-82034106D01*
X144998447Y-82034105D01*
X144998445Y-82034104D01*
X144785070Y-81976930D01*
X144785062Y-81976929D01*
X144565002Y-81957677D01*
X144564998Y-81957677D01*
X144344937Y-81976929D01*
X144344929Y-81976930D01*
X144131554Y-82034104D01*
X144131550Y-82034106D01*
X144122642Y-82038260D01*
X143931340Y-82127465D01*
X143931338Y-82127466D01*
X143750381Y-82254172D01*
X143677556Y-82326997D01*
X143616232Y-82360481D01*
X143546541Y-82355496D01*
X143490607Y-82313625D01*
X143470899Y-82274252D01*
X143464737Y-82253266D01*
X143370926Y-82071297D01*
X143244372Y-81910370D01*
X143089649Y-81776303D01*
X143063150Y-81761004D01*
X142912355Y-81673942D01*
X142912350Y-81673939D01*
X142912344Y-81673936D01*
X142912342Y-81673936D01*
X142718884Y-81606979D01*
X142516242Y-81577844D01*
X142516240Y-81577843D01*
X142311747Y-81587584D01*
X142112784Y-81635852D01*
X142112780Y-81635853D01*
X141926571Y-81720892D01*
X141926559Y-81720899D01*
X141759796Y-81839650D01*
X141759793Y-81839653D01*
X141618517Y-81987819D01*
X141507834Y-82160046D01*
X141431744Y-82350110D01*
X141393000Y-82551135D01*
X141393000Y-83847567D01*
X141407583Y-84000289D01*
X141407584Y-84000296D01*
X141407585Y-84000300D01*
X141465263Y-84196734D01*
X141559074Y-84378703D01*
X141570928Y-84393777D01*
X141579974Y-84405279D01*
X141605942Y-84470143D01*
X141592720Y-84538750D01*
X141544505Y-84589318D01*
X141511027Y-84602606D01*
X141505516Y-84603908D01*
X141433940Y-84630604D01*
X141364248Y-84635588D01*
X141302925Y-84602102D01*
X141269441Y-84540778D01*
X141268250Y-84534535D01*
X141228071Y-84289448D01*
X141178461Y-84110768D01*
X141132327Y-83944607D01*
X141132325Y-83944600D01*
X141113322Y-83896907D01*
X141047049Y-83730573D01*
X140999857Y-83612129D01*
X140999848Y-83612111D01*
X140832215Y-83295922D01*
X140832213Y-83295919D01*
X140832211Y-83295915D01*
X140631365Y-82999689D01*
X140631361Y-82999684D01*
X140631358Y-82999680D01*
X140399668Y-82726914D01*
X140291922Y-82624852D01*
X140139837Y-82480789D01*
X140139830Y-82480783D01*
X140139827Y-82480781D01*
X140059726Y-82419890D01*
X139854919Y-82264200D01*
X139548253Y-82079685D01*
X139548252Y-82079684D01*
X139548248Y-82079682D01*
X139548244Y-82079680D01*
X139223447Y-81929414D01*
X139223441Y-81929411D01*
X139223435Y-81929409D01*
X139053854Y-81872270D01*
X138884273Y-81815131D01*
X138534744Y-81738194D01*
X138178949Y-81699500D01*
X138178948Y-81699500D01*
X137821052Y-81699500D01*
X137821050Y-81699500D01*
X137465255Y-81738194D01*
X137115726Y-81815131D01*
X136919685Y-81881186D01*
X136776565Y-81929409D01*
X136776563Y-81929410D01*
X136776552Y-81929414D01*
X136451755Y-82079680D01*
X136451751Y-82079682D01*
X136257604Y-82196497D01*
X136145081Y-82264200D01*
X136104159Y-82295308D01*
X135860172Y-82480781D01*
X135860163Y-82480789D01*
X135600331Y-82726914D01*
X135368641Y-82999680D01*
X135366613Y-83002350D01*
X135366467Y-83002239D01*
X135366460Y-83002249D01*
X135366289Y-83002103D01*
X135365385Y-83001417D01*
X135316146Y-83041951D01*
X135246759Y-83050145D01*
X135183956Y-83019524D01*
X135147679Y-82959811D01*
X135143500Y-82927892D01*
X135143500Y-82586959D01*
X135143495Y-82586829D01*
X135143496Y-82553093D01*
X135143497Y-82539570D01*
X135115170Y-82360706D01*
X135059212Y-82188477D01*
X134998553Y-82069424D01*
X134977003Y-82027128D01*
X134977001Y-82027125D01*
X134976999Y-82027121D01*
X134870557Y-81880613D01*
X134870552Y-81880608D01*
X134870543Y-81880597D01*
X134829161Y-81839215D01*
X134781387Y-81791441D01*
X134760884Y-81770937D01*
X134752384Y-81762436D01*
X134752362Y-81762416D01*
X134315316Y-81325370D01*
X134315304Y-81325356D01*
X134292738Y-81302790D01*
X134292733Y-81302781D01*
X134202133Y-81212181D01*
X134168648Y-81150858D01*
X134173632Y-81081166D01*
X134215504Y-81025233D01*
X134280968Y-81000816D01*
X134289814Y-81000500D01*
X140087528Y-81000500D01*
X140087532Y-81000500D01*
X140259938Y-80970101D01*
X140424445Y-80910225D01*
X140576055Y-80822692D01*
X140710163Y-80710163D01*
X140822692Y-80576055D01*
X140910225Y-80424445D01*
X140970101Y-80259938D01*
X141000500Y-80087532D01*
X141000500Y-80002705D01*
X141000736Y-79997299D01*
X141004476Y-79954554D01*
X141016918Y-79828223D01*
X141020542Y-79808309D01*
X141038402Y-79741653D01*
X141066683Y-79648424D01*
X141072953Y-79632037D01*
X141104420Y-79564558D01*
X141105872Y-79561653D01*
X141150764Y-79477666D01*
X141154657Y-79471331D01*
X141187837Y-79423945D01*
X141200994Y-79405155D01*
X141203827Y-79401420D01*
X141263122Y-79329168D01*
X141267162Y-79324710D01*
X141324710Y-79267162D01*
X141329168Y-79263122D01*
X141401420Y-79203827D01*
X141405155Y-79200994D01*
X141471334Y-79154654D01*
X141477666Y-79150764D01*
X141561653Y-79105872D01*
X141564558Y-79104420D01*
X141632037Y-79072953D01*
X141648424Y-79066683D01*
X141741653Y-79038402D01*
X141808309Y-79020542D01*
X141828223Y-79016918D01*
X141954542Y-79004477D01*
X141997305Y-79000735D01*
X142002706Y-79000500D01*
X164370500Y-79000500D01*
X164437539Y-79020185D01*
G37*
%TD.AperFunction*%
%TD*%
%TA.AperFunction,Conductor*%
%TO.N,+VSW*%
G36*
X169001619Y-79000584D02*
G01*
X169133628Y-79007503D01*
X169317027Y-79017803D01*
X169323212Y-79018465D01*
X169475647Y-79042608D01*
X169638194Y-79070226D01*
X169643811Y-79071453D01*
X169796693Y-79112418D01*
X169889122Y-79139046D01*
X169951724Y-79157082D01*
X169956759Y-79158769D01*
X170106183Y-79216127D01*
X170254007Y-79277358D01*
X170258412Y-79279388D01*
X170324180Y-79312899D01*
X170401921Y-79352511D01*
X170477428Y-79394241D01*
X170541480Y-79429641D01*
X170545215Y-79431882D01*
X170619487Y-79480115D01*
X170680872Y-79519980D01*
X170768357Y-79582053D01*
X170810764Y-79612142D01*
X170813886Y-79614510D01*
X170938748Y-79715621D01*
X170941034Y-79717567D01*
X171058721Y-79822738D01*
X171061248Y-79825128D01*
X171174870Y-79938750D01*
X171177260Y-79941277D01*
X171282431Y-80058964D01*
X171284385Y-80061260D01*
X171385480Y-80186102D01*
X171387862Y-80189243D01*
X171480019Y-80319127D01*
X171533758Y-80401875D01*
X171568106Y-80454767D01*
X171570364Y-80458531D01*
X171647488Y-80598078D01*
X171720604Y-80741575D01*
X171722643Y-80745997D01*
X171783877Y-80893829D01*
X171841221Y-81043217D01*
X171842916Y-81048273D01*
X171887579Y-81203297D01*
X171928541Y-81356171D01*
X171929778Y-81361835D01*
X171957394Y-81524369D01*
X171981530Y-81676758D01*
X171982196Y-81682985D01*
X171992509Y-81866617D01*
X171999415Y-81998377D01*
X171999500Y-82001623D01*
X171999500Y-91126000D01*
X171979815Y-91193039D01*
X171927011Y-91238794D01*
X171875500Y-91250000D01*
X165124000Y-91250000D01*
X165056961Y-91230315D01*
X165011206Y-91177511D01*
X165000000Y-91126000D01*
X165000000Y-84689000D01*
X165019685Y-84621961D01*
X165072489Y-84576206D01*
X165113190Y-84565472D01*
X165308351Y-84548398D01*
X165534611Y-84487772D01*
X165746907Y-84388777D01*
X165938787Y-84254421D01*
X166104421Y-84088787D01*
X166238777Y-83896907D01*
X166337772Y-83684611D01*
X166398398Y-83458351D01*
X166418814Y-83225000D01*
X166398398Y-82991649D01*
X166337772Y-82765389D01*
X166238777Y-82553093D01*
X166104421Y-82361213D01*
X165938787Y-82195579D01*
X165746907Y-82061223D01*
X165534611Y-81962228D01*
X165534607Y-81962227D01*
X165534603Y-81962225D01*
X165308356Y-81901603D01*
X165308346Y-81901601D01*
X165113192Y-81884527D01*
X165048123Y-81859074D01*
X165007145Y-81802483D01*
X165000000Y-81760999D01*
X165000000Y-79124500D01*
X165019685Y-79057461D01*
X165072489Y-79011706D01*
X165124000Y-79000500D01*
X168998378Y-79000500D01*
X169001619Y-79000584D01*
G37*
%TD.AperFunction*%
%TD*%
%TA.AperFunction,Conductor*%
%TO.N,Net-(R18-Pad1)*%
G36*
X145316827Y-83224990D02*
G01*
X145325096Y-83228424D01*
X145328403Y-83235075D01*
X145479356Y-84318414D01*
X145477104Y-84327081D01*
X145476197Y-84328144D01*
X145278592Y-84533394D01*
X145270385Y-84536977D01*
X145264056Y-84535259D01*
X144281913Y-83934209D01*
X144276645Y-83926967D01*
X144277205Y-83919765D01*
X144561290Y-83231550D01*
X144567614Y-83225210D01*
X144572115Y-83224314D01*
X145316827Y-83224990D01*
G37*
%TD.AperFunction*%
%TD*%
%TA.AperFunction,Conductor*%
%TO.N,Net-(J2-CC2)*%
G36*
X122712060Y-89763305D02*
G01*
X122718793Y-89769208D01*
X122720000Y-89774384D01*
X122720000Y-90057615D01*
X122716573Y-90065888D01*
X122712060Y-90068694D01*
X122083425Y-90282038D01*
X122074489Y-90281452D01*
X122068866Y-90275461D01*
X122052180Y-90235439D01*
X121920875Y-89920499D01*
X121920855Y-89911550D01*
X122068866Y-89556537D01*
X122075213Y-89550220D01*
X122083424Y-89549961D01*
X122712060Y-89763305D01*
G37*
%TD.AperFunction*%
%TD*%
%TA.AperFunction,Conductor*%
%TO.N,Net-(D1-A)*%
G36*
X132757339Y-99436708D02*
G01*
X132757495Y-99437066D01*
X133058134Y-100160510D01*
X133058144Y-100169463D01*
X133058135Y-100169485D01*
X133058134Y-100169490D01*
X132757495Y-100892933D01*
X132751156Y-100899258D01*
X132742201Y-100899247D01*
X132741843Y-100899091D01*
X131465852Y-100318119D01*
X131459742Y-100311572D01*
X131459000Y-100307471D01*
X131459000Y-100022528D01*
X131462427Y-100014255D01*
X131465852Y-100011880D01*
X132741845Y-99430907D01*
X132750792Y-99430598D01*
X132757339Y-99436708D01*
G37*
%TD.AperFunction*%
%TD*%
%TA.AperFunction,Conductor*%
%TO.N,Net-(D1-A)*%
G36*
X136040557Y-94551087D02*
G01*
X136396195Y-94697436D01*
X136402542Y-94703754D01*
X136402563Y-94703804D01*
X136548912Y-95059442D01*
X136548891Y-95068396D01*
X136543268Y-95074387D01*
X135947900Y-95368041D01*
X135938964Y-95368627D01*
X135934451Y-95365821D01*
X135734178Y-95165548D01*
X135730751Y-95157275D01*
X135731958Y-95152099D01*
X136025612Y-94556731D01*
X136032345Y-94550828D01*
X136040557Y-94551087D01*
G37*
%TD.AperFunction*%
%TD*%
%TA.AperFunction,Conductor*%
%TO.N,Net-(SW1-A)*%
G36*
X151536634Y-99448077D02*
G01*
X151542959Y-99454417D01*
X151543150Y-99454911D01*
X151998496Y-100717253D01*
X151998080Y-100726198D01*
X151995763Y-100729496D01*
X151829496Y-100895763D01*
X151821223Y-100899190D01*
X151817253Y-100898496D01*
X150554911Y-100443150D01*
X150548291Y-100437119D01*
X150547875Y-100428174D01*
X150548066Y-100427680D01*
X150832437Y-99738788D01*
X150838761Y-99732448D01*
X151527680Y-99448066D01*
X151536634Y-99448077D01*
G37*
%TD.AperFunction*%
%TD*%
%TA.AperFunction,Conductor*%
%TO.N,Net-(SW1-B)*%
G36*
X160642396Y-91688108D02*
G01*
X160648387Y-91693731D01*
X160942041Y-92289099D01*
X160942627Y-92298035D01*
X160939821Y-92302548D01*
X160739548Y-92502821D01*
X160731275Y-92506248D01*
X160726099Y-92505041D01*
X160130731Y-92211387D01*
X160124828Y-92204654D01*
X160125087Y-92196442D01*
X160271437Y-91840802D01*
X160277753Y-91834457D01*
X160633442Y-91688087D01*
X160642396Y-91688108D01*
G37*
%TD.AperFunction*%
%TD*%
%TA.AperFunction,Conductor*%
%TO.N,+3V3*%
G36*
X142245510Y-96434547D02*
G01*
X142251133Y-96440538D01*
X142399123Y-96795498D01*
X142399144Y-96804452D01*
X142399123Y-96804502D01*
X142251133Y-97159461D01*
X142244786Y-97165779D01*
X142236574Y-97166038D01*
X141607940Y-96952694D01*
X141601207Y-96946791D01*
X141600000Y-96941615D01*
X141600000Y-96658384D01*
X141603427Y-96650111D01*
X141607938Y-96647305D01*
X142236575Y-96433961D01*
X142245510Y-96434547D01*
G37*
%TD.AperFunction*%
%TD*%
%TA.AperFunction,Conductor*%
%TO.N,Net-(J2-CC2)*%
G36*
X131290510Y-89677547D02*
G01*
X131296133Y-89683538D01*
X131444123Y-90038498D01*
X131444144Y-90047452D01*
X131444123Y-90047502D01*
X131296133Y-90402461D01*
X131289786Y-90408779D01*
X131281574Y-90409038D01*
X130652940Y-90195694D01*
X130646207Y-90189791D01*
X130645000Y-90184615D01*
X130645000Y-89901384D01*
X130648427Y-89893111D01*
X130652938Y-89890305D01*
X131281575Y-89676961D01*
X131290510Y-89677547D01*
G37*
%TD.AperFunction*%
%TD*%
%TA.AperFunction,Conductor*%
%TO.N,Net-(U1-HPI_SDA)*%
G36*
X124642900Y-84548958D02*
G01*
X125238268Y-84842612D01*
X125244171Y-84849345D01*
X125243912Y-84857557D01*
X125097563Y-85213195D01*
X125091245Y-85219542D01*
X125091195Y-85219563D01*
X124735557Y-85365912D01*
X124726603Y-85365891D01*
X124720612Y-85360268D01*
X124426958Y-84764900D01*
X124426372Y-84755964D01*
X124429176Y-84751453D01*
X124629452Y-84551177D01*
X124637724Y-84547751D01*
X124642900Y-84548958D01*
G37*
%TD.AperFunction*%
%TD*%
%TA.AperFunction,Conductor*%
%TO.N,Net-(J2-CC1)*%
G36*
X132630944Y-90339927D02*
G01*
X132631259Y-90340229D01*
X132903046Y-90611058D01*
X132906487Y-90619325D01*
X132906487Y-90619375D01*
X132905526Y-91003908D01*
X132902078Y-91012173D01*
X132894958Y-91015524D01*
X132218521Y-91081253D01*
X132209955Y-91078642D01*
X132205744Y-91070740D01*
X132205689Y-91069608D01*
X132205689Y-90787081D01*
X132208799Y-90779137D01*
X132356557Y-90619375D01*
X132614411Y-90340572D01*
X132622544Y-90336826D01*
X132630944Y-90339927D01*
G37*
%TD.AperFunction*%
%TD*%
%TA.AperFunction,Conductor*%
%TO.N,Net-(SW2-C)*%
G36*
X151556198Y-82061919D02*
G01*
X151559496Y-82064236D01*
X151725763Y-82230503D01*
X151729190Y-82238776D01*
X151728496Y-82242746D01*
X151273150Y-83505088D01*
X151267119Y-83511708D01*
X151258174Y-83512124D01*
X151257680Y-83511933D01*
X150568788Y-83227562D01*
X150562448Y-83221237D01*
X150562437Y-83221211D01*
X150278066Y-82532319D01*
X150278077Y-82523365D01*
X150284417Y-82517040D01*
X150284872Y-82516863D01*
X151547253Y-82061503D01*
X151556198Y-82061919D01*
G37*
%TD.AperFunction*%
%TD*%
%TA.AperFunction,Conductor*%
%TO.N,Net-(SW2-C)*%
G36*
X148867200Y-82525995D02*
G01*
X148867666Y-82526200D01*
X150082275Y-83096840D01*
X150088306Y-83103460D01*
X150089000Y-83107430D01*
X150089000Y-83342569D01*
X150085573Y-83350842D01*
X150082275Y-83353159D01*
X148867685Y-83923790D01*
X148858740Y-83924206D01*
X148852120Y-83918175D01*
X148851906Y-83917691D01*
X148615954Y-83350000D01*
X148565865Y-83229489D01*
X148565855Y-83220536D01*
X148565866Y-83220510D01*
X148851906Y-82532309D01*
X148858246Y-82525984D01*
X148867200Y-82525995D01*
G37*
%TD.AperFunction*%
%TD*%
%TA.AperFunction,Conductor*%
%TO.N,Net-(U1-VBUS_FET_EN)*%
G36*
X155568044Y-92526753D02*
G01*
X155574206Y-92532739D01*
X155850747Y-93145428D01*
X155851027Y-93154378D01*
X155848356Y-93158514D01*
X155683014Y-93323856D01*
X155674741Y-93327283D01*
X155669928Y-93326247D01*
X155057239Y-93049706D01*
X155051108Y-93043179D01*
X155051232Y-93034590D01*
X155197437Y-92679302D01*
X155203753Y-92672957D01*
X155559090Y-92526732D01*
X155568044Y-92526753D01*
G37*
%TD.AperFunction*%
%TD*%
%TA.AperFunction,Conductor*%
%TO.N,Net-(SW2-B)*%
G36*
X162234900Y-92057958D02*
G01*
X162830268Y-92351612D01*
X162836171Y-92358345D01*
X162835912Y-92366557D01*
X162689563Y-92722195D01*
X162683245Y-92728542D01*
X162683195Y-92728563D01*
X162327557Y-92874912D01*
X162318603Y-92874891D01*
X162312612Y-92869268D01*
X162018958Y-92273900D01*
X162018372Y-92264964D01*
X162021176Y-92260453D01*
X162221452Y-92060177D01*
X162229724Y-92056751D01*
X162234900Y-92057958D01*
G37*
%TD.AperFunction*%
%TD*%
%TA.AperFunction,Conductor*%
%TO.N,Net-(D1-A)*%
G36*
X133209745Y-98568427D02*
G01*
X133212120Y-98571852D01*
X133793091Y-99847843D01*
X133793401Y-99856792D01*
X133787291Y-99863339D01*
X133786933Y-99863495D01*
X133063490Y-100164134D01*
X133054536Y-100164144D01*
X132331065Y-99863494D01*
X132324741Y-99857156D01*
X132324752Y-99848201D01*
X132324886Y-99847892D01*
X132905880Y-98571851D01*
X132912427Y-98565742D01*
X132916528Y-98565000D01*
X133201472Y-98565000D01*
X133209745Y-98568427D01*
G37*
%TD.AperFunction*%
%TD*%
%TA.AperFunction,Conductor*%
%TO.N,Net-(R14-Pad1)*%
G36*
X145808439Y-98554257D02*
G01*
X145811915Y-98556655D01*
X146013344Y-98758084D01*
X146016771Y-98766357D01*
X146016009Y-98770511D01*
X145543270Y-100015350D01*
X145537129Y-100021867D01*
X145528178Y-100022134D01*
X145527868Y-100022011D01*
X144838788Y-99737562D01*
X144832448Y-99731237D01*
X144832437Y-99731211D01*
X144547988Y-99042131D01*
X144547999Y-99033177D01*
X144554339Y-99026852D01*
X144554579Y-99026756D01*
X145799490Y-98553990D01*
X145808439Y-98554257D01*
G37*
%TD.AperFunction*%
%TD*%
%TA.AperFunction,Conductor*%
%TO.N,Net-(SW1-A)*%
G36*
X149137200Y-99035995D02*
G01*
X149137666Y-99036200D01*
X150352275Y-99606840D01*
X150358306Y-99613460D01*
X150359000Y-99617430D01*
X150359000Y-99852569D01*
X150355573Y-99860842D01*
X150352275Y-99863159D01*
X149137685Y-100433790D01*
X149128740Y-100434206D01*
X149122120Y-100428175D01*
X149121906Y-100427691D01*
X148885954Y-99860000D01*
X148835865Y-99739489D01*
X148835855Y-99730536D01*
X148835866Y-99730510D01*
X149121906Y-99042309D01*
X149128246Y-99035984D01*
X149137200Y-99035995D01*
G37*
%TD.AperFunction*%
%TD*%
%TA.AperFunction,Conductor*%
%TO.N,Net-(SW2-C)*%
G36*
X158904944Y-81953666D02*
G01*
X159419598Y-82134944D01*
X160304129Y-82446505D01*
X160310794Y-82452485D01*
X160311277Y-82461427D01*
X160311056Y-82462005D01*
X159997562Y-83221213D01*
X159991237Y-83227552D01*
X159991213Y-83227562D01*
X159232005Y-83541056D01*
X159223051Y-83541046D01*
X159216726Y-83534707D01*
X159216505Y-83534129D01*
X159108518Y-83227552D01*
X158942877Y-82757291D01*
X158723666Y-82134944D01*
X158724149Y-82126002D01*
X158726425Y-82122787D01*
X158892785Y-81956427D01*
X158901057Y-81953001D01*
X158904944Y-81953666D01*
G37*
%TD.AperFunction*%
%TD*%
%TA.AperFunction,Conductor*%
%TO.N,Net-(SW1-A)*%
G36*
X150547879Y-99041824D02*
G01*
X150548093Y-99042309D01*
X150834133Y-99730510D01*
X150834144Y-99739464D01*
X150834133Y-99739491D01*
X150548093Y-100427691D01*
X150541753Y-100434015D01*
X150532798Y-100434004D01*
X150532314Y-100433790D01*
X149317725Y-99863159D01*
X149311694Y-99856539D01*
X149311000Y-99852569D01*
X149311000Y-99617430D01*
X149314427Y-99609157D01*
X149317722Y-99606841D01*
X150532316Y-99036208D01*
X150541259Y-99035793D01*
X150547879Y-99041824D01*
G37*
%TD.AperFunction*%
%TD*%
%TA.AperFunction,Conductor*%
%TO.N,Net-(U1-SAFE_PWR_EN)*%
G36*
X155380696Y-91240890D02*
G01*
X155992437Y-91472141D01*
X155998964Y-91478272D01*
X156000000Y-91483085D01*
X156000000Y-91716914D01*
X155996573Y-91725187D01*
X155992437Y-91727858D01*
X155363655Y-91965551D01*
X155354705Y-91965271D01*
X155348719Y-91959109D01*
X155252306Y-91727858D01*
X155200875Y-91604499D01*
X155200855Y-91595550D01*
X155348719Y-91240889D01*
X155355066Y-91234572D01*
X155363654Y-91234448D01*
X155380696Y-91240890D01*
G37*
%TD.AperFunction*%
%TD*%
%TA.AperFunction,Conductor*%
%TO.N,Net-(U1-HPI_SDA)*%
G36*
X120404007Y-82176312D02*
G01*
X120887518Y-82660506D01*
X120890939Y-82668781D01*
X120887506Y-82677052D01*
X120887292Y-82677261D01*
X120544290Y-83002690D01*
X120539265Y-83005503D01*
X120259459Y-83080473D01*
X120250581Y-83079304D01*
X120247563Y-83076804D01*
X119903671Y-82677213D01*
X119900872Y-82668707D01*
X119904250Y-82661324D01*
X120387465Y-82176342D01*
X120395730Y-82172901D01*
X120404007Y-82176312D01*
G37*
%TD.AperFunction*%
%TD*%
%TA.AperFunction,Conductor*%
%TO.N,Net-(J2-CC1)*%
G36*
X121264461Y-88498568D02*
G01*
X121265640Y-88499593D01*
X121536250Y-88768853D01*
X121539698Y-88777118D01*
X121539698Y-88777168D01*
X121539024Y-89159368D01*
X121535583Y-89167635D01*
X121527303Y-89171047D01*
X121525529Y-89170908D01*
X121160289Y-89114204D01*
X121153811Y-89110916D01*
X120951593Y-88908698D01*
X120948166Y-88900425D01*
X120950540Y-88893361D01*
X121248071Y-88500823D01*
X121255798Y-88496301D01*
X121264461Y-88498568D01*
G37*
%TD.AperFunction*%
%TD*%
%TA.AperFunction,Conductor*%
%TO.N,Net-(U1-FAULT)*%
G36*
X144280007Y-85605312D02*
G01*
X144763518Y-86089506D01*
X144766939Y-86097781D01*
X144763506Y-86106052D01*
X144763292Y-86106261D01*
X144420290Y-86431690D01*
X144415265Y-86434503D01*
X144135459Y-86509473D01*
X144126581Y-86508304D01*
X144123563Y-86505804D01*
X143779671Y-86106213D01*
X143776872Y-86097707D01*
X143780250Y-86090324D01*
X144263465Y-85605342D01*
X144271730Y-85601901D01*
X144280007Y-85605312D01*
G37*
%TD.AperFunction*%
%TD*%
%TA.AperFunction,Conductor*%
%TO.N,Net-(D3-A)*%
G36*
X135056900Y-87469958D02*
G01*
X135652268Y-87763612D01*
X135658171Y-87770345D01*
X135657912Y-87778557D01*
X135511563Y-88134195D01*
X135505245Y-88140542D01*
X135505195Y-88140563D01*
X135149557Y-88286912D01*
X135140603Y-88286891D01*
X135134612Y-88281268D01*
X134840958Y-87685900D01*
X134840372Y-87676964D01*
X134843176Y-87672453D01*
X135043452Y-87472177D01*
X135051724Y-87468751D01*
X135056900Y-87469958D01*
G37*
%TD.AperFunction*%
%TD*%
%TA.AperFunction,Conductor*%
%TO.N,+3V3*%
G36*
X132165209Y-88751185D02*
G01*
X132171676Y-88757379D01*
X132172440Y-88764370D01*
X132117038Y-89042920D01*
X132112063Y-89050366D01*
X132110149Y-89051402D01*
X131608923Y-89264929D01*
X131599968Y-89265019D01*
X131593573Y-89258751D01*
X131593537Y-89258665D01*
X131445895Y-88904306D01*
X131445876Y-88895355D01*
X131593676Y-88540989D01*
X131600023Y-88534674D01*
X131608718Y-88534591D01*
X132165209Y-88751185D01*
G37*
%TD.AperFunction*%
%TD*%
%TA.AperFunction,Conductor*%
%TO.N,Net-(U1-VBUS_FET_EN)*%
G36*
X140886849Y-94212004D02*
G01*
X140886887Y-94212019D01*
X140901740Y-94218298D01*
X141458508Y-94453657D01*
X141464794Y-94460035D01*
X141465253Y-94467462D01*
X141404597Y-94693852D01*
X141399146Y-94700956D01*
X141398268Y-94701415D01*
X140887143Y-94941355D01*
X140878198Y-94941769D01*
X140871580Y-94935736D01*
X140871382Y-94935290D01*
X140723908Y-94581241D01*
X140723892Y-94572289D01*
X140871547Y-94218297D01*
X140877894Y-94211982D01*
X140886849Y-94212004D01*
G37*
%TD.AperFunction*%
%TD*%
%TA.AperFunction,Conductor*%
%TO.N,Net-(R18-Pad1)*%
G36*
X153979900Y-87104958D02*
G01*
X154575268Y-87398612D01*
X154581171Y-87405345D01*
X154580912Y-87413557D01*
X154434563Y-87769195D01*
X154428245Y-87775542D01*
X154428195Y-87775563D01*
X154072557Y-87921912D01*
X154063603Y-87921891D01*
X154057612Y-87916268D01*
X153763958Y-87320900D01*
X153763372Y-87311964D01*
X153766176Y-87307453D01*
X153966452Y-87107177D01*
X153974724Y-87103751D01*
X153979900Y-87104958D01*
G37*
%TD.AperFunction*%
%TD*%
%TA.AperFunction,Conductor*%
%TO.N,Net-(U1-HPI_SDA)*%
G36*
X139374632Y-88058275D02*
G01*
X139684374Y-88185619D01*
X139690723Y-88191934D01*
X139690746Y-88191991D01*
X139818089Y-88501732D01*
X139818066Y-88510687D01*
X139812756Y-88516514D01*
X139306917Y-88785164D01*
X139298003Y-88786018D01*
X139293156Y-88783104D01*
X139093261Y-88583209D01*
X139089834Y-88574936D01*
X139091199Y-88569452D01*
X139359851Y-88063608D01*
X139366758Y-88057910D01*
X139374632Y-88058275D01*
G37*
%TD.AperFunction*%
%TD*%
%TA.AperFunction,Conductor*%
%TO.N,Net-(U1-HPI_SCL)*%
G36*
X123825052Y-81695444D02*
G01*
X123825552Y-81695874D01*
X124259039Y-82068008D01*
X124263084Y-82075997D01*
X124261551Y-82082735D01*
X124117012Y-82333092D01*
X124115601Y-82335041D01*
X123825243Y-82659780D01*
X123817174Y-82663663D01*
X123808722Y-82660703D01*
X123808251Y-82660257D01*
X123324591Y-82176951D01*
X123321161Y-82168679D01*
X123324585Y-82160405D01*
X123324680Y-82160310D01*
X123809339Y-81695873D01*
X123817681Y-81692625D01*
X123825052Y-81695444D01*
G37*
%TD.AperFunction*%
%TD*%
%TA.AperFunction,Conductor*%
%TO.N,Net-(R14-Pad1)*%
G36*
X156849096Y-94998700D02*
G01*
X156849132Y-94998736D01*
X157120418Y-95271381D01*
X157123824Y-95279662D01*
X157121205Y-95287011D01*
X156681334Y-95828401D01*
X156673457Y-95832661D01*
X156664875Y-95830104D01*
X156664137Y-95829451D01*
X156460698Y-95633549D01*
X156457116Y-95625347D01*
X156445229Y-95007902D01*
X156448496Y-94999566D01*
X156456702Y-94995980D01*
X156456830Y-94995978D01*
X156840818Y-94995288D01*
X156849096Y-94998700D01*
G37*
%TD.AperFunction*%
%TD*%
%TA.AperFunction,Conductor*%
%TO.N,Net-(U1-HPI_SDA)*%
G36*
X125461993Y-85068685D02*
G01*
X125468311Y-85075032D01*
X125468566Y-85075711D01*
X125688270Y-85720593D01*
X125687694Y-85729529D01*
X125685468Y-85732639D01*
X125485228Y-85932879D01*
X125476955Y-85936306D01*
X125470525Y-85934380D01*
X125156109Y-85727488D01*
X124949987Y-85591855D01*
X124944959Y-85584444D01*
X124945597Y-85577631D01*
X125092437Y-85220802D01*
X125098753Y-85214457D01*
X125453040Y-85068664D01*
X125461993Y-85068685D01*
G37*
%TD.AperFunction*%
%TD*%
%TA.AperFunction,Conductor*%
%TO.N,Net-(D3-A)*%
G36*
X125968060Y-81427305D02*
G01*
X125974793Y-81433208D01*
X125976000Y-81438384D01*
X125976000Y-81721615D01*
X125972573Y-81729888D01*
X125968060Y-81732694D01*
X125339425Y-81946038D01*
X125330489Y-81945452D01*
X125324866Y-81939461D01*
X125308180Y-81899439D01*
X125176875Y-81584499D01*
X125176855Y-81575550D01*
X125324866Y-81220537D01*
X125331213Y-81214220D01*
X125339424Y-81213961D01*
X125968060Y-81427305D01*
G37*
%TD.AperFunction*%
%TD*%
%TA.AperFunction,Conductor*%
%TO.N,Net-(SW2-B)*%
G36*
X161771828Y-82908869D02*
G01*
X162531213Y-83222437D01*
X162537552Y-83228762D01*
X162537562Y-83228786D01*
X162851127Y-83988165D01*
X162851117Y-83997119D01*
X162844778Y-84003444D01*
X162844366Y-84003605D01*
X161462701Y-84513863D01*
X161453753Y-84513515D01*
X161450375Y-84511161D01*
X161248838Y-84309624D01*
X161245411Y-84301351D01*
X161246135Y-84297302D01*
X161756395Y-82915631D01*
X161762474Y-82909059D01*
X161771422Y-82908711D01*
X161771828Y-82908869D01*
G37*
%TD.AperFunction*%
%TD*%
%TA.AperFunction,Conductor*%
%TO.N,Net-(SW2-C)*%
G36*
X150277879Y-82531824D02*
G01*
X150278093Y-82532309D01*
X150564133Y-83220510D01*
X150564144Y-83229464D01*
X150564133Y-83229491D01*
X150278093Y-83917691D01*
X150271753Y-83924015D01*
X150262798Y-83924004D01*
X150262314Y-83923790D01*
X149047725Y-83353159D01*
X149041694Y-83346539D01*
X149041000Y-83342569D01*
X149041000Y-83107430D01*
X149044427Y-83099157D01*
X149047722Y-83096841D01*
X150262316Y-82526208D01*
X150271259Y-82525793D01*
X150277879Y-82531824D01*
G37*
%TD.AperFunction*%
%TD*%
%TA.AperFunction,Conductor*%
%TO.N,Net-(SW2-B)*%
G36*
X155380696Y-90140890D02*
G01*
X155992437Y-90372141D01*
X155998964Y-90378272D01*
X156000000Y-90383085D01*
X156000000Y-90616914D01*
X155996573Y-90625187D01*
X155992437Y-90627858D01*
X155363655Y-90865551D01*
X155354705Y-90865271D01*
X155348719Y-90859109D01*
X155252306Y-90627858D01*
X155200875Y-90504499D01*
X155200855Y-90495550D01*
X155348719Y-90140889D01*
X155355066Y-90134572D01*
X155363654Y-90134448D01*
X155380696Y-90140890D01*
G37*
%TD.AperFunction*%
%TD*%
%TA.AperFunction,Conductor*%
%TO.N,Net-(U1-HPI_SCL)*%
G36*
X131674215Y-85323708D02*
G01*
X132324558Y-85450164D01*
X132332024Y-85455106D01*
X132334024Y-85461619D01*
X132334987Y-85847124D01*
X132331581Y-85855405D01*
X132331546Y-85855441D01*
X132060630Y-86125402D01*
X132052350Y-86128814D01*
X132044083Y-86125373D01*
X132043062Y-86124202D01*
X131662672Y-85624139D01*
X131660284Y-85617055D01*
X131660284Y-85335194D01*
X131663711Y-85326921D01*
X131671984Y-85323494D01*
X131674215Y-85323708D01*
G37*
%TD.AperFunction*%
%TD*%
%TA.AperFunction,Conductor*%
%TO.N,Net-(U1-FLIP)*%
G36*
X142610620Y-85418634D02*
G01*
X142616681Y-85425226D01*
X142616798Y-85425561D01*
X142925667Y-86356312D01*
X142925020Y-86365243D01*
X142922835Y-86368270D01*
X142757169Y-86533936D01*
X142748896Y-86537363D01*
X142743594Y-86536092D01*
X142739353Y-86533936D01*
X141891937Y-86103098D01*
X141886116Y-86096295D01*
X141886610Y-86087781D01*
X142110258Y-85601714D01*
X142116826Y-85595634D01*
X142601675Y-85418258D01*
X142610620Y-85418634D01*
G37*
%TD.AperFunction*%
%TD*%
%TA.AperFunction,Conductor*%
%TO.N,Net-(U1-FAULT)*%
G36*
X144752028Y-86945589D02*
G01*
X144752731Y-86947026D01*
X144971983Y-87485319D01*
X144971930Y-87494273D01*
X144965655Y-87500529D01*
X144658000Y-87628986D01*
X144649045Y-87629011D01*
X144648996Y-87628991D01*
X144340152Y-87500435D01*
X144333831Y-87494092D01*
X144333728Y-87485434D01*
X144486376Y-87088453D01*
X144491441Y-87082524D01*
X144736047Y-86941305D01*
X144744923Y-86940138D01*
X144752028Y-86945589D01*
G37*
%TD.AperFunction*%
%TD*%
%TA.AperFunction,Conductor*%
%TO.N,Net-(U1-FLIP)*%
G36*
X142983888Y-86415233D02*
G01*
X143506992Y-86666857D01*
X143512962Y-86673532D01*
X143512741Y-86681850D01*
X143385563Y-86991191D01*
X143379248Y-86997540D01*
X143379191Y-86997563D01*
X143069850Y-87124741D01*
X143060895Y-87124718D01*
X143054857Y-87118992D01*
X142996436Y-86997540D01*
X142803233Y-86595889D01*
X142802736Y-86586950D01*
X142805503Y-86582548D01*
X142970547Y-86417504D01*
X142978819Y-86414078D01*
X142983888Y-86415233D01*
G37*
%TD.AperFunction*%
%TD*%
%TA.AperFunction,Conductor*%
%TO.N,Net-(D1-A)*%
G36*
X125119626Y-94822238D02*
G01*
X125125453Y-94827548D01*
X125394103Y-95333387D01*
X125394957Y-95342301D01*
X125392043Y-95347148D01*
X125192148Y-95547043D01*
X125183875Y-95550470D01*
X125178387Y-95549103D01*
X125174508Y-95547043D01*
X124798127Y-95347148D01*
X124672548Y-95280453D01*
X124666849Y-95273546D01*
X124667214Y-95265673D01*
X124794559Y-94955928D01*
X124800870Y-94949583D01*
X125110672Y-94822215D01*
X125119626Y-94822238D01*
G37*
%TD.AperFunction*%
%TD*%
%TA.AperFunction,Conductor*%
%TO.N,Net-(SW1-A)*%
G36*
X159232005Y-99418943D02*
G01*
X159232640Y-99419205D01*
X159991213Y-99732437D01*
X159997552Y-99738762D01*
X159997562Y-99738786D01*
X160311056Y-100497994D01*
X160311046Y-100506948D01*
X160304707Y-100513273D01*
X160304129Y-100513494D01*
X158904944Y-101006333D01*
X158896002Y-101005850D01*
X158892784Y-101003571D01*
X158726428Y-100837215D01*
X158723001Y-100828942D01*
X158723666Y-100825055D01*
X158833486Y-100513273D01*
X159216506Y-99425868D01*
X159222485Y-99419205D01*
X159231427Y-99418722D01*
X159232005Y-99418943D01*
G37*
%TD.AperFunction*%
%TD*%
M02*
