%TF.GenerationSoftware,KiCad,Pcbnew,7.0.8*%
%TF.CreationDate,2024-12-11T22:38:04+01:00*%
%TF.ProjectId,USB-C_PD_Board_V2_CYPD3177,5553422d-435f-4504-945f-426f6172645f,rev?*%
%TF.SameCoordinates,Original*%
%TF.FileFunction,Soldermask,Bot*%
%TF.FilePolarity,Negative*%
%FSLAX46Y46*%
G04 Gerber Fmt 4.6, Leading zero omitted, Abs format (unit mm)*
G04 Created by KiCad (PCBNEW 7.0.8) date 2024-12-11 22:38:04*
%MOMM*%
%LPD*%
G01*
G04 APERTURE LIST*
%ADD10C,0.150000*%
%ADD11C,5.600000*%
%ADD12R,1.700000X1.700000*%
%ADD13O,1.700000X1.700000*%
%ADD14C,1.524000*%
%ADD15O,1.143000X2.286000*%
%ADD16C,1.676400*%
%ADD17O,1.700000X1.100000*%
%ADD18R,1.000000X1.000000*%
%ADD19R,1.600000X1.600000*%
%ADD20O,1.600000X1.600000*%
G04 APERTURE END LIST*
D10*
X166739649Y-102029533D02*
X166739649Y-101329533D01*
X166739649Y-101329533D02*
X166472982Y-101329533D01*
X166472982Y-101329533D02*
X166406316Y-101362866D01*
X166406316Y-101362866D02*
X166372982Y-101396200D01*
X166372982Y-101396200D02*
X166339649Y-101462866D01*
X166339649Y-101462866D02*
X166339649Y-101562866D01*
X166339649Y-101562866D02*
X166372982Y-101629533D01*
X166372982Y-101629533D02*
X166406316Y-101662866D01*
X166406316Y-101662866D02*
X166472982Y-101696200D01*
X166472982Y-101696200D02*
X166739649Y-101696200D01*
X165939649Y-102029533D02*
X166006316Y-101996200D01*
X166006316Y-101996200D02*
X166039649Y-101962866D01*
X166039649Y-101962866D02*
X166072982Y-101896200D01*
X166072982Y-101896200D02*
X166072982Y-101696200D01*
X166072982Y-101696200D02*
X166039649Y-101629533D01*
X166039649Y-101629533D02*
X166006316Y-101596200D01*
X166006316Y-101596200D02*
X165939649Y-101562866D01*
X165939649Y-101562866D02*
X165839649Y-101562866D01*
X165839649Y-101562866D02*
X165772982Y-101596200D01*
X165772982Y-101596200D02*
X165739649Y-101629533D01*
X165739649Y-101629533D02*
X165706316Y-101696200D01*
X165706316Y-101696200D02*
X165706316Y-101896200D01*
X165706316Y-101896200D02*
X165739649Y-101962866D01*
X165739649Y-101962866D02*
X165772982Y-101996200D01*
X165772982Y-101996200D02*
X165839649Y-102029533D01*
X165839649Y-102029533D02*
X165939649Y-102029533D01*
X165506316Y-101562866D02*
X165239649Y-101562866D01*
X165406316Y-101329533D02*
X165406316Y-101929533D01*
X165406316Y-101929533D02*
X165372983Y-101996200D01*
X165372983Y-101996200D02*
X165306316Y-102029533D01*
X165306316Y-102029533D02*
X165239649Y-102029533D01*
X165006316Y-101562866D02*
X165006316Y-102262866D01*
X165006316Y-101596200D02*
X164939649Y-101562866D01*
X164939649Y-101562866D02*
X164806316Y-101562866D01*
X164806316Y-101562866D02*
X164739649Y-101596200D01*
X164739649Y-101596200D02*
X164706316Y-101629533D01*
X164706316Y-101629533D02*
X164672983Y-101696200D01*
X164672983Y-101696200D02*
X164672983Y-101896200D01*
X164672983Y-101896200D02*
X164706316Y-101962866D01*
X164706316Y-101962866D02*
X164739649Y-101996200D01*
X164739649Y-101996200D02*
X164806316Y-102029533D01*
X164806316Y-102029533D02*
X164939649Y-102029533D01*
X164939649Y-102029533D02*
X165006316Y-101996200D01*
X164072983Y-101562866D02*
X164072983Y-102029533D01*
X164372983Y-101562866D02*
X164372983Y-101929533D01*
X164372983Y-101929533D02*
X164339650Y-101996200D01*
X164339650Y-101996200D02*
X164272983Y-102029533D01*
X164272983Y-102029533D02*
X164172983Y-102029533D01*
X164172983Y-102029533D02*
X164106316Y-101996200D01*
X164106316Y-101996200D02*
X164072983Y-101962866D01*
X163739650Y-102029533D02*
X163739650Y-101562866D01*
X163739650Y-101696200D02*
X163706317Y-101629533D01*
X163706317Y-101629533D02*
X163672983Y-101596200D01*
X163672983Y-101596200D02*
X163606317Y-101562866D01*
X163606317Y-101562866D02*
X163539650Y-101562866D01*
X163306317Y-102029533D02*
X163306317Y-101562866D01*
X163306317Y-101696200D02*
X163272984Y-101629533D01*
X163272984Y-101629533D02*
X163239650Y-101596200D01*
X163239650Y-101596200D02*
X163172984Y-101562866D01*
X163172984Y-101562866D02*
X163106317Y-101562866D01*
X162872984Y-102029533D02*
X162872984Y-101562866D01*
X162872984Y-101329533D02*
X162906317Y-101362866D01*
X162906317Y-101362866D02*
X162872984Y-101396200D01*
X162872984Y-101396200D02*
X162839651Y-101362866D01*
X162839651Y-101362866D02*
X162872984Y-101329533D01*
X162872984Y-101329533D02*
X162872984Y-101396200D01*
X166739649Y-102456533D02*
X166739649Y-103023200D01*
X166739649Y-103023200D02*
X166706316Y-103089866D01*
X166706316Y-103089866D02*
X166672982Y-103123200D01*
X166672982Y-103123200D02*
X166606316Y-103156533D01*
X166606316Y-103156533D02*
X166472982Y-103156533D01*
X166472982Y-103156533D02*
X166406316Y-103123200D01*
X166406316Y-103123200D02*
X166372982Y-103089866D01*
X166372982Y-103089866D02*
X166339649Y-103023200D01*
X166339649Y-103023200D02*
X166339649Y-102456533D01*
X166039649Y-103123200D02*
X165939649Y-103156533D01*
X165939649Y-103156533D02*
X165772983Y-103156533D01*
X165772983Y-103156533D02*
X165706316Y-103123200D01*
X165706316Y-103123200D02*
X165672983Y-103089866D01*
X165672983Y-103089866D02*
X165639649Y-103023200D01*
X165639649Y-103023200D02*
X165639649Y-102956533D01*
X165639649Y-102956533D02*
X165672983Y-102889866D01*
X165672983Y-102889866D02*
X165706316Y-102856533D01*
X165706316Y-102856533D02*
X165772983Y-102823200D01*
X165772983Y-102823200D02*
X165906316Y-102789866D01*
X165906316Y-102789866D02*
X165972983Y-102756533D01*
X165972983Y-102756533D02*
X166006316Y-102723200D01*
X166006316Y-102723200D02*
X166039649Y-102656533D01*
X166039649Y-102656533D02*
X166039649Y-102589866D01*
X166039649Y-102589866D02*
X166006316Y-102523200D01*
X166006316Y-102523200D02*
X165972983Y-102489866D01*
X165972983Y-102489866D02*
X165906316Y-102456533D01*
X165906316Y-102456533D02*
X165739649Y-102456533D01*
X165739649Y-102456533D02*
X165639649Y-102489866D01*
X165106316Y-102789866D02*
X165006316Y-102823200D01*
X165006316Y-102823200D02*
X164972982Y-102856533D01*
X164972982Y-102856533D02*
X164939649Y-102923200D01*
X164939649Y-102923200D02*
X164939649Y-103023200D01*
X164939649Y-103023200D02*
X164972982Y-103089866D01*
X164972982Y-103089866D02*
X165006316Y-103123200D01*
X165006316Y-103123200D02*
X165072982Y-103156533D01*
X165072982Y-103156533D02*
X165339649Y-103156533D01*
X165339649Y-103156533D02*
X165339649Y-102456533D01*
X165339649Y-102456533D02*
X165106316Y-102456533D01*
X165106316Y-102456533D02*
X165039649Y-102489866D01*
X165039649Y-102489866D02*
X165006316Y-102523200D01*
X165006316Y-102523200D02*
X164972982Y-102589866D01*
X164972982Y-102589866D02*
X164972982Y-102656533D01*
X164972982Y-102656533D02*
X165006316Y-102723200D01*
X165006316Y-102723200D02*
X165039649Y-102756533D01*
X165039649Y-102756533D02*
X165106316Y-102789866D01*
X165106316Y-102789866D02*
X165339649Y-102789866D01*
X164639649Y-102889866D02*
X164106316Y-102889866D01*
X163372982Y-103089866D02*
X163406315Y-103123200D01*
X163406315Y-103123200D02*
X163506315Y-103156533D01*
X163506315Y-103156533D02*
X163572982Y-103156533D01*
X163572982Y-103156533D02*
X163672982Y-103123200D01*
X163672982Y-103123200D02*
X163739649Y-103056533D01*
X163739649Y-103056533D02*
X163772982Y-102989866D01*
X163772982Y-102989866D02*
X163806315Y-102856533D01*
X163806315Y-102856533D02*
X163806315Y-102756533D01*
X163806315Y-102756533D02*
X163772982Y-102623200D01*
X163772982Y-102623200D02*
X163739649Y-102556533D01*
X163739649Y-102556533D02*
X163672982Y-102489866D01*
X163672982Y-102489866D02*
X163572982Y-102456533D01*
X163572982Y-102456533D02*
X163506315Y-102456533D01*
X163506315Y-102456533D02*
X163406315Y-102489866D01*
X163406315Y-102489866D02*
X163372982Y-102523200D01*
X162539649Y-103156533D02*
X162539649Y-102456533D01*
X162539649Y-102456533D02*
X162272982Y-102456533D01*
X162272982Y-102456533D02*
X162206316Y-102489866D01*
X162206316Y-102489866D02*
X162172982Y-102523200D01*
X162172982Y-102523200D02*
X162139649Y-102589866D01*
X162139649Y-102589866D02*
X162139649Y-102689866D01*
X162139649Y-102689866D02*
X162172982Y-102756533D01*
X162172982Y-102756533D02*
X162206316Y-102789866D01*
X162206316Y-102789866D02*
X162272982Y-102823200D01*
X162272982Y-102823200D02*
X162539649Y-102823200D01*
X161839649Y-103156533D02*
X161839649Y-102456533D01*
X161839649Y-102456533D02*
X161672982Y-102456533D01*
X161672982Y-102456533D02*
X161572982Y-102489866D01*
X161572982Y-102489866D02*
X161506316Y-102556533D01*
X161506316Y-102556533D02*
X161472982Y-102623200D01*
X161472982Y-102623200D02*
X161439649Y-102756533D01*
X161439649Y-102756533D02*
X161439649Y-102856533D01*
X161439649Y-102856533D02*
X161472982Y-102989866D01*
X161472982Y-102989866D02*
X161506316Y-103056533D01*
X161506316Y-103056533D02*
X161572982Y-103123200D01*
X161572982Y-103123200D02*
X161672982Y-103156533D01*
X161672982Y-103156533D02*
X161839649Y-103156533D01*
X160372983Y-102789866D02*
X160272983Y-102823200D01*
X160272983Y-102823200D02*
X160239649Y-102856533D01*
X160239649Y-102856533D02*
X160206316Y-102923200D01*
X160206316Y-102923200D02*
X160206316Y-103023200D01*
X160206316Y-103023200D02*
X160239649Y-103089866D01*
X160239649Y-103089866D02*
X160272983Y-103123200D01*
X160272983Y-103123200D02*
X160339649Y-103156533D01*
X160339649Y-103156533D02*
X160606316Y-103156533D01*
X160606316Y-103156533D02*
X160606316Y-102456533D01*
X160606316Y-102456533D02*
X160372983Y-102456533D01*
X160372983Y-102456533D02*
X160306316Y-102489866D01*
X160306316Y-102489866D02*
X160272983Y-102523200D01*
X160272983Y-102523200D02*
X160239649Y-102589866D01*
X160239649Y-102589866D02*
X160239649Y-102656533D01*
X160239649Y-102656533D02*
X160272983Y-102723200D01*
X160272983Y-102723200D02*
X160306316Y-102756533D01*
X160306316Y-102756533D02*
X160372983Y-102789866D01*
X160372983Y-102789866D02*
X160606316Y-102789866D01*
X159806316Y-103156533D02*
X159872983Y-103123200D01*
X159872983Y-103123200D02*
X159906316Y-103089866D01*
X159906316Y-103089866D02*
X159939649Y-103023200D01*
X159939649Y-103023200D02*
X159939649Y-102823200D01*
X159939649Y-102823200D02*
X159906316Y-102756533D01*
X159906316Y-102756533D02*
X159872983Y-102723200D01*
X159872983Y-102723200D02*
X159806316Y-102689866D01*
X159806316Y-102689866D02*
X159706316Y-102689866D01*
X159706316Y-102689866D02*
X159639649Y-102723200D01*
X159639649Y-102723200D02*
X159606316Y-102756533D01*
X159606316Y-102756533D02*
X159572983Y-102823200D01*
X159572983Y-102823200D02*
X159572983Y-103023200D01*
X159572983Y-103023200D02*
X159606316Y-103089866D01*
X159606316Y-103089866D02*
X159639649Y-103123200D01*
X159639649Y-103123200D02*
X159706316Y-103156533D01*
X159706316Y-103156533D02*
X159806316Y-103156533D01*
X158972983Y-103156533D02*
X158972983Y-102789866D01*
X158972983Y-102789866D02*
X159006316Y-102723200D01*
X159006316Y-102723200D02*
X159072983Y-102689866D01*
X159072983Y-102689866D02*
X159206316Y-102689866D01*
X159206316Y-102689866D02*
X159272983Y-102723200D01*
X158972983Y-103123200D02*
X159039650Y-103156533D01*
X159039650Y-103156533D02*
X159206316Y-103156533D01*
X159206316Y-103156533D02*
X159272983Y-103123200D01*
X159272983Y-103123200D02*
X159306316Y-103056533D01*
X159306316Y-103056533D02*
X159306316Y-102989866D01*
X159306316Y-102989866D02*
X159272983Y-102923200D01*
X159272983Y-102923200D02*
X159206316Y-102889866D01*
X159206316Y-102889866D02*
X159039650Y-102889866D01*
X159039650Y-102889866D02*
X158972983Y-102856533D01*
X158639650Y-103156533D02*
X158639650Y-102689866D01*
X158639650Y-102823200D02*
X158606317Y-102756533D01*
X158606317Y-102756533D02*
X158572983Y-102723200D01*
X158572983Y-102723200D02*
X158506317Y-102689866D01*
X158506317Y-102689866D02*
X158439650Y-102689866D01*
X157906317Y-103156533D02*
X157906317Y-102456533D01*
X157906317Y-103123200D02*
X157972984Y-103156533D01*
X157972984Y-103156533D02*
X158106317Y-103156533D01*
X158106317Y-103156533D02*
X158172984Y-103123200D01*
X158172984Y-103123200D02*
X158206317Y-103089866D01*
X158206317Y-103089866D02*
X158239650Y-103023200D01*
X158239650Y-103023200D02*
X158239650Y-102823200D01*
X158239650Y-102823200D02*
X158206317Y-102756533D01*
X158206317Y-102756533D02*
X158172984Y-102723200D01*
X158172984Y-102723200D02*
X158106317Y-102689866D01*
X158106317Y-102689866D02*
X157972984Y-102689866D01*
X157972984Y-102689866D02*
X157906317Y-102723200D01*
X156739651Y-102689866D02*
X156739651Y-103156533D01*
X157039651Y-102689866D02*
X157039651Y-103056533D01*
X157039651Y-103056533D02*
X157006318Y-103123200D01*
X157006318Y-103123200D02*
X156939651Y-103156533D01*
X156939651Y-103156533D02*
X156839651Y-103156533D01*
X156839651Y-103156533D02*
X156772984Y-103123200D01*
X156772984Y-103123200D02*
X156739651Y-103089866D01*
X156439651Y-103123200D02*
X156372985Y-103156533D01*
X156372985Y-103156533D02*
X156239651Y-103156533D01*
X156239651Y-103156533D02*
X156172985Y-103123200D01*
X156172985Y-103123200D02*
X156139651Y-103056533D01*
X156139651Y-103056533D02*
X156139651Y-103023200D01*
X156139651Y-103023200D02*
X156172985Y-102956533D01*
X156172985Y-102956533D02*
X156239651Y-102923200D01*
X156239651Y-102923200D02*
X156339651Y-102923200D01*
X156339651Y-102923200D02*
X156406318Y-102889866D01*
X156406318Y-102889866D02*
X156439651Y-102823200D01*
X156439651Y-102823200D02*
X156439651Y-102789866D01*
X156439651Y-102789866D02*
X156406318Y-102723200D01*
X156406318Y-102723200D02*
X156339651Y-102689866D01*
X156339651Y-102689866D02*
X156239651Y-102689866D01*
X156239651Y-102689866D02*
X156172985Y-102723200D01*
X155839651Y-103156533D02*
X155839651Y-102689866D01*
X155839651Y-102456533D02*
X155872984Y-102489866D01*
X155872984Y-102489866D02*
X155839651Y-102523200D01*
X155839651Y-102523200D02*
X155806318Y-102489866D01*
X155806318Y-102489866D02*
X155839651Y-102456533D01*
X155839651Y-102456533D02*
X155839651Y-102523200D01*
X155506318Y-102689866D02*
X155506318Y-103156533D01*
X155506318Y-102756533D02*
X155472985Y-102723200D01*
X155472985Y-102723200D02*
X155406318Y-102689866D01*
X155406318Y-102689866D02*
X155306318Y-102689866D01*
X155306318Y-102689866D02*
X155239651Y-102723200D01*
X155239651Y-102723200D02*
X155206318Y-102789866D01*
X155206318Y-102789866D02*
X155206318Y-103156533D01*
X154572985Y-102689866D02*
X154572985Y-103256533D01*
X154572985Y-103256533D02*
X154606318Y-103323200D01*
X154606318Y-103323200D02*
X154639652Y-103356533D01*
X154639652Y-103356533D02*
X154706318Y-103389866D01*
X154706318Y-103389866D02*
X154806318Y-103389866D01*
X154806318Y-103389866D02*
X154872985Y-103356533D01*
X154572985Y-103123200D02*
X154639652Y-103156533D01*
X154639652Y-103156533D02*
X154772985Y-103156533D01*
X154772985Y-103156533D02*
X154839652Y-103123200D01*
X154839652Y-103123200D02*
X154872985Y-103089866D01*
X154872985Y-103089866D02*
X154906318Y-103023200D01*
X154906318Y-103023200D02*
X154906318Y-102823200D01*
X154906318Y-102823200D02*
X154872985Y-102756533D01*
X154872985Y-102756533D02*
X154839652Y-102723200D01*
X154839652Y-102723200D02*
X154772985Y-102689866D01*
X154772985Y-102689866D02*
X154639652Y-102689866D01*
X154639652Y-102689866D02*
X154572985Y-102723200D01*
X153306319Y-103089866D02*
X153339652Y-103123200D01*
X153339652Y-103123200D02*
X153439652Y-103156533D01*
X153439652Y-103156533D02*
X153506319Y-103156533D01*
X153506319Y-103156533D02*
X153606319Y-103123200D01*
X153606319Y-103123200D02*
X153672986Y-103056533D01*
X153672986Y-103056533D02*
X153706319Y-102989866D01*
X153706319Y-102989866D02*
X153739652Y-102856533D01*
X153739652Y-102856533D02*
X153739652Y-102756533D01*
X153739652Y-102756533D02*
X153706319Y-102623200D01*
X153706319Y-102623200D02*
X153672986Y-102556533D01*
X153672986Y-102556533D02*
X153606319Y-102489866D01*
X153606319Y-102489866D02*
X153506319Y-102456533D01*
X153506319Y-102456533D02*
X153439652Y-102456533D01*
X153439652Y-102456533D02*
X153339652Y-102489866D01*
X153339652Y-102489866D02*
X153306319Y-102523200D01*
X152872986Y-102823200D02*
X152872986Y-103156533D01*
X153106319Y-102456533D02*
X152872986Y-102823200D01*
X152872986Y-102823200D02*
X152639652Y-102456533D01*
X152406319Y-103156533D02*
X152406319Y-102456533D01*
X152406319Y-102456533D02*
X152139652Y-102456533D01*
X152139652Y-102456533D02*
X152072986Y-102489866D01*
X152072986Y-102489866D02*
X152039652Y-102523200D01*
X152039652Y-102523200D02*
X152006319Y-102589866D01*
X152006319Y-102589866D02*
X152006319Y-102689866D01*
X152006319Y-102689866D02*
X152039652Y-102756533D01*
X152039652Y-102756533D02*
X152072986Y-102789866D01*
X152072986Y-102789866D02*
X152139652Y-102823200D01*
X152139652Y-102823200D02*
X152406319Y-102823200D01*
X151706319Y-103156533D02*
X151706319Y-102456533D01*
X151706319Y-102456533D02*
X151539652Y-102456533D01*
X151539652Y-102456533D02*
X151439652Y-102489866D01*
X151439652Y-102489866D02*
X151372986Y-102556533D01*
X151372986Y-102556533D02*
X151339652Y-102623200D01*
X151339652Y-102623200D02*
X151306319Y-102756533D01*
X151306319Y-102756533D02*
X151306319Y-102856533D01*
X151306319Y-102856533D02*
X151339652Y-102989866D01*
X151339652Y-102989866D02*
X151372986Y-103056533D01*
X151372986Y-103056533D02*
X151439652Y-103123200D01*
X151439652Y-103123200D02*
X151539652Y-103156533D01*
X151539652Y-103156533D02*
X151706319Y-103156533D01*
X151072986Y-102456533D02*
X150639652Y-102456533D01*
X150639652Y-102456533D02*
X150872986Y-102723200D01*
X150872986Y-102723200D02*
X150772986Y-102723200D01*
X150772986Y-102723200D02*
X150706319Y-102756533D01*
X150706319Y-102756533D02*
X150672986Y-102789866D01*
X150672986Y-102789866D02*
X150639652Y-102856533D01*
X150639652Y-102856533D02*
X150639652Y-103023200D01*
X150639652Y-103023200D02*
X150672986Y-103089866D01*
X150672986Y-103089866D02*
X150706319Y-103123200D01*
X150706319Y-103123200D02*
X150772986Y-103156533D01*
X150772986Y-103156533D02*
X150972986Y-103156533D01*
X150972986Y-103156533D02*
X151039652Y-103123200D01*
X151039652Y-103123200D02*
X151072986Y-103089866D01*
X149972985Y-103156533D02*
X150372985Y-103156533D01*
X150172985Y-103156533D02*
X150172985Y-102456533D01*
X150172985Y-102456533D02*
X150239652Y-102556533D01*
X150239652Y-102556533D02*
X150306319Y-102623200D01*
X150306319Y-102623200D02*
X150372985Y-102656533D01*
X149739652Y-102456533D02*
X149272985Y-102456533D01*
X149272985Y-102456533D02*
X149572985Y-103156533D01*
X149072985Y-102456533D02*
X148606318Y-102456533D01*
X148606318Y-102456533D02*
X148906318Y-103156533D01*
X148306318Y-103123200D02*
X148306318Y-103156533D01*
X148306318Y-103156533D02*
X148339651Y-103223200D01*
X148339651Y-103223200D02*
X148372984Y-103256533D01*
X147572985Y-102456533D02*
X147339652Y-103156533D01*
X147339652Y-103156533D02*
X147106318Y-102456533D01*
X146606318Y-103123200D02*
X146672985Y-103156533D01*
X146672985Y-103156533D02*
X146806318Y-103156533D01*
X146806318Y-103156533D02*
X146872985Y-103123200D01*
X146872985Y-103123200D02*
X146906318Y-103056533D01*
X146906318Y-103056533D02*
X146906318Y-102789866D01*
X146906318Y-102789866D02*
X146872985Y-102723200D01*
X146872985Y-102723200D02*
X146806318Y-102689866D01*
X146806318Y-102689866D02*
X146672985Y-102689866D01*
X146672985Y-102689866D02*
X146606318Y-102723200D01*
X146606318Y-102723200D02*
X146572985Y-102789866D01*
X146572985Y-102789866D02*
X146572985Y-102856533D01*
X146572985Y-102856533D02*
X146906318Y-102923200D01*
X146272985Y-103156533D02*
X146272985Y-102689866D01*
X146272985Y-102823200D02*
X146239652Y-102756533D01*
X146239652Y-102756533D02*
X146206318Y-102723200D01*
X146206318Y-102723200D02*
X146139652Y-102689866D01*
X146139652Y-102689866D02*
X146072985Y-102689866D01*
X145872985Y-103123200D02*
X145806319Y-103156533D01*
X145806319Y-103156533D02*
X145672985Y-103156533D01*
X145672985Y-103156533D02*
X145606319Y-103123200D01*
X145606319Y-103123200D02*
X145572985Y-103056533D01*
X145572985Y-103056533D02*
X145572985Y-103023200D01*
X145572985Y-103023200D02*
X145606319Y-102956533D01*
X145606319Y-102956533D02*
X145672985Y-102923200D01*
X145672985Y-102923200D02*
X145772985Y-102923200D01*
X145772985Y-102923200D02*
X145839652Y-102889866D01*
X145839652Y-102889866D02*
X145872985Y-102823200D01*
X145872985Y-102823200D02*
X145872985Y-102789866D01*
X145872985Y-102789866D02*
X145839652Y-102723200D01*
X145839652Y-102723200D02*
X145772985Y-102689866D01*
X145772985Y-102689866D02*
X145672985Y-102689866D01*
X145672985Y-102689866D02*
X145606319Y-102723200D01*
X145272985Y-103156533D02*
X145272985Y-102689866D01*
X145272985Y-102456533D02*
X145306318Y-102489866D01*
X145306318Y-102489866D02*
X145272985Y-102523200D01*
X145272985Y-102523200D02*
X145239652Y-102489866D01*
X145239652Y-102489866D02*
X145272985Y-102456533D01*
X145272985Y-102456533D02*
X145272985Y-102523200D01*
X144839652Y-103156533D02*
X144906319Y-103123200D01*
X144906319Y-103123200D02*
X144939652Y-103089866D01*
X144939652Y-103089866D02*
X144972985Y-103023200D01*
X144972985Y-103023200D02*
X144972985Y-102823200D01*
X144972985Y-102823200D02*
X144939652Y-102756533D01*
X144939652Y-102756533D02*
X144906319Y-102723200D01*
X144906319Y-102723200D02*
X144839652Y-102689866D01*
X144839652Y-102689866D02*
X144739652Y-102689866D01*
X144739652Y-102689866D02*
X144672985Y-102723200D01*
X144672985Y-102723200D02*
X144639652Y-102756533D01*
X144639652Y-102756533D02*
X144606319Y-102823200D01*
X144606319Y-102823200D02*
X144606319Y-103023200D01*
X144606319Y-103023200D02*
X144639652Y-103089866D01*
X144639652Y-103089866D02*
X144672985Y-103123200D01*
X144672985Y-103123200D02*
X144739652Y-103156533D01*
X144739652Y-103156533D02*
X144839652Y-103156533D01*
X144306319Y-102689866D02*
X144306319Y-103156533D01*
X144306319Y-102756533D02*
X144272986Y-102723200D01*
X144272986Y-102723200D02*
X144206319Y-102689866D01*
X144206319Y-102689866D02*
X144106319Y-102689866D01*
X144106319Y-102689866D02*
X144039652Y-102723200D01*
X144039652Y-102723200D02*
X144006319Y-102789866D01*
X144006319Y-102789866D02*
X144006319Y-103156533D01*
X143172986Y-102523200D02*
X143139653Y-102489866D01*
X143139653Y-102489866D02*
X143072986Y-102456533D01*
X143072986Y-102456533D02*
X142906320Y-102456533D01*
X142906320Y-102456533D02*
X142839653Y-102489866D01*
X142839653Y-102489866D02*
X142806320Y-102523200D01*
X142806320Y-102523200D02*
X142772986Y-102589866D01*
X142772986Y-102589866D02*
X142772986Y-102656533D01*
X142772986Y-102656533D02*
X142806320Y-102756533D01*
X142806320Y-102756533D02*
X143206320Y-103156533D01*
X143206320Y-103156533D02*
X142772986Y-103156533D01*
X142472986Y-103089866D02*
X142439653Y-103123200D01*
X142439653Y-103123200D02*
X142472986Y-103156533D01*
X142472986Y-103156533D02*
X142506319Y-103123200D01*
X142506319Y-103123200D02*
X142472986Y-103089866D01*
X142472986Y-103089866D02*
X142472986Y-103156533D01*
X141772986Y-103156533D02*
X142172986Y-103156533D01*
X141972986Y-103156533D02*
X141972986Y-102456533D01*
X141972986Y-102456533D02*
X142039653Y-102556533D01*
X142039653Y-102556533D02*
X142106320Y-102623200D01*
X142106320Y-102623200D02*
X142172986Y-102656533D01*
%TO.C,G\u002A\u002A\u002A*%
G36*
X154058099Y-91102584D02*
G01*
X154052239Y-91108444D01*
X154046378Y-91102584D01*
X154052239Y-91096723D01*
X154058099Y-91102584D01*
G37*
G36*
X153835395Y-91278403D02*
G01*
X153829534Y-91284264D01*
X153823674Y-91278403D01*
X153829534Y-91272542D01*
X153835395Y-91278403D01*
G37*
G36*
X153495478Y-92204384D02*
G01*
X153489617Y-92210244D01*
X153483757Y-92204384D01*
X153489617Y-92198523D01*
X153495478Y-92204384D01*
G37*
G36*
X152581219Y-95205030D02*
G01*
X152575358Y-95210890D01*
X152569497Y-95205030D01*
X152575358Y-95199169D01*
X152581219Y-95205030D01*
G37*
G36*
X152217859Y-92227826D02*
G01*
X152211999Y-92233687D01*
X152206138Y-92227826D01*
X152211999Y-92221965D01*
X152217859Y-92227826D01*
G37*
G36*
X152077204Y-95626995D02*
G01*
X152071343Y-95632856D01*
X152065483Y-95626995D01*
X152071343Y-95621135D01*
X152077204Y-95626995D01*
G37*
G36*
X151948270Y-88488740D02*
G01*
X151942409Y-88494600D01*
X151936549Y-88488740D01*
X151942409Y-88482879D01*
X151948270Y-88488740D01*
G37*
G36*
X151889664Y-90188324D02*
G01*
X151883803Y-90194185D01*
X151877942Y-90188324D01*
X151883803Y-90182464D01*
X151889664Y-90188324D01*
G37*
G36*
X151772451Y-95908306D02*
G01*
X151766590Y-95914167D01*
X151760730Y-95908306D01*
X151766590Y-95902445D01*
X151772451Y-95908306D01*
G37*
G36*
X151268436Y-87093908D02*
G01*
X151262575Y-87099769D01*
X151256715Y-87093908D01*
X151262575Y-87088048D01*
X151268436Y-87093908D01*
G37*
G36*
X151198108Y-93880526D02*
G01*
X151192248Y-93886386D01*
X151186387Y-93880526D01*
X151192248Y-93874665D01*
X151198108Y-93880526D01*
G37*
G36*
X150799585Y-87281449D02*
G01*
X150793724Y-87287309D01*
X150787864Y-87281449D01*
X150793724Y-87275588D01*
X150799585Y-87281449D01*
G37*
G36*
X150635487Y-90457914D02*
G01*
X150629627Y-90463774D01*
X150623766Y-90457914D01*
X150629627Y-90452053D01*
X150635487Y-90457914D01*
G37*
G36*
X150600323Y-90504799D02*
G01*
X150594463Y-90510660D01*
X150588602Y-90504799D01*
X150594463Y-90498938D01*
X150600323Y-90504799D01*
G37*
G36*
X150424504Y-89402999D02*
G01*
X150418644Y-89408860D01*
X150412783Y-89402999D01*
X150418644Y-89397139D01*
X150424504Y-89402999D01*
G37*
G36*
X149557130Y-89063082D02*
G01*
X149551269Y-89068943D01*
X149545409Y-89063082D01*
X149551269Y-89057222D01*
X149557130Y-89063082D01*
G37*
G36*
X149205492Y-88019889D02*
G01*
X149199631Y-88025749D01*
X149193771Y-88019889D01*
X149199631Y-88014028D01*
X149205492Y-88019889D01*
G37*
G36*
X148291233Y-89121689D02*
G01*
X148285372Y-89127549D01*
X148279511Y-89121689D01*
X148285372Y-89115828D01*
X148291233Y-89121689D01*
G37*
G36*
X148267790Y-94677572D02*
G01*
X148261929Y-94683433D01*
X148256069Y-94677572D01*
X148261929Y-94671712D01*
X148267790Y-94677572D01*
G37*
G36*
X147623120Y-88910706D02*
G01*
X147617259Y-88916566D01*
X147611399Y-88910706D01*
X147617259Y-88904845D01*
X147623120Y-88910706D01*
G37*
G36*
X147564514Y-94501753D02*
G01*
X147558653Y-94507614D01*
X147552792Y-94501753D01*
X147558653Y-94495893D01*
X147564514Y-94501753D01*
G37*
G36*
X147505907Y-94009460D02*
G01*
X147500047Y-94015320D01*
X147494186Y-94009460D01*
X147500047Y-94003599D01*
X147505907Y-94009460D01*
G37*
G36*
X147412137Y-92532579D02*
G01*
X147406276Y-92538440D01*
X147400416Y-92532579D01*
X147406276Y-92526719D01*
X147412137Y-92532579D01*
G37*
G36*
X147294924Y-94325934D02*
G01*
X147289064Y-94331795D01*
X147283203Y-94325934D01*
X147289064Y-94320073D01*
X147294924Y-94325934D01*
G37*
G36*
X146955007Y-89719474D02*
G01*
X146949147Y-89725334D01*
X146943286Y-89719474D01*
X146949147Y-89713613D01*
X146955007Y-89719474D01*
G37*
G36*
X146943286Y-88195708D02*
G01*
X146937425Y-88201569D01*
X146931565Y-88195708D01*
X146937425Y-88189847D01*
X146943286Y-88195708D01*
G37*
G36*
X146603369Y-88734887D02*
G01*
X146597508Y-88740747D01*
X146591648Y-88734887D01*
X146597508Y-88729026D01*
X146603369Y-88734887D01*
G37*
G36*
X146497878Y-95896585D02*
G01*
X146492017Y-95902445D01*
X146486156Y-95896585D01*
X146492017Y-95890724D01*
X146497878Y-95896585D01*
G37*
G36*
X146474435Y-90832995D02*
G01*
X146468574Y-90838855D01*
X146462714Y-90832995D01*
X146468574Y-90827134D01*
X146474435Y-90832995D01*
G37*
G36*
X146193125Y-96177895D02*
G01*
X146187264Y-96183756D01*
X146181403Y-96177895D01*
X146187264Y-96172035D01*
X146193125Y-96177895D01*
G37*
G36*
X145360914Y-90645454D02*
G01*
X145355053Y-90651315D01*
X145349193Y-90645454D01*
X145355053Y-90639594D01*
X145360914Y-90645454D01*
G37*
G36*
X145220259Y-93153807D02*
G01*
X145214398Y-93159667D01*
X145208538Y-93153807D01*
X145214398Y-93147946D01*
X145220259Y-93153807D01*
G37*
G36*
X144950670Y-91547992D02*
G01*
X144944809Y-91553853D01*
X144938948Y-91547992D01*
X144944809Y-91542132D01*
X144950670Y-91547992D01*
G37*
G36*
X144727965Y-94818228D02*
G01*
X144722105Y-94824088D01*
X144716244Y-94818228D01*
X144722105Y-94812367D01*
X144727965Y-94818228D01*
G37*
G36*
X144341163Y-90575127D02*
G01*
X144335303Y-90580987D01*
X144329442Y-90575127D01*
X144335303Y-90569266D01*
X144341163Y-90575127D01*
G37*
G36*
X147502000Y-92483741D02*
G01*
X147503834Y-92487266D01*
X147494186Y-92491555D01*
X147487981Y-92490709D01*
X147486372Y-92483741D01*
X147488090Y-92482338D01*
X147502000Y-92483741D01*
G37*
G36*
X147496384Y-92589039D02*
G01*
X147501809Y-92593258D01*
X147489302Y-92596121D01*
X147477414Y-92595292D01*
X147473918Y-92589965D01*
X147478065Y-92587642D01*
X147496384Y-92589039D01*
G37*
G36*
X146926823Y-90450242D02*
G01*
X146925266Y-90452628D01*
X146913685Y-90463423D01*
X146908122Y-90458606D01*
X146909170Y-90455969D01*
X146921655Y-90445073D01*
X146928205Y-90442221D01*
X146926823Y-90450242D01*
G37*
G36*
X151732104Y-88706111D02*
G01*
X151743148Y-88717305D01*
X151745331Y-88721455D01*
X151744531Y-88729026D01*
X151742470Y-88728498D01*
X151731426Y-88717305D01*
X151729243Y-88713155D01*
X151730043Y-88705583D01*
X151732104Y-88706111D01*
G37*
G36*
X151521121Y-94273716D02*
G01*
X151532165Y-94284910D01*
X151534348Y-94289060D01*
X151533548Y-94296631D01*
X151531487Y-94296103D01*
X151520443Y-94284910D01*
X151518260Y-94280760D01*
X151519060Y-94273188D01*
X151521121Y-94273716D01*
G37*
G36*
X147579028Y-92588756D02*
G01*
X147584796Y-92590289D01*
X147581352Y-92592936D01*
X147558653Y-92594090D01*
X147546236Y-92593939D01*
X147529403Y-92592161D01*
X147532143Y-92588993D01*
X147548487Y-92586869D01*
X147579028Y-92588756D01*
G37*
G36*
X147357786Y-87104372D02*
G01*
X147395088Y-87128539D01*
X147418579Y-87163856D01*
X147420707Y-87203497D01*
X147399565Y-87244704D01*
X147373635Y-87267640D01*
X147335949Y-87275588D01*
X147318695Y-87273865D01*
X147283441Y-87257272D01*
X147259565Y-87227958D01*
X147249338Y-87191959D01*
X147255033Y-87155314D01*
X147278923Y-87124062D01*
X147318042Y-87103440D01*
X147357786Y-87104372D01*
G37*
G36*
X152957695Y-88179190D02*
G01*
X152991498Y-88195740D01*
X153005456Y-88214627D01*
X153014890Y-88252877D01*
X153009848Y-88294085D01*
X152990406Y-88328937D01*
X152968851Y-88344862D01*
X152930457Y-88353070D01*
X152891329Y-88343512D01*
X152859261Y-88316904D01*
X152845767Y-88288275D01*
X152842651Y-88249132D01*
X152852926Y-88213204D01*
X152875488Y-88189185D01*
X152915168Y-88177063D01*
X152957695Y-88179190D01*
G37*
G36*
X150938277Y-87112612D02*
G01*
X150964993Y-87136755D01*
X150980818Y-87169152D01*
X150981741Y-87206012D01*
X150963748Y-87243539D01*
X150953013Y-87255017D01*
X150916691Y-87273863D01*
X150876431Y-87272333D01*
X150838435Y-87250102D01*
X150827250Y-87237181D01*
X150812187Y-87198798D01*
X150815391Y-87158180D01*
X150836959Y-87123668D01*
X150868221Y-87104263D01*
X150904682Y-87100517D01*
X150938277Y-87112612D01*
G37*
G36*
X145422692Y-88184960D02*
G01*
X145455637Y-88208027D01*
X145473487Y-88242284D01*
X145473725Y-88282404D01*
X145453834Y-88323061D01*
X145438755Y-88337436D01*
X145402615Y-88352708D01*
X145363842Y-88352027D01*
X145331466Y-88334544D01*
X145323238Y-88325575D01*
X145301049Y-88285637D01*
X145297860Y-88245994D01*
X145311974Y-88211575D01*
X145341694Y-88187310D01*
X145385323Y-88178126D01*
X145422692Y-88184960D01*
G37*
G36*
X145410348Y-94492889D02*
G01*
X145446553Y-94518393D01*
X145470015Y-94555510D01*
X145478726Y-94599021D01*
X145470678Y-94643703D01*
X145443865Y-94684335D01*
X145403165Y-94711550D01*
X145358539Y-94719494D01*
X145315445Y-94709736D01*
X145278754Y-94684436D01*
X145253340Y-94645752D01*
X145244074Y-94595841D01*
X145249168Y-94556782D01*
X145271344Y-94516687D01*
X145310724Y-94492361D01*
X145366906Y-94484171D01*
X145410348Y-94492889D01*
G37*
G36*
X153015991Y-94502315D02*
G01*
X153036863Y-94516518D01*
X153063855Y-94553313D01*
X153073788Y-94597755D01*
X153065855Y-94643533D01*
X153039250Y-94684335D01*
X153023626Y-94697735D01*
X152981160Y-94717128D01*
X152937548Y-94718208D01*
X152896882Y-94703835D01*
X152863256Y-94676869D01*
X152840764Y-94640170D01*
X152833499Y-94596598D01*
X152845555Y-94549013D01*
X152873017Y-94512104D01*
X152914423Y-94489401D01*
X152963597Y-94485722D01*
X153015991Y-94502315D01*
G37*
G36*
X145635661Y-92484789D02*
G01*
X145661408Y-92493220D01*
X145696850Y-92520985D01*
X145719074Y-92560349D01*
X145726504Y-92605446D01*
X145717560Y-92650406D01*
X145690666Y-92689363D01*
X145650402Y-92715142D01*
X145605005Y-92722974D01*
X145561600Y-92712680D01*
X145524839Y-92686448D01*
X145499371Y-92646464D01*
X145489848Y-92594915D01*
X145490576Y-92581533D01*
X145505900Y-92536066D01*
X145537966Y-92502689D01*
X145582608Y-92484548D01*
X145635661Y-92484789D01*
G37*
G36*
X153733019Y-94835744D02*
G01*
X153751319Y-94855093D01*
X153766004Y-94892940D01*
X153762674Y-94932696D01*
X153742453Y-94967774D01*
X153706461Y-94991589D01*
X153697930Y-94993792D01*
X153673269Y-94993118D01*
X153667305Y-94991431D01*
X153647353Y-94988186D01*
X153633379Y-94980894D01*
X153613147Y-94962533D01*
X153593743Y-94931271D01*
X153589996Y-94894810D01*
X153602091Y-94861215D01*
X153626234Y-94834499D01*
X153658632Y-94818674D01*
X153695491Y-94817752D01*
X153733019Y-94835744D01*
G37*
G36*
X153006089Y-93118843D02*
G01*
X153045307Y-93141605D01*
X153072789Y-93176506D01*
X153087014Y-93218464D01*
X153086465Y-93262401D01*
X153069622Y-93303236D01*
X153034967Y-93335889D01*
X153001955Y-93351946D01*
X152956810Y-93357173D01*
X152909031Y-93341149D01*
X152907971Y-93340595D01*
X152869362Y-93309379D01*
X152848599Y-93269602D01*
X152844419Y-93226136D01*
X152855559Y-93183850D01*
X152880756Y-93147615D01*
X152918746Y-93122302D01*
X152968266Y-93112782D01*
X153006089Y-93118843D01*
G37*
G36*
X152752532Y-92494358D02*
G01*
X152789497Y-92531034D01*
X152800162Y-92548429D01*
X152815330Y-92596624D01*
X152807226Y-92642303D01*
X152775792Y-92686128D01*
X152769227Y-92692459D01*
X152728681Y-92719635D01*
X152686975Y-92724631D01*
X152639441Y-92708200D01*
X152615699Y-92692824D01*
X152584084Y-92654714D01*
X152571949Y-92609781D01*
X152580102Y-92563085D01*
X152609350Y-92519686D01*
X152617170Y-92512320D01*
X152662472Y-92484755D01*
X152708892Y-92478850D01*
X152752532Y-92494358D01*
G37*
G36*
X151421672Y-89191924D02*
G01*
X151457397Y-89213662D01*
X151480762Y-89246634D01*
X151490653Y-89285574D01*
X151485957Y-89325213D01*
X151465560Y-89360283D01*
X151428349Y-89385516D01*
X151418298Y-89389477D01*
X151396850Y-89395254D01*
X151376601Y-89392635D01*
X151346267Y-89380998D01*
X151319351Y-89365268D01*
X151292658Y-89332499D01*
X151282539Y-89293869D01*
X151287916Y-89254650D01*
X151307706Y-89220111D01*
X151340830Y-89195523D01*
X151386208Y-89186156D01*
X151421672Y-89191924D01*
G37*
G36*
X144652839Y-94812384D02*
G01*
X144682349Y-94821148D01*
X144710916Y-94841137D01*
X144719193Y-94850578D01*
X144736732Y-94888637D01*
X144736881Y-94928848D01*
X144720663Y-94964305D01*
X144689105Y-94988104D01*
X144658273Y-94997363D01*
X144626717Y-94993758D01*
X144594882Y-94971164D01*
X144584753Y-94960479D01*
X144565466Y-94921227D01*
X144568065Y-94879785D01*
X144592638Y-94841137D01*
X144593646Y-94840147D01*
X144622551Y-94820493D01*
X144651777Y-94812367D01*
X144652839Y-94812384D01*
G37*
G36*
X152796791Y-96442389D02*
G01*
X152842017Y-96473956D01*
X152860942Y-96495534D01*
X152871565Y-96522444D01*
X152874251Y-96561931D01*
X152872078Y-96598399D01*
X152862060Y-96626850D01*
X152839988Y-96653509D01*
X152826479Y-96665148D01*
X152782210Y-96685448D01*
X152734484Y-96687400D01*
X152689167Y-96672536D01*
X152652123Y-96642386D01*
X152629219Y-96598482D01*
X152624279Y-96573568D01*
X152628557Y-96521392D01*
X152653841Y-96478497D01*
X152699061Y-96447201D01*
X152749997Y-96433693D01*
X152796791Y-96442389D01*
G37*
G36*
X147038255Y-89193005D02*
G01*
X147070933Y-89211735D01*
X147088487Y-89236782D01*
X147089140Y-89239293D01*
X147093736Y-89290760D01*
X147082568Y-89336419D01*
X147057943Y-89370969D01*
X147022171Y-89389110D01*
X147009765Y-89390935D01*
X146963438Y-89386486D01*
X146923416Y-89366706D01*
X146895297Y-89335375D01*
X146884680Y-89296272D01*
X146884681Y-89295754D01*
X146894414Y-89250170D01*
X146919695Y-89211531D01*
X146955339Y-89187796D01*
X146959843Y-89186384D01*
X146998533Y-89183564D01*
X147038255Y-89193005D01*
G37*
G36*
X145612992Y-96450726D02*
G01*
X145646457Y-96480311D01*
X145669101Y-96519043D01*
X145678051Y-96563047D01*
X145670435Y-96608447D01*
X145643383Y-96651367D01*
X145640304Y-96654628D01*
X145615833Y-96675853D01*
X145589583Y-96685494D01*
X145550827Y-96687771D01*
X145537587Y-96687642D01*
X145504707Y-96684004D01*
X145481086Y-96671811D01*
X145455899Y-96646338D01*
X145437632Y-96621369D01*
X145419722Y-96572004D01*
X145423244Y-96523656D01*
X145447458Y-96480464D01*
X145491623Y-96446567D01*
X145525083Y-96434498D01*
X145571576Y-96434163D01*
X145612992Y-96450726D01*
G37*
G36*
X146117529Y-95920646D02*
G01*
X146157713Y-95945830D01*
X146183818Y-95987193D01*
X146193125Y-96041732D01*
X146187145Y-96090574D01*
X146165818Y-96134027D01*
X146130334Y-96160412D01*
X146097385Y-96169594D01*
X146044740Y-96169173D01*
X145997782Y-96151690D01*
X145963161Y-96118799D01*
X145956533Y-96106267D01*
X145946109Y-96078009D01*
X145937366Y-96045729D01*
X145931724Y-96015998D01*
X145930604Y-95995385D01*
X145935425Y-95990459D01*
X145944816Y-95986446D01*
X145958220Y-95967807D01*
X145976268Y-95944658D01*
X146018394Y-95921847D01*
X146077621Y-95914167D01*
X146117529Y-95920646D01*
G37*
G36*
X152247240Y-95916313D02*
G01*
X152276338Y-95927874D01*
X152306941Y-95954019D01*
X152328472Y-95978056D01*
X152343053Y-96006689D01*
X152346793Y-96042341D01*
X152338618Y-96093311D01*
X152316246Y-96135231D01*
X152283150Y-96161354D01*
X152276742Y-96163493D01*
X152245386Y-96167803D01*
X152207689Y-96167342D01*
X152185397Y-96164021D01*
X152138340Y-96143420D01*
X152107186Y-96105606D01*
X152092013Y-96050657D01*
X152090291Y-96032950D01*
X152091426Y-96004922D01*
X152102456Y-95982623D01*
X152127289Y-95955508D01*
X152154979Y-95930962D01*
X152182843Y-95917547D01*
X152217859Y-95914167D01*
X152247240Y-95916313D01*
G37*
G36*
X152155452Y-96470981D02*
G01*
X152197181Y-96472254D01*
X152223486Y-96476320D01*
X152240426Y-96484621D01*
X152254063Y-96498599D01*
X152254686Y-96499378D01*
X152272723Y-96536708D01*
X152276203Y-96578909D01*
X152266678Y-96619286D01*
X152245702Y-96651144D01*
X152214826Y-96667791D01*
X152154198Y-96673984D01*
X152093218Y-96669011D01*
X152042256Y-96653119D01*
X152007203Y-96627454D01*
X152002271Y-96621063D01*
X151985169Y-96579489D01*
X151989091Y-96536798D01*
X152013713Y-96499343D01*
X152017583Y-96495791D01*
X152035594Y-96482649D01*
X152057243Y-96475130D01*
X152089122Y-96471726D01*
X152137826Y-96470927D01*
X152155452Y-96470981D01*
G37*
G36*
X147242989Y-94419542D02*
G01*
X147271652Y-94438554D01*
X147303967Y-94465791D01*
X147334176Y-94495897D01*
X147356524Y-94523517D01*
X147365252Y-94543295D01*
X147357174Y-94560936D01*
X147335645Y-94587801D01*
X147305378Y-94617880D01*
X147272953Y-94644808D01*
X147244708Y-94664280D01*
X147227180Y-94671712D01*
X147216931Y-94668460D01*
X147192471Y-94651115D01*
X147163669Y-94624042D01*
X147136144Y-94593217D01*
X147115510Y-94564618D01*
X147107384Y-94544222D01*
X147109560Y-94534242D01*
X147124637Y-94507168D01*
X147149384Y-94475490D01*
X147178246Y-94445309D01*
X147205668Y-94422727D01*
X147226095Y-94413844D01*
X147242989Y-94419542D01*
G37*
G36*
X151129121Y-94440541D02*
G01*
X151135048Y-94445266D01*
X151165978Y-94475218D01*
X151189110Y-94505344D01*
X151198832Y-94522974D01*
X151202514Y-94539754D01*
X151195150Y-94558218D01*
X151175287Y-94586945D01*
X151164589Y-94600971D01*
X151137461Y-94631914D01*
X151114280Y-94652885D01*
X151091048Y-94666547D01*
X151068985Y-94669299D01*
X151044516Y-94657518D01*
X151011044Y-94629722D01*
X150992155Y-94613778D01*
X150968411Y-94597418D01*
X150955334Y-94593417D01*
X150948262Y-94588286D01*
X150943793Y-94566994D01*
X150949565Y-94536977D01*
X150971930Y-94498706D01*
X151006580Y-94461732D01*
X151048801Y-94432109D01*
X151089437Y-94410225D01*
X151129121Y-94440541D01*
G37*
G36*
X146718645Y-87324694D02*
G01*
X146764451Y-87327081D01*
X146810448Y-87330669D01*
X146843225Y-87334626D01*
X146857675Y-87338447D01*
X146862334Y-87352102D01*
X146867218Y-87382846D01*
X146870918Y-87423360D01*
X146872113Y-87455349D01*
X146868235Y-87504577D01*
X146855250Y-87545459D01*
X146850708Y-87554377D01*
X146819749Y-87594329D01*
X146777259Y-87630312D01*
X146732303Y-87654301D01*
X146709448Y-87661222D01*
X146685589Y-87661875D01*
X146667446Y-87649254D01*
X146651231Y-87620199D01*
X146633159Y-87571550D01*
X146633012Y-87571118D01*
X146616511Y-87514381D01*
X146602897Y-87452936D01*
X146595103Y-87400011D01*
X146587983Y-87319311D01*
X146718645Y-87324694D01*
G37*
G36*
X153897702Y-92809944D02*
G01*
X153910178Y-92817369D01*
X153929132Y-92834031D01*
X153943198Y-92856943D01*
X153952851Y-92888955D01*
X153958566Y-92932918D01*
X153960817Y-92991683D01*
X153960079Y-93068100D01*
X153956826Y-93165021D01*
X153954806Y-93213658D01*
X153951836Y-93273901D01*
X153948637Y-93316839D01*
X153944629Y-93346227D01*
X153939232Y-93365822D01*
X153931865Y-93379380D01*
X153921947Y-93390655D01*
X153919495Y-93393039D01*
X153883079Y-93414215D01*
X153843461Y-93412260D01*
X153801130Y-93387190D01*
X153765067Y-93356845D01*
X153765067Y-93110839D01*
X153765067Y-92864832D01*
X153799329Y-92830570D01*
X153800860Y-92829049D01*
X153833401Y-92803578D01*
X153863301Y-92797708D01*
X153897702Y-92809944D01*
G37*
G36*
X146315827Y-88214018D02*
G01*
X146354224Y-88226458D01*
X146381812Y-88253034D01*
X146392386Y-88288300D01*
X146385624Y-88316771D01*
X146362857Y-88358973D01*
X146327540Y-88407294D01*
X146283318Y-88457896D01*
X146233839Y-88506939D01*
X146182748Y-88550585D01*
X146133691Y-88584994D01*
X146090316Y-88606329D01*
X146051653Y-88614188D01*
X146007731Y-88605108D01*
X145969631Y-88573561D01*
X145955094Y-88552214D01*
X145945472Y-88515979D01*
X145954443Y-88477187D01*
X145982817Y-88434341D01*
X146031403Y-88385945D01*
X146101010Y-88330503D01*
X146140739Y-88301195D01*
X146188903Y-88266294D01*
X146224186Y-88242196D01*
X146250133Y-88226894D01*
X146270288Y-88218382D01*
X146288198Y-88214655D01*
X146307407Y-88213705D01*
X146315827Y-88214018D01*
G37*
G36*
X146183207Y-96466925D02*
G01*
X146183760Y-96466950D01*
X146232173Y-96470134D01*
X146263836Y-96475528D01*
X146285375Y-96484973D01*
X146303419Y-96500309D01*
X146318880Y-96519066D01*
X146336290Y-96562770D01*
X146331183Y-96607196D01*
X146303557Y-96648732D01*
X146293782Y-96658102D01*
X146277723Y-96669337D01*
X146257767Y-96674788D01*
X146227423Y-96675761D01*
X146180200Y-96673564D01*
X146172607Y-96673112D01*
X146126227Y-96669215D01*
X146095472Y-96663055D01*
X146073428Y-96652573D01*
X146053183Y-96635709D01*
X146034891Y-96612993D01*
X146021790Y-96571177D01*
X146030036Y-96528638D01*
X146059411Y-96490467D01*
X146064510Y-96486182D01*
X146082970Y-96473832D01*
X146104368Y-96467368D01*
X146135512Y-96465497D01*
X146183207Y-96466925D01*
G37*
G36*
X146490085Y-87772533D02*
G01*
X146525215Y-87810413D01*
X146561819Y-87870786D01*
X146608691Y-87949519D01*
X146693104Y-88054872D01*
X146793126Y-88142932D01*
X146908122Y-88213075D01*
X146924045Y-88221462D01*
X146960569Y-88243596D01*
X146987241Y-88263541D01*
X147006827Y-88292667D01*
X147012979Y-88330860D01*
X147004795Y-88368817D01*
X146983913Y-88399461D01*
X146951974Y-88415715D01*
X146915451Y-88415916D01*
X146858561Y-88401370D01*
X146791968Y-88371767D01*
X146718831Y-88328561D01*
X146642308Y-88273205D01*
X146555898Y-88195770D01*
X146479903Y-88104170D01*
X146415195Y-87996655D01*
X146403180Y-87972252D01*
X146377211Y-87904526D01*
X146367071Y-87847660D01*
X146372939Y-87803629D01*
X146394994Y-87774407D01*
X146418857Y-87761138D01*
X146455082Y-87756368D01*
X146490085Y-87772533D01*
G37*
G36*
X145200139Y-88873560D02*
G01*
X145244995Y-88881607D01*
X145288560Y-88893374D01*
X145348588Y-88916719D01*
X145437175Y-88962353D01*
X145519253Y-89017069D01*
X145528410Y-89024584D01*
X145560459Y-89056405D01*
X145596684Y-89098478D01*
X145633765Y-89146198D01*
X145668384Y-89194961D01*
X145697221Y-89240163D01*
X145716957Y-89277200D01*
X145724274Y-89301468D01*
X145722774Y-89308823D01*
X145714173Y-89313669D01*
X145694557Y-89312522D01*
X145660143Y-89305041D01*
X145607146Y-89290883D01*
X145581394Y-89283295D01*
X145461128Y-89235463D01*
X145351399Y-89171225D01*
X145257411Y-89093520D01*
X145241616Y-89077163D01*
X145204643Y-89033816D01*
X145170056Y-88987157D01*
X145141251Y-88942302D01*
X145121628Y-88904368D01*
X145114584Y-88878472D01*
X145115053Y-88876637D01*
X145129446Y-88870584D01*
X145159716Y-88869722D01*
X145200139Y-88873560D01*
G37*
G36*
X152324384Y-87787602D02*
G01*
X152358738Y-87813888D01*
X152381288Y-87855785D01*
X152390358Y-87910004D01*
X152384273Y-87973259D01*
X152372591Y-88028032D01*
X152403647Y-88019838D01*
X152415168Y-88017224D01*
X152451948Y-88011058D01*
X152493483Y-88006050D01*
X152528206Y-88004383D01*
X152557939Y-88009666D01*
X152583423Y-88024967D01*
X152613904Y-88062119D01*
X152623582Y-88106715D01*
X152611144Y-88153481D01*
X152602816Y-88167768D01*
X152579732Y-88193041D01*
X152545202Y-88213179D01*
X152493309Y-88232134D01*
X152463127Y-88238925D01*
X152415428Y-88245020D01*
X152365759Y-88247670D01*
X152328211Y-88246437D01*
X152266025Y-88233715D01*
X152220055Y-88206126D01*
X152189056Y-88162244D01*
X152171781Y-88100640D01*
X152166986Y-88019889D01*
X152167106Y-88011816D01*
X152172905Y-87925827D01*
X152187131Y-87860745D01*
X152210326Y-87815475D01*
X152243031Y-87788923D01*
X152285789Y-87779993D01*
X152324384Y-87787602D01*
G37*
G36*
X147011004Y-87398604D02*
G01*
X147052175Y-87417657D01*
X147103527Y-87447930D01*
X147153019Y-87484990D01*
X147193574Y-87523181D01*
X147218918Y-87557250D01*
X147233972Y-87606195D01*
X147236519Y-87667927D01*
X147226239Y-87732839D01*
X147203654Y-87792916D01*
X147193540Y-87810422D01*
X147146522Y-87866937D01*
X147086384Y-87913184D01*
X147021060Y-87942657D01*
X147009964Y-87945718D01*
X146960040Y-87953226D01*
X146916880Y-87945132D01*
X146870216Y-87919888D01*
X146850148Y-87905329D01*
X146800653Y-87860622D01*
X146755154Y-87808860D01*
X146721992Y-87759091D01*
X146716260Y-87747388D01*
X146715825Y-87735278D01*
X146732267Y-87732718D01*
X146746830Y-87731455D01*
X146791855Y-87717633D01*
X146840089Y-87692005D01*
X146882776Y-87658866D01*
X146930467Y-87601897D01*
X146960154Y-87535424D01*
X146969012Y-87460418D01*
X146969113Y-87434241D01*
X146973338Y-87404908D01*
X146986013Y-87393692D01*
X147011004Y-87398604D01*
G37*
G36*
X147333755Y-87687007D02*
G01*
X147350841Y-87702013D01*
X147375354Y-87730573D01*
X147403647Y-87767958D01*
X147432076Y-87809438D01*
X147456993Y-87850284D01*
X147494201Y-87926268D01*
X147532000Y-88045559D01*
X147549678Y-88175196D01*
X147555986Y-88283618D01*
X147526521Y-88283618D01*
X147504892Y-88279654D01*
X147482022Y-88265502D01*
X147470664Y-88256374D01*
X147450675Y-88253647D01*
X147443283Y-88255427D01*
X147440555Y-88249886D01*
X147440982Y-88243476D01*
X147427072Y-88225493D01*
X147396616Y-88201849D01*
X147353033Y-88174600D01*
X147299742Y-88145803D01*
X147240162Y-88117513D01*
X147177712Y-88091788D01*
X147137456Y-88076496D01*
X147095729Y-88060545D01*
X147066359Y-88049206D01*
X147031196Y-88035470D01*
X147101523Y-88003289D01*
X147111269Y-87998679D01*
X147188567Y-87949607D01*
X147249863Y-87886933D01*
X147292843Y-87813592D01*
X147315192Y-87732518D01*
X147316810Y-87722101D01*
X147323336Y-87696202D01*
X147330219Y-87685833D01*
X147333755Y-87687007D01*
G37*
G36*
X146062178Y-87785859D02*
G01*
X146098879Y-87812288D01*
X146125109Y-87859671D01*
X146140873Y-87928017D01*
X146146174Y-88017335D01*
X146145387Y-88048427D01*
X146133885Y-88125878D01*
X146108493Y-88184759D01*
X146068987Y-88225466D01*
X146015141Y-88248396D01*
X146012513Y-88248973D01*
X145963123Y-88252503D01*
X145902391Y-88247246D01*
X145838988Y-88234867D01*
X145781586Y-88217029D01*
X145738858Y-88195395D01*
X145704055Y-88160220D01*
X145686827Y-88117454D01*
X145690624Y-88073330D01*
X145702842Y-88050025D01*
X145736903Y-88020611D01*
X145783640Y-88004956D01*
X145838277Y-88004301D01*
X145896040Y-88019889D01*
X145904244Y-88023288D01*
X145929687Y-88033401D01*
X145941730Y-88037471D01*
X145942054Y-88037254D01*
X145940805Y-88024914D01*
X145934438Y-87999454D01*
X145927204Y-87965373D01*
X145923898Y-87911312D01*
X145929435Y-87862031D01*
X145943368Y-87826166D01*
X145945388Y-87823235D01*
X145968264Y-87795483D01*
X145991983Y-87782872D01*
X146026629Y-87779782D01*
X146062178Y-87785859D01*
G37*
G36*
X151982291Y-88189883D02*
G01*
X152007984Y-88194649D01*
X152031915Y-88210552D01*
X152061056Y-88242038D01*
X152081048Y-88264204D01*
X152102269Y-88283290D01*
X152114251Y-88288314D01*
X152118250Y-88287675D01*
X152117387Y-88299165D01*
X152121367Y-88312641D01*
X152141556Y-88337779D01*
X152175404Y-88370891D01*
X152219815Y-88409311D01*
X152271690Y-88450373D01*
X152327931Y-88491413D01*
X152385438Y-88529764D01*
X152419209Y-88551849D01*
X152463233Y-88585116D01*
X152489764Y-88613890D01*
X152501352Y-88641287D01*
X152500542Y-88670420D01*
X152490643Y-88692574D01*
X152465443Y-88721283D01*
X152434703Y-88741099D01*
X152434371Y-88741230D01*
X152411317Y-88746421D01*
X152384396Y-88743510D01*
X152349788Y-88731139D01*
X152303677Y-88707947D01*
X152242246Y-88672576D01*
X152189538Y-88638620D01*
X152110534Y-88578891D01*
X152036663Y-88513179D01*
X151973420Y-88446504D01*
X151926296Y-88383884D01*
X151913441Y-88361409D01*
X151893893Y-88308034D01*
X151891553Y-88261045D01*
X151905562Y-88223587D01*
X151935064Y-88198807D01*
X151979200Y-88189847D01*
X151982291Y-88189883D01*
G37*
G36*
X148211204Y-86859777D02*
G01*
X148280010Y-86883024D01*
X148338015Y-86923558D01*
X148383329Y-86977737D01*
X148414062Y-87041915D01*
X148428322Y-87112449D01*
X148424219Y-87185694D01*
X148399861Y-87258006D01*
X148393360Y-87270222D01*
X148346041Y-87332176D01*
X148282752Y-87382950D01*
X148209259Y-87417710D01*
X148202811Y-87419556D01*
X148157509Y-87424429D01*
X148102493Y-87421272D01*
X148047736Y-87411171D01*
X148003213Y-87395217D01*
X147973598Y-87376226D01*
X147937731Y-87336768D01*
X147919226Y-87291241D01*
X147919619Y-87244395D01*
X147940445Y-87200980D01*
X147944437Y-87196290D01*
X147979140Y-87174429D01*
X148022350Y-87171366D01*
X148068528Y-87187678D01*
X148093959Y-87198966D01*
X148136874Y-87204322D01*
X148173715Y-87193245D01*
X148199483Y-87167784D01*
X148209184Y-87129988D01*
X148209168Y-87128095D01*
X148197352Y-87081005D01*
X148164200Y-87042230D01*
X148110676Y-87012911D01*
X148100124Y-87008504D01*
X148063160Y-86983490D01*
X148045832Y-86953932D01*
X148046370Y-86923231D01*
X148063005Y-86894788D01*
X148093966Y-86872003D01*
X148137485Y-86858279D01*
X148191791Y-86857016D01*
X148211204Y-86859777D01*
G37*
G36*
X153764416Y-90393177D02*
G01*
X153779526Y-90400592D01*
X153798264Y-90419957D01*
X153807650Y-90453293D01*
X153810374Y-90468291D01*
X153821558Y-90498963D01*
X153842890Y-90516195D01*
X153881017Y-90526633D01*
X153913382Y-90537544D01*
X153942168Y-90565026D01*
X153952235Y-90606523D01*
X153952051Y-90614073D01*
X153941601Y-90646099D01*
X153913474Y-90667374D01*
X153865279Y-90679918D01*
X153860573Y-90680639D01*
X153829577Y-90687470D01*
X153815362Y-90697588D01*
X153811952Y-90714919D01*
X153811952Y-90714949D01*
X153804808Y-90743084D01*
X153787659Y-90772807D01*
X153771238Y-90789226D01*
X153738007Y-90803151D01*
X153705190Y-90797317D01*
X153677862Y-90773329D01*
X153661101Y-90732791D01*
X153659589Y-90725762D01*
X153650885Y-90702873D01*
X153633659Y-90689657D01*
X153600562Y-90679666D01*
X153562098Y-90665050D01*
X153531292Y-90638421D01*
X153519836Y-90606788D01*
X153527705Y-90574694D01*
X153554877Y-90546686D01*
X153601330Y-90527308D01*
X153617713Y-90523150D01*
X153642429Y-90513387D01*
X153654055Y-90497925D01*
X153659576Y-90469878D01*
X153669225Y-90435086D01*
X153696923Y-90401682D01*
X153714731Y-90389791D01*
X153736445Y-90384655D01*
X153764416Y-90393177D01*
G37*
G36*
X144597078Y-90391376D02*
G01*
X144620753Y-90403746D01*
X144637723Y-90430838D01*
X144650831Y-90477001D01*
X144657603Y-90495009D01*
X144675377Y-90509677D01*
X144709877Y-90521030D01*
X144753985Y-90538784D01*
X144778857Y-90566741D01*
X144786572Y-90607703D01*
X144779942Y-90635081D01*
X144752524Y-90663592D01*
X144705215Y-90683115D01*
X144698896Y-90684863D01*
X144670155Y-90699924D01*
X144656076Y-90726398D01*
X144645614Y-90752936D01*
X144627195Y-90781508D01*
X144601549Y-90797735D01*
X144564567Y-90803195D01*
X144530930Y-90793594D01*
X144526113Y-90788910D01*
X144512755Y-90765521D01*
X144500396Y-90732237D01*
X144496332Y-90718910D01*
X144485060Y-90692954D01*
X144468941Y-90680560D01*
X144440739Y-90674757D01*
X144405095Y-90664568D01*
X144371883Y-90636126D01*
X144356980Y-90613456D01*
X144354576Y-90595170D01*
X144365209Y-90571814D01*
X144373040Y-90559743D01*
X144392914Y-90541774D01*
X144423987Y-90528533D01*
X144472356Y-90516897D01*
X144473266Y-90516712D01*
X144493320Y-90509311D01*
X144503192Y-90493217D01*
X144507520Y-90461063D01*
X144508859Y-90449160D01*
X144523525Y-90410966D01*
X144552308Y-90391318D01*
X144594453Y-90390823D01*
X144597078Y-90391376D01*
G37*
G36*
X153727529Y-90966889D02*
G01*
X153771896Y-90995624D01*
X153818109Y-91035180D01*
X153864508Y-90995071D01*
X153896934Y-90972001D01*
X153941330Y-90957357D01*
X153981325Y-90964608D01*
X154014976Y-90993770D01*
X154038648Y-91025611D01*
X154000919Y-91086304D01*
X153963190Y-91146998D01*
X153993063Y-91178178D01*
X153997994Y-91183670D01*
X154018848Y-91222503D01*
X154020896Y-91262908D01*
X154003537Y-91297992D01*
X153989398Y-91309587D01*
X153952781Y-91319227D01*
X153909600Y-91310626D01*
X153864698Y-91284264D01*
X153834686Y-91261448D01*
X153815006Y-91251411D01*
X153801154Y-91254200D01*
X153787015Y-91268581D01*
X153786547Y-91269140D01*
X153764844Y-91289038D01*
X153735764Y-91309562D01*
X153715246Y-91320614D01*
X153675780Y-91330005D01*
X153643995Y-91317740D01*
X153618118Y-91283425D01*
X153614577Y-91276533D01*
X153604393Y-91252790D01*
X153604353Y-91234208D01*
X153616233Y-91213197D01*
X153641810Y-91182164D01*
X153655521Y-91165800D01*
X153670988Y-91143828D01*
X153673296Y-91130231D01*
X153664479Y-91119371D01*
X153647557Y-91100319D01*
X153629500Y-91071786D01*
X153620326Y-91050504D01*
X153614651Y-91009804D01*
X153626083Y-90979194D01*
X153651073Y-90960573D01*
X153686072Y-90955839D01*
X153727529Y-90966889D01*
G37*
G36*
X150147121Y-86859157D02*
G01*
X150188040Y-86877728D01*
X150215321Y-86908720D01*
X150225243Y-86951047D01*
X150224841Y-86959994D01*
X150216696Y-86983141D01*
X150194528Y-87000575D01*
X150153708Y-87016533D01*
X150113351Y-87036094D01*
X150079445Y-87068270D01*
X150060749Y-87106311D01*
X150059474Y-87145427D01*
X150077832Y-87180829D01*
X150086948Y-87190190D01*
X150116219Y-87208693D01*
X150150020Y-87209765D01*
X150194654Y-87194125D01*
X150198113Y-87192554D01*
X150238326Y-87176320D01*
X150266631Y-87172085D01*
X150290992Y-87180323D01*
X150319375Y-87201503D01*
X150319779Y-87201843D01*
X150343545Y-87225057D01*
X150352277Y-87246950D01*
X150350538Y-87278843D01*
X150344960Y-87303759D01*
X150317420Y-87353399D01*
X150270934Y-87392084D01*
X150207661Y-87417714D01*
X150169850Y-87422900D01*
X150111482Y-87420924D01*
X150052182Y-87410539D01*
X150003098Y-87393086D01*
X150000453Y-87391705D01*
X149955088Y-87359593D01*
X149910850Y-87315062D01*
X149874356Y-87265738D01*
X149852225Y-87219246D01*
X149850210Y-87212218D01*
X149839479Y-87132869D01*
X149849795Y-87056403D01*
X149879572Y-86986665D01*
X149927221Y-86927501D01*
X149991154Y-86882754D01*
X150039266Y-86863621D01*
X150096289Y-86854092D01*
X150147121Y-86859157D01*
G37*
G36*
X144884880Y-93750844D02*
G01*
X144899182Y-93753125D01*
X144937116Y-93761951D01*
X144954250Y-93773647D01*
X144952652Y-93790963D01*
X144934392Y-93816646D01*
X144917300Y-93841603D01*
X144905314Y-93881858D01*
X144913272Y-93917432D01*
X144940957Y-93944171D01*
X144956669Y-93952093D01*
X144978397Y-93955251D01*
X145004617Y-93944536D01*
X145030995Y-93924784D01*
X145055354Y-93895251D01*
X145065999Y-93878931D01*
X145084517Y-93865221D01*
X145104955Y-93872514D01*
X145130949Y-93901090D01*
X145150004Y-93928341D01*
X145172326Y-93973928D01*
X145184205Y-94025838D01*
X145188101Y-94092301D01*
X145188034Y-94116661D01*
X145184678Y-94160389D01*
X145174948Y-94196181D01*
X145156475Y-94234692D01*
X145111226Y-94302074D01*
X145049351Y-94362198D01*
X144979130Y-94402634D01*
X144967417Y-94406898D01*
X144906154Y-94419557D01*
X144837101Y-94422076D01*
X144769989Y-94414646D01*
X144714547Y-94397456D01*
X144687978Y-94383552D01*
X144618550Y-94331811D01*
X144566094Y-94268217D01*
X144531083Y-94196140D01*
X144513991Y-94118950D01*
X144515292Y-94040020D01*
X144535460Y-93962721D01*
X144574968Y-93890423D01*
X144634292Y-93826499D01*
X144683472Y-93793759D01*
X144750554Y-93765845D01*
X144820676Y-93750639D01*
X144884880Y-93750844D01*
G37*
G36*
X144395672Y-90966318D02*
G01*
X144435376Y-90990755D01*
X144447359Y-91000656D01*
X144471771Y-91018593D01*
X144486132Y-91025919D01*
X144490715Y-91024584D01*
X144510193Y-91012295D01*
X144536355Y-90991232D01*
X144550580Y-90979919D01*
X144593612Y-90959159D01*
X144633206Y-90958686D01*
X144665697Y-90977894D01*
X144687418Y-91016178D01*
X144688875Y-91023151D01*
X144683347Y-91051513D01*
X144660597Y-91090209D01*
X144625901Y-91139431D01*
X144659351Y-91176869D01*
X144673260Y-91194499D01*
X144691414Y-91236088D01*
X144687649Y-91274325D01*
X144661918Y-91306855D01*
X144660046Y-91308312D01*
X144636075Y-91324489D01*
X144620123Y-91331149D01*
X144595675Y-91323906D01*
X144561758Y-91303901D01*
X144526647Y-91275615D01*
X144495287Y-91246388D01*
X144444598Y-91281862D01*
X144430654Y-91291456D01*
X144389701Y-91316074D01*
X144359573Y-91325694D01*
X144335336Y-91321108D01*
X144312055Y-91303106D01*
X144300865Y-91290580D01*
X144284819Y-91256172D01*
X144290329Y-91219278D01*
X144317525Y-91176855D01*
X144325217Y-91167401D01*
X144341269Y-91144594D01*
X144343692Y-91130688D01*
X144334334Y-91119362D01*
X144331833Y-91117177D01*
X144308483Y-91087402D01*
X144290045Y-91049693D01*
X144282557Y-91016094D01*
X144282683Y-91011843D01*
X144293954Y-90980646D01*
X144319910Y-90962101D01*
X144355500Y-90957046D01*
X144395672Y-90966318D01*
G37*
G36*
X152136594Y-90799634D02*
G01*
X152193410Y-90803557D01*
X152245868Y-90812114D01*
X152298908Y-90826711D01*
X152357467Y-90848755D01*
X152426482Y-90879655D01*
X152510891Y-90920816D01*
X152521952Y-90926289D01*
X152578812Y-90953607D01*
X152647668Y-90985730D01*
X152720821Y-91019097D01*
X152790574Y-91050149D01*
X152822023Y-91064178D01*
X152879022Y-91090879D01*
X152927418Y-91115182D01*
X152962872Y-91134866D01*
X152981045Y-91147707D01*
X152995868Y-91171041D01*
X153003403Y-91212681D01*
X152995499Y-91256359D01*
X152973910Y-91294633D01*
X152940394Y-91320057D01*
X152926051Y-91325156D01*
X152909912Y-91327942D01*
X152890330Y-91327596D01*
X152865287Y-91323459D01*
X152832764Y-91314871D01*
X152790740Y-91301172D01*
X152737195Y-91281704D01*
X152670112Y-91255805D01*
X152587469Y-91222818D01*
X152487248Y-91182081D01*
X152367428Y-91132937D01*
X152316323Y-91112975D01*
X152199571Y-91076758D01*
X152086005Y-91056283D01*
X151967388Y-91049838D01*
X151952765Y-91049831D01*
X151905885Y-91049295D01*
X151875429Y-91046861D01*
X151855761Y-91041090D01*
X151841244Y-91030541D01*
X151826238Y-91013775D01*
X151818476Y-91003752D01*
X151797952Y-90957181D01*
X151800316Y-90909596D01*
X151825580Y-90863979D01*
X151831404Y-90857367D01*
X151859103Y-90833739D01*
X151894139Y-90817084D01*
X151940491Y-90806394D01*
X152002139Y-90800664D01*
X152083065Y-90798887D01*
X152136594Y-90799634D01*
G37*
G36*
X147869819Y-88954929D02*
G01*
X147869200Y-88957855D01*
X147839626Y-89042353D01*
X147790944Y-89114097D01*
X147724755Y-89171272D01*
X147642666Y-89212062D01*
X147629779Y-89216350D01*
X147547915Y-89230278D01*
X147465250Y-89223871D01*
X147386044Y-89198923D01*
X147314558Y-89157225D01*
X147255052Y-89100570D01*
X147211785Y-89030751D01*
X147192961Y-88976650D01*
X147182710Y-88894808D01*
X147395710Y-88894808D01*
X147402657Y-88928142D01*
X147423371Y-88963517D01*
X147452150Y-88991014D01*
X147458661Y-88994679D01*
X147493989Y-89005906D01*
X147535700Y-89010336D01*
X147577347Y-89004965D01*
X147620883Y-88982145D01*
X147648492Y-88943453D01*
X147657911Y-88891095D01*
X147649131Y-88840571D01*
X147621984Y-88799239D01*
X147578248Y-88773228D01*
X147519723Y-88764190D01*
X147492229Y-88765697D01*
X147462475Y-88775957D01*
X147434422Y-88800593D01*
X147426959Y-88809013D01*
X147407516Y-88836020D01*
X147399064Y-88856269D01*
X147398395Y-88865101D01*
X147395852Y-88893124D01*
X147395710Y-88894808D01*
X147182710Y-88894808D01*
X147182194Y-88890686D01*
X147192909Y-88804938D01*
X147224440Y-88723352D01*
X147276120Y-88649874D01*
X147329398Y-88603739D01*
X147400584Y-88567947D01*
X147478839Y-88549911D01*
X147559826Y-88549591D01*
X147639206Y-88566946D01*
X147712642Y-88601936D01*
X147775796Y-88654520D01*
X147819278Y-88709836D01*
X147858672Y-88788621D01*
X147875698Y-88870891D01*
X147874285Y-88891095D01*
X147869819Y-88954929D01*
G37*
G36*
X146276139Y-90799022D02*
G01*
X146337510Y-90807989D01*
X146388676Y-90820276D01*
X146423041Y-90834958D01*
X146443103Y-90851014D01*
X146471520Y-90892048D01*
X146481859Y-90938829D01*
X146473428Y-90985454D01*
X146445531Y-91026020D01*
X146438799Y-91032016D01*
X146424306Y-91041545D01*
X146405159Y-91047866D01*
X146376660Y-91051783D01*
X146334114Y-91054103D01*
X146272822Y-91055630D01*
X146244874Y-91056297D01*
X146191947Y-91058782D01*
X146144376Y-91063621D01*
X146098366Y-91071905D01*
X146050121Y-91084721D01*
X145995845Y-91103160D01*
X145931744Y-91128310D01*
X145854021Y-91161261D01*
X145758880Y-91203100D01*
X145690062Y-91233127D01*
X145623385Y-91261265D01*
X145564243Y-91285295D01*
X145517237Y-91303346D01*
X145486966Y-91313552D01*
X145464401Y-91318890D01*
X145419966Y-91325240D01*
X145384357Y-91325417D01*
X145378783Y-91324555D01*
X145336918Y-91306742D01*
X145307531Y-91274470D01*
X145292894Y-91233651D01*
X145295280Y-91190198D01*
X145316959Y-91150023D01*
X145326408Y-91141536D01*
X145358207Y-91121023D01*
X145402966Y-91097671D01*
X145454684Y-91074760D01*
X145460274Y-91072473D01*
X145515905Y-91048527D01*
X145583358Y-91017922D01*
X145654626Y-90984356D01*
X145721703Y-90951522D01*
X145733030Y-90945855D01*
X145831484Y-90897828D01*
X145913419Y-90860580D01*
X145982054Y-90832907D01*
X146040612Y-90813609D01*
X146092313Y-90801483D01*
X146140379Y-90795329D01*
X146149159Y-90794748D01*
X146211157Y-90794300D01*
X146276139Y-90799022D01*
G37*
G36*
X151160541Y-89049132D02*
G01*
X151157539Y-89087809D01*
X151147217Y-89148078D01*
X151129900Y-89194293D01*
X151128621Y-89196737D01*
X151090443Y-89253168D01*
X151039179Y-89307726D01*
X150981982Y-89353739D01*
X150926005Y-89384531D01*
X150917588Y-89387684D01*
X150844639Y-89404053D01*
X150764388Y-89406419D01*
X150685816Y-89395183D01*
X150617905Y-89370748D01*
X150575595Y-89345431D01*
X150500800Y-89281073D01*
X150439923Y-89200215D01*
X150428274Y-89179839D01*
X150416847Y-89153919D01*
X150410406Y-89125611D01*
X150407562Y-89087902D01*
X150406922Y-89033779D01*
X150406929Y-89033026D01*
X150625082Y-89033026D01*
X150636038Y-89089001D01*
X150669310Y-89141592D01*
X150671193Y-89143639D01*
X150712134Y-89171530D01*
X150763656Y-89184805D01*
X150817752Y-89182558D01*
X150866413Y-89163884D01*
X150905618Y-89128998D01*
X150931081Y-89081734D01*
X150938739Y-89029851D01*
X150928781Y-88978524D01*
X150901395Y-88932932D01*
X150856769Y-88898249D01*
X150815878Y-88884467D01*
X150761089Y-88882876D01*
X150709349Y-88897354D01*
X150668663Y-88926691D01*
X150636452Y-88977194D01*
X150625082Y-89033026D01*
X150406929Y-89033026D01*
X150407363Y-88985002D01*
X150409916Y-88945546D01*
X150416275Y-88914788D01*
X150428131Y-88884933D01*
X150447173Y-88848186D01*
X150476431Y-88800783D01*
X150535492Y-88734844D01*
X150606239Y-88688751D01*
X150689857Y-88661829D01*
X150787528Y-88653399D01*
X150839519Y-88654736D01*
X150879175Y-88659334D01*
X150911895Y-88668855D01*
X150946101Y-88684977D01*
X151011394Y-88726989D01*
X151079579Y-88794686D01*
X151130935Y-88878605D01*
X151138004Y-88893924D01*
X151152783Y-88930282D01*
X151160389Y-88962070D01*
X151162437Y-88998587D01*
X151161264Y-89029851D01*
X151160541Y-89049132D01*
G37*
G36*
X149511567Y-87388508D02*
G01*
X149512210Y-87505407D01*
X149490556Y-87617729D01*
X149446702Y-87724669D01*
X149380746Y-87825424D01*
X149292786Y-87919189D01*
X149182919Y-88005160D01*
X149182275Y-88005595D01*
X149160107Y-88019759D01*
X149148456Y-88025672D01*
X149140830Y-88021496D01*
X149118892Y-88006694D01*
X149088474Y-87984868D01*
X149081069Y-87979312D01*
X149030201Y-87936058D01*
X148976359Y-87883126D01*
X148924976Y-87826454D01*
X148881482Y-87771978D01*
X148851309Y-87725633D01*
X148826499Y-87673482D01*
X148794079Y-87565137D01*
X148784208Y-87451000D01*
X148793082Y-87367166D01*
X149072156Y-87367166D01*
X149082510Y-87411399D01*
X149088824Y-87430143D01*
X149105074Y-87468525D01*
X149120964Y-87495856D01*
X149141871Y-87522723D01*
X149167261Y-87495696D01*
X149197812Y-87451648D01*
X149220338Y-87396187D01*
X149228934Y-87342533D01*
X149227627Y-87329183D01*
X149218324Y-87294286D01*
X149202761Y-87254293D01*
X149184133Y-87216108D01*
X149165630Y-87186635D01*
X149150445Y-87172779D01*
X149144952Y-87173454D01*
X149129145Y-87188923D01*
X149110841Y-87219560D01*
X149092816Y-87260274D01*
X149077844Y-87305974D01*
X149072577Y-87330316D01*
X149072156Y-87367166D01*
X148793082Y-87367166D01*
X148796866Y-87331412D01*
X148832032Y-87206716D01*
X148889685Y-87077251D01*
X148890641Y-87075430D01*
X148926249Y-87013506D01*
X148967864Y-86950259D01*
X149012076Y-86890092D01*
X149055476Y-86837402D01*
X149094653Y-86796592D01*
X149126198Y-86772060D01*
X149141252Y-86764325D01*
X149157191Y-86762007D01*
X149174475Y-86771512D01*
X149200727Y-86795209D01*
X149211415Y-86805965D01*
X149242135Y-86840275D01*
X149278134Y-86883705D01*
X149313665Y-86929424D01*
X149374874Y-87018386D01*
X149442996Y-87144193D01*
X149488528Y-87267835D01*
X149502789Y-87342533D01*
X149511567Y-87388508D01*
G37*
G36*
X145316962Y-94980702D02*
G01*
X145336255Y-95004904D01*
X145358599Y-95044842D01*
X145385644Y-95102617D01*
X145419038Y-95180327D01*
X145443122Y-95237673D01*
X145557325Y-95230130D01*
X145568187Y-95229444D01*
X145633662Y-95227454D01*
X145679780Y-95231347D01*
X145709713Y-95242181D01*
X145726630Y-95261011D01*
X145733704Y-95288894D01*
X145734090Y-95294068D01*
X145732565Y-95310712D01*
X145724472Y-95328119D01*
X145707033Y-95349946D01*
X145677472Y-95379852D01*
X145633009Y-95421494D01*
X145528743Y-95517650D01*
X145567797Y-95630929D01*
X145579276Y-95664771D01*
X145595818Y-95718331D01*
X145603952Y-95756104D01*
X145603956Y-95782048D01*
X145596109Y-95800120D01*
X145580688Y-95814278D01*
X145575387Y-95817789D01*
X145554718Y-95826124D01*
X145530332Y-95825637D01*
X145498349Y-95815182D01*
X145454891Y-95793614D01*
X145396078Y-95759789D01*
X145296447Y-95700501D01*
X145261283Y-95721808D01*
X145260855Y-95722067D01*
X145221493Y-95744693D01*
X145175875Y-95769125D01*
X145129347Y-95792724D01*
X145087261Y-95812849D01*
X145054964Y-95826861D01*
X145037805Y-95832118D01*
X145020125Y-95824933D01*
X144997914Y-95806361D01*
X144993051Y-95800693D01*
X144982667Y-95781090D01*
X144979965Y-95755637D01*
X144985425Y-95720451D01*
X144999527Y-95671646D01*
X145022750Y-95605340D01*
X145056415Y-95513356D01*
X145024054Y-95488552D01*
X145011287Y-95478464D01*
X144973184Y-95445691D01*
X144933272Y-95408318D01*
X144895447Y-95370344D01*
X144863605Y-95335772D01*
X144841643Y-95308601D01*
X144833457Y-95292833D01*
X144839900Y-95273833D01*
X144858288Y-95250801D01*
X144871380Y-95241264D01*
X144889010Y-95234884D01*
X144915518Y-95231517D01*
X144955749Y-95230564D01*
X145014546Y-95231423D01*
X145145974Y-95234374D01*
X145190695Y-95116285D01*
X145192135Y-95112497D01*
X145219180Y-95047545D01*
X145242747Y-95003199D01*
X145262215Y-94980637D01*
X145280931Y-94971105D01*
X145299070Y-94970136D01*
X145316962Y-94980702D01*
G37*
G36*
X153028919Y-94976321D02*
G01*
X153056223Y-95004339D01*
X153084835Y-95053524D01*
X153115589Y-95124919D01*
X153158037Y-95234473D01*
X153292571Y-95231472D01*
X153330043Y-95230707D01*
X153376371Y-95230465D01*
X153406790Y-95232149D01*
X153425998Y-95236498D01*
X153438692Y-95244250D01*
X153449570Y-95256144D01*
X153465222Y-95278942D01*
X153472035Y-95296191D01*
X153470450Y-95300297D01*
X153456050Y-95319245D01*
X153429829Y-95348219D01*
X153395696Y-95383269D01*
X153357555Y-95420445D01*
X153319314Y-95455800D01*
X153284879Y-95485385D01*
X153244238Y-95518416D01*
X153275446Y-95607870D01*
X153284347Y-95633712D01*
X153303336Y-95693429D01*
X153313655Y-95736854D01*
X153315717Y-95767866D01*
X153309933Y-95790347D01*
X153296715Y-95808176D01*
X153273778Y-95824658D01*
X153245801Y-95825339D01*
X153237725Y-95822587D01*
X153199096Y-95806120D01*
X153151169Y-95782397D01*
X153102101Y-95755609D01*
X153060051Y-95729944D01*
X153016119Y-95700872D01*
X152924833Y-95751843D01*
X152888307Y-95771987D01*
X152834690Y-95799808D01*
X152795254Y-95816815D01*
X152766374Y-95824145D01*
X152744423Y-95822938D01*
X152725776Y-95814330D01*
X152723911Y-95813072D01*
X152707390Y-95795898D01*
X152699988Y-95771302D01*
X152701850Y-95735804D01*
X152713121Y-95685923D01*
X152733946Y-95618180D01*
X152769460Y-95510412D01*
X152743064Y-95490502D01*
X152722397Y-95478445D01*
X152707260Y-95476407D01*
X152704684Y-95477642D01*
X152701071Y-95471855D01*
X152700610Y-95469212D01*
X152688944Y-95452701D01*
X152664921Y-95426454D01*
X152632402Y-95394799D01*
X152601672Y-95365241D01*
X152570473Y-95329811D01*
X152555785Y-95301962D01*
X152556014Y-95278143D01*
X152569566Y-95254802D01*
X152574640Y-95248887D01*
X152586120Y-95239487D01*
X152602555Y-95233515D01*
X152628567Y-95230201D01*
X152668778Y-95228776D01*
X152727808Y-95228472D01*
X152864711Y-95228472D01*
X152902448Y-95128841D01*
X152912784Y-95101746D01*
X152933878Y-95048789D01*
X152950304Y-95012843D01*
X152964149Y-94990230D01*
X152977501Y-94977272D01*
X152992448Y-94970292D01*
X153002095Y-94968426D01*
X153028919Y-94976321D01*
G37*
G36*
X153489717Y-93471888D02*
G01*
X153517679Y-93494685D01*
X153547553Y-93540023D01*
X153580318Y-93608033D01*
X153616957Y-93698846D01*
X153637023Y-93751592D01*
X153761559Y-93747870D01*
X153791385Y-93747086D01*
X153852003Y-93746756D01*
X153894611Y-93749321D01*
X153923038Y-93755445D01*
X153941118Y-93765795D01*
X153952682Y-93781033D01*
X153955712Y-93787433D01*
X153958795Y-93803900D01*
X153953878Y-93823692D01*
X153939139Y-93850421D01*
X153912754Y-93887697D01*
X153872902Y-93939132D01*
X153860173Y-93955251D01*
X153831572Y-93991545D01*
X153809612Y-94019522D01*
X153798248Y-94034150D01*
X153797341Y-94036590D01*
X153803735Y-94055882D01*
X153824944Y-94089017D01*
X153859604Y-94133781D01*
X153873790Y-94151157D01*
X153913988Y-94202397D01*
X153940299Y-94240577D01*
X153954402Y-94268840D01*
X153957975Y-94290330D01*
X153952695Y-94308189D01*
X153952687Y-94308204D01*
X153937366Y-94329661D01*
X153916000Y-94343396D01*
X153884325Y-94350347D01*
X153838076Y-94351447D01*
X153772989Y-94347635D01*
X153737745Y-94344890D01*
X153692197Y-94341408D01*
X153659132Y-94338965D01*
X153643994Y-94337966D01*
X153643791Y-94337976D01*
X153635166Y-94348746D01*
X153622202Y-94375936D01*
X153607625Y-94413860D01*
X153584815Y-94474449D01*
X153557485Y-94534973D01*
X153532156Y-94577839D01*
X153510212Y-94600399D01*
X153487456Y-94610620D01*
X153464640Y-94607906D01*
X153439400Y-94586493D01*
X153436318Y-94582962D01*
X153416563Y-94553242D01*
X153393367Y-94510121D01*
X153370239Y-94460967D01*
X153350687Y-94413147D01*
X153338219Y-94374028D01*
X153330069Y-94340073D01*
X153191204Y-94347921D01*
X153179937Y-94348534D01*
X153107703Y-94350745D01*
X153055142Y-94348313D01*
X153019227Y-94340637D01*
X152996931Y-94327119D01*
X152985224Y-94307159D01*
X152983504Y-94297670D01*
X152988141Y-94271957D01*
X153005567Y-94237676D01*
X153037210Y-94192327D01*
X153084498Y-94133413D01*
X153155395Y-94048558D01*
X153090095Y-93970402D01*
X153080306Y-93958685D01*
X153042980Y-93913870D01*
X153017435Y-93882629D01*
X153000986Y-93861335D01*
X152990944Y-93846360D01*
X152984624Y-93834077D01*
X152979339Y-93820859D01*
X152977316Y-93815090D01*
X152976215Y-93790919D01*
X152992966Y-93767671D01*
X153001861Y-93759638D01*
X153014992Y-93752236D01*
X153033949Y-93747814D01*
X153063131Y-93745865D01*
X153106938Y-93745885D01*
X153169769Y-93747369D01*
X153322047Y-93751592D01*
X153354197Y-93663682D01*
X153377354Y-93603479D01*
X153407484Y-93537426D01*
X153435600Y-93493390D01*
X153462684Y-93471500D01*
X153489717Y-93471888D01*
G37*
G36*
X144911810Y-91555474D02*
G01*
X144923933Y-91570622D01*
X144943163Y-91603036D01*
X144965052Y-91645366D01*
X144986483Y-91691222D01*
X145004337Y-91734215D01*
X145015496Y-91767956D01*
X145018697Y-91778656D01*
X145026602Y-91791118D01*
X145041359Y-91797767D01*
X145067045Y-91799149D01*
X145107738Y-91795810D01*
X145167513Y-91788294D01*
X145231834Y-91782235D01*
X145282753Y-91784321D01*
X145317001Y-91795818D01*
X145337258Y-91817182D01*
X145340290Y-91823648D01*
X145343468Y-91842819D01*
X145336985Y-91865342D01*
X145319008Y-91894416D01*
X145287708Y-91933245D01*
X145241253Y-91985028D01*
X145173394Y-92058704D01*
X145249892Y-92148358D01*
X145273707Y-92176994D01*
X145311953Y-92228855D01*
X145332787Y-92269072D01*
X145336726Y-92299812D01*
X145324287Y-92323240D01*
X145295986Y-92341521D01*
X145281899Y-92346430D01*
X145257070Y-92348773D01*
X145221644Y-92345226D01*
X145169654Y-92335505D01*
X145144225Y-92330196D01*
X145093199Y-92320270D01*
X145058270Y-92317450D01*
X145034386Y-92324077D01*
X145016496Y-92342490D01*
X144999548Y-92375029D01*
X144978490Y-92424032D01*
X144974491Y-92433305D01*
X144947068Y-92491115D01*
X144923965Y-92528194D01*
X144904085Y-92546346D01*
X144882719Y-92553691D01*
X144853438Y-92548309D01*
X144842758Y-92537123D01*
X144824129Y-92508912D01*
X144801964Y-92470139D01*
X144779349Y-92426764D01*
X144759373Y-92384751D01*
X144745123Y-92350063D01*
X144739687Y-92328660D01*
X144739161Y-92324123D01*
X144734090Y-92318658D01*
X144720596Y-92316754D01*
X144695011Y-92318536D01*
X144653670Y-92324128D01*
X144592906Y-92333656D01*
X144539990Y-92341211D01*
X144493310Y-92344229D01*
X144461387Y-92339916D01*
X144439905Y-92327576D01*
X144424549Y-92306512D01*
X144422806Y-92302808D01*
X144420962Y-92275650D01*
X144435315Y-92240145D01*
X144466822Y-92194528D01*
X144516438Y-92137035D01*
X144589298Y-92057965D01*
X144513710Y-91975145D01*
X144480639Y-91938160D01*
X144444565Y-91894310D01*
X144422856Y-91861575D01*
X144413752Y-91837141D01*
X144415494Y-91818196D01*
X144417646Y-91813423D01*
X144436596Y-91794733D01*
X144470856Y-91784504D01*
X144522752Y-91782339D01*
X144594608Y-91787846D01*
X144620517Y-91790704D01*
X144665312Y-91795477D01*
X144698316Y-91798771D01*
X144713778Y-91800000D01*
X144714792Y-91799923D01*
X144719912Y-91796837D01*
X144726859Y-91787068D01*
X144737113Y-91767642D01*
X144752154Y-91735585D01*
X144773462Y-91687925D01*
X144802515Y-91621686D01*
X144822577Y-91583684D01*
X144851330Y-91551982D01*
X144881447Y-91542353D01*
X144911810Y-91555474D01*
G37*
G36*
X149429438Y-94682611D02*
G01*
X149435248Y-94704600D01*
X149456270Y-94732120D01*
X149492484Y-94771342D01*
X149506218Y-94786284D01*
X149539546Y-94825379D01*
X149558610Y-94854677D01*
X149565844Y-94878633D01*
X149563681Y-94901701D01*
X149555926Y-94932599D01*
X149436385Y-94926772D01*
X149401739Y-94924931D01*
X149354313Y-94921872D01*
X149318626Y-94918905D01*
X149300520Y-94916471D01*
X149292529Y-94918405D01*
X149275760Y-94939499D01*
X149255530Y-94982325D01*
X149240753Y-95015515D01*
X149218308Y-95058697D01*
X149197999Y-95090747D01*
X149184311Y-95106948D01*
X149158229Y-95125363D01*
X149133013Y-95124128D01*
X149107364Y-95102394D01*
X149079981Y-95059316D01*
X149049565Y-94994047D01*
X149019868Y-94923719D01*
X148897557Y-94927983D01*
X148845320Y-94928757D01*
X148784630Y-94924862D01*
X148745657Y-94914040D01*
X148727742Y-94895370D01*
X148730225Y-94867932D01*
X148752446Y-94830803D01*
X148793745Y-94783064D01*
X148801158Y-94775268D01*
X148837752Y-94736528D01*
X148859757Y-94709379D01*
X148867820Y-94688546D01*
X148862590Y-94668756D01*
X148852807Y-94655611D01*
X149053115Y-94655611D01*
X149055218Y-94669820D01*
X149067914Y-94701090D01*
X149086968Y-94730051D01*
X149106386Y-94746480D01*
X149131003Y-94752906D01*
X149176367Y-94747690D01*
X149218115Y-94719498D01*
X149230325Y-94706295D01*
X149249179Y-94672872D01*
X149246358Y-94639895D01*
X149222032Y-94602283D01*
X149216534Y-94595994D01*
X149187103Y-94572822D01*
X149152746Y-94566220D01*
X149145795Y-94566410D01*
X149113034Y-94575610D01*
X149083460Y-94602283D01*
X149077876Y-94609216D01*
X149060228Y-94636083D01*
X149053115Y-94655611D01*
X148852807Y-94655611D01*
X148844712Y-94644735D01*
X148814835Y-94611211D01*
X148801439Y-94596084D01*
X148763496Y-94551332D01*
X148740091Y-94518939D01*
X148729591Y-94495644D01*
X148730365Y-94478189D01*
X148740780Y-94463313D01*
X148746306Y-94458578D01*
X148762532Y-94450875D01*
X148788349Y-94446158D01*
X148828365Y-94443794D01*
X148887189Y-94443147D01*
X149013407Y-94443147D01*
X149047351Y-94355237D01*
X149047396Y-94355120D01*
X149069346Y-94305869D01*
X149093687Y-94263019D01*
X149115861Y-94234598D01*
X149150427Y-94201868D01*
X149183467Y-94233522D01*
X149184396Y-94234431D01*
X149205659Y-94262071D01*
X149229582Y-94302855D01*
X149251161Y-94348301D01*
X149285815Y-94431426D01*
X149407970Y-94437286D01*
X149460219Y-94440728D01*
X149517756Y-94448959D01*
X149553374Y-94462376D01*
X149567895Y-94482543D01*
X149562143Y-94511024D01*
X149536939Y-94549385D01*
X149493106Y-94599189D01*
X149463547Y-94630537D01*
X149438864Y-94659980D01*
X149433494Y-94672872D01*
X149429438Y-94682611D01*
G37*
G36*
X144407599Y-92812759D02*
G01*
X144478506Y-92832251D01*
X144542862Y-92870053D01*
X144574102Y-92897136D01*
X144617168Y-92955456D01*
X144640272Y-93024425D01*
X144643649Y-93104949D01*
X144627531Y-93197931D01*
X144617032Y-93247973D01*
X144615729Y-93290827D01*
X144627015Y-93315717D01*
X144651101Y-93323765D01*
X144651964Y-93323758D01*
X144683749Y-93314619D01*
X144720398Y-93287374D01*
X144763218Y-93240815D01*
X144813520Y-93173733D01*
X144869443Y-93098302D01*
X144929810Y-93029404D01*
X144987453Y-92979275D01*
X145044987Y-92946077D01*
X145105029Y-92927974D01*
X145170193Y-92923127D01*
X145199238Y-92924829D01*
X145280585Y-92944186D01*
X145351775Y-92984247D01*
X145411578Y-93044160D01*
X145458760Y-93123069D01*
X145467187Y-93145178D01*
X145480131Y-93209026D01*
X145483594Y-93284301D01*
X145477511Y-93363965D01*
X145461812Y-93440978D01*
X145458065Y-93455735D01*
X145447904Y-93508933D01*
X145439464Y-93571188D01*
X145434276Y-93631897D01*
X145432346Y-93664462D01*
X145428482Y-93708008D01*
X145423169Y-93735779D01*
X145415259Y-93752716D01*
X145403602Y-93763761D01*
X145394437Y-93769551D01*
X145351535Y-93781761D01*
X145308473Y-93771545D01*
X145268358Y-93739463D01*
X145257267Y-93726299D01*
X145241003Y-93700585D01*
X145233682Y-93671646D01*
X145231980Y-93629429D01*
X145233978Y-93595767D01*
X145240444Y-93542669D01*
X145250321Y-93481036D01*
X145262511Y-93418447D01*
X145275105Y-93355723D01*
X145284111Y-93294236D01*
X145285305Y-93247374D01*
X145278294Y-93210854D01*
X145262686Y-93180393D01*
X145238088Y-93151710D01*
X145224987Y-93139529D01*
X145193201Y-93119229D01*
X145161408Y-93114580D01*
X145127483Y-93126633D01*
X145089304Y-93156436D01*
X145044749Y-93205039D01*
X144991694Y-93273490D01*
X144941083Y-93338697D01*
X144879793Y-93407953D01*
X144823578Y-93460408D01*
X144774696Y-93493767D01*
X144762845Y-93499452D01*
X144698142Y-93517364D01*
X144630084Y-93517881D01*
X144563653Y-93502636D01*
X144503830Y-93473264D01*
X144455595Y-93431400D01*
X144423931Y-93378678D01*
X144418162Y-93358929D01*
X144412112Y-93302770D01*
X144415783Y-93238765D01*
X144428946Y-93176182D01*
X144440088Y-93134277D01*
X144445533Y-93087847D01*
X144438254Y-93052891D01*
X144417884Y-93024340D01*
X144409938Y-93016875D01*
X144388823Y-93003465D01*
X144360823Y-92997150D01*
X144317721Y-92995570D01*
X144299003Y-92995376D01*
X144262620Y-92992271D01*
X144238212Y-92983532D01*
X144217557Y-92966799D01*
X144210308Y-92958856D01*
X144190881Y-92919924D01*
X144193612Y-92879734D01*
X144218469Y-92842837D01*
X144241846Y-92826028D01*
X144273841Y-92815651D01*
X144321216Y-92810300D01*
X144324633Y-92810092D01*
X144407599Y-92812759D01*
G37*
G36*
X153940375Y-92203928D02*
G01*
X153943328Y-92207656D01*
X153999021Y-92281330D01*
X154038040Y-92341054D01*
X154061026Y-92388568D01*
X154068618Y-92425615D01*
X154061457Y-92453934D01*
X154040185Y-92475269D01*
X154031053Y-92480647D01*
X154015455Y-92486349D01*
X153994040Y-92489099D01*
X153962433Y-92489028D01*
X153916258Y-92486267D01*
X153851142Y-92480948D01*
X153833906Y-92479484D01*
X153777744Y-92475032D01*
X153731898Y-92471881D01*
X153700711Y-92470309D01*
X153688527Y-92470592D01*
X153685782Y-92475563D01*
X153674857Y-92497925D01*
X153657864Y-92533868D01*
X153637067Y-92578642D01*
X153625890Y-92602270D01*
X153600723Y-92651895D01*
X153576984Y-92694524D01*
X153558620Y-92722899D01*
X153554611Y-92727975D01*
X153525693Y-92753532D01*
X153496438Y-92758975D01*
X153466089Y-92743710D01*
X153433892Y-92707145D01*
X153399091Y-92648687D01*
X153360930Y-92567743D01*
X153320237Y-92473973D01*
X153144073Y-92478292D01*
X153109586Y-92479026D01*
X153042646Y-92479432D01*
X152995486Y-92477830D01*
X152965576Y-92474086D01*
X152950383Y-92468066D01*
X152940988Y-92457847D01*
X152932790Y-92429461D01*
X152940791Y-92390884D01*
X152965493Y-92340972D01*
X153007399Y-92278581D01*
X153067010Y-92202568D01*
X153131355Y-92124560D01*
X153120123Y-92111768D01*
X153412284Y-92111768D01*
X153414312Y-92153864D01*
X153437123Y-92192930D01*
X153450869Y-92205046D01*
X153490947Y-92221382D01*
X153533590Y-92217436D01*
X153572199Y-92193195D01*
X153573672Y-92191690D01*
X153593001Y-92164699D01*
X153600969Y-92139679D01*
X153599807Y-92125358D01*
X153591196Y-92097646D01*
X153577671Y-92079180D01*
X153563407Y-92076932D01*
X153557443Y-92079466D01*
X153558839Y-92071378D01*
X153557266Y-92059110D01*
X153536445Y-92046124D01*
X153535386Y-92045723D01*
X153499337Y-92035774D01*
X153472012Y-92040239D01*
X153442684Y-92060798D01*
X153430772Y-92072978D01*
X153412284Y-92111768D01*
X153120123Y-92111768D01*
X153094612Y-92082712D01*
X153090436Y-92077890D01*
X153058819Y-92037907D01*
X153025981Y-91991445D01*
X152995029Y-91943510D01*
X152969073Y-91899111D01*
X152951220Y-91863257D01*
X152944578Y-91840955D01*
X152944981Y-91830629D01*
X152949717Y-91812751D01*
X152962289Y-91800406D01*
X152985805Y-91792861D01*
X153023371Y-91789380D01*
X153078092Y-91789231D01*
X153153075Y-91791678D01*
X153325520Y-91798686D01*
X153358735Y-91717148D01*
X153379060Y-91671576D01*
X153405045Y-91620638D01*
X153429063Y-91580080D01*
X153453052Y-91548638D01*
X153481480Y-91525629D01*
X153509488Y-91521331D01*
X153538396Y-91536526D01*
X153569526Y-91571992D01*
X153604198Y-91628511D01*
X153643733Y-91706862D01*
X153687325Y-91798891D01*
X153860547Y-91791781D01*
X153896124Y-91790421D01*
X153962103Y-91788990D01*
X154009150Y-91790466D01*
X154040349Y-91795554D01*
X154058786Y-91804957D01*
X154067545Y-91819381D01*
X154069710Y-91839529D01*
X154067926Y-91851804D01*
X154053581Y-91888719D01*
X154026610Y-91937698D01*
X153989111Y-91995133D01*
X153943178Y-92057412D01*
X153884200Y-92133145D01*
X153889386Y-92139679D01*
X153940375Y-92203928D01*
G37*
G36*
X151929777Y-87698089D02*
G01*
X151949956Y-87723815D01*
X151968080Y-87764659D01*
X151966297Y-87799659D01*
X151946597Y-87827857D01*
X151910967Y-87848297D01*
X151861398Y-87860020D01*
X151799877Y-87862069D01*
X151728395Y-87853486D01*
X151648940Y-87833313D01*
X151635604Y-87829104D01*
X151596520Y-87817511D01*
X151574783Y-87813158D01*
X151566595Y-87815633D01*
X151568160Y-87824522D01*
X151574827Y-87845098D01*
X151584388Y-87880982D01*
X151594696Y-87924189D01*
X151598144Y-87939990D01*
X151605745Y-87986934D01*
X151605934Y-88026370D01*
X151599051Y-88069727D01*
X151589799Y-88104436D01*
X151566418Y-88152921D01*
X151536833Y-88181272D01*
X151503219Y-88190320D01*
X151467750Y-88180893D01*
X151432601Y-88153822D01*
X151399947Y-88109936D01*
X151371963Y-88050065D01*
X151350825Y-87975038D01*
X151348711Y-87964821D01*
X151341171Y-87931774D01*
X151334528Y-87917093D01*
X151325641Y-87917020D01*
X151311374Y-87927796D01*
X151298757Y-87938659D01*
X151256788Y-87978093D01*
X151207407Y-88027906D01*
X151155526Y-88082827D01*
X151106059Y-88137582D01*
X151063916Y-88186899D01*
X151034011Y-88225506D01*
X151033226Y-88226620D01*
X151001588Y-88269530D01*
X150969189Y-88310342D01*
X150942926Y-88340362D01*
X150940543Y-88342828D01*
X150914643Y-88366195D01*
X150893054Y-88374935D01*
X150866738Y-88372908D01*
X150854292Y-88369851D01*
X150815398Y-88347721D01*
X150793441Y-88311552D01*
X150789451Y-88264067D01*
X150804456Y-88207990D01*
X150812607Y-88189935D01*
X150847930Y-88126553D01*
X150896115Y-88054356D01*
X150953412Y-87978158D01*
X151016074Y-87902774D01*
X151080353Y-87833020D01*
X151142500Y-87773712D01*
X151222643Y-87703414D01*
X151155254Y-87694748D01*
X151124237Y-87690038D01*
X151049092Y-87672003D01*
X150985229Y-87647258D01*
X150956777Y-87630665D01*
X151308743Y-87630665D01*
X151310904Y-87674829D01*
X151335685Y-87719871D01*
X151356621Y-87737430D01*
X151395600Y-87749971D01*
X151437930Y-87748051D01*
X151475821Y-87732423D01*
X151501484Y-87703841D01*
X151515306Y-87665008D01*
X151514197Y-87620909D01*
X151490900Y-87583429D01*
X151444988Y-87551417D01*
X151424187Y-87542435D01*
X151402794Y-87542253D01*
X151374371Y-87554581D01*
X151369404Y-87557259D01*
X151328483Y-87590450D01*
X151308743Y-87630665D01*
X150956777Y-87630665D01*
X150934290Y-87617551D01*
X150897917Y-87584633D01*
X150877753Y-87550253D01*
X150875441Y-87516161D01*
X150892622Y-87484105D01*
X150930941Y-87455837D01*
X150967828Y-87443925D01*
X151023779Y-87437741D01*
X151089070Y-87438776D01*
X151156937Y-87446887D01*
X151220615Y-87461933D01*
X151247095Y-87469907D01*
X151274882Y-87476588D01*
X151286926Y-87475710D01*
X151287108Y-87467602D01*
X151276477Y-87437360D01*
X151257172Y-87361119D01*
X151247388Y-87285496D01*
X151247277Y-87215622D01*
X151256989Y-87156628D01*
X151276675Y-87113646D01*
X151292997Y-87095581D01*
X151326506Y-87077776D01*
X151361638Y-87080187D01*
X151396539Y-87100980D01*
X151429352Y-87138321D01*
X151458222Y-87190373D01*
X151481295Y-87255303D01*
X151496714Y-87331275D01*
X151500813Y-87354809D01*
X151508569Y-87379474D01*
X151516483Y-87385766D01*
X151521308Y-87379430D01*
X151520623Y-87359739D01*
X151517927Y-87350430D01*
X151521393Y-87348818D01*
X151529454Y-87348114D01*
X151550796Y-87335631D01*
X151578977Y-87313264D01*
X151601837Y-87294400D01*
X151659553Y-87256337D01*
X151717081Y-87230226D01*
X151770347Y-87217246D01*
X151815278Y-87218578D01*
X151847802Y-87235401D01*
X151857218Y-87249132D01*
X151865319Y-87286325D01*
X151860752Y-87331915D01*
X151843725Y-87378616D01*
X151833692Y-87395368D01*
X151800762Y-87437579D01*
X151757836Y-87482659D01*
X151711565Y-87523924D01*
X151668597Y-87554687D01*
X151629209Y-87578142D01*
X151697900Y-87592317D01*
X151744804Y-87603061D01*
X151823925Y-87628340D01*
X151884549Y-87659545D01*
X151890959Y-87665008D01*
X151929777Y-87698089D01*
G37*
G36*
X146327835Y-89518550D02*
G01*
X146336159Y-89454914D01*
X146339577Y-89429401D01*
X146356456Y-89321602D01*
X146375829Y-89230006D01*
X146399369Y-89148645D01*
X146428749Y-89071551D01*
X146465639Y-88992755D01*
X146468786Y-88986582D01*
X146510623Y-88913369D01*
X146559012Y-88841854D01*
X146610669Y-88775948D01*
X146662310Y-88719567D01*
X146710650Y-88676622D01*
X146752406Y-88651029D01*
X146772638Y-88643638D01*
X146799250Y-88641503D01*
X146830990Y-88651688D01*
X146863083Y-88669407D01*
X146888463Y-88698469D01*
X146897542Y-88736958D01*
X146890292Y-88786702D01*
X146866683Y-88849528D01*
X146826689Y-88927263D01*
X146768382Y-89036657D01*
X146707210Y-89171164D01*
X146662140Y-89300009D01*
X146631791Y-89428125D01*
X146614783Y-89560442D01*
X146609733Y-89701892D01*
X146609880Y-89737506D01*
X146610749Y-89791068D01*
X146613393Y-89832994D01*
X146618997Y-89870040D01*
X146628745Y-89908961D01*
X146643821Y-89956515D01*
X146665409Y-90019456D01*
X146672646Y-90040528D01*
X146691509Y-90097222D01*
X146706723Y-90145544D01*
X146716883Y-90180922D01*
X146720582Y-90198787D01*
X146718135Y-90215932D01*
X146705004Y-90248388D01*
X146685435Y-90276739D01*
X146665065Y-90291566D01*
X146653410Y-90294347D01*
X146624457Y-90296895D01*
X146598700Y-90288989D01*
X146570284Y-90267940D01*
X146533354Y-90231058D01*
X146481226Y-90170669D01*
X146412453Y-90065838D01*
X146363876Y-89951703D01*
X146333733Y-89824675D01*
X146333662Y-89824230D01*
X146326467Y-89782898D01*
X146319843Y-89751020D01*
X146315215Y-89735465D01*
X146311805Y-89731939D01*
X146287910Y-89719658D01*
X146246262Y-89705030D01*
X146190863Y-89689077D01*
X146125716Y-89672822D01*
X146054823Y-89657286D01*
X145982189Y-89643492D01*
X145911814Y-89632461D01*
X145871933Y-89626968D01*
X145756949Y-89610653D01*
X145661122Y-89596003D01*
X145581290Y-89582258D01*
X145514296Y-89568660D01*
X145456978Y-89554451D01*
X145406178Y-89538873D01*
X145358735Y-89521167D01*
X145311490Y-89500574D01*
X145261283Y-89476337D01*
X145231487Y-89460412D01*
X145168512Y-89421649D01*
X145104258Y-89376661D01*
X145046224Y-89330846D01*
X145001908Y-89289603D01*
X144928480Y-89198598D01*
X144866316Y-89089829D01*
X144824206Y-88974411D01*
X144803235Y-88855388D01*
X144803672Y-88813727D01*
X144991253Y-88813727D01*
X144993288Y-88838518D01*
X144993832Y-88841608D01*
X145025568Y-88956400D01*
X145077626Y-89059594D01*
X145149926Y-89151129D01*
X145242385Y-89230948D01*
X145354921Y-89298991D01*
X145487455Y-89355198D01*
X145639902Y-89399511D01*
X145812183Y-89431870D01*
X145833262Y-89434910D01*
X145890611Y-89443063D01*
X145938129Y-89449650D01*
X145971363Y-89454060D01*
X145985857Y-89455681D01*
X145986132Y-89451093D01*
X145975487Y-89433027D01*
X145955083Y-89405929D01*
X145952691Y-89402937D01*
X145929427Y-89371813D01*
X145897857Y-89327258D01*
X145861821Y-89274774D01*
X145825161Y-89219863D01*
X145808142Y-89194285D01*
X145726164Y-89080603D01*
X145646578Y-88987227D01*
X145567165Y-88912005D01*
X145485708Y-88852788D01*
X145399991Y-88807424D01*
X145321890Y-88778569D01*
X145219383Y-88758572D01*
X145121656Y-88760427D01*
X145030295Y-88784234D01*
X145025037Y-88786346D01*
X145000037Y-88798976D01*
X144991253Y-88813727D01*
X144803672Y-88813727D01*
X144804488Y-88735807D01*
X144812757Y-88658587D01*
X144884644Y-88624630D01*
X144932219Y-88605204D01*
X144991454Y-88585562D01*
X145048004Y-88570622D01*
X145161694Y-88556771D01*
X145280921Y-88564231D01*
X145399937Y-88592770D01*
X145516395Y-88641402D01*
X145627948Y-88709140D01*
X145732249Y-88795000D01*
X145826952Y-88897993D01*
X145863722Y-88943886D01*
X145916982Y-88884649D01*
X145943119Y-88857616D01*
X145989003Y-88815749D01*
X146040816Y-88773123D01*
X146093985Y-88733133D01*
X146143936Y-88699170D01*
X146186095Y-88674628D01*
X146215889Y-88662900D01*
X146249451Y-88660182D01*
X146287918Y-88670746D01*
X146311639Y-88696723D01*
X146319709Y-88735754D01*
X146311222Y-88785483D01*
X146285272Y-88843550D01*
X146222405Y-88944951D01*
X146117470Y-89086525D01*
X146094163Y-89115218D01*
X146069571Y-89145746D01*
X146053998Y-89165380D01*
X146051527Y-89168851D01*
X146047417Y-89181579D01*
X146051904Y-89198702D01*
X146066897Y-89224939D01*
X146094307Y-89265011D01*
X146107921Y-89283460D01*
X146147509Y-89332215D01*
X146193698Y-89384396D01*
X146239068Y-89431471D01*
X146259070Y-89451093D01*
X146327835Y-89518550D01*
G37*
G36*
X153497676Y-88852785D02*
G01*
X153491998Y-88908620D01*
X153484549Y-88951730D01*
X153467103Y-89010830D01*
X153417014Y-89121296D01*
X153346752Y-89226215D01*
X153258423Y-89323094D01*
X153159285Y-89405175D01*
X153154130Y-89409443D01*
X153035979Y-89482769D01*
X153034923Y-89483329D01*
X152994600Y-89504162D01*
X152957087Y-89521881D01*
X152919492Y-89537202D01*
X152878927Y-89550839D01*
X152832499Y-89563509D01*
X152777319Y-89575926D01*
X152710496Y-89588805D01*
X152629139Y-89602863D01*
X152530357Y-89618815D01*
X152411260Y-89637376D01*
X152382908Y-89642173D01*
X152306741Y-89657830D01*
X152227495Y-89677176D01*
X152158362Y-89697096D01*
X152034398Y-89736911D01*
X152020609Y-89811745D01*
X152003299Y-89882716D01*
X151968307Y-89971635D01*
X151916113Y-90065251D01*
X151891940Y-90100462D01*
X151849886Y-90153198D01*
X151803407Y-90204344D01*
X151758136Y-90247814D01*
X151719705Y-90277520D01*
X151713611Y-90281235D01*
X151674365Y-90297335D01*
X151640634Y-90293157D01*
X151606064Y-90268180D01*
X151598990Y-90261005D01*
X151581242Y-90235087D01*
X151575002Y-90205242D01*
X151580693Y-90167608D01*
X151598739Y-90118325D01*
X151629560Y-90053530D01*
X151656959Y-89997986D01*
X151691358Y-89920681D01*
X151715627Y-89852028D01*
X151731601Y-89785386D01*
X151741110Y-89714112D01*
X151745988Y-89631564D01*
X151744054Y-89504309D01*
X151724762Y-89358408D01*
X151686264Y-89213312D01*
X151627696Y-89065879D01*
X151548192Y-88912968D01*
X151533195Y-88885828D01*
X151509029Y-88836959D01*
X151491145Y-88794059D01*
X151482607Y-88764088D01*
X151480932Y-88733657D01*
X151489254Y-88709356D01*
X151512214Y-88682707D01*
X151540174Y-88659793D01*
X151576298Y-88646087D01*
X151614993Y-88650284D01*
X151658268Y-88673135D01*
X151708131Y-88715391D01*
X151766590Y-88777803D01*
X151798285Y-88816135D01*
X151876718Y-88931124D01*
X151941036Y-89056563D01*
X151989339Y-89187632D01*
X152019727Y-89319507D01*
X152030303Y-89447366D01*
X152030491Y-89468154D01*
X152032752Y-89490481D01*
X152039580Y-89496575D01*
X152053435Y-89491083D01*
X152064188Y-89483651D01*
X152090423Y-89461705D01*
X152103925Y-89449527D01*
X152421109Y-89449527D01*
X152431081Y-89454208D01*
X152433669Y-89453931D01*
X152460367Y-89450355D01*
X152499436Y-89444447D01*
X152544952Y-89437188D01*
X152590991Y-89429556D01*
X152631630Y-89422531D01*
X152660944Y-89417091D01*
X152673008Y-89414217D01*
X152673900Y-89405175D01*
X152664086Y-89387057D01*
X152648268Y-89369716D01*
X152633174Y-89361975D01*
X152619349Y-89364446D01*
X152588206Y-89373938D01*
X152548072Y-89388262D01*
X152505190Y-89404964D01*
X152465806Y-89421590D01*
X152436163Y-89435684D01*
X152422507Y-89444792D01*
X152421109Y-89449527D01*
X152103925Y-89449527D01*
X152126049Y-89429573D01*
X152167734Y-89390512D01*
X152212146Y-89347778D01*
X152255954Y-89304625D01*
X152295827Y-89264310D01*
X152328432Y-89230088D01*
X152350439Y-89205216D01*
X152358514Y-89192949D01*
X152356094Y-89185961D01*
X152341001Y-89164743D01*
X152316662Y-89138639D01*
X152295370Y-89115980D01*
X152262888Y-89077547D01*
X152225353Y-89030436D01*
X152186101Y-88979104D01*
X152182360Y-88974024D01*
X152801881Y-88974024D01*
X152864955Y-88939861D01*
X152909724Y-88918973D01*
X152983962Y-88893732D01*
X153060714Y-88876406D01*
X153129188Y-88869854D01*
X153157859Y-88871175D01*
X153175039Y-88879036D01*
X153174982Y-88897810D01*
X153159816Y-88931800D01*
X153143772Y-88960207D01*
X153092783Y-89030854D01*
X153029416Y-89099750D01*
X152960336Y-89160087D01*
X152892209Y-89205060D01*
X152866943Y-89218658D01*
X152841152Y-89232745D01*
X152829793Y-89239246D01*
X152829539Y-89240900D01*
X152834685Y-89257136D01*
X152846616Y-89284335D01*
X152857369Y-89305098D01*
X152873182Y-89322330D01*
X152893970Y-89322393D01*
X152926996Y-89307368D01*
X153007794Y-89259829D01*
X153110858Y-89179981D01*
X153193989Y-89089262D01*
X153256588Y-88988364D01*
X153298054Y-88877983D01*
X153303899Y-88852970D01*
X153305584Y-88818541D01*
X153293037Y-88795273D01*
X153263194Y-88779133D01*
X153212992Y-88766093D01*
X153127503Y-88757485D01*
X153025964Y-88767684D01*
X152921136Y-88798349D01*
X152888467Y-88811507D01*
X152851670Y-88830040D01*
X152829551Y-88849879D01*
X152817333Y-88875974D01*
X152810236Y-88913276D01*
X152801881Y-88974024D01*
X152182360Y-88974024D01*
X152148467Y-88928004D01*
X152115784Y-88881591D01*
X152091389Y-88844320D01*
X152078615Y-88820647D01*
X152074205Y-88793958D01*
X152086808Y-88769394D01*
X152117695Y-88756021D01*
X152164885Y-88755339D01*
X152178840Y-88757897D01*
X152221312Y-88771062D01*
X152275054Y-88792400D01*
X152334005Y-88819227D01*
X152392104Y-88848858D01*
X152443288Y-88878611D01*
X152475316Y-88898875D01*
X152572222Y-88802868D01*
X152575273Y-88799855D01*
X152677621Y-88710262D01*
X152781153Y-88642825D01*
X152888610Y-88596350D01*
X153002732Y-88569645D01*
X153126258Y-88561515D01*
X153201868Y-88565863D01*
X153283747Y-88578630D01*
X153359351Y-88598306D01*
X153422999Y-88623383D01*
X153469009Y-88652356D01*
X153482946Y-88665345D01*
X153493121Y-88680351D01*
X153498528Y-88701169D01*
X153500584Y-88733674D01*
X153500706Y-88783741D01*
X153500555Y-88794931D01*
X153499380Y-88818541D01*
X153497676Y-88852785D01*
G37*
G36*
X153987514Y-89539399D02*
G01*
X153985710Y-89569353D01*
X153974496Y-89607384D01*
X153949677Y-89649908D01*
X153947216Y-89653517D01*
X153909217Y-89702369D01*
X153871891Y-89733399D01*
X153828595Y-89750676D01*
X153772684Y-89758266D01*
X153729600Y-89759335D01*
X153689565Y-89754100D01*
X153654166Y-89740242D01*
X153609827Y-89717495D01*
X153506268Y-89762142D01*
X153488561Y-89769648D01*
X153431475Y-89792504D01*
X153375960Y-89813057D01*
X153331897Y-89827598D01*
X153298259Y-89838334D01*
X153271380Y-89848780D01*
X153261069Y-89855459D01*
X153261097Y-89855689D01*
X153273097Y-89862549D01*
X153304633Y-89873121D01*
X153352435Y-89886488D01*
X153413233Y-89901733D01*
X153483757Y-89917937D01*
X153504501Y-89922105D01*
X153558518Y-89931063D01*
X153621272Y-89939716D01*
X153683018Y-89946660D01*
X153736602Y-89952299D01*
X153775489Y-89958125D01*
X153800994Y-89965229D01*
X153818270Y-89975076D01*
X153832465Y-89989130D01*
X153852905Y-90025734D01*
X153857140Y-90072473D01*
X153840695Y-90117207D01*
X153829187Y-90129821D01*
X153798976Y-90152171D01*
X153761577Y-90172470D01*
X153747805Y-90178485D01*
X153721242Y-90188053D01*
X153692807Y-90194309D01*
X153657110Y-90197931D01*
X153608758Y-90199595D01*
X153542363Y-90199977D01*
X153477251Y-90199111D01*
X153402618Y-90194585D01*
X153335701Y-90184847D01*
X153269414Y-90168414D01*
X153196672Y-90143802D01*
X153110392Y-90109528D01*
X153022625Y-90073345D01*
X152952530Y-90045261D01*
X152897004Y-90024397D01*
X152852565Y-90009713D01*
X152815730Y-90000174D01*
X152783015Y-89994741D01*
X152750937Y-89992376D01*
X152716013Y-89992043D01*
X152690855Y-89992783D01*
X152616380Y-90000509D01*
X152551950Y-90015103D01*
X152481656Y-90037323D01*
X152610556Y-90104496D01*
X152619220Y-90109033D01*
X152727414Y-90169970D01*
X152827900Y-90235637D01*
X152925702Y-90309826D01*
X153025848Y-90396329D01*
X153133362Y-90498938D01*
X153165753Y-90531183D01*
X153232358Y-90598746D01*
X153284041Y-90653635D01*
X153322506Y-90698049D01*
X153349457Y-90734187D01*
X153366598Y-90764248D01*
X153375632Y-90790429D01*
X153378265Y-90814931D01*
X153378061Y-90824543D01*
X153369488Y-90865124D01*
X153345427Y-90893793D01*
X153301922Y-90915774D01*
X153296201Y-90917787D01*
X153266683Y-90924816D01*
X153227692Y-90928687D01*
X153174609Y-90929686D01*
X153102815Y-90928099D01*
X153060596Y-90926151D01*
X152950175Y-90915189D01*
X152844399Y-90894894D01*
X152738978Y-90863860D01*
X152629624Y-90820686D01*
X152512046Y-90763969D01*
X152381957Y-90692306D01*
X152306892Y-90649155D01*
X152227735Y-90605041D01*
X152163285Y-90572171D01*
X152110505Y-90550126D01*
X152066361Y-90538490D01*
X152027816Y-90536847D01*
X151991834Y-90544778D01*
X151955380Y-90561868D01*
X151915418Y-90587699D01*
X151868913Y-90621855D01*
X151834177Y-90646297D01*
X151791293Y-90668550D01*
X151758092Y-90672630D01*
X151731588Y-90658626D01*
X151708794Y-90626627D01*
X151695038Y-90596874D01*
X151693019Y-90573834D01*
X151702081Y-90545925D01*
X151703230Y-90543366D01*
X151719376Y-90517798D01*
X151746922Y-90482347D01*
X151782568Y-90440500D01*
X151823015Y-90395745D01*
X151864962Y-90351568D01*
X151905109Y-90311457D01*
X151940156Y-90278899D01*
X151966803Y-90257382D01*
X151981750Y-90250393D01*
X152001877Y-90257341D01*
X152039034Y-90273590D01*
X152088863Y-90297057D01*
X152147344Y-90325713D01*
X152210458Y-90357531D01*
X152274185Y-90390485D01*
X152334504Y-90422546D01*
X152387396Y-90451687D01*
X152428842Y-90475882D01*
X152469053Y-90499897D01*
X152543906Y-90542111D01*
X152620841Y-90582841D01*
X152694389Y-90619318D01*
X152759080Y-90648777D01*
X152809443Y-90668448D01*
X152842049Y-90678790D01*
X152900294Y-90695046D01*
X152957025Y-90708565D01*
X153005343Y-90717760D01*
X153038348Y-90721048D01*
X153067652Y-90720799D01*
X153032488Y-90691284D01*
X152878065Y-90567994D01*
X152658435Y-90414072D01*
X152436454Y-90283363D01*
X152211999Y-90175790D01*
X152162104Y-90153851D01*
X152118977Y-90133501D01*
X152088399Y-90117512D01*
X152074944Y-90108140D01*
X152072569Y-90103004D01*
X152074411Y-90089463D01*
X152088673Y-90071654D01*
X152117865Y-90046897D01*
X152164497Y-90012510D01*
X152168086Y-90009954D01*
X152253341Y-89952392D01*
X152333701Y-89905527D01*
X152413889Y-89867642D01*
X152498628Y-89837021D01*
X152592638Y-89811947D01*
X152700643Y-89790705D01*
X152827365Y-89771577D01*
X152886639Y-89762400D01*
X153061554Y-89723076D01*
X153241313Y-89665460D01*
X153420891Y-89591081D01*
X153516154Y-89547015D01*
X153516581Y-89543229D01*
X153710176Y-89543229D01*
X153732512Y-89566432D01*
X153756050Y-89581164D01*
X153771075Y-89582484D01*
X153786166Y-89570613D01*
X153793049Y-89562292D01*
X153801362Y-89535611D01*
X153794805Y-89510323D01*
X153777679Y-89491912D01*
X153754286Y-89485860D01*
X153728928Y-89497652D01*
X153710950Y-89519476D01*
X153710176Y-89543229D01*
X153516581Y-89543229D01*
X153522057Y-89494644D01*
X153522203Y-89493395D01*
X153540244Y-89435569D01*
X153576816Y-89383684D01*
X153627181Y-89341710D01*
X153686603Y-89313615D01*
X153750345Y-89303368D01*
X153767630Y-89303939D01*
X153838647Y-89319314D01*
X153899087Y-89353477D01*
X153946008Y-89403498D01*
X153976465Y-89466449D01*
X153986940Y-89535611D01*
X153987514Y-89539399D01*
G37*
G36*
X144818326Y-89547134D02*
G01*
X144846698Y-89566380D01*
X144892541Y-89589806D01*
X144953167Y-89616166D01*
X145025884Y-89644214D01*
X145108001Y-89672705D01*
X145117260Y-89675749D01*
X145203454Y-89703332D01*
X145277081Y-89724926D01*
X145345319Y-89742204D01*
X145415346Y-89756836D01*
X145494340Y-89770496D01*
X145589479Y-89784854D01*
X145626995Y-89790551D01*
X145746241Y-89813356D01*
X145848050Y-89841386D01*
X145936908Y-89876043D01*
X146017301Y-89918732D01*
X146018960Y-89919736D01*
X146055464Y-89939494D01*
X146084902Y-89951382D01*
X146101037Y-89952859D01*
X146107070Y-89950088D01*
X146107344Y-89956315D01*
X146106960Y-89957728D01*
X146115141Y-89972154D01*
X146137505Y-89995200D01*
X146170000Y-90022581D01*
X146189984Y-90038314D01*
X146222151Y-90066532D01*
X146237659Y-90088578D01*
X146235407Y-90107211D01*
X146214294Y-90125192D01*
X146173217Y-90145282D01*
X146111076Y-90170241D01*
X146019054Y-90209430D01*
X145895389Y-90270723D01*
X145765620Y-90343159D01*
X145635161Y-90423381D01*
X145509426Y-90508031D01*
X145393827Y-90593751D01*
X145293779Y-90677183D01*
X145269263Y-90699686D01*
X145256375Y-90714290D01*
X145258088Y-90720406D01*
X145272689Y-90721642D01*
X145292050Y-90721100D01*
X145364497Y-90710759D01*
X145447213Y-90686790D01*
X145541862Y-90648545D01*
X145650107Y-90595377D01*
X145773615Y-90526637D01*
X145800301Y-90511258D01*
X145867509Y-90473643D01*
X145941604Y-90433406D01*
X146018678Y-90392558D01*
X146094826Y-90353109D01*
X146166143Y-90317071D01*
X146228722Y-90286452D01*
X146278658Y-90263263D01*
X146312043Y-90249516D01*
X146315317Y-90249147D01*
X146336230Y-90259617D01*
X146369522Y-90288535D01*
X146414498Y-90335191D01*
X146470463Y-90398877D01*
X146536723Y-90478882D01*
X146572827Y-90530673D01*
X146591250Y-90577756D01*
X146588898Y-90617380D01*
X146565995Y-90650858D01*
X146558107Y-90657637D01*
X146530533Y-90671522D01*
X146498997Y-90670440D01*
X146459535Y-90653623D01*
X146408185Y-90620303D01*
X146367436Y-90592085D01*
X146327298Y-90567961D01*
X146290062Y-90552115D01*
X146252872Y-90545053D01*
X146212872Y-90547280D01*
X146167208Y-90559302D01*
X146113023Y-90581624D01*
X146047462Y-90614752D01*
X145967669Y-90659192D01*
X145870790Y-90715449D01*
X145806383Y-90752170D01*
X145682822Y-90815738D01*
X145568982Y-90863935D01*
X145461010Y-90898294D01*
X145355053Y-90920344D01*
X145353916Y-90920516D01*
X145313916Y-90924407D01*
X145258025Y-90927117D01*
X145193493Y-90928401D01*
X145127570Y-90928015D01*
X145110501Y-90927665D01*
X145051990Y-90926191D01*
X145011524Y-90924094D01*
X144984745Y-90920546D01*
X144967296Y-90914718D01*
X144954820Y-90905781D01*
X144942960Y-90892908D01*
X144923785Y-90860661D01*
X144916110Y-90812423D01*
X144928961Y-90764827D01*
X144941897Y-90744729D01*
X144972548Y-90705923D01*
X145015337Y-90656974D01*
X145067179Y-90601051D01*
X145124988Y-90541325D01*
X145185681Y-90480967D01*
X145246172Y-90423145D01*
X145303377Y-90371031D01*
X145354211Y-90327795D01*
X145386291Y-90302867D01*
X145443034Y-90262128D01*
X145506267Y-90219789D01*
X145572332Y-90178018D01*
X145637571Y-90138981D01*
X145698326Y-90104847D01*
X145750940Y-90077782D01*
X145791755Y-90059954D01*
X145817112Y-90053530D01*
X145820680Y-90053125D01*
X145829765Y-90043589D01*
X145827813Y-90039867D01*
X145809230Y-90028923D01*
X145775620Y-90016469D01*
X145732679Y-90004216D01*
X145686107Y-89993873D01*
X145641602Y-89987148D01*
X145626451Y-89985801D01*
X145585034Y-89985082D01*
X145542084Y-89989660D01*
X145493698Y-90000539D01*
X145435972Y-90018724D01*
X145365004Y-90045220D01*
X145276890Y-90081031D01*
X145245763Y-90093757D01*
X145173799Y-90121678D01*
X145102930Y-90147381D01*
X145039942Y-90168454D01*
X144991619Y-90182483D01*
X144972863Y-90186902D01*
X144887482Y-90200766D01*
X144800807Y-90205824D01*
X144716845Y-90202596D01*
X144639602Y-90191600D01*
X144573082Y-90173357D01*
X144521293Y-90148386D01*
X144488239Y-90117207D01*
X144477851Y-90095064D01*
X144470965Y-90061125D01*
X144472391Y-90030387D01*
X144482618Y-90012012D01*
X144488006Y-90005330D01*
X144487859Y-89985304D01*
X144485061Y-89975931D01*
X144488016Y-89973771D01*
X144489580Y-89974699D01*
X144507357Y-89973648D01*
X144535144Y-89964623D01*
X144536047Y-89964250D01*
X144576822Y-89952776D01*
X144619167Y-89948001D01*
X144640137Y-89947168D01*
X144686014Y-89942384D01*
X144741309Y-89934127D01*
X144801950Y-89923287D01*
X144863864Y-89910753D01*
X144922981Y-89897416D01*
X144975228Y-89884165D01*
X145016533Y-89871891D01*
X145042825Y-89861483D01*
X145050031Y-89853832D01*
X145037834Y-89845792D01*
X145012598Y-89837097D01*
X144990657Y-89830164D01*
X144951788Y-89816291D01*
X144902143Y-89797671D01*
X144847323Y-89776362D01*
X144845603Y-89775682D01*
X144790186Y-89753953D01*
X144751707Y-89739952D01*
X144725441Y-89732785D01*
X144706659Y-89731559D01*
X144690634Y-89735380D01*
X144672638Y-89743356D01*
X144665810Y-89746339D01*
X144612652Y-89758526D01*
X144551453Y-89758688D01*
X144491995Y-89747573D01*
X144444057Y-89725924D01*
X144432639Y-89717638D01*
X144383335Y-89667239D01*
X144351915Y-89608323D01*
X144338248Y-89545053D01*
X144528810Y-89545053D01*
X144542769Y-89570613D01*
X144555111Y-89580123D01*
X144579530Y-89581716D01*
X144603343Y-89559891D01*
X144613274Y-89540175D01*
X144610617Y-89512324D01*
X144585182Y-89489770D01*
X144563820Y-89485228D01*
X144542742Y-89495867D01*
X144529936Y-89517973D01*
X144528810Y-89545053D01*
X144338248Y-89545053D01*
X144338236Y-89544998D01*
X144342152Y-89481371D01*
X144363518Y-89421548D01*
X144402191Y-89369635D01*
X144458024Y-89329741D01*
X144485979Y-89317770D01*
X144556074Y-89304388D01*
X144626001Y-89312413D01*
X144691407Y-89340953D01*
X144747939Y-89389117D01*
X144752708Y-89394786D01*
X144781362Y-89439623D01*
X144801957Y-89489816D01*
X144809949Y-89534695D01*
X144813639Y-89540175D01*
X144818326Y-89547134D01*
G37*
G36*
X148164113Y-87702583D02*
G01*
X148191580Y-87705905D01*
X148235776Y-87710699D01*
X148283537Y-87715468D01*
X148283658Y-87715480D01*
X148420367Y-87739475D01*
X148557544Y-87784525D01*
X148690635Y-87848786D01*
X148815086Y-87930417D01*
X148854986Y-87961537D01*
X148914297Y-88013154D01*
X148966994Y-88067812D01*
X149018674Y-88131538D01*
X149074929Y-88210359D01*
X149094086Y-88237877D01*
X149120165Y-88273542D01*
X149139670Y-88297988D01*
X149149403Y-88307059D01*
X149158300Y-88300609D01*
X149171771Y-88280687D01*
X149174674Y-88275610D01*
X149191587Y-88249556D01*
X149216986Y-88213030D01*
X149246569Y-88172265D01*
X149296633Y-88109158D01*
X149410593Y-87992331D01*
X149537482Y-87894440D01*
X149675953Y-87816069D01*
X149824658Y-87757799D01*
X149982249Y-87720211D01*
X150147377Y-87703889D01*
X150318695Y-87709413D01*
X150414676Y-87720811D01*
X150495829Y-87735916D01*
X150553852Y-87753938D01*
X150588698Y-87774862D01*
X150600323Y-87798674D01*
X150597198Y-87810237D01*
X150585334Y-87839710D01*
X150566683Y-87881016D01*
X150543448Y-87929103D01*
X150515057Y-87988776D01*
X150481398Y-88067890D01*
X150448409Y-88155896D01*
X150414349Y-88257494D01*
X150377476Y-88377388D01*
X150367082Y-88412267D01*
X150343036Y-88492154D01*
X150323509Y-88555133D01*
X150307065Y-88605302D01*
X150292267Y-88646754D01*
X150277679Y-88683585D01*
X150261866Y-88719891D01*
X150243392Y-88759766D01*
X150208733Y-88829268D01*
X150153677Y-88922435D01*
X150093669Y-89002389D01*
X150024424Y-89075308D01*
X149959377Y-89134333D01*
X149900530Y-89180288D01*
X149841310Y-89216943D01*
X149774261Y-89248905D01*
X149691925Y-89280784D01*
X149676871Y-89286140D01*
X149633424Y-89300721D01*
X149599198Y-89310942D01*
X149580552Y-89314858D01*
X149568311Y-89307361D01*
X149549843Y-89285068D01*
X149530901Y-89255245D01*
X149516139Y-89225315D01*
X149510212Y-89202700D01*
X149510614Y-89201299D01*
X149522391Y-89186450D01*
X149548040Y-89160363D01*
X149584261Y-89126275D01*
X149627750Y-89087424D01*
X149671593Y-89047807D01*
X149756989Y-88962242D01*
X149831291Y-88876249D01*
X149889579Y-88795318D01*
X149910757Y-88761979D01*
X149883390Y-88769894D01*
X149864980Y-88775631D01*
X149772869Y-88815203D01*
X149676953Y-88872773D01*
X149581678Y-88945389D01*
X149491490Y-89030100D01*
X149488281Y-89033416D01*
X149456749Y-89063252D01*
X149429735Y-89084371D01*
X149412784Y-89092385D01*
X149397626Y-89089093D01*
X149380130Y-89068866D01*
X149373179Y-89032510D01*
X149376054Y-88982686D01*
X149388035Y-88922057D01*
X149408403Y-88853285D01*
X149436438Y-88779032D01*
X149471421Y-88701960D01*
X149512632Y-88624731D01*
X149559353Y-88550008D01*
X149564810Y-88542156D01*
X149602724Y-88493550D01*
X149652053Y-88437279D01*
X149709025Y-88377013D01*
X149769867Y-88316422D01*
X149830807Y-88259175D01*
X149888073Y-88208941D01*
X149937892Y-88169392D01*
X149976494Y-88144196D01*
X149992321Y-88131415D01*
X149995195Y-88117121D01*
X149992790Y-88111790D01*
X149999289Y-88111651D01*
X150002497Y-88111828D01*
X150021908Y-88104536D01*
X150052786Y-88088726D01*
X150089410Y-88067760D01*
X150126061Y-88044996D01*
X150157019Y-88023796D01*
X150176563Y-88007518D01*
X150176933Y-88007055D01*
X150169961Y-88003862D01*
X150145466Y-88004541D01*
X150108497Y-88008454D01*
X150064103Y-88014963D01*
X150017333Y-88023429D01*
X149973235Y-88033215D01*
X149945722Y-88041246D01*
X149891750Y-88060890D01*
X149831937Y-88086043D01*
X149773316Y-88113517D01*
X149722920Y-88140120D01*
X149687785Y-88162664D01*
X149648638Y-88193625D01*
X149535671Y-88293388D01*
X149441185Y-88395948D01*
X149361586Y-88506091D01*
X149293278Y-88628598D01*
X149232668Y-88768253D01*
X149208621Y-88828750D01*
X149189621Y-88871807D01*
X149174629Y-88898734D01*
X149161916Y-88912624D01*
X149149754Y-88916566D01*
X149149076Y-88916542D01*
X149131583Y-88905081D01*
X149110574Y-88875784D01*
X149088764Y-88833174D01*
X149068864Y-88781772D01*
X149035977Y-88694547D01*
X148979230Y-88578274D01*
X148905132Y-88457239D01*
X148885878Y-88429281D01*
X148786905Y-88308440D01*
X148675305Y-88206313D01*
X148552311Y-88123759D01*
X148419156Y-88061635D01*
X148277075Y-88020797D01*
X148247467Y-88014837D01*
X148192442Y-88004926D01*
X148159124Y-88001774D01*
X148146778Y-88006154D01*
X148154669Y-88018840D01*
X148182061Y-88040604D01*
X148228221Y-88072222D01*
X148233683Y-88075869D01*
X148360943Y-88168002D01*
X148480795Y-88268158D01*
X148589460Y-88372712D01*
X148683156Y-88478037D01*
X148758103Y-88580507D01*
X148766930Y-88594527D01*
X148806539Y-88665062D01*
X148843489Y-88742344D01*
X148875754Y-88821092D01*
X148901308Y-88896029D01*
X148918125Y-88961875D01*
X148924181Y-89013353D01*
X148922408Y-89044829D01*
X148913871Y-89066317D01*
X148894813Y-89080699D01*
X148886193Y-89084930D01*
X148873559Y-89087569D01*
X148859254Y-89082998D01*
X148839528Y-89068899D01*
X148810630Y-89042955D01*
X148768809Y-89002850D01*
X148735655Y-88971228D01*
X148693157Y-88931965D01*
X148656484Y-88899436D01*
X148631047Y-88878527D01*
X148623658Y-88873470D01*
X148595106Y-88856947D01*
X148556363Y-88836858D01*
X148512594Y-88815600D01*
X148468964Y-88795572D01*
X148430636Y-88779172D01*
X148402775Y-88768797D01*
X148390545Y-88766846D01*
X148390848Y-88768595D01*
X148399411Y-88784918D01*
X148417140Y-88814334D01*
X148441219Y-88852099D01*
X148465749Y-88886514D01*
X148507812Y-88938142D01*
X148557035Y-88992937D01*
X148609143Y-89046539D01*
X148659856Y-89094587D01*
X148704898Y-89132723D01*
X148739990Y-89156588D01*
X148741661Y-89157482D01*
X148769168Y-89175712D01*
X148780114Y-89195408D01*
X148775364Y-89222356D01*
X148755784Y-89262344D01*
X148753515Y-89266425D01*
X148735363Y-89293886D01*
X148717340Y-89305718D01*
X148691602Y-89307429D01*
X148663197Y-89301645D01*
X148617537Y-89285486D01*
X148562201Y-89261588D01*
X148502484Y-89232543D01*
X148443685Y-89200939D01*
X148391101Y-89169367D01*
X148350028Y-89140417D01*
X148319136Y-89114961D01*
X148245936Y-89046450D01*
X148181556Y-88972143D01*
X148124320Y-88889104D01*
X148072550Y-88794399D01*
X148024568Y-88685091D01*
X147978699Y-88558245D01*
X147933264Y-88410925D01*
X147908263Y-88325455D01*
X147882276Y-88240495D01*
X147858625Y-88169019D01*
X147835447Y-88106008D01*
X147810877Y-88046441D01*
X147783053Y-87985297D01*
X147750110Y-87917557D01*
X147731454Y-87879352D01*
X147711791Y-87837339D01*
X147698396Y-87806562D01*
X147693448Y-87791854D01*
X147698818Y-87782059D01*
X147722854Y-87765966D01*
X147761872Y-87749475D01*
X147811130Y-87734880D01*
X147846648Y-87727904D01*
X147899812Y-87720205D01*
X147961267Y-87713130D01*
X148024719Y-87707254D01*
X148083873Y-87703154D01*
X148132435Y-87701405D01*
X148164113Y-87702583D01*
G37*
G36*
X150403680Y-89715311D02*
G01*
X150354124Y-89856553D01*
X150291803Y-89986883D01*
X150214151Y-90112371D01*
X150153759Y-90200037D01*
X150198165Y-90235205D01*
X150199711Y-90236472D01*
X150241461Y-90270695D01*
X150345825Y-90366438D01*
X150420951Y-90447038D01*
X150439611Y-90467058D01*
X150516968Y-90566473D01*
X150535079Y-90586899D01*
X150552559Y-90596690D01*
X150562617Y-90592433D01*
X150560232Y-90573332D01*
X150558503Y-90565343D01*
X150565264Y-90563470D01*
X150576356Y-90561294D01*
X150599765Y-90546399D01*
X150628936Y-90521767D01*
X150681050Y-90472921D01*
X150624238Y-90398798D01*
X150592144Y-90352191D01*
X150562469Y-90301033D01*
X150541714Y-90256500D01*
X150535128Y-90237324D01*
X150519188Y-90149260D01*
X150519739Y-90136208D01*
X150790718Y-90136208D01*
X150806613Y-90189823D01*
X150829766Y-90235757D01*
X150861599Y-90271876D01*
X150907540Y-90300924D01*
X150910002Y-90302160D01*
X150971111Y-90321016D01*
X151031305Y-90319712D01*
X151087365Y-90301097D01*
X151136075Y-90268022D01*
X151174215Y-90223336D01*
X151198567Y-90169888D01*
X151205914Y-90110529D01*
X151193038Y-90048107D01*
X151165751Y-89997516D01*
X151121572Y-89953190D01*
X151068212Y-89925158D01*
X151009860Y-89913568D01*
X150950703Y-89918568D01*
X150894930Y-89940306D01*
X150846729Y-89978930D01*
X150810288Y-90034587D01*
X150792158Y-90087177D01*
X150790718Y-90136208D01*
X150519739Y-90136208D01*
X150523060Y-90057587D01*
X150545079Y-89966278D01*
X150583583Y-89879304D01*
X150636910Y-89800636D01*
X150703396Y-89734244D01*
X150781379Y-89684102D01*
X150811985Y-89670560D01*
X150909869Y-89643386D01*
X151013077Y-89636314D01*
X151116527Y-89649362D01*
X151215138Y-89682549D01*
X151226081Y-89687750D01*
X151306559Y-89739598D01*
X151372222Y-89806504D01*
X151422417Y-89885187D01*
X151456491Y-89972370D01*
X151473791Y-90064771D01*
X151473729Y-90110529D01*
X151473664Y-90159112D01*
X151455457Y-90252114D01*
X151418516Y-90340496D01*
X151362188Y-90420979D01*
X151344779Y-90441250D01*
X151332735Y-90459143D01*
X151333639Y-90470259D01*
X151345810Y-90480735D01*
X151441513Y-90558433D01*
X151517023Y-90643026D01*
X151573899Y-90737096D01*
X151614436Y-90843745D01*
X151625140Y-90897635D01*
X151630347Y-90974618D01*
X151629819Y-90991232D01*
X151627715Y-91057387D01*
X151617586Y-91137210D01*
X151600300Y-91205360D01*
X151576682Y-91272972D01*
X151601309Y-91278405D01*
X151614439Y-91279714D01*
X151649091Y-91281417D01*
X151700913Y-91283135D01*
X151766449Y-91284771D01*
X151842240Y-91286228D01*
X151924827Y-91287412D01*
X151961773Y-91287862D01*
X152045868Y-91289059D01*
X152111226Y-91290485D01*
X152161269Y-91292445D01*
X152199422Y-91295241D01*
X152229108Y-91299180D01*
X152253752Y-91304564D01*
X152276778Y-91311699D01*
X152301608Y-91320887D01*
X152355532Y-91345071D01*
X152444117Y-91401272D01*
X152520982Y-91471474D01*
X152582269Y-91551873D01*
X152624116Y-91638668D01*
X152624318Y-91639252D01*
X152641670Y-91716195D01*
X152645103Y-91795905D01*
X152645287Y-91800180D01*
X152635495Y-91882306D01*
X152612618Y-91953668D01*
X152607486Y-91964239D01*
X152560491Y-92035914D01*
X152499288Y-92097176D01*
X152428450Y-92144856D01*
X152352548Y-92175787D01*
X152276155Y-92186802D01*
X152244437Y-92191979D01*
X152216167Y-92206597D01*
X152199798Y-92226248D01*
X152200940Y-92246480D01*
X152204213Y-92253916D01*
X152195969Y-92252228D01*
X152188731Y-92252442D01*
X152172541Y-92270599D01*
X152151655Y-92310375D01*
X152143092Y-92329770D01*
X152129827Y-92368513D01*
X152125074Y-92406175D01*
X152126753Y-92454813D01*
X152129739Y-92483312D01*
X152137139Y-92520362D01*
X152149866Y-92559837D01*
X152169439Y-92605164D01*
X152171006Y-92608227D01*
X152197376Y-92659771D01*
X152235196Y-92727083D01*
X152284419Y-92810529D01*
X152296785Y-92831381D01*
X152403073Y-93029677D01*
X152455013Y-93150876D01*
X152488014Y-93227882D01*
X152553031Y-93430357D01*
X152582763Y-93565286D01*
X152599550Y-93641468D01*
X152628996Y-93865578D01*
X152631669Y-93898209D01*
X152633342Y-93993010D01*
X152635027Y-94088501D01*
X152623891Y-94225726D01*
X152618972Y-94286345D01*
X152584248Y-94488177D01*
X152573069Y-94531122D01*
X152531598Y-94690433D01*
X152461764Y-94889547D01*
X152417417Y-94988450D01*
X152375489Y-95081956D01*
X152367991Y-95096591D01*
X152338518Y-95150727D01*
X152302493Y-95213344D01*
X152263444Y-95278617D01*
X152224899Y-95340718D01*
X152190389Y-95393820D01*
X152163441Y-95432096D01*
X152148306Y-95453636D01*
X152133916Y-95479527D01*
X152131014Y-95493923D01*
X152132649Y-95497388D01*
X152127425Y-95501282D01*
X152127096Y-95501235D01*
X152115179Y-95509612D01*
X152091877Y-95532558D01*
X152060408Y-95566728D01*
X152023993Y-95608776D01*
X151917409Y-95725641D01*
X151766060Y-95866800D01*
X151600643Y-95997239D01*
X151426226Y-96113031D01*
X151296478Y-96183756D01*
X151247876Y-96210249D01*
X151233393Y-96217293D01*
X151174408Y-96246996D01*
X151131413Y-96271932D01*
X151099914Y-96296077D01*
X151075417Y-96323408D01*
X151053429Y-96357900D01*
X151029456Y-96403530D01*
X150998452Y-96465067D01*
X151372831Y-96465067D01*
X151747210Y-96465067D01*
X151783273Y-96495412D01*
X151809278Y-96524270D01*
X151819336Y-96559327D01*
X151814938Y-96595385D01*
X151796893Y-96636454D01*
X151768183Y-96662340D01*
X151767931Y-96662435D01*
X151752040Y-96663754D01*
X151714095Y-96665008D01*
X151655396Y-96666195D01*
X151577241Y-96667316D01*
X151480929Y-96668370D01*
X151367758Y-96669357D01*
X151239028Y-96670274D01*
X151096036Y-96671124D01*
X150940082Y-96671903D01*
X150772463Y-96672613D01*
X150594480Y-96673252D01*
X150407430Y-96673820D01*
X150212612Y-96674316D01*
X150011325Y-96674740D01*
X149804868Y-96675091D01*
X149594538Y-96675368D01*
X149381636Y-96675572D01*
X149167459Y-96675701D01*
X148953307Y-96675754D01*
X148740477Y-96675733D01*
X148530269Y-96675634D01*
X148323981Y-96675459D01*
X148122912Y-96675207D01*
X147928360Y-96674876D01*
X147741625Y-96674467D01*
X147564005Y-96673979D01*
X147396799Y-96673412D01*
X147241304Y-96672763D01*
X147098821Y-96672034D01*
X146970648Y-96671224D01*
X146858082Y-96670332D01*
X146762424Y-96669357D01*
X146684971Y-96668299D01*
X146627023Y-96667157D01*
X146589878Y-96665931D01*
X146574834Y-96664620D01*
X146557511Y-96655063D01*
X146528982Y-96625426D01*
X146510237Y-96588201D01*
X146506817Y-96552522D01*
X146507723Y-96548859D01*
X146522560Y-96521082D01*
X146547053Y-96494241D01*
X146581725Y-96465067D01*
X146944527Y-96465067D01*
X147307329Y-96465067D01*
X147260274Y-96373672D01*
X147213218Y-96282278D01*
X147191970Y-96271666D01*
X147611399Y-96271666D01*
X147617259Y-96277526D01*
X147623120Y-96271666D01*
X147617259Y-96265805D01*
X147611399Y-96271666D01*
X147191970Y-96271666D01*
X147057740Y-96204625D01*
X147040234Y-96195360D01*
X148097759Y-96195360D01*
X148106166Y-96203172D01*
X148131010Y-96221922D01*
X148167699Y-96247715D01*
X148203320Y-96271666D01*
X148211861Y-96277409D01*
X148318792Y-96347854D01*
X149481565Y-96347854D01*
X149629462Y-96347828D01*
X149809046Y-96347703D01*
X149967343Y-96347460D01*
X150105589Y-96347083D01*
X150225020Y-96346554D01*
X150326872Y-96345858D01*
X150412383Y-96344979D01*
X150482788Y-96343900D01*
X150539323Y-96342604D01*
X150583226Y-96341076D01*
X150615733Y-96339299D01*
X150638079Y-96337256D01*
X150651502Y-96334932D01*
X150657238Y-96332310D01*
X150665968Y-96318584D01*
X150681841Y-96288187D01*
X150699550Y-96250261D01*
X150728962Y-96183756D01*
X149409775Y-96183756D01*
X149228371Y-96183818D01*
X149014670Y-96184079D01*
X148822879Y-96184542D01*
X148653170Y-96185207D01*
X148505711Y-96186071D01*
X148380674Y-96187133D01*
X148278228Y-96188391D01*
X148198543Y-96189845D01*
X148141790Y-96191492D01*
X148108139Y-96193330D01*
X148097759Y-96195360D01*
X147040234Y-96195360D01*
X146943127Y-96143967D01*
X146742177Y-96019254D01*
X146557840Y-95879716D01*
X146391278Y-95726275D01*
X146243655Y-95559852D01*
X146239690Y-95554925D01*
X146213221Y-95524208D01*
X146192537Y-95503765D01*
X146181827Y-95497800D01*
X146178633Y-95498664D01*
X146173311Y-95488755D01*
X146171799Y-95484141D01*
X146159957Y-95461991D01*
X146138280Y-95426059D01*
X146109077Y-95380109D01*
X146074657Y-95327907D01*
X146061511Y-95308255D01*
X146021564Y-95247431D01*
X145989584Y-95195909D01*
X145962198Y-95147492D01*
X145936035Y-95095981D01*
X145907721Y-95035178D01*
X145901609Y-95021396D01*
X147769636Y-95021396D01*
X147769725Y-95057215D01*
X147770714Y-95110640D01*
X147773492Y-95149500D01*
X147778909Y-95179615D01*
X147787812Y-95206805D01*
X147801050Y-95236889D01*
X147831858Y-95290999D01*
X147883272Y-95356755D01*
X147942754Y-95413460D01*
X148003829Y-95454176D01*
X148016861Y-95460439D01*
X148083068Y-95482413D01*
X148150713Y-95490845D01*
X148215280Y-95486415D01*
X148272256Y-95469803D01*
X148292594Y-95457060D01*
X148585517Y-95457060D01*
X148601797Y-95495112D01*
X148639170Y-95525450D01*
X148658421Y-95533823D01*
X148681413Y-95539086D01*
X148703738Y-95530752D01*
X148729936Y-95508862D01*
X148751271Y-95481422D01*
X148760083Y-95456475D01*
X148757157Y-95437314D01*
X148742927Y-95403323D01*
X148721947Y-95373368D01*
X148699938Y-95356918D01*
X148670348Y-95354353D01*
X148631751Y-95366837D01*
X148602463Y-95393273D01*
X148591267Y-95414677D01*
X148585517Y-95457060D01*
X148292594Y-95457060D01*
X148317127Y-95441688D01*
X148345377Y-95402751D01*
X148353287Y-95382364D01*
X148360126Y-95348533D01*
X148351802Y-95321227D01*
X148326836Y-95291575D01*
X148292111Y-95256851D01*
X148245254Y-95280756D01*
X148221644Y-95291300D01*
X148162359Y-95303223D01*
X148106667Y-95292218D01*
X148054177Y-95258156D01*
X148004497Y-95200906D01*
X147988252Y-95176108D01*
X147975871Y-95148370D01*
X147970478Y-95116190D01*
X147969545Y-95070109D01*
X147970192Y-94989975D01*
X147917189Y-94956847D01*
X147900777Y-94946208D01*
X147859624Y-94917108D01*
X147825308Y-94889926D01*
X147813996Y-94880733D01*
X147791020Y-94866350D01*
X147778033Y-94864530D01*
X147777666Y-94865037D01*
X147774534Y-94881613D01*
X147771982Y-94916362D01*
X147770265Y-94964539D01*
X147769636Y-95021396D01*
X145901609Y-95021396D01*
X145873885Y-94958883D01*
X145799820Y-94769860D01*
X145734755Y-94547128D01*
X145731318Y-94528650D01*
X146939503Y-94528650D01*
X146985349Y-94552331D01*
X147007117Y-94564442D01*
X147048864Y-94590204D01*
X147089802Y-94617858D01*
X147114396Y-94636928D01*
X147155604Y-94672078D01*
X147202194Y-94714347D01*
X147248039Y-94758297D01*
X147347670Y-94856890D01*
X147434505Y-94775314D01*
X147456926Y-94754813D01*
X147499259Y-94718719D01*
X147537318Y-94689309D01*
X147564924Y-94671502D01*
X147595628Y-94653393D01*
X147612327Y-94633699D01*
X147617514Y-94605576D01*
X147614456Y-94561785D01*
X147610993Y-94538359D01*
X147601752Y-94511318D01*
X147583276Y-94486922D01*
X147550623Y-94457064D01*
X147523502Y-94432455D01*
X147480138Y-94388998D01*
X147442369Y-94346910D01*
X147441634Y-94346027D01*
X147415132Y-94316851D01*
X147410928Y-94313166D01*
X147778544Y-94313166D01*
X147785657Y-94404909D01*
X147786605Y-94409869D01*
X147813020Y-94497239D01*
X147855382Y-94580967D01*
X147873156Y-94605576D01*
X147910366Y-94657096D01*
X147974646Y-94721667D01*
X148044899Y-94770722D01*
X148117799Y-94800302D01*
X148128398Y-94802963D01*
X148173667Y-94813075D01*
X148204913Y-94816381D01*
X148229175Y-94813027D01*
X148253491Y-94803164D01*
X148285568Y-94778561D01*
X148301381Y-94741507D01*
X148295601Y-94696542D01*
X148293466Y-94691327D01*
X148278642Y-94672365D01*
X148250318Y-94654143D01*
X148203867Y-94633480D01*
X148182081Y-94624462D01*
X148120973Y-94594478D01*
X148075801Y-94562005D01*
X148040978Y-94522330D01*
X148010919Y-94470741D01*
X147989220Y-94421635D01*
X147977899Y-94377154D01*
X147975506Y-94337491D01*
X148385003Y-94337491D01*
X148385712Y-94340817D01*
X148396991Y-94362186D01*
X148420161Y-94397283D01*
X148452837Y-94442844D01*
X148492633Y-94495607D01*
X148537162Y-94552307D01*
X148584038Y-94609683D01*
X148616554Y-94651485D01*
X148635177Y-94683548D01*
X148637902Y-94704065D01*
X148633478Y-94712612D01*
X148616307Y-94738793D01*
X148588916Y-94777421D01*
X148553910Y-94824852D01*
X148513896Y-94877445D01*
X148506854Y-94886590D01*
X148459222Y-94950228D01*
X148426042Y-94998920D01*
X148406284Y-95034925D01*
X148398917Y-95060501D01*
X148402911Y-95077909D01*
X148417236Y-95089405D01*
X148417724Y-95089619D01*
X148436853Y-95093033D01*
X148475155Y-95096566D01*
X148528627Y-95099961D01*
X148593263Y-95102962D01*
X148665060Y-95105311D01*
X148892371Y-95111259D01*
X148981534Y-95287722D01*
X149002125Y-95328059D01*
X149012837Y-95348533D01*
X149033128Y-95387316D01*
X149061042Y-95438981D01*
X149070934Y-95456475D01*
X149083433Y-95478578D01*
X149097868Y-95501635D01*
X149102911Y-95508129D01*
X149126324Y-95530182D01*
X149146885Y-95539086D01*
X149150171Y-95538606D01*
X149167076Y-95528992D01*
X149186547Y-95511399D01*
X149203469Y-95491610D01*
X149212731Y-95475409D01*
X149209220Y-95468579D01*
X149206500Y-95467075D01*
X149210836Y-95462790D01*
X149540297Y-95462790D01*
X149554417Y-95501349D01*
X149581410Y-95527813D01*
X149588749Y-95531218D01*
X149629461Y-95536806D01*
X149670022Y-95525291D01*
X149700536Y-95499063D01*
X149705919Y-95488256D01*
X149709980Y-95452107D01*
X149701009Y-95412667D01*
X149680736Y-95380316D01*
X149647344Y-95358534D01*
X149936002Y-95358534D01*
X149937166Y-95385424D01*
X149944630Y-95402391D01*
X149957808Y-95402960D01*
X149963194Y-95400446D01*
X149964098Y-95405970D01*
X149962705Y-95408532D01*
X149963494Y-95425390D01*
X149982770Y-95444225D01*
X149996438Y-95452107D01*
X150022584Y-95467184D01*
X150088796Y-95489023D01*
X150165292Y-95490754D01*
X150247596Y-95470910D01*
X150334383Y-95429650D01*
X150381289Y-95395332D01*
X150437953Y-95332426D01*
X150484180Y-95255517D01*
X150518201Y-95169373D01*
X150538253Y-95078761D01*
X150542567Y-94988450D01*
X150529379Y-94903207D01*
X150523549Y-94884186D01*
X150512187Y-94863548D01*
X150497696Y-94864086D01*
X150476136Y-94884408D01*
X150461586Y-94898216D01*
X150430237Y-94922993D01*
X150393576Y-94948401D01*
X150333344Y-94987237D01*
X150330055Y-95052379D01*
X150328945Y-95074364D01*
X150327412Y-95099110D01*
X150321793Y-95142872D01*
X150311443Y-95175146D01*
X150294140Y-95204226D01*
X150278501Y-95224910D01*
X150229786Y-95272826D01*
X150178454Y-95298042D01*
X150122851Y-95301116D01*
X150061324Y-95282603D01*
X150034630Y-95272047D01*
X149998552Y-95266545D01*
X149971837Y-95278710D01*
X149949370Y-95309784D01*
X149941726Y-95328197D01*
X149936002Y-95358534D01*
X149647344Y-95358534D01*
X149643392Y-95355956D01*
X149605296Y-95353325D01*
X149571170Y-95371572D01*
X149545594Y-95409704D01*
X149541792Y-95421184D01*
X149540297Y-95462790D01*
X149210836Y-95462790D01*
X149215060Y-95458616D01*
X149220455Y-95452463D01*
X149236200Y-95427860D01*
X149258838Y-95388398D01*
X149286224Y-95337864D01*
X149316211Y-95280046D01*
X149401934Y-95111259D01*
X149636007Y-95105399D01*
X149651676Y-95104997D01*
X149735977Y-95102294D01*
X149799950Y-95098855D01*
X149846277Y-95094159D01*
X149877640Y-95087685D01*
X149896721Y-95078911D01*
X149906204Y-95067316D01*
X149908768Y-95052379D01*
X149908728Y-95051702D01*
X149900657Y-95033621D01*
X149880593Y-95001877D01*
X149851472Y-94960412D01*
X149816232Y-94913170D01*
X149777807Y-94864095D01*
X149739136Y-94817130D01*
X149703153Y-94776220D01*
X149693196Y-94763553D01*
X149686064Y-94747840D01*
X149681956Y-94737192D01*
X149667277Y-94717265D01*
X149662381Y-94711396D01*
X149657644Y-94699677D01*
X149661894Y-94684560D01*
X149677135Y-94661173D01*
X149705371Y-94624643D01*
X149752573Y-94564605D01*
X149810495Y-94489270D01*
X149854282Y-94429827D01*
X149884685Y-94385207D01*
X149902456Y-94354342D01*
X149908350Y-94336160D01*
X149908167Y-94327378D01*
X149904405Y-94311243D01*
X149893764Y-94298990D01*
X149873484Y-94289967D01*
X149840803Y-94283525D01*
X149792962Y-94279014D01*
X149727199Y-94275785D01*
X149640755Y-94273188D01*
X149411450Y-94267328D01*
X149396511Y-94238025D01*
X149389705Y-94224391D01*
X149373282Y-94191045D01*
X149350196Y-94143913D01*
X149322472Y-94087134D01*
X149292136Y-94024843D01*
X149268477Y-93977201D01*
X149238485Y-93919568D01*
X149543954Y-93919568D01*
X149550571Y-93958102D01*
X149576293Y-93991027D01*
X149613864Y-94010157D01*
X149653328Y-94009841D01*
X149686940Y-93989224D01*
X149695686Y-93974177D01*
X149944348Y-93974177D01*
X149949234Y-94016549D01*
X149969585Y-94050028D01*
X149975600Y-94055417D01*
X150000182Y-94070462D01*
X150027850Y-94071862D01*
X150067191Y-94060542D01*
X150111113Y-94051830D01*
X150165269Y-94059698D01*
X150215522Y-94086002D01*
X150259134Y-94127961D01*
X150293368Y-94182796D01*
X150315483Y-94247726D01*
X150322743Y-94319972D01*
X150318382Y-94373811D01*
X150294764Y-94457397D01*
X150251619Y-94528731D01*
X150189949Y-94586352D01*
X150110758Y-94628801D01*
X150067188Y-94647783D01*
X150033267Y-94668840D01*
X150015976Y-94690208D01*
X150004222Y-94725357D01*
X150008453Y-94754235D01*
X150031309Y-94783597D01*
X150047471Y-94797348D01*
X150075583Y-94809051D01*
X150116288Y-94811939D01*
X150149141Y-94809164D01*
X150220298Y-94787584D01*
X150291009Y-94746812D01*
X150357973Y-94689449D01*
X150417888Y-94618097D01*
X150434695Y-94590039D01*
X150687212Y-94590039D01*
X150691432Y-94625506D01*
X150710064Y-94652795D01*
X150747091Y-94679482D01*
X150787638Y-94705908D01*
X150841542Y-94746438D01*
X150886677Y-94786544D01*
X150916962Y-94821158D01*
X150922551Y-94828985D01*
X150939956Y-94849907D01*
X150950542Y-94857384D01*
X150950546Y-94857384D01*
X150961245Y-94848836D01*
X150984967Y-94826977D01*
X151018204Y-94795111D01*
X151057453Y-94756544D01*
X151087515Y-94727804D01*
X151138091Y-94683174D01*
X151190822Y-94640252D01*
X151241851Y-94601893D01*
X151287317Y-94570956D01*
X151323363Y-94550299D01*
X151346128Y-94542778D01*
X151357773Y-94541038D01*
X151360743Y-94531122D01*
X151344219Y-94513777D01*
X151309296Y-94490555D01*
X151288730Y-94479655D01*
X151259934Y-94468614D01*
X151243018Y-94467810D01*
X151237084Y-94470483D01*
X151237324Y-94463655D01*
X151236949Y-94457542D01*
X151222653Y-94441193D01*
X151195181Y-94421954D01*
X151178552Y-94411173D01*
X151140953Y-94383486D01*
X151096483Y-94347964D01*
X151051592Y-94309650D01*
X151020747Y-94282616D01*
X150986814Y-94253625D01*
X150962597Y-94233840D01*
X150952503Y-94226861D01*
X151420813Y-94226861D01*
X151429025Y-94244182D01*
X151451628Y-94270533D01*
X151483352Y-94300767D01*
X151518918Y-94330212D01*
X151553044Y-94354197D01*
X151580448Y-94368051D01*
X151597133Y-94371638D01*
X151636157Y-94376163D01*
X151690318Y-94380079D01*
X151756109Y-94383345D01*
X151830028Y-94385919D01*
X151908567Y-94387759D01*
X151988223Y-94388823D01*
X152065490Y-94389069D01*
X152136864Y-94388455D01*
X152198840Y-94386940D01*
X152247912Y-94384481D01*
X152280576Y-94381037D01*
X152293327Y-94376566D01*
X152294101Y-94374032D01*
X152300122Y-94349599D01*
X152307749Y-94314057D01*
X152315289Y-94275902D01*
X152321054Y-94243627D01*
X152323351Y-94225726D01*
X152318158Y-94223740D01*
X152291760Y-94221088D01*
X152244291Y-94218839D01*
X152177170Y-94217029D01*
X152091816Y-94215693D01*
X151989647Y-94214866D01*
X151872082Y-94214582D01*
X151811111Y-94214638D01*
X151690210Y-94215179D01*
X151592175Y-94216305D01*
X151516612Y-94218025D01*
X151463127Y-94220351D01*
X151431326Y-94223293D01*
X151420813Y-94226861D01*
X150952503Y-94226861D01*
X150951962Y-94226487D01*
X150946427Y-94231364D01*
X150931283Y-94251345D01*
X150911241Y-94281520D01*
X150898342Y-94299927D01*
X150886330Y-94314836D01*
X150867053Y-94338762D01*
X150827688Y-94383235D01*
X150785804Y-94426907D01*
X150748962Y-94464296D01*
X150720409Y-94496117D01*
X150703055Y-94521009D01*
X150693663Y-94543722D01*
X150688999Y-94569005D01*
X150687212Y-94590039D01*
X150434695Y-94590039D01*
X150467451Y-94535355D01*
X150479781Y-94510181D01*
X150495390Y-94475390D01*
X150505010Y-94445562D01*
X150510088Y-94413594D01*
X150512074Y-94372385D01*
X150512414Y-94314836D01*
X150512391Y-94296598D01*
X150511584Y-94243362D01*
X150508710Y-94204832D01*
X150502538Y-94174169D01*
X150491837Y-94144535D01*
X150475376Y-94109091D01*
X150431096Y-94033517D01*
X150367853Y-93960691D01*
X150312257Y-93920102D01*
X150711822Y-93920102D01*
X150714549Y-93965101D01*
X150737848Y-94006529D01*
X150760992Y-94020735D01*
X150793724Y-94027042D01*
X150823536Y-94022059D01*
X150853583Y-94000643D01*
X150880777Y-93959202D01*
X150888436Y-93924343D01*
X150878153Y-93890322D01*
X150854344Y-93862282D01*
X150822001Y-93844270D01*
X150786117Y-93840335D01*
X150751684Y-93854526D01*
X150729079Y-93878005D01*
X150711822Y-93920102D01*
X150312257Y-93920102D01*
X150294567Y-93907187D01*
X150212948Y-93874205D01*
X150124705Y-93862944D01*
X150078111Y-93867185D01*
X150025319Y-93881957D01*
X149982387Y-93904667D01*
X149975715Y-93911727D01*
X149956045Y-93932539D01*
X149956038Y-93932553D01*
X149944348Y-93974177D01*
X149695686Y-93974177D01*
X149709853Y-93949802D01*
X149715849Y-93911727D01*
X149702993Y-93875602D01*
X149668001Y-93843968D01*
X149655237Y-93836403D01*
X149632354Y-93831200D01*
X149603498Y-93839715D01*
X149583541Y-93850645D01*
X149555318Y-93881668D01*
X149543954Y-93919568D01*
X149238485Y-93919568D01*
X149238286Y-93919185D01*
X149211226Y-93870176D01*
X149189564Y-93834249D01*
X149178188Y-93818989D01*
X151127974Y-93818989D01*
X151136843Y-93852303D01*
X151161849Y-93891787D01*
X151193411Y-93924343D01*
X151197713Y-93928780D01*
X151239133Y-93956714D01*
X151297739Y-93986017D01*
X151816406Y-93989514D01*
X152335072Y-93993010D01*
X152334912Y-93925047D01*
X152334282Y-93896318D01*
X152331646Y-93856972D01*
X152327684Y-93830710D01*
X152320617Y-93804337D01*
X151724199Y-93804337D01*
X151671197Y-93804352D01*
X151540349Y-93804552D01*
X151430798Y-93805018D01*
X151340968Y-93805790D01*
X151269285Y-93806905D01*
X151214176Y-93808402D01*
X151174064Y-93810321D01*
X151147376Y-93812699D01*
X151132537Y-93815575D01*
X151127974Y-93818989D01*
X149178188Y-93818989D01*
X149175571Y-93815479D01*
X149148443Y-93789993D01*
X149121795Y-93816641D01*
X149117958Y-93820478D01*
X149116178Y-93822408D01*
X149100067Y-93845584D01*
X149076709Y-93885094D01*
X149053300Y-93927612D01*
X149048311Y-93936673D01*
X149017079Y-93996059D01*
X148985220Y-94058985D01*
X148954939Y-94121188D01*
X148928445Y-94178403D01*
X148907942Y-94226367D01*
X148889207Y-94273188D01*
X148667989Y-94273188D01*
X148593503Y-94273331D01*
X148534671Y-94274009D01*
X148492301Y-94275565D01*
X148462815Y-94278346D01*
X148442636Y-94282696D01*
X148428185Y-94288960D01*
X148415887Y-94297482D01*
X148414153Y-94298870D01*
X148393507Y-94319998D01*
X148385003Y-94337491D01*
X147975506Y-94337491D01*
X147974873Y-94326992D01*
X147975612Y-94305719D01*
X147988085Y-94235660D01*
X148013886Y-94172481D01*
X148050318Y-94119497D01*
X148094686Y-94080017D01*
X148144292Y-94057356D01*
X148196440Y-94054824D01*
X148197236Y-94054956D01*
X148235721Y-94061923D01*
X148269573Y-94068980D01*
X148287949Y-94070302D01*
X148319258Y-94057506D01*
X148341425Y-94028454D01*
X148349839Y-93987811D01*
X148347200Y-93964276D01*
X148329750Y-93929164D01*
X148584264Y-93929164D01*
X148585304Y-93946525D01*
X148595696Y-93971107D01*
X148617006Y-93987811D01*
X148622358Y-93992006D01*
X148644825Y-94005514D01*
X148663206Y-94012864D01*
X148679776Y-94009703D01*
X148704947Y-93996612D01*
X148708016Y-93994894D01*
X148740921Y-93965050D01*
X148752757Y-93927612D01*
X148742341Y-93886075D01*
X148739508Y-93880843D01*
X148710121Y-93845516D01*
X148675535Y-93829436D01*
X148640197Y-93833515D01*
X148608558Y-93858664D01*
X148592186Y-93889503D01*
X148584264Y-93929164D01*
X148329750Y-93929164D01*
X148326463Y-93922551D01*
X148287269Y-93890595D01*
X148232209Y-93870146D01*
X148163872Y-93862944D01*
X148121650Y-93866132D01*
X148044960Y-93888418D01*
X147974062Y-93929483D01*
X147955309Y-93946405D01*
X147911014Y-93986375D01*
X147857879Y-94056142D01*
X147816715Y-94135830D01*
X147790225Y-94220443D01*
X147789584Y-94222489D01*
X147778544Y-94313166D01*
X147410928Y-94313166D01*
X147393889Y-94298232D01*
X147382445Y-94294164D01*
X147379018Y-94296491D01*
X147380892Y-94289061D01*
X147379860Y-94271708D01*
X147366379Y-94248226D01*
X147344188Y-94220823D01*
X147268223Y-94294982D01*
X147202540Y-94354826D01*
X147110052Y-94425362D01*
X147002931Y-94492286D01*
X146939503Y-94528650D01*
X145731318Y-94528650D01*
X145702802Y-94375327D01*
X146434133Y-94375327D01*
X146436350Y-94383303D01*
X146449364Y-94387640D01*
X146477383Y-94389244D01*
X146524618Y-94389022D01*
X146537264Y-94388794D01*
X146633821Y-94382912D01*
X146711422Y-94369205D01*
X146773245Y-94346554D01*
X146822467Y-94313839D01*
X146862263Y-94269940D01*
X146898138Y-94220443D01*
X146724896Y-94217185D01*
X146697567Y-94216737D01*
X146638387Y-94216249D01*
X146589118Y-94216498D01*
X146554268Y-94217442D01*
X146538344Y-94219035D01*
X146531588Y-94224397D01*
X146513612Y-94245753D01*
X146490759Y-94277262D01*
X146467304Y-94312643D01*
X146447522Y-94345612D01*
X146435687Y-94369889D01*
X146434133Y-94375327D01*
X145702802Y-94375327D01*
X145692969Y-94322459D01*
X145674391Y-94095450D01*
X145676445Y-93991878D01*
X146168857Y-93991878D01*
X146564863Y-93991495D01*
X146652625Y-93991343D01*
X146745041Y-93990908D01*
X146818858Y-93990083D01*
X146876783Y-93988738D01*
X146921524Y-93986745D01*
X146955790Y-93983975D01*
X146982287Y-93980300D01*
X147003723Y-93975590D01*
X147022807Y-93969717D01*
X147046177Y-93960541D01*
X147059858Y-93953626D01*
X147415131Y-93953626D01*
X147436430Y-93996158D01*
X147451766Y-94011114D01*
X147489091Y-94026703D01*
X147529171Y-94023570D01*
X147564057Y-94001389D01*
X147574778Y-93988028D01*
X147590779Y-93946405D01*
X147584904Y-93904019D01*
X147557397Y-93865874D01*
X147555472Y-93864174D01*
X147517670Y-93842823D01*
X147480270Y-93844896D01*
X147443039Y-93870403D01*
X147441613Y-93871849D01*
X147416904Y-93911336D01*
X147415131Y-93953626D01*
X147059858Y-93953626D01*
X147086080Y-93940372D01*
X147114761Y-93920285D01*
X147125224Y-93909663D01*
X147150915Y-93876652D01*
X147170145Y-93842789D01*
X147177712Y-93816641D01*
X147170768Y-93814468D01*
X147143394Y-93811974D01*
X147098171Y-93809802D01*
X147038234Y-93807966D01*
X146966716Y-93806477D01*
X146886754Y-93805347D01*
X146801481Y-93804588D01*
X146714033Y-93804212D01*
X146627544Y-93804231D01*
X146545150Y-93804656D01*
X146469985Y-93805501D01*
X146405185Y-93806777D01*
X146353883Y-93808495D01*
X146319215Y-93810668D01*
X146304315Y-93813308D01*
X146297685Y-93819171D01*
X146276553Y-93842149D01*
X146249387Y-93874656D01*
X146221289Y-93910308D01*
X146197361Y-93942720D01*
X146182705Y-93965505D01*
X146168857Y-93991878D01*
X145676445Y-93991878D01*
X145678948Y-93865700D01*
X145681714Y-93827819D01*
X145690565Y-93730243D01*
X145701821Y-93643681D01*
X145714314Y-93575190D01*
X146204846Y-93575190D01*
X146210516Y-93575585D01*
X146237881Y-93576139D01*
X146287031Y-93576678D01*
X146356993Y-93577200D01*
X146446790Y-93577704D01*
X146555448Y-93578187D01*
X146681991Y-93578647D01*
X146825445Y-93579082D01*
X146984834Y-93579491D01*
X147159184Y-93579870D01*
X147347519Y-93580218D01*
X147548864Y-93580533D01*
X147762244Y-93580812D01*
X147986684Y-93581054D01*
X148221209Y-93581257D01*
X148464843Y-93581419D01*
X148716613Y-93581536D01*
X148975542Y-93581609D01*
X149240656Y-93581633D01*
X149375669Y-93581631D01*
X149686339Y-93581605D01*
X149974685Y-93581547D01*
X150241501Y-93581451D01*
X150487579Y-93581316D01*
X150713710Y-93581134D01*
X150920688Y-93580904D01*
X151109303Y-93580620D01*
X151280350Y-93580277D01*
X151434619Y-93579873D01*
X151572903Y-93579402D01*
X151695995Y-93578860D01*
X151804687Y-93578243D01*
X151899770Y-93577547D01*
X151982038Y-93576768D01*
X152052282Y-93575900D01*
X152111296Y-93574940D01*
X152159870Y-93573885D01*
X152198797Y-93572728D01*
X152228871Y-93571466D01*
X152250882Y-93570096D01*
X152265623Y-93568612D01*
X152273887Y-93567010D01*
X152276466Y-93565286D01*
X152273234Y-93546644D01*
X152264637Y-93512897D01*
X152252552Y-93471516D01*
X152228639Y-93394093D01*
X149270318Y-93394093D01*
X146311998Y-93394093D01*
X146275992Y-93447444D01*
X146250431Y-93487033D01*
X146227186Y-93526418D01*
X146210951Y-93557671D01*
X146204846Y-93575190D01*
X145714314Y-93575190D01*
X145716793Y-93561600D01*
X145736794Y-93477462D01*
X145763135Y-93384734D01*
X145797127Y-93276880D01*
X145802907Y-93259500D01*
X145848357Y-93140672D01*
X146405151Y-93140672D01*
X146405187Y-93142724D01*
X146408211Y-93144623D01*
X146415074Y-93146376D01*
X146426631Y-93147988D01*
X146443732Y-93149464D01*
X146467230Y-93150812D01*
X146497978Y-93152036D01*
X146536827Y-93153143D01*
X146584630Y-93154138D01*
X146642239Y-93155027D01*
X146710507Y-93155817D01*
X146790285Y-93156512D01*
X146882427Y-93157120D01*
X146987783Y-93157645D01*
X147107207Y-93158093D01*
X147241551Y-93158472D01*
X147391667Y-93158785D01*
X147558408Y-93159040D01*
X147742625Y-93159241D01*
X147945170Y-93159396D01*
X148166898Y-93159509D01*
X148408658Y-93159587D01*
X148671304Y-93159636D01*
X148955689Y-93159660D01*
X149262663Y-93159667D01*
X149312415Y-93159666D01*
X149569134Y-93159617D01*
X149819447Y-93159501D01*
X150062352Y-93159319D01*
X150296847Y-93159075D01*
X150521930Y-93158772D01*
X150736599Y-93158414D01*
X150939852Y-93158003D01*
X151130685Y-93157542D01*
X151308098Y-93157035D01*
X151471088Y-93156484D01*
X151618653Y-93155892D01*
X151749791Y-93155263D01*
X151863499Y-93154600D01*
X151958776Y-93153906D01*
X152034618Y-93153183D01*
X152090025Y-93152435D01*
X152123993Y-93151665D01*
X152135521Y-93150876D01*
X152135123Y-93149107D01*
X152127221Y-93131059D01*
X152111299Y-93099523D01*
X152090124Y-93060037D01*
X152045015Y-92977988D01*
X149312496Y-92975033D01*
X149305283Y-92975025D01*
X149006873Y-92974709D01*
X148730995Y-92974434D01*
X148476760Y-92974206D01*
X148243279Y-92974031D01*
X148029660Y-92973915D01*
X147835016Y-92973863D01*
X147658456Y-92973881D01*
X147499091Y-92973974D01*
X147356032Y-92974148D01*
X147228388Y-92974409D01*
X147115270Y-92974763D01*
X147015789Y-92975215D01*
X146929055Y-92975771D01*
X146854178Y-92976437D01*
X146790269Y-92977217D01*
X146736439Y-92978119D01*
X146691797Y-92979147D01*
X146655454Y-92980308D01*
X146626521Y-92981607D01*
X146604108Y-92983049D01*
X146587326Y-92984641D01*
X146575284Y-92986387D01*
X146567094Y-92988295D01*
X146561865Y-92990369D01*
X146558709Y-92992614D01*
X146541973Y-93008508D01*
X146512864Y-93035793D01*
X146479566Y-93066760D01*
X146450162Y-93094568D01*
X146422365Y-93122031D01*
X146405603Y-93140018D01*
X146405151Y-93140672D01*
X145848357Y-93140672D01*
X145850512Y-93135039D01*
X145911101Y-93001888D01*
X145981422Y-92866779D01*
X146058220Y-92736447D01*
X146074263Y-92709541D01*
X146104449Y-92652749D01*
X146130052Y-92598378D01*
X147025335Y-92598378D01*
X147031337Y-92600908D01*
X147057890Y-92603267D01*
X147102271Y-92605296D01*
X147161643Y-92606895D01*
X147233166Y-92607966D01*
X147314001Y-92608411D01*
X147344337Y-92608432D01*
X147432827Y-92608236D01*
X147501278Y-92607519D01*
X147552315Y-92606140D01*
X147588564Y-92603959D01*
X147610409Y-92601124D01*
X147845824Y-92601124D01*
X147846887Y-92601591D01*
X147865452Y-92602585D01*
X147904718Y-92603545D01*
X147962812Y-92604456D01*
X148037860Y-92605301D01*
X148127990Y-92606062D01*
X148231326Y-92606723D01*
X148345997Y-92607266D01*
X148470128Y-92607676D01*
X148601846Y-92607935D01*
X148733733Y-92608126D01*
X148891804Y-92608389D01*
X149065814Y-92608707D01*
X149251915Y-92609072D01*
X149446258Y-92609476D01*
X149644995Y-92609911D01*
X149844279Y-92610368D01*
X150040260Y-92610839D01*
X150229090Y-92611316D01*
X150406922Y-92611790D01*
X150510964Y-92612058D01*
X150668632Y-92612393D01*
X150822238Y-92612637D01*
X150969628Y-92612793D01*
X151108650Y-92612859D01*
X151237149Y-92612838D01*
X151352974Y-92612728D01*
X151453969Y-92612532D01*
X151537982Y-92612249D01*
X151602859Y-92611881D01*
X151646447Y-92611427D01*
X151854500Y-92608227D01*
X151854340Y-92552821D01*
X151854056Y-92537546D01*
X151851474Y-92498873D01*
X151847112Y-92471043D01*
X151840044Y-92444670D01*
X150166805Y-92444670D01*
X150011648Y-92444680D01*
X149790933Y-92444741D01*
X149591732Y-92444867D01*
X149412873Y-92445071D01*
X149253187Y-92445364D01*
X149111504Y-92445758D01*
X148986652Y-92446264D01*
X148877462Y-92446896D01*
X148782763Y-92447664D01*
X148701385Y-92448580D01*
X148632157Y-92449657D01*
X148573910Y-92450906D01*
X148536965Y-92451999D01*
X148525472Y-92452339D01*
X148485674Y-92453967D01*
X148453345Y-92455804D01*
X148427314Y-92457860D01*
X148406412Y-92460148D01*
X148389468Y-92462678D01*
X148386969Y-92463114D01*
X148339995Y-92472183D01*
X148280555Y-92484859D01*
X148213069Y-92500070D01*
X148141960Y-92516745D01*
X148100869Y-92526719D01*
X148071651Y-92533811D01*
X148006563Y-92550196D01*
X147951119Y-92564828D01*
X147909740Y-92576634D01*
X147891428Y-92582961D01*
X147886849Y-92584543D01*
X147871077Y-92591422D01*
X147845824Y-92601124D01*
X147610409Y-92601124D01*
X147612651Y-92600833D01*
X147627201Y-92596622D01*
X147634841Y-92591186D01*
X147639820Y-92582961D01*
X147635020Y-92576743D01*
X147614636Y-92573458D01*
X147574740Y-92571843D01*
X147559849Y-92571486D01*
X147527506Y-92570426D01*
X147516575Y-92568937D01*
X147525517Y-92566323D01*
X147552792Y-92561882D01*
X147569815Y-92558995D01*
X147589553Y-92554469D01*
X147590886Y-92551922D01*
X147588829Y-92551342D01*
X147579586Y-92535545D01*
X147578715Y-92526719D01*
X147599677Y-92526719D01*
X147600018Y-92529520D01*
X147611399Y-92538440D01*
X147614200Y-92538099D01*
X147623120Y-92526719D01*
X147622779Y-92523917D01*
X147611399Y-92514997D01*
X147608597Y-92515338D01*
X147599677Y-92526719D01*
X147578715Y-92526719D01*
X147576235Y-92501606D01*
X147576235Y-92453051D01*
X147508837Y-92460190D01*
X147483505Y-92463507D01*
X147432147Y-92472966D01*
X147388694Y-92484066D01*
X147388168Y-92484233D01*
X147349521Y-92496082D01*
X147299230Y-92510980D01*
X147248039Y-92525744D01*
X147239472Y-92528181D01*
X147162203Y-92550855D01*
X147098779Y-92570758D01*
X147052168Y-92586921D01*
X147025335Y-92598378D01*
X146130052Y-92598378D01*
X146132722Y-92592707D01*
X146155555Y-92537113D01*
X146169425Y-92493662D01*
X146175639Y-92449170D01*
X147607200Y-92449170D01*
X147608963Y-92452839D01*
X147628981Y-92454106D01*
X147632620Y-92454029D01*
X147648189Y-92451999D01*
X147643409Y-92448268D01*
X147631514Y-92446384D01*
X147608245Y-92448703D01*
X147607200Y-92449170D01*
X146175639Y-92449170D01*
X146178414Y-92429305D01*
X146170201Y-92360046D01*
X146140810Y-92290473D01*
X146113965Y-92247400D01*
X146081967Y-92212707D01*
X146045078Y-92193035D01*
X145997582Y-92184139D01*
X145931056Y-92170636D01*
X145853258Y-92135470D01*
X145783094Y-92082957D01*
X145724056Y-92016437D01*
X145679635Y-91939253D01*
X145653323Y-91854743D01*
X145651439Y-91843553D01*
X145649756Y-91782985D01*
X145917675Y-91782985D01*
X145919298Y-91819448D01*
X145924916Y-91853853D01*
X145933221Y-91874198D01*
X145942818Y-91877373D01*
X145952312Y-91860266D01*
X145954942Y-91854122D01*
X145975869Y-91827344D01*
X146009924Y-91797159D01*
X146050774Y-91768698D01*
X146092083Y-91747088D01*
X146106581Y-91745267D01*
X146143666Y-91743413D01*
X146201866Y-91741660D01*
X146279976Y-91740008D01*
X146376792Y-91738456D01*
X146491111Y-91737006D01*
X146621726Y-91735657D01*
X146767435Y-91734409D01*
X146927034Y-91733263D01*
X147099317Y-91732218D01*
X147283081Y-91731275D01*
X147477121Y-91730433D01*
X147680233Y-91729693D01*
X147891214Y-91729056D01*
X148108858Y-91728520D01*
X148331962Y-91728087D01*
X148559321Y-91727755D01*
X148789731Y-91727526D01*
X149021987Y-91727400D01*
X149254886Y-91727376D01*
X149487224Y-91727455D01*
X149717795Y-91727636D01*
X149945396Y-91727921D01*
X150168823Y-91728308D01*
X150386871Y-91728799D01*
X150598336Y-91729393D01*
X150802014Y-91730090D01*
X150996701Y-91730890D01*
X151181192Y-91731795D01*
X151354282Y-91732802D01*
X151514769Y-91733914D01*
X151661448Y-91735129D01*
X151793114Y-91736448D01*
X151908562Y-91737871D01*
X152006590Y-91739399D01*
X152085993Y-91741030D01*
X152145566Y-91742766D01*
X152184105Y-91744607D01*
X152200406Y-91746552D01*
X152225987Y-91760763D01*
X152262977Y-91787277D01*
X152299841Y-91818653D01*
X152301449Y-91820152D01*
X152331469Y-91846246D01*
X152354592Y-91862989D01*
X152365930Y-91866819D01*
X152368203Y-91862563D01*
X152373943Y-91840017D01*
X152378973Y-91806633D01*
X152379913Y-91795905D01*
X152373022Y-91727996D01*
X152344806Y-91665644D01*
X152297001Y-91611645D01*
X152231340Y-91568794D01*
X152165113Y-91536271D01*
X151373927Y-91530410D01*
X150582742Y-91524550D01*
X150575936Y-91360452D01*
X150573419Y-91311129D01*
X150563378Y-91202970D01*
X150546734Y-91108060D01*
X150522071Y-91019475D01*
X150487972Y-90930291D01*
X150486856Y-90927700D01*
X150461685Y-90874743D01*
X150430748Y-90817095D01*
X150730968Y-90817095D01*
X150747236Y-90867300D01*
X150765215Y-90910330D01*
X150812194Y-90870118D01*
X150873322Y-90830289D01*
X150942722Y-90809488D01*
X151014040Y-90810769D01*
X151083939Y-90834568D01*
X151108807Y-90851723D01*
X151139415Y-90890599D01*
X151157515Y-90938234D01*
X151162805Y-90989118D01*
X151154985Y-91037741D01*
X151133752Y-91078592D01*
X151098805Y-91106163D01*
X151096393Y-91107235D01*
X151048354Y-91119202D01*
X151002180Y-91115418D01*
X150966129Y-91096487D01*
X150940713Y-91072808D01*
X150917034Y-91096487D01*
X150915640Y-91097912D01*
X150895002Y-91134289D01*
X150893757Y-91175713D01*
X150910128Y-91217537D01*
X150942339Y-91255111D01*
X150988613Y-91283786D01*
X151009790Y-91292296D01*
X151060287Y-91305010D01*
X151108605Y-91302627D01*
X151164868Y-91285230D01*
X151202771Y-91268903D01*
X151253272Y-91238064D01*
X151292313Y-91197745D01*
X151327437Y-91141266D01*
X151339578Y-91117768D01*
X151356723Y-91076875D01*
X151364793Y-91038475D01*
X151366761Y-90991232D01*
X151365153Y-90957270D01*
X151347844Y-90875482D01*
X151313848Y-90802252D01*
X151266034Y-90739029D01*
X151207274Y-90687258D01*
X151140438Y-90648389D01*
X151068396Y-90623868D01*
X150994019Y-90615141D01*
X150920177Y-90623658D01*
X150849741Y-90650864D01*
X150785582Y-90698207D01*
X150749063Y-90738881D01*
X150731065Y-90776546D01*
X150730968Y-90817095D01*
X150430748Y-90817095D01*
X150430312Y-90816282D01*
X150395985Y-90757656D01*
X150361953Y-90704202D01*
X150331463Y-90661258D01*
X150307764Y-90634160D01*
X150306400Y-90632931D01*
X150292711Y-90622715D01*
X150279028Y-90621439D01*
X150258838Y-90630443D01*
X150225627Y-90651068D01*
X150199188Y-90668674D01*
X150175688Y-90685927D01*
X150166636Y-90694915D01*
X150167410Y-90697086D01*
X150177319Y-90714537D01*
X150196243Y-90744777D01*
X150221133Y-90782882D01*
X150223511Y-90786479D01*
X150294608Y-90915520D01*
X150346559Y-91056547D01*
X150378652Y-91207108D01*
X150380166Y-91227819D01*
X150390175Y-91364752D01*
X150390175Y-91364848D01*
X150389932Y-91420773D01*
X150388620Y-91468367D01*
X150386454Y-91502594D01*
X150383647Y-91518419D01*
X150380570Y-91519466D01*
X150357484Y-91521558D01*
X150311837Y-91523426D01*
X150243533Y-91525070D01*
X150152473Y-91526493D01*
X150038558Y-91527694D01*
X149901692Y-91528674D01*
X149741777Y-91529435D01*
X149558713Y-91529978D01*
X149352404Y-91530302D01*
X149122751Y-91530410D01*
X147869267Y-91530410D01*
X147869267Y-91431375D01*
X147869336Y-91422568D01*
X147873962Y-91347192D01*
X147884796Y-91261692D01*
X147895630Y-91200998D01*
X148232626Y-91200998D01*
X148233584Y-91209225D01*
X148241544Y-91219456D01*
X148260048Y-91223202D01*
X148292057Y-91220350D01*
X148340535Y-91210791D01*
X148408445Y-91194412D01*
X148491119Y-91169846D01*
X148592192Y-91125928D01*
X148679440Y-91068508D01*
X148729020Y-91020849D01*
X149020828Y-91020849D01*
X149021239Y-91117215D01*
X149037101Y-91216474D01*
X149066940Y-91310880D01*
X149109284Y-91392685D01*
X149117918Y-91405304D01*
X149135302Y-91427695D01*
X149145513Y-91436495D01*
X149150313Y-91433788D01*
X149165501Y-91415568D01*
X149185274Y-91385204D01*
X149205915Y-91348623D01*
X149223709Y-91311752D01*
X149226214Y-91305888D01*
X149260803Y-91202653D01*
X149274864Y-91102672D01*
X149268200Y-91002693D01*
X149240611Y-90899468D01*
X149191901Y-90789746D01*
X149143739Y-90697172D01*
X149124336Y-90729920D01*
X149098338Y-90779013D01*
X149069276Y-90844671D01*
X149044634Y-90911080D01*
X149028533Y-90967998D01*
X149020828Y-91020849D01*
X148729020Y-91020849D01*
X148755780Y-90995126D01*
X148824133Y-90903321D01*
X148887415Y-90790633D01*
X148887702Y-90790057D01*
X148918791Y-90726717D01*
X148937936Y-90682329D01*
X148943711Y-90654904D01*
X148934693Y-90642457D01*
X148909458Y-90643000D01*
X148866582Y-90654545D01*
X148804643Y-90675105D01*
X148774828Y-90685521D01*
X148644484Y-90739793D01*
X148534273Y-90801924D01*
X148442165Y-90873210D01*
X148366135Y-90954943D01*
X148346231Y-90981638D01*
X148312981Y-91031594D01*
X148282128Y-91083795D01*
X148256539Y-91132953D01*
X148239082Y-91173783D01*
X148232626Y-91200998D01*
X147895630Y-91200998D01*
X147900368Y-91174458D01*
X147919208Y-91093883D01*
X147939846Y-91028357D01*
X147943047Y-91020081D01*
X147980980Y-90933264D01*
X148027366Y-90842303D01*
X148075974Y-90759509D01*
X148094499Y-90730039D01*
X148109614Y-90704966D01*
X148115413Y-90693864D01*
X148108319Y-90687724D01*
X148087077Y-90673147D01*
X148058199Y-90654505D01*
X148036219Y-90640882D01*
X149336406Y-90640882D01*
X149336519Y-90643499D01*
X149340340Y-90654904D01*
X149343245Y-90663577D01*
X149358082Y-90699132D01*
X149379279Y-90746095D01*
X149405083Y-90800394D01*
X149406437Y-90803177D01*
X149438802Y-90867740D01*
X149466009Y-90916531D01*
X149491812Y-90955193D01*
X149519961Y-90989371D01*
X149554209Y-91024706D01*
X149637996Y-91093492D01*
X149654606Y-91102672D01*
X149745318Y-91152807D01*
X149867744Y-91194329D01*
X149897401Y-91201258D01*
X149951887Y-91212218D01*
X149999470Y-91219894D01*
X150060868Y-91227819D01*
X150044576Y-91181643D01*
X150005503Y-91090565D01*
X149936089Y-90979090D01*
X149848496Y-90880452D01*
X149744662Y-90796746D01*
X149626523Y-90730063D01*
X149609863Y-90722785D01*
X149567777Y-90706407D01*
X149518613Y-90689103D01*
X149467222Y-90672364D01*
X149418454Y-90657681D01*
X149377162Y-90646546D01*
X149348196Y-90640449D01*
X149336406Y-90640882D01*
X148036219Y-90640882D01*
X148028334Y-90635995D01*
X148004133Y-90621811D01*
X147992246Y-90616151D01*
X147989621Y-90617776D01*
X147975502Y-90633405D01*
X147953128Y-90661814D01*
X147925945Y-90698319D01*
X147897400Y-90738234D01*
X147870937Y-90776873D01*
X147869921Y-90778459D01*
X147850005Y-90809552D01*
X147813109Y-90878107D01*
X147765514Y-90993847D01*
X147727317Y-91122100D01*
X147700190Y-91256921D01*
X147685810Y-91392368D01*
X147678158Y-91529776D01*
X146897547Y-91533023D01*
X146116936Y-91536271D01*
X146053727Y-91572125D01*
X146029426Y-91587721D01*
X145986725Y-91622569D01*
X145954096Y-91658258D01*
X145941652Y-91676238D01*
X145926315Y-91705755D01*
X145919331Y-91737884D01*
X145917675Y-91782985D01*
X145649756Y-91782985D01*
X145648914Y-91752669D01*
X145667335Y-91661846D01*
X145704700Y-91574156D01*
X145759011Y-91492675D01*
X145828268Y-91420477D01*
X145910470Y-91360636D01*
X146003617Y-91316229D01*
X146008687Y-91314421D01*
X146036147Y-91306133D01*
X146067527Y-91299697D01*
X146106731Y-91294707D01*
X146157665Y-91290757D01*
X146224232Y-91287442D01*
X146310337Y-91284355D01*
X146316667Y-91284154D01*
X146394848Y-91281905D01*
X146469678Y-91280145D01*
X146536141Y-91278964D01*
X146589215Y-91278453D01*
X146623881Y-91278703D01*
X146658653Y-91279129D01*
X146686473Y-91278286D01*
X146697139Y-91276269D01*
X146693813Y-91264540D01*
X146684648Y-91236650D01*
X146671692Y-91198915D01*
X146667223Y-91185524D01*
X146654698Y-91135720D01*
X146647788Y-91079639D01*
X146645319Y-91008814D01*
X146645236Y-90986495D01*
X146645313Y-90983519D01*
X146910278Y-90983519D01*
X146918003Y-91056581D01*
X146941714Y-91127511D01*
X146978618Y-91191106D01*
X147025918Y-91242162D01*
X147080819Y-91275476D01*
X147117592Y-91288018D01*
X147184953Y-91300495D01*
X147242179Y-91296715D01*
X147271846Y-91288064D01*
X147327119Y-91261085D01*
X147364144Y-91225569D01*
X147381235Y-91183520D01*
X147376707Y-91136940D01*
X147368985Y-91117484D01*
X147348426Y-91089340D01*
X147324799Y-91082138D01*
X147300444Y-91097100D01*
X147273152Y-91114484D01*
X147229494Y-91120166D01*
X147224550Y-91120138D01*
X147192639Y-91116728D01*
X147169040Y-91103923D01*
X147143401Y-91076471D01*
X147141689Y-91074362D01*
X147113459Y-91022161D01*
X147107592Y-90966197D01*
X147124498Y-90910087D01*
X147125149Y-90908816D01*
X147135147Y-90884046D01*
X147136220Y-90869644D01*
X147135326Y-90868341D01*
X147138257Y-90867774D01*
X147138625Y-90868000D01*
X147152658Y-90864611D01*
X147174951Y-90850232D01*
X147226655Y-90820776D01*
X147290498Y-90807358D01*
X147356650Y-90814059D01*
X147420888Y-90840383D01*
X147478992Y-90885836D01*
X147515119Y-90922788D01*
X147535085Y-90862676D01*
X147546242Y-90821055D01*
X147546882Y-90778459D01*
X147530529Y-90740458D01*
X147495298Y-90699312D01*
X147462699Y-90671690D01*
X147395322Y-90636496D01*
X147319954Y-90619564D01*
X147240585Y-90620642D01*
X147161202Y-90639478D01*
X147085791Y-90675821D01*
X147018340Y-90729419D01*
X147004178Y-90744768D01*
X146960720Y-90808963D01*
X146928452Y-90883978D01*
X146911635Y-90960580D01*
X146910278Y-90983519D01*
X146645313Y-90983519D01*
X146646634Y-90932305D01*
X146651613Y-90889276D01*
X146661608Y-90848262D01*
X146678052Y-90800115D01*
X146725161Y-90699157D01*
X146795077Y-90600654D01*
X146882683Y-90517137D01*
X146953845Y-90461229D01*
X146908641Y-90400965D01*
X146873062Y-90351434D01*
X146841017Y-90298256D01*
X146820728Y-90248878D01*
X146809445Y-90196232D01*
X146804417Y-90133255D01*
X146803810Y-90104146D01*
X146804716Y-90093421D01*
X147074316Y-90093421D01*
X147076469Y-90155091D01*
X147097216Y-90214017D01*
X147135879Y-90265937D01*
X147191781Y-90306584D01*
X147205770Y-90312911D01*
X147261671Y-90323326D01*
X147321181Y-90315517D01*
X147378764Y-90291566D01*
X147428881Y-90253553D01*
X147465996Y-90203558D01*
X147479410Y-90161030D01*
X147482663Y-90105404D01*
X147474596Y-90050151D01*
X147455745Y-90005626D01*
X147432285Y-89976734D01*
X147379941Y-89937719D01*
X147319456Y-89916906D01*
X147255732Y-89914858D01*
X147193670Y-89932134D01*
X147138174Y-89969296D01*
X147128505Y-89978913D01*
X147091436Y-90033274D01*
X147074316Y-90093421D01*
X146804716Y-90093421D01*
X146812012Y-90007002D01*
X146837990Y-89921269D01*
X146883590Y-89842309D01*
X146950655Y-89765485D01*
X146983281Y-89736399D01*
X147067079Y-89683162D01*
X147160713Y-89649141D01*
X147260848Y-89634961D01*
X147364145Y-89641247D01*
X147467268Y-89668627D01*
X147502654Y-89685274D01*
X147562545Y-89725566D01*
X147621027Y-89777447D01*
X147671525Y-89834812D01*
X147707462Y-89891559D01*
X147715299Y-89908324D01*
X147749569Y-90010683D01*
X147759968Y-90105404D01*
X147760723Y-90112278D01*
X147748902Y-90211704D01*
X147714245Y-90307551D01*
X147656894Y-90398414D01*
X147654624Y-90401330D01*
X147630100Y-90434116D01*
X147613204Y-90459037D01*
X147607476Y-90470899D01*
X147607960Y-90471819D01*
X147619630Y-90484942D01*
X147643411Y-90508665D01*
X147674926Y-90538596D01*
X147740437Y-90599565D01*
X147768131Y-90558042D01*
X147768761Y-90557110D01*
X147788307Y-90531885D01*
X147819836Y-90495005D01*
X147859128Y-90451276D01*
X147861210Y-90449052D01*
X148193708Y-90449052D01*
X148221958Y-90467259D01*
X148244486Y-90478960D01*
X148282772Y-90495148D01*
X148326396Y-90511089D01*
X148377888Y-90524399D01*
X148442259Y-90534858D01*
X148509650Y-90541216D01*
X148571545Y-90542679D01*
X148619428Y-90538450D01*
X148643267Y-90533076D01*
X148690100Y-90519510D01*
X148739770Y-90502289D01*
X148787216Y-90483475D01*
X148827373Y-90465132D01*
X148855181Y-90449324D01*
X148865575Y-90438115D01*
X148864920Y-90435527D01*
X148849689Y-90421886D01*
X148818145Y-90404998D01*
X148817777Y-90404842D01*
X149078500Y-90404842D01*
X149081544Y-90438115D01*
X149081738Y-90440230D01*
X149103686Y-90473453D01*
X149128566Y-90491318D01*
X149151131Y-90498938D01*
X149173463Y-90490386D01*
X149199298Y-90468223D01*
X149220280Y-90440471D01*
X149220976Y-90438437D01*
X149413389Y-90438437D01*
X149485179Y-90474676D01*
X149521461Y-90491476D01*
X149575868Y-90512994D01*
X149623979Y-90528369D01*
X149669180Y-90537789D01*
X149777574Y-90543557D01*
X149894602Y-90527947D01*
X149931017Y-90518449D01*
X149975766Y-90503958D01*
X150020203Y-90487351D01*
X150058795Y-90470850D01*
X150086008Y-90456672D01*
X150096309Y-90447038D01*
X150093633Y-90442925D01*
X150074477Y-90430082D01*
X150041475Y-90413139D01*
X150000100Y-90394623D01*
X149955826Y-90377059D01*
X149914128Y-90362973D01*
X149911603Y-90362229D01*
X149820501Y-90345278D01*
X149721420Y-90343197D01*
X149621457Y-90355151D01*
X149527709Y-90380307D01*
X149452958Y-90415178D01*
X149447273Y-90417830D01*
X149413389Y-90438437D01*
X149220976Y-90438437D01*
X149228934Y-90415178D01*
X149227925Y-90406302D01*
X149212092Y-90377574D01*
X149183076Y-90355430D01*
X149148702Y-90346562D01*
X149119430Y-90352168D01*
X149091791Y-90373439D01*
X149078500Y-90404842D01*
X148817777Y-90404842D01*
X148775445Y-90386903D01*
X148726744Y-90369639D01*
X148677201Y-90355244D01*
X148631970Y-90345758D01*
X148553055Y-90339384D01*
X148442664Y-90348037D01*
X148336026Y-90375754D01*
X148239540Y-90421303D01*
X148193708Y-90449052D01*
X147861210Y-90449052D01*
X147901964Y-90405508D01*
X147910066Y-90396981D01*
X147947757Y-90355781D01*
X147977416Y-90320833D01*
X147996218Y-90295602D01*
X148001341Y-90283554D01*
X147999720Y-90279381D01*
X148007771Y-90280765D01*
X148020639Y-90279522D01*
X148046905Y-90266875D01*
X148079439Y-90245261D01*
X148137916Y-90201605D01*
X148097201Y-90148079D01*
X148081953Y-90127427D01*
X148009456Y-90011082D01*
X147945861Y-89877967D01*
X147893236Y-89732902D01*
X147881649Y-89688352D01*
X148223262Y-89688352D01*
X148226780Y-89701938D01*
X148232511Y-89716349D01*
X148248610Y-89749234D01*
X148269146Y-89786241D01*
X148283279Y-89810803D01*
X148297462Y-89837190D01*
X148302954Y-89850005D01*
X148303006Y-89850734D01*
X148312472Y-89868197D01*
X148336850Y-89899080D01*
X148374102Y-89940964D01*
X148422190Y-89991434D01*
X148447929Y-90015951D01*
X148531824Y-90079442D01*
X148630047Y-90134366D01*
X148736095Y-90176881D01*
X148770213Y-90187412D01*
X148825306Y-90203147D01*
X148878122Y-90217063D01*
X148956228Y-90236472D01*
X148948839Y-90218761D01*
X149342548Y-90218761D01*
X149348657Y-90226570D01*
X149370092Y-90225044D01*
X149410614Y-90216221D01*
X149439372Y-90209126D01*
X149523084Y-90184131D01*
X149606490Y-90153824D01*
X149678104Y-90122242D01*
X149710241Y-90105557D01*
X149797600Y-90050850D01*
X149872078Y-89986843D01*
X149941663Y-89907014D01*
X149955831Y-89888093D01*
X149992569Y-89833763D01*
X150025912Y-89777837D01*
X150049931Y-89730012D01*
X150073532Y-89674953D01*
X149986743Y-89682289D01*
X149939510Y-89688196D01*
X149826580Y-89716487D01*
X149716160Y-89762576D01*
X149712441Y-89764807D01*
X149614650Y-89823475D01*
X149528453Y-89896197D01*
X149487687Y-89944364D01*
X149440180Y-90014970D01*
X149394350Y-90097285D01*
X149353771Y-90185394D01*
X149348007Y-90199577D01*
X149342548Y-90218761D01*
X148948839Y-90218761D01*
X148938849Y-90194816D01*
X148904856Y-90119226D01*
X148847838Y-90014008D01*
X148787166Y-89925665D01*
X148724920Y-89857478D01*
X148688339Y-89827455D01*
X148604734Y-89775188D01*
X148518769Y-89736342D01*
X149017504Y-89736342D01*
X149022568Y-89854650D01*
X149050601Y-89970965D01*
X149101577Y-90083821D01*
X149119312Y-90113370D01*
X149136459Y-90137885D01*
X149146552Y-90147300D01*
X149150994Y-90144749D01*
X149165170Y-90125803D01*
X149184190Y-90092640D01*
X149205550Y-90050347D01*
X149226746Y-90004011D01*
X149245273Y-89958720D01*
X149258629Y-89919563D01*
X149262978Y-89901898D01*
X149271328Y-89838874D01*
X149273598Y-89764807D01*
X149270071Y-89688186D01*
X149261028Y-89617499D01*
X149246750Y-89561236D01*
X149237820Y-89538751D01*
X149217720Y-89496180D01*
X149194956Y-89454907D01*
X149172601Y-89419951D01*
X149153726Y-89396332D01*
X149141402Y-89389070D01*
X149140844Y-89389309D01*
X149129284Y-89402510D01*
X149111567Y-89430742D01*
X149091290Y-89468314D01*
X149076378Y-89499612D01*
X149035432Y-89617507D01*
X149017504Y-89736342D01*
X148518769Y-89736342D01*
X148508645Y-89731767D01*
X148406977Y-89700072D01*
X148306633Y-89682984D01*
X148270523Y-89679821D01*
X148240710Y-89678344D01*
X148226431Y-89680837D01*
X148223262Y-89688352D01*
X147881649Y-89688352D01*
X147853651Y-89580707D01*
X147824506Y-89441940D01*
X147861666Y-89426413D01*
X147902010Y-89414079D01*
X147962612Y-89402576D01*
X148035705Y-89393504D01*
X148115642Y-89387554D01*
X148196775Y-89385417D01*
X148299959Y-89389577D01*
X148466368Y-89414754D01*
X148627611Y-89462774D01*
X148660684Y-89474932D01*
X148701749Y-89489271D01*
X148730500Y-89498350D01*
X148742156Y-89500588D01*
X148747363Y-89491569D01*
X148760416Y-89466732D01*
X148777937Y-89432302D01*
X148786898Y-89414872D01*
X148841917Y-89321358D01*
X148904065Y-89234962D01*
X148970015Y-89159556D01*
X149036440Y-89099016D01*
X149100014Y-89057215D01*
X149104728Y-89054828D01*
X149134080Y-89042420D01*
X149156638Y-89041354D01*
X149184078Y-89050729D01*
X149184152Y-89050760D01*
X149220819Y-89072160D01*
X149266095Y-89107115D01*
X149314365Y-89150569D01*
X149360013Y-89197468D01*
X149397421Y-89242757D01*
X149420707Y-89276229D01*
X149449139Y-89320633D01*
X149476492Y-89366401D01*
X149499773Y-89408325D01*
X149515989Y-89441195D01*
X149522146Y-89459801D01*
X149523125Y-89472229D01*
X149529442Y-89485532D01*
X149544478Y-89490658D01*
X149571515Y-89487532D01*
X149613838Y-89476075D01*
X149674731Y-89456210D01*
X149721500Y-89441326D01*
X149788161Y-89422582D01*
X149850951Y-89407397D01*
X149900825Y-89398094D01*
X149905900Y-89397407D01*
X149986764Y-89389647D01*
X150073642Y-89386413D01*
X150161655Y-89387424D01*
X150245922Y-89392399D01*
X150321561Y-89401060D01*
X150383692Y-89413125D01*
X150427435Y-89428315D01*
X150439952Y-89435226D01*
X150451737Y-89446018D01*
X150457060Y-89462078D01*
X150456184Y-89487793D01*
X150449375Y-89527547D01*
X150436894Y-89585726D01*
X150414024Y-89674953D01*
X150403680Y-89715311D01*
G37*
%TD*%
D11*
%TO.C,H1*%
X138000000Y-85000000D03*
%TD*%
D12*
%TO.C,J4*%
X170160000Y-94040000D03*
D13*
X170160000Y-96580000D03*
X170160000Y-99120000D03*
%TD*%
D14*
%TO.C,SW4*%
X144565000Y-83225000D03*
X146565000Y-83225000D03*
X148565000Y-83225000D03*
X150565000Y-83225000D03*
X152565000Y-83225000D03*
X154565000Y-83225000D03*
D15*
X142465000Y-83225000D03*
X156665000Y-83225000D03*
%TD*%
D16*
%TO.C,SW1*%
X159995000Y-99735000D03*
X162535000Y-99735000D03*
X165075000Y-99735000D03*
%TD*%
D12*
%TO.C,J1*%
X170160000Y-88960000D03*
D13*
X170160000Y-86420000D03*
X170160000Y-83880000D03*
%TD*%
D17*
%TO.C,J2*%
X123165000Y-85086000D03*
X119365000Y-85086000D03*
X123165000Y-93726000D03*
X119365000Y-93726000D03*
%TD*%
D16*
%TO.C,SW2*%
X165075000Y-83225000D03*
X162535000Y-83225000D03*
X159995000Y-83225000D03*
%TD*%
D11*
%TO.C,H2*%
X121000000Y-98000000D03*
%TD*%
D14*
%TO.C,SW3*%
X144835000Y-99735000D03*
X146835000Y-99735000D03*
X148835000Y-99735000D03*
X150835000Y-99735000D03*
X152835000Y-99735000D03*
X154835000Y-99735000D03*
D15*
X142735000Y-99735000D03*
X156935000Y-99735000D03*
%TD*%
D16*
%TO.C,SW5*%
X127500000Y-83230000D03*
X130040000Y-83230000D03*
X132580000Y-83230000D03*
%TD*%
D18*
%TO.C,TP2*%
X142113000Y-85598000D03*
%TD*%
%TO.C,TP3*%
X144272000Y-85598000D03*
%TD*%
%TO.C,TP1*%
X156900000Y-92200000D03*
%TD*%
D19*
%TO.C,D1*%
X125439000Y-100165000D03*
D20*
X133059000Y-100165000D03*
%TD*%
D18*
%TO.C,TP5*%
X123317000Y-82169000D03*
%TD*%
%TO.C,TP4*%
X120396000Y-82169000D03*
%TD*%
M02*
