M48
; DRILL file {KiCad 7.0.8} date Wed Dec 11 22:38:00 2024
; FORMAT={-:-/ absolute / metric / decimal}
; #@! TF.CreationDate,2024-12-11T22:38:00+01:00
; #@! TF.GenerationSoftware,Kicad,Pcbnew,7.0.8
; #@! TF.FileFunction,MixedPlating,1,4
FMAT,2
METRIC
; #@! TA.AperFunction,Plated,PTH,ViaDrill
T1C0.300
; #@! TA.AperFunction,Plated,PTH,ViaDrill
T2C0.400
; #@! TA.AperFunction,Plated,PTH,ComponentDrill
T3C0.600
; #@! TA.AperFunction,Plated,PTH,ComponentDrill
T4C0.762
; #@! TA.AperFunction,Plated,PTH,ComponentDrill
T5C0.800
; #@! TA.AperFunction,Plated,PTH,ComponentDrill
T6C0.900
; #@! TA.AperFunction,Plated,PTH,ComponentDrill
T7C1.000
; #@! TA.AperFunction,Plated,PTH,ComponentDrill
T8C3.200
%
G90
G05
T1
X124.797Y-94.952
X139.688Y-88.188
X143.383Y-86.995
X144.653Y-87.63
T2
X117.983Y-83.439
X118.0Y-86.585
X118.0Y-87.728
X118.0Y-88.871
X118.0Y-90.014
X118.0Y-91.157
X118.0Y-92.3
X119.3Y-86.585
X119.3Y-87.728
X119.3Y-88.871
X119.3Y-90.014
X119.3Y-91.157
X119.3Y-92.3
X120.523Y-86.614
X120.525Y-87.886
X121.158Y-85.344
X121.539Y-88.773
X121.9Y-92.2
X121.92Y-89.916
X122.0Y-86.6
X125.095Y-85.217
X125.1Y-92.2
X125.176Y-81.58
X125.222Y-88.392
X125.222Y-90.182
X128.397Y-94.742
X128.397Y-95.885
X128.397Y-97.028
X129.697Y-94.742
X129.697Y-95.885
X129.697Y-97.028
X129.921Y-92.583
X130.937Y-92.583
X131.445Y-88.9
X131.445Y-90.043
X131.953Y-92.583
X132.334Y-85.852
X132.905Y-90.614
X132.969Y-92.583
X135.382Y-100.076
X135.382Y-101.219
X135.509Y-88.138
X136.4Y-94.7
X136.525Y-96.647
X136.525Y-97.79
X136.525Y-98.933
X136.525Y-100.076
X136.525Y-101.219
X137.668Y-96.647
X137.668Y-97.79
X137.668Y-98.933
X137.668Y-100.076
X137.668Y-101.219
X138.8Y-97.8
X138.811Y-98.933
X138.811Y-100.076
X138.811Y-101.219
X138.96Y-93.25
X140.723Y-94.577
X140.97Y-99.06
X140.97Y-100.33
X141.097Y-89.916
X141.1Y-91.6
X141.2Y-96.0
X141.605Y-87.122
X142.006Y-90.748
X142.24Y-80.01
X142.4Y-96.8
X142.875Y-89.916
X142.875Y-91.567
X143.51Y-80.01
X143.9Y-98.1
X144.78Y-80.01
X150.241Y-85.995
X151.384Y-85.995
X154.432Y-87.773
X154.559Y-95.123
X154.94Y-80.01
X155.2Y-90.5
X155.2Y-91.6
X155.2Y-92.675
X156.21Y-80.01
X156.6Y-87.9
X156.845Y-94.996
X157.48Y-80.01
X157.7Y-87.9
X158.2Y-95.0
X159.3Y-95.0
X160.274Y-91.837
X161.29Y-80.01
X161.29Y-85.614
X161.544Y-87.9
X161.544Y-90.186
X162.433Y-85.614
X162.56Y-80.01
X162.687Y-92.726
X163.322Y-95.012
X163.322Y-97.298
X164.465Y-95.012
X164.465Y-97.298
X165.608Y-95.012
X165.608Y-97.298
X166.751Y-95.012
X166.751Y-97.298
X167.894Y-80.026
X167.894Y-81.169
X167.894Y-82.312
X167.894Y-83.455
X167.894Y-84.598
X167.894Y-85.741
X167.894Y-86.884
X167.894Y-88.027
X167.894Y-89.17
X167.894Y-90.313
X167.894Y-92.726
X167.894Y-93.869
X167.894Y-95.012
X167.894Y-96.155
X167.894Y-97.298
X167.894Y-98.441
X167.894Y-99.584
X167.894Y-100.727
X167.894Y-101.87
X167.894Y-103.013
X169.037Y-80.026
X169.037Y-81.169
X169.037Y-101.87
X169.037Y-103.013
X170.18Y-81.169
X170.18Y-101.87
T4
X144.565Y-83.225
X144.835Y-99.735
X146.565Y-83.225
X146.835Y-99.735
X148.565Y-83.225
X148.835Y-99.735
X150.565Y-83.225
X150.835Y-99.735
X152.565Y-83.225
X152.835Y-99.735
X154.565Y-83.225
X154.835Y-99.735
T5
X125.439Y-100.165
X133.059Y-100.165
T6
X127.5Y-83.23
X130.04Y-83.23
X132.58Y-83.23
X159.995Y-83.225
X159.995Y-99.735
X162.535Y-83.225
X162.535Y-99.735
X165.075Y-83.225
X165.075Y-99.735
T7
X170.16Y-83.88
X170.16Y-86.42
X170.16Y-88.96
X170.16Y-94.04
X170.16Y-96.58
X170.16Y-99.12
T8
X121.0Y-98.0
X138.0Y-85.0
T3
G00X119.665Y-85.086
M15
G01X119.065Y-85.086
M16
G05
G00X119.665Y-93.726
M15
G01X119.065Y-93.726
M16
G05
G00X123.465Y-85.086
M15
G01X122.865Y-85.086
M16
G05
G00X123.465Y-93.726
M15
G01X122.865Y-93.726
M16
G05
T4
G00X142.465Y-82.844
M15
G01X142.465Y-83.606
M16
G05
G00X142.735Y-99.354
M15
G01X142.735Y-100.116
M16
G05
G00X156.665Y-82.844
M15
G01X156.665Y-83.606
M16
G05
G00X156.935Y-99.354
M15
G01X156.935Y-100.116
M16
G05
T0
M30
