%TF.GenerationSoftware,KiCad,Pcbnew,7.0.8*%
%TF.CreationDate,2024-12-11T22:38:04+01:00*%
%TF.ProjectId,USB-C_PD_Board_V2_CYPD3177,5553422d-435f-4504-945f-426f6172645f,rev?*%
%TF.SameCoordinates,Original*%
%TF.FileFunction,Legend,Bot*%
%TF.FilePolarity,Positive*%
%FSLAX46Y46*%
G04 Gerber Fmt 4.6, Leading zero omitted, Abs format (unit mm)*
G04 Created by KiCad (PCBNEW 7.0.8) date 2024-12-11 22:38:04*
%MOMM*%
%LPD*%
G01*
G04 APERTURE LIST*
%ADD10C,0.120000*%
%ADD11C,0.150000*%
G04 APERTURE END LIST*
D10*
X121091767Y-83838760D02*
X121006053Y-83867331D01*
X121006053Y-83867331D02*
X120863195Y-83867331D01*
X120863195Y-83867331D02*
X120806053Y-83838760D01*
X120806053Y-83838760D02*
X120777481Y-83810188D01*
X120777481Y-83810188D02*
X120748910Y-83753045D01*
X120748910Y-83753045D02*
X120748910Y-83695902D01*
X120748910Y-83695902D02*
X120777481Y-83638760D01*
X120777481Y-83638760D02*
X120806053Y-83610188D01*
X120806053Y-83610188D02*
X120863195Y-83581617D01*
X120863195Y-83581617D02*
X120977481Y-83553045D01*
X120977481Y-83553045D02*
X121034624Y-83524474D01*
X121034624Y-83524474D02*
X121063195Y-83495902D01*
X121063195Y-83495902D02*
X121091767Y-83438760D01*
X121091767Y-83438760D02*
X121091767Y-83381617D01*
X121091767Y-83381617D02*
X121063195Y-83324474D01*
X121063195Y-83324474D02*
X121034624Y-83295902D01*
X121034624Y-83295902D02*
X120977481Y-83267331D01*
X120977481Y-83267331D02*
X120834624Y-83267331D01*
X120834624Y-83267331D02*
X120748910Y-83295902D01*
X120491766Y-83867331D02*
X120491766Y-83267331D01*
X120491766Y-83267331D02*
X120348909Y-83267331D01*
X120348909Y-83267331D02*
X120263195Y-83295902D01*
X120263195Y-83295902D02*
X120206052Y-83353045D01*
X120206052Y-83353045D02*
X120177481Y-83410188D01*
X120177481Y-83410188D02*
X120148909Y-83524474D01*
X120148909Y-83524474D02*
X120148909Y-83610188D01*
X120148909Y-83610188D02*
X120177481Y-83724474D01*
X120177481Y-83724474D02*
X120206052Y-83781617D01*
X120206052Y-83781617D02*
X120263195Y-83838760D01*
X120263195Y-83838760D02*
X120348909Y-83867331D01*
X120348909Y-83867331D02*
X120491766Y-83867331D01*
X119920338Y-83695902D02*
X119634624Y-83695902D01*
X119977481Y-83867331D02*
X119777481Y-83267331D01*
X119777481Y-83267331D02*
X119577481Y-83867331D01*
X124012767Y-83838760D02*
X123927053Y-83867331D01*
X123927053Y-83867331D02*
X123784195Y-83867331D01*
X123784195Y-83867331D02*
X123727053Y-83838760D01*
X123727053Y-83838760D02*
X123698481Y-83810188D01*
X123698481Y-83810188D02*
X123669910Y-83753045D01*
X123669910Y-83753045D02*
X123669910Y-83695902D01*
X123669910Y-83695902D02*
X123698481Y-83638760D01*
X123698481Y-83638760D02*
X123727053Y-83610188D01*
X123727053Y-83610188D02*
X123784195Y-83581617D01*
X123784195Y-83581617D02*
X123898481Y-83553045D01*
X123898481Y-83553045D02*
X123955624Y-83524474D01*
X123955624Y-83524474D02*
X123984195Y-83495902D01*
X123984195Y-83495902D02*
X124012767Y-83438760D01*
X124012767Y-83438760D02*
X124012767Y-83381617D01*
X124012767Y-83381617D02*
X123984195Y-83324474D01*
X123984195Y-83324474D02*
X123955624Y-83295902D01*
X123955624Y-83295902D02*
X123898481Y-83267331D01*
X123898481Y-83267331D02*
X123755624Y-83267331D01*
X123755624Y-83267331D02*
X123669910Y-83295902D01*
X123069909Y-83810188D02*
X123098481Y-83838760D01*
X123098481Y-83838760D02*
X123184195Y-83867331D01*
X123184195Y-83867331D02*
X123241338Y-83867331D01*
X123241338Y-83867331D02*
X123327052Y-83838760D01*
X123327052Y-83838760D02*
X123384195Y-83781617D01*
X123384195Y-83781617D02*
X123412766Y-83724474D01*
X123412766Y-83724474D02*
X123441338Y-83610188D01*
X123441338Y-83610188D02*
X123441338Y-83524474D01*
X123441338Y-83524474D02*
X123412766Y-83410188D01*
X123412766Y-83410188D02*
X123384195Y-83353045D01*
X123384195Y-83353045D02*
X123327052Y-83295902D01*
X123327052Y-83295902D02*
X123241338Y-83267331D01*
X123241338Y-83267331D02*
X123184195Y-83267331D01*
X123184195Y-83267331D02*
X123098481Y-83295902D01*
X123098481Y-83295902D02*
X123069909Y-83324474D01*
X122527052Y-83867331D02*
X122812766Y-83867331D01*
X122812766Y-83867331D02*
X122812766Y-83267331D01*
D11*
X129987094Y-100619819D02*
X129987094Y-99619819D01*
X129987094Y-99619819D02*
X129748999Y-99619819D01*
X129748999Y-99619819D02*
X129606142Y-99667438D01*
X129606142Y-99667438D02*
X129510904Y-99762676D01*
X129510904Y-99762676D02*
X129463285Y-99857914D01*
X129463285Y-99857914D02*
X129415666Y-100048390D01*
X129415666Y-100048390D02*
X129415666Y-100191247D01*
X129415666Y-100191247D02*
X129463285Y-100381723D01*
X129463285Y-100381723D02*
X129510904Y-100476961D01*
X129510904Y-100476961D02*
X129606142Y-100572200D01*
X129606142Y-100572200D02*
X129748999Y-100619819D01*
X129748999Y-100619819D02*
X129987094Y-100619819D01*
X128463285Y-100619819D02*
X129034713Y-100619819D01*
X128748999Y-100619819D02*
X128748999Y-99619819D01*
X128748999Y-99619819D02*
X128844237Y-99762676D01*
X128844237Y-99762676D02*
X128939475Y-99857914D01*
X128939475Y-99857914D02*
X129034713Y-99905533D01*
D10*
%TO.C,TP2*%
X142813000Y-86298000D02*
X142813000Y-84898000D01*
X142813000Y-84898000D02*
X141413000Y-84898000D01*
X141413000Y-86298000D02*
X142813000Y-86298000D01*
X141413000Y-84898000D02*
X141413000Y-86298000D01*
%TO.C,TP3*%
X144972000Y-86298000D02*
X144972000Y-84898000D01*
X144972000Y-84898000D02*
X143572000Y-84898000D01*
X143572000Y-86298000D02*
X144972000Y-86298000D01*
X143572000Y-84898000D02*
X143572000Y-86298000D01*
%TO.C,TP1*%
X157600000Y-92900000D02*
X157600000Y-91500000D01*
X157600000Y-91500000D02*
X156200000Y-91500000D01*
X156200000Y-92900000D02*
X157600000Y-92900000D01*
X156200000Y-91500000D02*
X156200000Y-92900000D01*
%TO.C,D1*%
X126479000Y-100165000D02*
X127129000Y-100165000D01*
X127129000Y-99045000D02*
X131369000Y-99045000D01*
X127129000Y-101285000D02*
X127129000Y-99045000D01*
X127729000Y-101285000D02*
X127729000Y-99045000D01*
X127849000Y-101285000D02*
X127849000Y-99045000D01*
X127969000Y-101285000D02*
X127969000Y-99045000D01*
X131369000Y-99045000D02*
X131369000Y-101285000D01*
X131369000Y-101285000D02*
X127129000Y-101285000D01*
X132019000Y-100165000D02*
X131369000Y-100165000D01*
%TO.C,TP5*%
X124017000Y-82869000D02*
X124017000Y-81469000D01*
X124017000Y-81469000D02*
X122617000Y-81469000D01*
X122617000Y-82869000D02*
X124017000Y-82869000D01*
X122617000Y-81469000D02*
X122617000Y-82869000D01*
%TO.C,TP4*%
X121096000Y-82869000D02*
X121096000Y-81469000D01*
X121096000Y-81469000D02*
X119696000Y-81469000D01*
X119696000Y-82869000D02*
X121096000Y-82869000D01*
X119696000Y-81469000D02*
X119696000Y-82869000D01*
%TD*%
M02*
