%TF.GenerationSoftware,KiCad,Pcbnew,7.0.8*%
%TF.CreationDate,2024-12-11T22:38:04+01:00*%
%TF.ProjectId,USB-C_PD_Board_V2_CYPD3177,5553422d-435f-4504-945f-426f6172645f,rev?*%
%TF.SameCoordinates,Original*%
%TF.FileFunction,Copper,L3,Inr*%
%TF.FilePolarity,Positive*%
%FSLAX46Y46*%
G04 Gerber Fmt 4.6, Leading zero omitted, Abs format (unit mm)*
G04 Created by KiCad (PCBNEW 7.0.8) date 2024-12-11 22:38:04*
%MOMM*%
%LPD*%
G01*
G04 APERTURE LIST*
%TA.AperFunction,ComponentPad*%
%ADD10C,5.600000*%
%TD*%
%TA.AperFunction,ComponentPad*%
%ADD11R,1.700000X1.700000*%
%TD*%
%TA.AperFunction,ComponentPad*%
%ADD12O,1.700000X1.700000*%
%TD*%
%TA.AperFunction,ComponentPad*%
%ADD13C,1.524000*%
%TD*%
%TA.AperFunction,ComponentPad*%
%ADD14O,1.143000X2.286000*%
%TD*%
%TA.AperFunction,ComponentPad*%
%ADD15C,1.676400*%
%TD*%
%TA.AperFunction,ComponentPad*%
%ADD16O,1.700000X1.100000*%
%TD*%
%TA.AperFunction,ComponentPad*%
%ADD17R,1.600000X1.600000*%
%TD*%
%TA.AperFunction,ComponentPad*%
%ADD18O,1.600000X1.600000*%
%TD*%
%TA.AperFunction,ViaPad*%
%ADD19C,0.800000*%
%TD*%
%TA.AperFunction,ViaPad*%
%ADD20C,0.700000*%
%TD*%
G04 APERTURE END LIST*
D10*
%TO.N,N/C*%
%TO.C,H1*%
X138000000Y-85000000D03*
%TD*%
D11*
%TO.N,GND*%
%TO.C,J4*%
X170160000Y-94040000D03*
D12*
X170160000Y-96580000D03*
X170160000Y-99120000D03*
%TD*%
D13*
%TO.N,Net-(R18-Pad1)*%
%TO.C,SW4*%
X144565000Y-83225000D03*
%TO.N,Net-(R17-Pad1)*%
X146565000Y-83225000D03*
%TO.N,Net-(SW2-C)*%
X148565000Y-83225000D03*
X150565000Y-83225000D03*
%TO.N,Net-(R16-Pad1)*%
X152565000Y-83225000D03*
%TO.N,Net-(R15-Pad1)*%
X154565000Y-83225000D03*
D14*
%TO.N,N/C*%
X142465000Y-83225000D03*
X156665000Y-83225000D03*
%TD*%
D15*
%TO.N,Net-(SW1-A)*%
%TO.C,SW1*%
X159995000Y-99735000D03*
%TO.N,Net-(SW1-B)*%
X162535000Y-99735000D03*
%TO.N,unconnected-(SW1-C-Pad3)*%
X165075000Y-99735000D03*
%TD*%
D11*
%TO.N,+VSW*%
%TO.C,J1*%
X170160000Y-88960000D03*
D12*
X170160000Y-86420000D03*
X170160000Y-83880000D03*
%TD*%
D16*
%TO.N,unconnected-(J2-SHIELD-PadS1)*%
%TO.C,J2*%
X123165000Y-85086000D03*
X119365000Y-85086000D03*
X123165000Y-93726000D03*
X119365000Y-93726000D03*
%TD*%
D15*
%TO.N,unconnected-(SW2-A-Pad1)*%
%TO.C,SW2*%
X165075000Y-83225000D03*
%TO.N,Net-(SW2-B)*%
X162535000Y-83225000D03*
%TO.N,Net-(SW2-C)*%
X159995000Y-83225000D03*
%TD*%
D10*
%TO.N,N/C*%
%TO.C,H2*%
X121000000Y-98000000D03*
%TD*%
D13*
%TO.N,Net-(R14-Pad1)*%
%TO.C,SW3*%
X144835000Y-99735000D03*
%TO.N,Net-(R13-Pad1)*%
X146835000Y-99735000D03*
%TO.N,Net-(SW1-A)*%
X148835000Y-99735000D03*
X150835000Y-99735000D03*
%TO.N,Net-(R12-Pad1)*%
X152835000Y-99735000D03*
%TO.N,Net-(R11-Pad1)*%
X154835000Y-99735000D03*
D14*
%TO.N,N/C*%
X142735000Y-99735000D03*
X156935000Y-99735000D03*
%TD*%
D15*
%TO.N,Net-(SW5-A)*%
%TO.C,SW5*%
X127500000Y-83230000D03*
%TO.N,VBUS*%
X130040000Y-83230000D03*
X132580000Y-83230000D03*
%TD*%
D17*
%TO.N,Net-(D1-K)*%
%TO.C,D1*%
X125439000Y-100165000D03*
D18*
%TO.N,Net-(D1-A)*%
X133059000Y-100165000D03*
%TD*%
D19*
%TO.N,VBUS*%
X130937000Y-92583000D03*
X129921000Y-92583000D03*
X131953000Y-92583000D03*
X132969000Y-92583000D03*
%TO.N,Net-(D1-A)*%
X136400000Y-94700000D03*
D20*
X124797122Y-94952122D03*
D19*
%TO.N,+VSW*%
X136525000Y-98933000D03*
X170180000Y-81169000D03*
X135382000Y-101219000D03*
X167894000Y-85741000D03*
X167894000Y-82312000D03*
X167894000Y-84598000D03*
X138811000Y-100076000D03*
X167894000Y-81169000D03*
X137668000Y-100076000D03*
X136525000Y-96647000D03*
X167894000Y-90313000D03*
X136525000Y-97790000D03*
X141605000Y-87122000D03*
X167894000Y-89170000D03*
X169037000Y-80026000D03*
X137668000Y-98933000D03*
X135382000Y-100076000D03*
X167894000Y-80026000D03*
X137668000Y-101219000D03*
X169037000Y-81169000D03*
X138811000Y-101219000D03*
X167894000Y-83455000D03*
X138800000Y-97800000D03*
X137668000Y-97790000D03*
X167894000Y-86884000D03*
X167894000Y-88027000D03*
X136525000Y-100076000D03*
X136525000Y-101219000D03*
X137668000Y-96647000D03*
X138811000Y-98933000D03*
%TO.N,GND*%
X143900000Y-98100000D03*
X121900000Y-92200000D03*
X166751000Y-97298000D03*
X119300000Y-86585000D03*
X167894000Y-93869000D03*
X138960000Y-93250000D03*
X159300000Y-95000000D03*
X142875000Y-91567000D03*
X151384000Y-85995000D03*
X140970000Y-100330000D03*
X141100000Y-91600000D03*
X162433000Y-85614000D03*
X140970000Y-99060000D03*
X119300000Y-88871000D03*
X157700000Y-87900000D03*
X118000000Y-91157000D03*
X167894000Y-97298000D03*
X118000000Y-90014000D03*
X156210000Y-80010000D03*
X165608000Y-97298000D03*
X158200000Y-95000000D03*
X119300000Y-90014000D03*
X169037000Y-103013000D03*
X167894000Y-100727000D03*
X167894000Y-101870000D03*
X128397000Y-94742000D03*
X122000000Y-86600000D03*
X143510000Y-80010000D03*
X142006000Y-90748000D03*
X142240000Y-80010000D03*
X119300000Y-92300000D03*
X161544000Y-87900000D03*
X167894000Y-98441000D03*
X157480000Y-80010000D03*
X163322000Y-95012000D03*
X169037000Y-101870000D03*
X167894000Y-103013000D03*
X164465000Y-97298000D03*
X118000000Y-86585000D03*
X118000000Y-87728000D03*
X156600000Y-87900000D03*
X167894000Y-92726000D03*
X129697000Y-97028000D03*
X166751000Y-95012000D03*
X167894000Y-99584000D03*
X141097000Y-89916000D03*
X119300000Y-87728000D03*
X144780000Y-80010000D03*
X129697000Y-94742000D03*
X141200000Y-96000000D03*
X167894000Y-95012000D03*
X154559000Y-95123000D03*
X117983000Y-83439000D03*
X154940000Y-80010000D03*
X128397000Y-95885000D03*
X142875000Y-89916000D03*
X167894000Y-96155000D03*
X125222000Y-90182500D03*
X161290000Y-80010000D03*
X161290000Y-85614000D03*
X129697000Y-95885000D03*
X118000000Y-88871000D03*
X128397000Y-97028000D03*
X119300000Y-91157000D03*
X161544000Y-90186000D03*
X162560000Y-80010000D03*
X150241000Y-85995000D03*
X165608000Y-95012000D03*
X118000000Y-92300000D03*
X164465000Y-95012000D03*
X125222000Y-88392000D03*
X170180000Y-101870000D03*
X163322000Y-97298000D03*
X125100000Y-92200000D03*
%TO.N,+3V3*%
X131445000Y-88900000D03*
X142400000Y-96800000D03*
%TO.N,Net-(J2-CC1)*%
X121539000Y-88773000D03*
X132905500Y-90614500D03*
%TO.N,Net-(J2-CC2)*%
X121920000Y-89916000D03*
X131445000Y-90043000D03*
%TO.N,Net-(U1-VBUS_FET_EN)*%
X140723000Y-94577000D03*
X155200000Y-92675500D03*
D20*
%TO.N,Net-(U1-FAULT)*%
X144653000Y-87630000D03*
D19*
%TO.N,Net-(SW1-B)*%
X160274000Y-91837000D03*
%TO.N,Net-(SW2-B)*%
X162687000Y-92726000D03*
X155200000Y-90500000D03*
%TO.N,Net-(R14-Pad1)*%
X156845000Y-94996000D03*
%TO.N,Net-(R18-Pad1)*%
X154432000Y-87773000D03*
%TO.N,Net-(U1-SAFE_PWR_EN)*%
X155200000Y-91600000D03*
D20*
%TO.N,Net-(U1-FLIP)*%
X143383000Y-86995000D03*
D19*
%TO.N,Net-(SW5-A)*%
X121158000Y-85344000D03*
X120523000Y-86614000D03*
X120525000Y-87886000D03*
%TO.N,Net-(U1-HPI_SCL)*%
X132334000Y-85852000D03*
%TO.N,Net-(U1-HPI_SDA)*%
X125095000Y-85217000D03*
D20*
X139688183Y-88188183D03*
D19*
%TO.N,Net-(D3-A)*%
X135509000Y-88138000D03*
X125176000Y-81580000D03*
%TD*%
%TA.AperFunction,Conductor*%
%TO.N,+VSW*%
G36*
X154482842Y-79020185D02*
G01*
X154528597Y-79072989D01*
X154538541Y-79142147D01*
X154509516Y-79205703D01*
X154488688Y-79224818D01*
X154334129Y-79337111D01*
X154207466Y-79477785D01*
X154112821Y-79641715D01*
X154112818Y-79641722D01*
X154088810Y-79715613D01*
X154054326Y-79821744D01*
X154034540Y-80010000D01*
X154054326Y-80198256D01*
X154054327Y-80198259D01*
X154112818Y-80378277D01*
X154112821Y-80378284D01*
X154207467Y-80542216D01*
X154309220Y-80655224D01*
X154334129Y-80682888D01*
X154487265Y-80794148D01*
X154487270Y-80794151D01*
X154660192Y-80871142D01*
X154660197Y-80871144D01*
X154845354Y-80910500D01*
X154845355Y-80910500D01*
X155034644Y-80910500D01*
X155034646Y-80910500D01*
X155219803Y-80871144D01*
X155392730Y-80794151D01*
X155502117Y-80714676D01*
X155567920Y-80691198D01*
X155635974Y-80707023D01*
X155647871Y-80714668D01*
X155718057Y-80765661D01*
X155757270Y-80794151D01*
X155930192Y-80871142D01*
X155930197Y-80871144D01*
X156115354Y-80910500D01*
X156115355Y-80910500D01*
X156304644Y-80910500D01*
X156304646Y-80910500D01*
X156489803Y-80871144D01*
X156662730Y-80794151D01*
X156772117Y-80714676D01*
X156837920Y-80691198D01*
X156905974Y-80707023D01*
X156917871Y-80714668D01*
X156988057Y-80765661D01*
X157027270Y-80794151D01*
X157200192Y-80871142D01*
X157200197Y-80871144D01*
X157385354Y-80910500D01*
X157385355Y-80910500D01*
X157574644Y-80910500D01*
X157574646Y-80910500D01*
X157759803Y-80871144D01*
X157932730Y-80794151D01*
X158085871Y-80682888D01*
X158212533Y-80542216D01*
X158307179Y-80378284D01*
X158365674Y-80198256D01*
X158385460Y-80010000D01*
X158365674Y-79821744D01*
X158307179Y-79641716D01*
X158212533Y-79477784D01*
X158085871Y-79337112D01*
X158066263Y-79322866D01*
X157931312Y-79224818D01*
X157888646Y-79169488D01*
X157882667Y-79099875D01*
X157915273Y-79038080D01*
X157976111Y-79003723D01*
X158004197Y-79000500D01*
X160765803Y-79000500D01*
X160832842Y-79020185D01*
X160878597Y-79072989D01*
X160888541Y-79142147D01*
X160859516Y-79205703D01*
X160838688Y-79224818D01*
X160684129Y-79337111D01*
X160557466Y-79477785D01*
X160462821Y-79641715D01*
X160462818Y-79641722D01*
X160438810Y-79715613D01*
X160404326Y-79821744D01*
X160384540Y-80010000D01*
X160404326Y-80198256D01*
X160404327Y-80198259D01*
X160462818Y-80378277D01*
X160462821Y-80378284D01*
X160557467Y-80542216D01*
X160659220Y-80655224D01*
X160684129Y-80682888D01*
X160837265Y-80794148D01*
X160837270Y-80794151D01*
X161010192Y-80871142D01*
X161010197Y-80871144D01*
X161195354Y-80910500D01*
X161195355Y-80910500D01*
X161384644Y-80910500D01*
X161384646Y-80910500D01*
X161569803Y-80871144D01*
X161742730Y-80794151D01*
X161852117Y-80714676D01*
X161917920Y-80691198D01*
X161985974Y-80707023D01*
X161997871Y-80714668D01*
X162068057Y-80765661D01*
X162107270Y-80794151D01*
X162280192Y-80871142D01*
X162280197Y-80871144D01*
X162465354Y-80910500D01*
X162465355Y-80910500D01*
X162654644Y-80910500D01*
X162654646Y-80910500D01*
X162839803Y-80871144D01*
X163012730Y-80794151D01*
X163165871Y-80682888D01*
X163292533Y-80542216D01*
X163387179Y-80378284D01*
X163445674Y-80198256D01*
X163465460Y-80010000D01*
X163445674Y-79821744D01*
X163387179Y-79641716D01*
X163292533Y-79477784D01*
X163165871Y-79337112D01*
X163146263Y-79322866D01*
X163011312Y-79224818D01*
X162968646Y-79169488D01*
X162962667Y-79099875D01*
X162995273Y-79038080D01*
X163056111Y-79003723D01*
X163084197Y-79000500D01*
X168998378Y-79000500D01*
X169001619Y-79000584D01*
X169133628Y-79007503D01*
X169317027Y-79017803D01*
X169323212Y-79018465D01*
X169475647Y-79042608D01*
X169638194Y-79070226D01*
X169643811Y-79071453D01*
X169796693Y-79112418D01*
X169889122Y-79139046D01*
X169951724Y-79157082D01*
X169956759Y-79158769D01*
X170106183Y-79216127D01*
X170254007Y-79277358D01*
X170258412Y-79279388D01*
X170309307Y-79305321D01*
X170401921Y-79352511D01*
X170477428Y-79394241D01*
X170541480Y-79429641D01*
X170545215Y-79431882D01*
X170615899Y-79477785D01*
X170680872Y-79519980D01*
X170768357Y-79582053D01*
X170810764Y-79612142D01*
X170813886Y-79614510D01*
X170938748Y-79715621D01*
X170941034Y-79717567D01*
X171058721Y-79822738D01*
X171061248Y-79825128D01*
X171174870Y-79938750D01*
X171177260Y-79941277D01*
X171282431Y-80058964D01*
X171284383Y-80061258D01*
X171375324Y-80173561D01*
X171385480Y-80186102D01*
X171387862Y-80189243D01*
X171480019Y-80319127D01*
X171518437Y-80378284D01*
X171568106Y-80454767D01*
X171570364Y-80458531D01*
X171647488Y-80598078D01*
X171720604Y-80741575D01*
X171722643Y-80745997D01*
X171783877Y-80893829D01*
X171841221Y-81043217D01*
X171842916Y-81048273D01*
X171887579Y-81203297D01*
X171928541Y-81356171D01*
X171929778Y-81361835D01*
X171957394Y-81524369D01*
X171981530Y-81676758D01*
X171982196Y-81682985D01*
X171992509Y-81866617D01*
X171999415Y-81998377D01*
X171999500Y-82001623D01*
X171999500Y-100998376D01*
X171999415Y-101001622D01*
X171992509Y-101133382D01*
X171982196Y-101317013D01*
X171981530Y-101323240D01*
X171957394Y-101475630D01*
X171929778Y-101638163D01*
X171928541Y-101643827D01*
X171887579Y-101796702D01*
X171842916Y-101951725D01*
X171841221Y-101956781D01*
X171783877Y-102106170D01*
X171722643Y-102254001D01*
X171720604Y-102258423D01*
X171647488Y-102401921D01*
X171570364Y-102541467D01*
X171568097Y-102545246D01*
X171480019Y-102680872D01*
X171387862Y-102810755D01*
X171385480Y-102813896D01*
X171284385Y-102938738D01*
X171282431Y-102941034D01*
X171177260Y-103058721D01*
X171174870Y-103061248D01*
X171061248Y-103174870D01*
X171058721Y-103177260D01*
X170941034Y-103282431D01*
X170938738Y-103284385D01*
X170813896Y-103385480D01*
X170810755Y-103387862D01*
X170680872Y-103480019D01*
X170545246Y-103568097D01*
X170541467Y-103570364D01*
X170401921Y-103647488D01*
X170258423Y-103720604D01*
X170254001Y-103722643D01*
X170106170Y-103783877D01*
X169956781Y-103841221D01*
X169951725Y-103842916D01*
X169796701Y-103887579D01*
X169757692Y-103898030D01*
X169687842Y-103896366D01*
X169629981Y-103857203D01*
X169602478Y-103792974D01*
X169614065Y-103724072D01*
X169638902Y-103691060D01*
X169638522Y-103690718D01*
X169642405Y-103686404D01*
X169642638Y-103686096D01*
X169642855Y-103685899D01*
X169642871Y-103685888D01*
X169769533Y-103545216D01*
X169864179Y-103381284D01*
X169922674Y-103201256D01*
X169942460Y-103013000D01*
X169930964Y-102903624D01*
X169943533Y-102834897D01*
X169991265Y-102783873D01*
X170059006Y-102766755D01*
X170080054Y-102769373D01*
X170085354Y-102770500D01*
X170085360Y-102770500D01*
X170274644Y-102770500D01*
X170274646Y-102770500D01*
X170459803Y-102731144D01*
X170632730Y-102654151D01*
X170785871Y-102542888D01*
X170912533Y-102402216D01*
X171007179Y-102238284D01*
X171065674Y-102058256D01*
X171085460Y-101870000D01*
X171065674Y-101681744D01*
X171007179Y-101501716D01*
X170912533Y-101337784D01*
X170785871Y-101197112D01*
X170758547Y-101177260D01*
X170632734Y-101085851D01*
X170632729Y-101085848D01*
X170459807Y-101008857D01*
X170459802Y-101008855D01*
X170287259Y-100972181D01*
X170274646Y-100969500D01*
X170085354Y-100969500D01*
X170072741Y-100972181D01*
X169900197Y-101008855D01*
X169900192Y-101008857D01*
X169727270Y-101085848D01*
X169727266Y-101085851D01*
X169681384Y-101119186D01*
X169615578Y-101142665D01*
X169547524Y-101126839D01*
X169535616Y-101119186D01*
X169489733Y-101085851D01*
X169489729Y-101085848D01*
X169316807Y-101008857D01*
X169316802Y-101008855D01*
X169144259Y-100972181D01*
X169131646Y-100969500D01*
X168942354Y-100969500D01*
X168937061Y-100970624D01*
X168867397Y-100965307D01*
X168811664Y-100923169D01*
X168787560Y-100857589D01*
X168787963Y-100836381D01*
X168799460Y-100727000D01*
X168779674Y-100538744D01*
X168721179Y-100358716D01*
X168639647Y-100217499D01*
X168623175Y-100149600D01*
X168639648Y-100093500D01*
X168649313Y-100076759D01*
X168721179Y-99952284D01*
X168725719Y-99938313D01*
X168762581Y-99824862D01*
X168802018Y-99767187D01*
X168866377Y-99739988D01*
X168935223Y-99751903D01*
X168981483Y-99794360D01*
X168982860Y-99793396D01*
X168985965Y-99797830D01*
X169121505Y-99991401D01*
X169288599Y-100158495D01*
X169340425Y-100194784D01*
X169482165Y-100294032D01*
X169482167Y-100294033D01*
X169482170Y-100294035D01*
X169696337Y-100393903D01*
X169924592Y-100455063D01*
X170112918Y-100471539D01*
X170159999Y-100475659D01*
X170160000Y-100475659D01*
X170160001Y-100475659D01*
X170199234Y-100472226D01*
X170395408Y-100455063D01*
X170623663Y-100393903D01*
X170837830Y-100294035D01*
X171031401Y-100158495D01*
X171198495Y-99991401D01*
X171334035Y-99797830D01*
X171433903Y-99583663D01*
X171495063Y-99355408D01*
X171515659Y-99120000D01*
X171513606Y-99096540D01*
X171508173Y-99034432D01*
X171495063Y-98884592D01*
X171433903Y-98656337D01*
X171334035Y-98442171D01*
X171333215Y-98440999D01*
X171198494Y-98248597D01*
X171031402Y-98081506D01*
X171031396Y-98081501D01*
X170845842Y-97951575D01*
X170802217Y-97896998D01*
X170795023Y-97827500D01*
X170826546Y-97765145D01*
X170845842Y-97748425D01*
X170970492Y-97661144D01*
X171031401Y-97618495D01*
X171198495Y-97451401D01*
X171334035Y-97257830D01*
X171433903Y-97043663D01*
X171495063Y-96815408D01*
X171515659Y-96580000D01*
X171495063Y-96344592D01*
X171433903Y-96116337D01*
X171334035Y-95902171D01*
X171330064Y-95896500D01*
X171198496Y-95708600D01*
X171138216Y-95648320D01*
X171076567Y-95586671D01*
X171043084Y-95525351D01*
X171048068Y-95455659D01*
X171089939Y-95399725D01*
X171120915Y-95382810D01*
X171252331Y-95333796D01*
X171367546Y-95247546D01*
X171453796Y-95132331D01*
X171504091Y-94997483D01*
X171510500Y-94937873D01*
X171510499Y-93142128D01*
X171504091Y-93082517D01*
X171496343Y-93061744D01*
X171453797Y-92947671D01*
X171453793Y-92947664D01*
X171367547Y-92832455D01*
X171367544Y-92832452D01*
X171252335Y-92746206D01*
X171252328Y-92746202D01*
X171117482Y-92695908D01*
X171117483Y-92695908D01*
X171057883Y-92689501D01*
X171057881Y-92689500D01*
X171057873Y-92689500D01*
X171057864Y-92689500D01*
X169262129Y-92689500D01*
X169262123Y-92689501D01*
X169202516Y-92695908D01*
X169067671Y-92746202D01*
X169067665Y-92746206D01*
X168995797Y-92800006D01*
X168930333Y-92824423D01*
X168862060Y-92809571D01*
X168812655Y-92760166D01*
X168798167Y-92713706D01*
X168779674Y-92537744D01*
X168721179Y-92357716D01*
X168626533Y-92193784D01*
X168499871Y-92053112D01*
X168472609Y-92033305D01*
X168346734Y-91941851D01*
X168346729Y-91941848D01*
X168173807Y-91864857D01*
X168173802Y-91864855D01*
X168017890Y-91831716D01*
X167988646Y-91825500D01*
X167799354Y-91825500D01*
X167770110Y-91831716D01*
X167614197Y-91864855D01*
X167614192Y-91864857D01*
X167441270Y-91941848D01*
X167441265Y-91941851D01*
X167288129Y-92053111D01*
X167161466Y-92193785D01*
X167066821Y-92357715D01*
X167066818Y-92357722D01*
X167009590Y-92533853D01*
X167008326Y-92537744D01*
X166988540Y-92726000D01*
X167008326Y-92914256D01*
X167008327Y-92914259D01*
X167066818Y-93094277D01*
X167066820Y-93094281D01*
X167066821Y-93094284D01*
X167105423Y-93161144D01*
X167148352Y-93235501D01*
X167164824Y-93303401D01*
X167148352Y-93359499D01*
X167066820Y-93500718D01*
X167066818Y-93500722D01*
X167025951Y-93626500D01*
X167008326Y-93680744D01*
X166992284Y-93833380D01*
X166988540Y-93869000D01*
X167000035Y-93978373D01*
X166987465Y-94047103D01*
X166939733Y-94098127D01*
X166871992Y-94115244D01*
X166850935Y-94112624D01*
X166845646Y-94111500D01*
X166656354Y-94111500D01*
X166638740Y-94115244D01*
X166471197Y-94150855D01*
X166471192Y-94150857D01*
X166298270Y-94227848D01*
X166298266Y-94227851D01*
X166252384Y-94261186D01*
X166186578Y-94284665D01*
X166118524Y-94268839D01*
X166106616Y-94261186D01*
X166060733Y-94227851D01*
X166060729Y-94227848D01*
X165887807Y-94150857D01*
X165887802Y-94150855D01*
X165720260Y-94115244D01*
X165702646Y-94111500D01*
X165513354Y-94111500D01*
X165495740Y-94115244D01*
X165328197Y-94150855D01*
X165328192Y-94150857D01*
X165155270Y-94227848D01*
X165155266Y-94227851D01*
X165109384Y-94261186D01*
X165043578Y-94284665D01*
X164975524Y-94268839D01*
X164963616Y-94261186D01*
X164917733Y-94227851D01*
X164917729Y-94227848D01*
X164744807Y-94150857D01*
X164744802Y-94150855D01*
X164577260Y-94115244D01*
X164559646Y-94111500D01*
X164370354Y-94111500D01*
X164352740Y-94115244D01*
X164185197Y-94150855D01*
X164185192Y-94150857D01*
X164012270Y-94227848D01*
X164012266Y-94227851D01*
X163966384Y-94261186D01*
X163900578Y-94284665D01*
X163832524Y-94268839D01*
X163820616Y-94261186D01*
X163774733Y-94227851D01*
X163774729Y-94227848D01*
X163601807Y-94150857D01*
X163601802Y-94150855D01*
X163434260Y-94115244D01*
X163416646Y-94111500D01*
X163227354Y-94111500D01*
X163209740Y-94115244D01*
X163042197Y-94150855D01*
X163042192Y-94150857D01*
X162869270Y-94227848D01*
X162869265Y-94227851D01*
X162716129Y-94339111D01*
X162589466Y-94479785D01*
X162494821Y-94643715D01*
X162494818Y-94643722D01*
X162439124Y-94815132D01*
X162436326Y-94823744D01*
X162416540Y-95012000D01*
X162436326Y-95200256D01*
X162436327Y-95200259D01*
X162494818Y-95380277D01*
X162494821Y-95380284D01*
X162589467Y-95544216D01*
X162705324Y-95672888D01*
X162716129Y-95684888D01*
X162869265Y-95796148D01*
X162869270Y-95796151D01*
X163042192Y-95873142D01*
X163042197Y-95873144D01*
X163227354Y-95912500D01*
X163227355Y-95912500D01*
X163416644Y-95912500D01*
X163416646Y-95912500D01*
X163601803Y-95873144D01*
X163774730Y-95796151D01*
X163820614Y-95762813D01*
X163886421Y-95739334D01*
X163954475Y-95755159D01*
X163966386Y-95762814D01*
X164012271Y-95796152D01*
X164185192Y-95873142D01*
X164185197Y-95873144D01*
X164370354Y-95912500D01*
X164370355Y-95912500D01*
X164559644Y-95912500D01*
X164559646Y-95912500D01*
X164744803Y-95873144D01*
X164917730Y-95796151D01*
X164963614Y-95762813D01*
X165029421Y-95739334D01*
X165097475Y-95755159D01*
X165109386Y-95762814D01*
X165155271Y-95796152D01*
X165328192Y-95873142D01*
X165328197Y-95873144D01*
X165513354Y-95912500D01*
X165513355Y-95912500D01*
X165702644Y-95912500D01*
X165702646Y-95912500D01*
X165887803Y-95873144D01*
X166060730Y-95796151D01*
X166106614Y-95762813D01*
X166172421Y-95739334D01*
X166240475Y-95755159D01*
X166252386Y-95762814D01*
X166298271Y-95796152D01*
X166471192Y-95873142D01*
X166471197Y-95873144D01*
X166656354Y-95912500D01*
X166656355Y-95912500D01*
X166845642Y-95912500D01*
X166845646Y-95912500D01*
X166850927Y-95911377D01*
X166920591Y-95916687D01*
X166976328Y-95958820D01*
X167000438Y-96024398D01*
X167000035Y-96045626D01*
X166988540Y-96154999D01*
X167000035Y-96264373D01*
X166987465Y-96333103D01*
X166939733Y-96384127D01*
X166871992Y-96401244D01*
X166850935Y-96398624D01*
X166845646Y-96397500D01*
X166656354Y-96397500D01*
X166638740Y-96401244D01*
X166471197Y-96436855D01*
X166471192Y-96436857D01*
X166298270Y-96513848D01*
X166298266Y-96513851D01*
X166252384Y-96547186D01*
X166186578Y-96570665D01*
X166118524Y-96554839D01*
X166106616Y-96547186D01*
X166060733Y-96513851D01*
X166060729Y-96513848D01*
X165887807Y-96436857D01*
X165887802Y-96436855D01*
X165720260Y-96401244D01*
X165702646Y-96397500D01*
X165513354Y-96397500D01*
X165495740Y-96401244D01*
X165328197Y-96436855D01*
X165328192Y-96436857D01*
X165155270Y-96513848D01*
X165155266Y-96513851D01*
X165109384Y-96547186D01*
X165043578Y-96570665D01*
X164975524Y-96554839D01*
X164963616Y-96547186D01*
X164917733Y-96513851D01*
X164917729Y-96513848D01*
X164744807Y-96436857D01*
X164744802Y-96436855D01*
X164577260Y-96401244D01*
X164559646Y-96397500D01*
X164370354Y-96397500D01*
X164352740Y-96401244D01*
X164185197Y-96436855D01*
X164185192Y-96436857D01*
X164012270Y-96513848D01*
X164012266Y-96513851D01*
X163966384Y-96547186D01*
X163900578Y-96570665D01*
X163832524Y-96554839D01*
X163820616Y-96547186D01*
X163774733Y-96513851D01*
X163774729Y-96513848D01*
X163601807Y-96436857D01*
X163601802Y-96436855D01*
X163434260Y-96401244D01*
X163416646Y-96397500D01*
X163227354Y-96397500D01*
X163209740Y-96401244D01*
X163042197Y-96436855D01*
X163042192Y-96436857D01*
X162869270Y-96513848D01*
X162869265Y-96513851D01*
X162716129Y-96625111D01*
X162589466Y-96765785D01*
X162494821Y-96929715D01*
X162494818Y-96929722D01*
X162436327Y-97109740D01*
X162436326Y-97109744D01*
X162416540Y-97298000D01*
X162436326Y-97486256D01*
X162436327Y-97486259D01*
X162494818Y-97666277D01*
X162494821Y-97666284D01*
X162589467Y-97830216D01*
X162716129Y-97970888D01*
X162869265Y-98082148D01*
X162869270Y-98082151D01*
X163042192Y-98159142D01*
X163042197Y-98159144D01*
X163227354Y-98198500D01*
X163227355Y-98198500D01*
X163416644Y-98198500D01*
X163416646Y-98198500D01*
X163601803Y-98159144D01*
X163748077Y-98094018D01*
X163774728Y-98082152D01*
X163774728Y-98082151D01*
X163774730Y-98082151D01*
X163820614Y-98048813D01*
X163886421Y-98025334D01*
X163954475Y-98041159D01*
X163966386Y-98048814D01*
X164012271Y-98082152D01*
X164185192Y-98159142D01*
X164185197Y-98159144D01*
X164370354Y-98198500D01*
X164370355Y-98198500D01*
X164559644Y-98198500D01*
X164559646Y-98198500D01*
X164744803Y-98159144D01*
X164891077Y-98094018D01*
X164917728Y-98082152D01*
X164917728Y-98082151D01*
X164917730Y-98082151D01*
X164963614Y-98048813D01*
X165029421Y-98025334D01*
X165097475Y-98041159D01*
X165109386Y-98048814D01*
X165155271Y-98082152D01*
X165328192Y-98159142D01*
X165328197Y-98159144D01*
X165513354Y-98198500D01*
X165513355Y-98198500D01*
X165702644Y-98198500D01*
X165702646Y-98198500D01*
X165887803Y-98159144D01*
X166034077Y-98094018D01*
X166060728Y-98082152D01*
X166060728Y-98082151D01*
X166060730Y-98082151D01*
X166106614Y-98048813D01*
X166172421Y-98025334D01*
X166240475Y-98041159D01*
X166252386Y-98048814D01*
X166298271Y-98082152D01*
X166471192Y-98159142D01*
X166471197Y-98159144D01*
X166656354Y-98198500D01*
X166656355Y-98198500D01*
X166845642Y-98198500D01*
X166845646Y-98198500D01*
X166850927Y-98197377D01*
X166920591Y-98202687D01*
X166976328Y-98244820D01*
X167000438Y-98310398D01*
X167000035Y-98331626D01*
X166988540Y-98440999D01*
X166988540Y-98441000D01*
X167008326Y-98629256D01*
X167008327Y-98629259D01*
X167066818Y-98809277D01*
X167066820Y-98809281D01*
X167066821Y-98809284D01*
X167106528Y-98878059D01*
X167148352Y-98950501D01*
X167164824Y-99018401D01*
X167148352Y-99074499D01*
X167066820Y-99215718D01*
X167066818Y-99215722D01*
X167008327Y-99395740D01*
X167008326Y-99395744D01*
X166988540Y-99584000D01*
X167008326Y-99772256D01*
X167008327Y-99772259D01*
X167066818Y-99952277D01*
X167066820Y-99952281D01*
X167066821Y-99952284D01*
X167094554Y-100000319D01*
X167148352Y-100093501D01*
X167164824Y-100161401D01*
X167148352Y-100217499D01*
X167066820Y-100358718D01*
X167066818Y-100358722D01*
X167014670Y-100519218D01*
X167008326Y-100538744D01*
X166988540Y-100727000D01*
X167008326Y-100915256D01*
X167008327Y-100915259D01*
X167066818Y-101095277D01*
X167066820Y-101095281D01*
X167066821Y-101095284D01*
X167107099Y-101165047D01*
X167148352Y-101236501D01*
X167164824Y-101304401D01*
X167148352Y-101360499D01*
X167066820Y-101501718D01*
X167066818Y-101501722D01*
X167009824Y-101677134D01*
X167008326Y-101681744D01*
X166988540Y-101870000D01*
X167008326Y-102058256D01*
X167008327Y-102058259D01*
X167066818Y-102238277D01*
X167066820Y-102238281D01*
X167066821Y-102238284D01*
X167096585Y-102289836D01*
X167148352Y-102379501D01*
X167164824Y-102447401D01*
X167148352Y-102503499D01*
X167066820Y-102644718D01*
X167066818Y-102644722D01*
X167008327Y-102824740D01*
X167008326Y-102824744D01*
X166988540Y-103013000D01*
X167008326Y-103201256D01*
X167008327Y-103201259D01*
X167066818Y-103381277D01*
X167066821Y-103381284D01*
X167161467Y-103545216D01*
X167249032Y-103642466D01*
X167278613Y-103675320D01*
X167288129Y-103685888D01*
X167362856Y-103740180D01*
X167411032Y-103775182D01*
X167453697Y-103830512D01*
X167459676Y-103900125D01*
X167427070Y-103961920D01*
X167366231Y-103996278D01*
X167338146Y-103999500D01*
X142002710Y-103999500D01*
X141997303Y-103999264D01*
X141995015Y-103999063D01*
X141954554Y-103995523D01*
X141828238Y-103983082D01*
X141808299Y-103979454D01*
X141741669Y-103961601D01*
X141648435Y-103933319D01*
X141632027Y-103927040D01*
X141578837Y-103902238D01*
X141564618Y-103895607D01*
X141561605Y-103894101D01*
X141477671Y-103849236D01*
X141471331Y-103845341D01*
X141405170Y-103799015D01*
X141401398Y-103796154D01*
X141329190Y-103736895D01*
X141324688Y-103732815D01*
X141267182Y-103675309D01*
X141263103Y-103670808D01*
X141203844Y-103598600D01*
X141200983Y-103594828D01*
X141154657Y-103528667D01*
X141150762Y-103522327D01*
X141125982Y-103475969D01*
X141105888Y-103438375D01*
X141104406Y-103435411D01*
X141072958Y-103367971D01*
X141066682Y-103351570D01*
X141038403Y-103258349D01*
X141020541Y-103191685D01*
X141016918Y-103171771D01*
X141004482Y-103045519D01*
X141000735Y-103002695D01*
X141000500Y-102997293D01*
X141000500Y-102912472D01*
X141000500Y-102912468D01*
X140970101Y-102740062D01*
X140910225Y-102575555D01*
X140891364Y-102542888D01*
X140866747Y-102500250D01*
X140822692Y-102423945D01*
X140822691Y-102423943D01*
X140822690Y-102423942D01*
X140710163Y-102289836D01*
X140576057Y-102177309D01*
X140424446Y-102089775D01*
X140259937Y-102029898D01*
X140087534Y-101999500D01*
X140087532Y-101999500D01*
X140000099Y-101999500D01*
X120001624Y-101999500D01*
X119998378Y-101999415D01*
X119866617Y-101992509D01*
X119682985Y-101982196D01*
X119676758Y-101981530D01*
X119524369Y-101957394D01*
X119361835Y-101929778D01*
X119356171Y-101928541D01*
X119203297Y-101887579D01*
X119048273Y-101842916D01*
X119043217Y-101841221D01*
X118893829Y-101783877D01*
X118745997Y-101722643D01*
X118741575Y-101720604D01*
X118598078Y-101647488D01*
X118458531Y-101570364D01*
X118454767Y-101568106D01*
X118401875Y-101533758D01*
X118319127Y-101480019D01*
X118189243Y-101387862D01*
X118186102Y-101385480D01*
X118146018Y-101353021D01*
X118061258Y-101284383D01*
X118058964Y-101282431D01*
X117941277Y-101177260D01*
X117938750Y-101174870D01*
X117825128Y-101061248D01*
X117822738Y-101058721D01*
X117822449Y-101058398D01*
X117755132Y-100983070D01*
X117717567Y-100941034D01*
X117715613Y-100938738D01*
X117705213Y-100925895D01*
X117614510Y-100813886D01*
X117612136Y-100810755D01*
X117519980Y-100680872D01*
X117487406Y-100630715D01*
X117431882Y-100545215D01*
X117429641Y-100541480D01*
X117356348Y-100408864D01*
X117352511Y-100401921D01*
X117286865Y-100273086D01*
X117279388Y-100258412D01*
X117277355Y-100254000D01*
X117262236Y-100217500D01*
X117216127Y-100106183D01*
X117158769Y-99956759D01*
X117157082Y-99951724D01*
X117120533Y-99824862D01*
X117112414Y-99796679D01*
X117111793Y-99794360D01*
X117071453Y-99643811D01*
X117070226Y-99638194D01*
X117042601Y-99475606D01*
X117018465Y-99323212D01*
X117017803Y-99317027D01*
X117007503Y-99133628D01*
X117000584Y-99001620D01*
X117000500Y-98998377D01*
X117000500Y-92832589D01*
X117020185Y-92765550D01*
X117072989Y-92719795D01*
X117142147Y-92709851D01*
X117205703Y-92738876D01*
X117231885Y-92770587D01*
X117262116Y-92822947D01*
X117267467Y-92832216D01*
X117394129Y-92972888D01*
X117547265Y-93084148D01*
X117547270Y-93084151D01*
X117720192Y-93161142D01*
X117720197Y-93161144D01*
X117905354Y-93200500D01*
X117905355Y-93200500D01*
X117959444Y-93200500D01*
X118026483Y-93220185D01*
X118072238Y-93272989D01*
X118082182Y-93342147D01*
X118078105Y-93360495D01*
X118029699Y-93520067D01*
X118009417Y-93726000D01*
X118029699Y-93931932D01*
X118037311Y-93957024D01*
X118089768Y-94129954D01*
X118187315Y-94312450D01*
X118187317Y-94312452D01*
X118318589Y-94472410D01*
X118381030Y-94523653D01*
X118478550Y-94603685D01*
X118661046Y-94701232D01*
X118859066Y-94761300D01*
X118859065Y-94761300D01*
X118897647Y-94765100D01*
X119013392Y-94776500D01*
X119013395Y-94776500D01*
X119543734Y-94776500D01*
X119610773Y-94796185D01*
X119656528Y-94848989D01*
X119666472Y-94918147D01*
X119637447Y-94981703D01*
X119595802Y-95013038D01*
X119536049Y-95040682D01*
X119451745Y-95079685D01*
X119198242Y-95232214D01*
X119145081Y-95264200D01*
X119083180Y-95311256D01*
X118860172Y-95480781D01*
X118860163Y-95480789D01*
X118600331Y-95726914D01*
X118368641Y-95999680D01*
X118368634Y-95999690D01*
X118167790Y-96295913D01*
X118167784Y-96295922D01*
X118000151Y-96612111D01*
X118000142Y-96612129D01*
X117867674Y-96944600D01*
X117867672Y-96944607D01*
X117771932Y-97289434D01*
X117771926Y-97289460D01*
X117714029Y-97642614D01*
X117714028Y-97642627D01*
X117714028Y-97642629D01*
X117711010Y-97698300D01*
X117694652Y-97999997D01*
X117694652Y-98000002D01*
X117698595Y-98072722D01*
X117713609Y-98349651D01*
X117714028Y-98357368D01*
X117714029Y-98357385D01*
X117771926Y-98710539D01*
X117771932Y-98710565D01*
X117867672Y-99055392D01*
X117867674Y-99055399D01*
X118000142Y-99387870D01*
X118000151Y-99387888D01*
X118167784Y-99704077D01*
X118167787Y-99704082D01*
X118167789Y-99704085D01*
X118346962Y-99968346D01*
X118368634Y-100000309D01*
X118368641Y-100000319D01*
X118553116Y-100217499D01*
X118600332Y-100273086D01*
X118860163Y-100519211D01*
X119145081Y-100735800D01*
X119451747Y-100920315D01*
X119451749Y-100920316D01*
X119451751Y-100920317D01*
X119451755Y-100920319D01*
X119652053Y-101012986D01*
X119776565Y-101070591D01*
X120115726Y-101184868D01*
X120465254Y-101261805D01*
X120821052Y-101300500D01*
X120821058Y-101300500D01*
X121178942Y-101300500D01*
X121178948Y-101300500D01*
X121534746Y-101261805D01*
X121884274Y-101184868D01*
X122223435Y-101070591D01*
X122548253Y-100920315D01*
X122854919Y-100735800D01*
X123139837Y-100519211D01*
X123399668Y-100273086D01*
X123631365Y-100000311D01*
X123832211Y-99704085D01*
X123904945Y-99566893D01*
X123953738Y-99516886D01*
X124021823Y-99501194D01*
X124087583Y-99524804D01*
X124130140Y-99580217D01*
X124138500Y-99624978D01*
X124138500Y-101012870D01*
X124138501Y-101012876D01*
X124144908Y-101072483D01*
X124195202Y-101207328D01*
X124195206Y-101207335D01*
X124281452Y-101322544D01*
X124281455Y-101322547D01*
X124396664Y-101408793D01*
X124396671Y-101408797D01*
X124531517Y-101459091D01*
X124531516Y-101459091D01*
X124538444Y-101459835D01*
X124591127Y-101465500D01*
X126286872Y-101465499D01*
X126346483Y-101459091D01*
X126481331Y-101408796D01*
X126596546Y-101322546D01*
X126682796Y-101207331D01*
X126733091Y-101072483D01*
X126739500Y-101012873D01*
X126739500Y-100165001D01*
X131753532Y-100165001D01*
X131773364Y-100391686D01*
X131773366Y-100391697D01*
X131832258Y-100611488D01*
X131832261Y-100611497D01*
X131928431Y-100817732D01*
X131928432Y-100817734D01*
X132058954Y-101004141D01*
X132219858Y-101165045D01*
X132219861Y-101165047D01*
X132406266Y-101295568D01*
X132612504Y-101391739D01*
X132832308Y-101450635D01*
X132994230Y-101464801D01*
X133058998Y-101470468D01*
X133059000Y-101470468D01*
X133059002Y-101470468D01*
X133115807Y-101465498D01*
X133285692Y-101450635D01*
X133505496Y-101391739D01*
X133711734Y-101295568D01*
X133898139Y-101165047D01*
X134059047Y-101004139D01*
X134189568Y-100817734D01*
X134285739Y-100611496D01*
X134344635Y-100391692D01*
X134361878Y-100194603D01*
X134364468Y-100165001D01*
X134364468Y-100164998D01*
X134350060Y-100000319D01*
X134344635Y-99938308D01*
X134285739Y-99718504D01*
X134189568Y-99512266D01*
X134059047Y-99325861D01*
X134059045Y-99325858D01*
X133898141Y-99164954D01*
X133711734Y-99034432D01*
X133711732Y-99034431D01*
X133505497Y-98938261D01*
X133505488Y-98938258D01*
X133285697Y-98879366D01*
X133285693Y-98879365D01*
X133285692Y-98879365D01*
X133285691Y-98879364D01*
X133285686Y-98879364D01*
X133059002Y-98859532D01*
X133058998Y-98859532D01*
X132832313Y-98879364D01*
X132832302Y-98879366D01*
X132612511Y-98938258D01*
X132612502Y-98938261D01*
X132406267Y-99034431D01*
X132406265Y-99034432D01*
X132219858Y-99164954D01*
X132058954Y-99325858D01*
X131928432Y-99512265D01*
X131928431Y-99512267D01*
X131832261Y-99718502D01*
X131832258Y-99718511D01*
X131773366Y-99938302D01*
X131773364Y-99938313D01*
X131753532Y-100164998D01*
X131753532Y-100165001D01*
X126739500Y-100165001D01*
X126739499Y-99317128D01*
X126733091Y-99257517D01*
X126717502Y-99215722D01*
X126682797Y-99122671D01*
X126682793Y-99122664D01*
X126596547Y-99007455D01*
X126596544Y-99007452D01*
X126481335Y-98921206D01*
X126481328Y-98921202D01*
X126346482Y-98870908D01*
X126346483Y-98870908D01*
X126286883Y-98864501D01*
X126286881Y-98864500D01*
X126286873Y-98864500D01*
X126286864Y-98864500D01*
X124591129Y-98864500D01*
X124591123Y-98864501D01*
X124531516Y-98870908D01*
X124396671Y-98921202D01*
X124388886Y-98925454D01*
X124387527Y-98922966D01*
X124335574Y-98942335D01*
X124267304Y-98927473D01*
X124217906Y-98878059D01*
X124203065Y-98809784D01*
X124207266Y-98785482D01*
X124228071Y-98710552D01*
X124262717Y-98499220D01*
X124285970Y-98357385D01*
X124285970Y-98357382D01*
X124285972Y-98357371D01*
X124305348Y-98000000D01*
X124305123Y-97995859D01*
X124299763Y-97896998D01*
X124285972Y-97642629D01*
X124282015Y-97618495D01*
X124228073Y-97289460D01*
X124228072Y-97289459D01*
X124228071Y-97289448D01*
X124159830Y-97043664D01*
X124132327Y-96944607D01*
X124132325Y-96944600D01*
X123999857Y-96612129D01*
X123999848Y-96612111D01*
X123999653Y-96611744D01*
X123904212Y-96431722D01*
X123832215Y-96295922D01*
X123832213Y-96295919D01*
X123832211Y-96295915D01*
X123631365Y-95999689D01*
X123631361Y-95999684D01*
X123631358Y-95999680D01*
X123399668Y-95726914D01*
X123367814Y-95696740D01*
X123139837Y-95480789D01*
X123139830Y-95480783D01*
X123139827Y-95480781D01*
X123066028Y-95424681D01*
X122854919Y-95264200D01*
X122548253Y-95079685D01*
X122548252Y-95079684D01*
X122548248Y-95079682D01*
X122548244Y-95079680D01*
X122223447Y-94929414D01*
X122223441Y-94929411D01*
X122223435Y-94929409D01*
X122053854Y-94872270D01*
X121884273Y-94815131D01*
X121534744Y-94738194D01*
X121178949Y-94699500D01*
X121178948Y-94699500D01*
X120821052Y-94699500D01*
X120821050Y-94699500D01*
X120465254Y-94738194D01*
X120454285Y-94740609D01*
X120384581Y-94735793D01*
X120328546Y-94694058D01*
X120303971Y-94628653D01*
X120318657Y-94560344D01*
X120348967Y-94523655D01*
X120411410Y-94472410D01*
X120542685Y-94312450D01*
X120640232Y-94129954D01*
X120700300Y-93931934D01*
X120720583Y-93726000D01*
X120700300Y-93520066D01*
X120640232Y-93322046D01*
X120542685Y-93139550D01*
X120476303Y-93058663D01*
X120411410Y-92979589D01*
X120251450Y-92848315D01*
X120187286Y-92814017D01*
X120137442Y-92765054D01*
X120121983Y-92696916D01*
X120127810Y-92666342D01*
X120131797Y-92654070D01*
X120185674Y-92488256D01*
X120205460Y-92300000D01*
X120194950Y-92200000D01*
X120994540Y-92200000D01*
X121014326Y-92388256D01*
X121014327Y-92388259D01*
X121072818Y-92568277D01*
X121072821Y-92568284D01*
X121167467Y-92732216D01*
X121285909Y-92863759D01*
X121294129Y-92872888D01*
X121447265Y-92984148D01*
X121447270Y-92984151D01*
X121620192Y-93061142D01*
X121620197Y-93061144D01*
X121805354Y-93100500D01*
X121805355Y-93100500D01*
X121811822Y-93101180D01*
X121811576Y-93103516D01*
X121868344Y-93120185D01*
X121914099Y-93172989D01*
X121924043Y-93242147D01*
X121910663Y-93282953D01*
X121889769Y-93322041D01*
X121829699Y-93520067D01*
X121809417Y-93726000D01*
X121829699Y-93931932D01*
X121837311Y-93957024D01*
X121889768Y-94129954D01*
X121987315Y-94312450D01*
X121987317Y-94312452D01*
X122118589Y-94472410D01*
X122181030Y-94523653D01*
X122278550Y-94603685D01*
X122461046Y-94701232D01*
X122659066Y-94761300D01*
X122659065Y-94761300D01*
X122697647Y-94765100D01*
X122813392Y-94776500D01*
X122813395Y-94776500D01*
X123516605Y-94776500D01*
X123516608Y-94776500D01*
X123670934Y-94761300D01*
X123792726Y-94724354D01*
X123862592Y-94723731D01*
X123921705Y-94760979D01*
X123951296Y-94824273D01*
X123952042Y-94855976D01*
X123941937Y-94952121D01*
X123960625Y-95129927D01*
X123960626Y-95129929D01*
X124015869Y-95299951D01*
X124015872Y-95299957D01*
X124105263Y-95454787D01*
X124131700Y-95484148D01*
X124224886Y-95587643D01*
X124224889Y-95587645D01*
X124224892Y-95587648D01*
X124369529Y-95692734D01*
X124532855Y-95765451D01*
X124707731Y-95802622D01*
X124707732Y-95802622D01*
X124886511Y-95802622D01*
X124886513Y-95802622D01*
X125061389Y-95765451D01*
X125224715Y-95692734D01*
X125369352Y-95587648D01*
X125378400Y-95577600D01*
X125419265Y-95532214D01*
X125488981Y-95454787D01*
X125578372Y-95299957D01*
X125633619Y-95129925D01*
X125652307Y-94952122D01*
X125633619Y-94774319D01*
X125591185Y-94643722D01*
X125578374Y-94604292D01*
X125578371Y-94604286D01*
X125578024Y-94603685D01*
X125488981Y-94449457D01*
X125420789Y-94373722D01*
X125369357Y-94316600D01*
X125369354Y-94316598D01*
X125369353Y-94316597D01*
X125369352Y-94316596D01*
X125224715Y-94211510D01*
X125061389Y-94138793D01*
X125061387Y-94138792D01*
X124932854Y-94111472D01*
X124886513Y-94101622D01*
X124707731Y-94101622D01*
X124636376Y-94116788D01*
X124566710Y-94111472D01*
X124510977Y-94069334D01*
X124486872Y-94003754D01*
X124491936Y-93959505D01*
X124500300Y-93931934D01*
X124520583Y-93726000D01*
X124500300Y-93520066D01*
X124440232Y-93322046D01*
X124342685Y-93139550D01*
X124276303Y-93058663D01*
X124211410Y-92979589D01*
X124074282Y-92867053D01*
X124051450Y-92848315D01*
X123868954Y-92750768D01*
X123670934Y-92690700D01*
X123670932Y-92690699D01*
X123670934Y-92690699D01*
X123551805Y-92678966D01*
X123516608Y-92675500D01*
X122863014Y-92675500D01*
X122795975Y-92655815D01*
X122750220Y-92603011D01*
X122740276Y-92533853D01*
X122745083Y-92513182D01*
X122759926Y-92467500D01*
X122785674Y-92388256D01*
X122805460Y-92200000D01*
X122785674Y-92011744D01*
X122727179Y-91831716D01*
X122632533Y-91667784D01*
X122505871Y-91527112D01*
X122503355Y-91525284D01*
X122352734Y-91415851D01*
X122352729Y-91415848D01*
X122179807Y-91338857D01*
X122179802Y-91338855D01*
X122019505Y-91304784D01*
X121994646Y-91299500D01*
X121805354Y-91299500D01*
X121780495Y-91304784D01*
X121620197Y-91338855D01*
X121620192Y-91338857D01*
X121447270Y-91415848D01*
X121447265Y-91415851D01*
X121294129Y-91527111D01*
X121167466Y-91667785D01*
X121072821Y-91831715D01*
X121072818Y-91831722D01*
X121018846Y-91997833D01*
X121014326Y-92011744D01*
X120994540Y-92200000D01*
X120194950Y-92200000D01*
X120185674Y-92111744D01*
X120127179Y-91931716D01*
X120045647Y-91790499D01*
X120029175Y-91722600D01*
X120045648Y-91666500D01*
X120055902Y-91648740D01*
X120127179Y-91525284D01*
X120185674Y-91345256D01*
X120205460Y-91157000D01*
X120185674Y-90968744D01*
X120127179Y-90788716D01*
X120045647Y-90647499D01*
X120029175Y-90579600D01*
X120045648Y-90523500D01*
X120089114Y-90448214D01*
X120127179Y-90382284D01*
X120185674Y-90202256D01*
X120205460Y-90014000D01*
X120185674Y-89825744D01*
X120140346Y-89686242D01*
X120138352Y-89616403D01*
X120174432Y-89556570D01*
X120237133Y-89525742D01*
X120275923Y-89525188D01*
X120326780Y-89532500D01*
X120326783Y-89532500D01*
X120522526Y-89532500D01*
X120585674Y-89524032D01*
X120655676Y-89514647D01*
X120718696Y-89497439D01*
X120834630Y-89448444D01*
X120904041Y-89440480D01*
X120955779Y-89462344D01*
X121013477Y-89504264D01*
X121016204Y-89506245D01*
X121058869Y-89561576D01*
X121064848Y-89631189D01*
X121061249Y-89644880D01*
X121034328Y-89727737D01*
X121034328Y-89727739D01*
X121034326Y-89727744D01*
X121014540Y-89916000D01*
X121034326Y-90104256D01*
X121034327Y-90104259D01*
X121092818Y-90284277D01*
X121092821Y-90284284D01*
X121187467Y-90448216D01*
X121305766Y-90579600D01*
X121314129Y-90588888D01*
X121467265Y-90700148D01*
X121467270Y-90700151D01*
X121640192Y-90777142D01*
X121640197Y-90777144D01*
X121825354Y-90816500D01*
X121825355Y-90816500D01*
X122014644Y-90816500D01*
X122014646Y-90816500D01*
X122199803Y-90777144D01*
X122372730Y-90700151D01*
X122525871Y-90588888D01*
X122652533Y-90448216D01*
X122747179Y-90284284D01*
X122805674Y-90104256D01*
X122825460Y-89916000D01*
X122805674Y-89727744D01*
X122801809Y-89715848D01*
X122794976Y-89694817D01*
X122792981Y-89624976D01*
X122829062Y-89565143D01*
X122891763Y-89534316D01*
X122912907Y-89532500D01*
X124334033Y-89532500D01*
X124334035Y-89532500D01*
X124334036Y-89532499D01*
X124336947Y-89532361D01*
X124404848Y-89548828D01*
X124453067Y-89599392D01*
X124466295Y-89667998D01*
X124450244Y-89718219D01*
X124394820Y-89814218D01*
X124394818Y-89814222D01*
X124361749Y-89916000D01*
X124336326Y-89994244D01*
X124316540Y-90182500D01*
X124336326Y-90370756D01*
X124336327Y-90370759D01*
X124394818Y-90550777D01*
X124394821Y-90550784D01*
X124489467Y-90714716D01*
X124607234Y-90845509D01*
X124616129Y-90855388D01*
X124769265Y-90966648D01*
X124769270Y-90966651D01*
X124942192Y-91043642D01*
X124942193Y-91043642D01*
X124942197Y-91043644D01*
X124995717Y-91055020D01*
X125005004Y-91056994D01*
X125066486Y-91090186D01*
X125100263Y-91151349D01*
X125095611Y-91221063D01*
X125054007Y-91277196D01*
X125005005Y-91299574D01*
X124820197Y-91338855D01*
X124820192Y-91338857D01*
X124647270Y-91415848D01*
X124647265Y-91415851D01*
X124494129Y-91527111D01*
X124367466Y-91667785D01*
X124272821Y-91831715D01*
X124272818Y-91831722D01*
X124218846Y-91997833D01*
X124214326Y-92011744D01*
X124194540Y-92200000D01*
X124214326Y-92388256D01*
X124214327Y-92388259D01*
X124272818Y-92568277D01*
X124272821Y-92568284D01*
X124367467Y-92732216D01*
X124485909Y-92863759D01*
X124494129Y-92872888D01*
X124647265Y-92984148D01*
X124647270Y-92984151D01*
X124820192Y-93061142D01*
X124820197Y-93061144D01*
X125005354Y-93100500D01*
X125005355Y-93100500D01*
X125194644Y-93100500D01*
X125194646Y-93100500D01*
X125379803Y-93061144D01*
X125431063Y-93038320D01*
X125500313Y-93029035D01*
X125563590Y-93058663D01*
X125600804Y-93117798D01*
X125605500Y-93151600D01*
X125605500Y-93348000D01*
X125605501Y-93348009D01*
X125617052Y-93455450D01*
X125617054Y-93455462D01*
X125628260Y-93506972D01*
X125662383Y-93609497D01*
X125662386Y-93609503D01*
X125740171Y-93730537D01*
X125740179Y-93730548D01*
X125785923Y-93783340D01*
X125785926Y-93783343D01*
X125785930Y-93783347D01*
X125894664Y-93877567D01*
X125894667Y-93877568D01*
X125894668Y-93877569D01*
X126013703Y-93931932D01*
X126025541Y-93937338D01*
X126070357Y-93950497D01*
X126092575Y-93957022D01*
X126092580Y-93957023D01*
X126092584Y-93957024D01*
X126235000Y-93977500D01*
X127595108Y-93977500D01*
X127662147Y-93997185D01*
X127707902Y-94049989D01*
X127717846Y-94119147D01*
X127688821Y-94182703D01*
X127687258Y-94184472D01*
X127664466Y-94209785D01*
X127569821Y-94373715D01*
X127569818Y-94373722D01*
X127521103Y-94523653D01*
X127511326Y-94553744D01*
X127491540Y-94742000D01*
X127511326Y-94930256D01*
X127511327Y-94930259D01*
X127569818Y-95110277D01*
X127569820Y-95110281D01*
X127569821Y-95110284D01*
X127586317Y-95138856D01*
X127651352Y-95251501D01*
X127667824Y-95319401D01*
X127651352Y-95375499D01*
X127569820Y-95516718D01*
X127569818Y-95516722D01*
X127512629Y-95692734D01*
X127511326Y-95696744D01*
X127491540Y-95885000D01*
X127511326Y-96073256D01*
X127511327Y-96073259D01*
X127569818Y-96253277D01*
X127569820Y-96253281D01*
X127569821Y-96253284D01*
X127594433Y-96295913D01*
X127651352Y-96394501D01*
X127667824Y-96462401D01*
X127651352Y-96518499D01*
X127569820Y-96659718D01*
X127569818Y-96659722D01*
X127511327Y-96839740D01*
X127511326Y-96839744D01*
X127491540Y-97028000D01*
X127511326Y-97216256D01*
X127511327Y-97216259D01*
X127569818Y-97396277D01*
X127569821Y-97396284D01*
X127664467Y-97560216D01*
X127788799Y-97698300D01*
X127791129Y-97700888D01*
X127944265Y-97812148D01*
X127944270Y-97812151D01*
X128117192Y-97889142D01*
X128117197Y-97889144D01*
X128302354Y-97928500D01*
X128302355Y-97928500D01*
X128491644Y-97928500D01*
X128491646Y-97928500D01*
X128676803Y-97889144D01*
X128849730Y-97812151D01*
X128974116Y-97721778D01*
X129039921Y-97698300D01*
X129107975Y-97714125D01*
X129119872Y-97721771D01*
X129237868Y-97807500D01*
X129244270Y-97812151D01*
X129417192Y-97889142D01*
X129417197Y-97889144D01*
X129602354Y-97928500D01*
X129602355Y-97928500D01*
X129791644Y-97928500D01*
X129791646Y-97928500D01*
X129976803Y-97889144D01*
X130149730Y-97812151D01*
X130302871Y-97700888D01*
X130429533Y-97560216D01*
X130524179Y-97396284D01*
X130582674Y-97216256D01*
X130602460Y-97028000D01*
X130582674Y-96839744D01*
X130524179Y-96659716D01*
X130442647Y-96518499D01*
X130426175Y-96450600D01*
X130442648Y-96394500D01*
X130471462Y-96344592D01*
X130524179Y-96253284D01*
X130582674Y-96073256D01*
X130602460Y-95885000D01*
X130582674Y-95696744D01*
X130524179Y-95516716D01*
X130442647Y-95375499D01*
X130426175Y-95307600D01*
X130442648Y-95251500D01*
X130449108Y-95240311D01*
X130524179Y-95110284D01*
X130582674Y-94930256D01*
X130602460Y-94742000D01*
X130598046Y-94700000D01*
X135494540Y-94700000D01*
X135514326Y-94888256D01*
X135514327Y-94888259D01*
X135572818Y-95068277D01*
X135572821Y-95068284D01*
X135667467Y-95232216D01*
X135758931Y-95333797D01*
X135794129Y-95372888D01*
X135947265Y-95484148D01*
X135947270Y-95484151D01*
X136120192Y-95561142D01*
X136120197Y-95561144D01*
X136305354Y-95600500D01*
X136305355Y-95600500D01*
X136494644Y-95600500D01*
X136494646Y-95600500D01*
X136679803Y-95561144D01*
X136852730Y-95484151D01*
X137005871Y-95372888D01*
X137132533Y-95232216D01*
X137227179Y-95068284D01*
X137285674Y-94888256D01*
X137305460Y-94700000D01*
X137292533Y-94577000D01*
X139817540Y-94577000D01*
X139837326Y-94765256D01*
X139837327Y-94765259D01*
X139895818Y-94945277D01*
X139895821Y-94945284D01*
X139990467Y-95109216D01*
X140110552Y-95242583D01*
X140117129Y-95249888D01*
X140270265Y-95361148D01*
X140270270Y-95361151D01*
X140350308Y-95396787D01*
X140403545Y-95442037D01*
X140423866Y-95508887D01*
X140407260Y-95572064D01*
X140372822Y-95631713D01*
X140372818Y-95631722D01*
X140319392Y-95796152D01*
X140314326Y-95811744D01*
X140294540Y-96000000D01*
X140314326Y-96188256D01*
X140314327Y-96188259D01*
X140372818Y-96368277D01*
X140372821Y-96368284D01*
X140467467Y-96532216D01*
X140551111Y-96625112D01*
X140594129Y-96672888D01*
X140747265Y-96784148D01*
X140747270Y-96784151D01*
X140920192Y-96861142D01*
X140920197Y-96861144D01*
X141105354Y-96900500D01*
X141105355Y-96900500D01*
X141294644Y-96900500D01*
X141294646Y-96900500D01*
X141365798Y-96885376D01*
X141435464Y-96890692D01*
X141491198Y-96932829D01*
X141510519Y-96982425D01*
X141512976Y-96981903D01*
X141514326Y-96988257D01*
X141572818Y-97168277D01*
X141572820Y-97168282D01*
X141572821Y-97168284D01*
X141667467Y-97332216D01*
X141752911Y-97427111D01*
X141794129Y-97472888D01*
X141947265Y-97584148D01*
X141947270Y-97584151D01*
X142120192Y-97661142D01*
X142120197Y-97661144D01*
X142305354Y-97700500D01*
X142305355Y-97700500D01*
X142494644Y-97700500D01*
X142494646Y-97700500D01*
X142679803Y-97661144D01*
X142852730Y-97584151D01*
X142906647Y-97544977D01*
X142972453Y-97521497D01*
X143040507Y-97537322D01*
X143089202Y-97587427D01*
X143103078Y-97655905D01*
X143086921Y-97707293D01*
X143072822Y-97731713D01*
X143072818Y-97731722D01*
X143014327Y-97911740D01*
X143014326Y-97911744D01*
X143010140Y-97951575D01*
X143006162Y-97989420D01*
X142979577Y-98054034D01*
X142922279Y-98094018D01*
X142865195Y-98099195D01*
X142786244Y-98087844D01*
X142786240Y-98087843D01*
X142581747Y-98097584D01*
X142382784Y-98145852D01*
X142382780Y-98145853D01*
X142196571Y-98230892D01*
X142196559Y-98230899D01*
X142029796Y-98349650D01*
X142029793Y-98349653D01*
X141888515Y-98497821D01*
X141887617Y-98499220D01*
X141886983Y-98499768D01*
X141884864Y-98502464D01*
X141884344Y-98502055D01*
X141834811Y-98544972D01*
X141765652Y-98554912D01*
X141702097Y-98525884D01*
X141691155Y-98515148D01*
X141575871Y-98387112D01*
X141539934Y-98361002D01*
X141422734Y-98275851D01*
X141422729Y-98275848D01*
X141249807Y-98198857D01*
X141249802Y-98198855D01*
X141104001Y-98167865D01*
X141064646Y-98159500D01*
X140875354Y-98159500D01*
X140842897Y-98166398D01*
X140690197Y-98198855D01*
X140690192Y-98198857D01*
X140517270Y-98275848D01*
X140517265Y-98275851D01*
X140364129Y-98387111D01*
X140237466Y-98527785D01*
X140142821Y-98691715D01*
X140142818Y-98691722D01*
X140084327Y-98871740D01*
X140084326Y-98871744D01*
X140064540Y-99060000D01*
X140084326Y-99248256D01*
X140084327Y-99248259D01*
X140142818Y-99428277D01*
X140142821Y-99428284D01*
X140237467Y-99592216D01*
X140247806Y-99603699D01*
X140255307Y-99612030D01*
X140285535Y-99675022D01*
X140276909Y-99744357D01*
X140255307Y-99777970D01*
X140237466Y-99797785D01*
X140142821Y-99961715D01*
X140142818Y-99961722D01*
X140084327Y-100141740D01*
X140084326Y-100141744D01*
X140064540Y-100330000D01*
X140084326Y-100518256D01*
X140084327Y-100518259D01*
X140142818Y-100698277D01*
X140142821Y-100698284D01*
X140237467Y-100862216D01*
X140330291Y-100965307D01*
X140364129Y-101002888D01*
X140517265Y-101114148D01*
X140517270Y-101114151D01*
X140690192Y-101191142D01*
X140690197Y-101191144D01*
X140875354Y-101230500D01*
X140875355Y-101230500D01*
X141064644Y-101230500D01*
X141064646Y-101230500D01*
X141249803Y-101191144D01*
X141422730Y-101114151D01*
X141575871Y-101002888D01*
X141660397Y-100909012D01*
X141719882Y-100872364D01*
X141789739Y-100873694D01*
X141847788Y-100912581D01*
X141850009Y-100915324D01*
X141889316Y-100965307D01*
X141915321Y-100998376D01*
X141955628Y-101049630D01*
X142110351Y-101183697D01*
X142287650Y-101286061D01*
X142481117Y-101353021D01*
X142683758Y-101382155D01*
X142683759Y-101382156D01*
X142683759Y-101382155D01*
X142683760Y-101382156D01*
X142888255Y-101372415D01*
X143087212Y-101324149D01*
X143087219Y-101324146D01*
X143273428Y-101239107D01*
X143273431Y-101239105D01*
X143273438Y-101239102D01*
X143440204Y-101120349D01*
X143581482Y-100972181D01*
X143692166Y-100799953D01*
X143743039Y-100672875D01*
X143786229Y-100617957D01*
X143852255Y-100595104D01*
X143920156Y-100611577D01*
X143945837Y-100631283D01*
X144020378Y-100705824D01*
X144020384Y-100705829D01*
X144201333Y-100832531D01*
X144201335Y-100832532D01*
X144201338Y-100832534D01*
X144401550Y-100925894D01*
X144614932Y-100983070D01*
X144772123Y-100996822D01*
X144834998Y-101002323D01*
X144835000Y-101002323D01*
X144835002Y-101002323D01*
X144890017Y-100997509D01*
X145055068Y-100983070D01*
X145268450Y-100925894D01*
X145468662Y-100832534D01*
X145649620Y-100705826D01*
X145747319Y-100608127D01*
X145808642Y-100574642D01*
X145878334Y-100579626D01*
X145922681Y-100608127D01*
X146020378Y-100705824D01*
X146020384Y-100705829D01*
X146201333Y-100832531D01*
X146201335Y-100832532D01*
X146201338Y-100832534D01*
X146401550Y-100925894D01*
X146614932Y-100983070D01*
X146772123Y-100996822D01*
X146834998Y-101002323D01*
X146835000Y-101002323D01*
X146835002Y-101002323D01*
X146890017Y-100997509D01*
X147055068Y-100983070D01*
X147268450Y-100925894D01*
X147468662Y-100832534D01*
X147649620Y-100705826D01*
X147747319Y-100608127D01*
X147808642Y-100574642D01*
X147878334Y-100579626D01*
X147922681Y-100608127D01*
X148020378Y-100705824D01*
X148020384Y-100705829D01*
X148201333Y-100832531D01*
X148201335Y-100832532D01*
X148201338Y-100832534D01*
X148401550Y-100925894D01*
X148614932Y-100983070D01*
X148772123Y-100996822D01*
X148834998Y-101002323D01*
X148835000Y-101002323D01*
X148835002Y-101002323D01*
X148890017Y-100997509D01*
X149055068Y-100983070D01*
X149268450Y-100925894D01*
X149468662Y-100832534D01*
X149649620Y-100705826D01*
X149747319Y-100608127D01*
X149808642Y-100574642D01*
X149878334Y-100579626D01*
X149922681Y-100608127D01*
X150020378Y-100705824D01*
X150020384Y-100705829D01*
X150201333Y-100832531D01*
X150201335Y-100832532D01*
X150201338Y-100832534D01*
X150401550Y-100925894D01*
X150614932Y-100983070D01*
X150772123Y-100996822D01*
X150834998Y-101002323D01*
X150835000Y-101002323D01*
X150835002Y-101002323D01*
X150890017Y-100997509D01*
X151055068Y-100983070D01*
X151268450Y-100925894D01*
X151468662Y-100832534D01*
X151649620Y-100705826D01*
X151747319Y-100608127D01*
X151808642Y-100574642D01*
X151878334Y-100579626D01*
X151922681Y-100608127D01*
X152020378Y-100705824D01*
X152020384Y-100705829D01*
X152201333Y-100832531D01*
X152201335Y-100832532D01*
X152201338Y-100832534D01*
X152401550Y-100925894D01*
X152614932Y-100983070D01*
X152772123Y-100996822D01*
X152834998Y-101002323D01*
X152835000Y-101002323D01*
X152835002Y-101002323D01*
X152890017Y-100997509D01*
X153055068Y-100983070D01*
X153268450Y-100925894D01*
X153468662Y-100832534D01*
X153649620Y-100705826D01*
X153747319Y-100608127D01*
X153808642Y-100574642D01*
X153878334Y-100579626D01*
X153922681Y-100608127D01*
X154020378Y-100705824D01*
X154020384Y-100705829D01*
X154201333Y-100832531D01*
X154201335Y-100832532D01*
X154201338Y-100832534D01*
X154401550Y-100925894D01*
X154614932Y-100983070D01*
X154772123Y-100996822D01*
X154834998Y-101002323D01*
X154835000Y-101002323D01*
X154835002Y-101002323D01*
X154890017Y-100997509D01*
X155055068Y-100983070D01*
X155268450Y-100925894D01*
X155468662Y-100832534D01*
X155649620Y-100705826D01*
X155722443Y-100633003D01*
X155783766Y-100599518D01*
X155853458Y-100604502D01*
X155909391Y-100646374D01*
X155929101Y-100685748D01*
X155934995Y-100705824D01*
X155935263Y-100706734D01*
X155962168Y-100758923D01*
X156029074Y-100888703D01*
X156119853Y-101004139D01*
X156155628Y-101049630D01*
X156310351Y-101183697D01*
X156487650Y-101286061D01*
X156681117Y-101353021D01*
X156883758Y-101382155D01*
X156883759Y-101382156D01*
X156883759Y-101382155D01*
X156883760Y-101382156D01*
X157088255Y-101372415D01*
X157287212Y-101324149D01*
X157287219Y-101324146D01*
X157473428Y-101239107D01*
X157473431Y-101239105D01*
X157473438Y-101239102D01*
X157640204Y-101120349D01*
X157781482Y-100972181D01*
X157892166Y-100799953D01*
X157968255Y-100609891D01*
X158007000Y-100408864D01*
X158007000Y-99735000D01*
X158651186Y-99735000D01*
X158671601Y-99968346D01*
X158671603Y-99968356D01*
X158732225Y-100194603D01*
X158732227Y-100194607D01*
X158732228Y-100194611D01*
X158831223Y-100406907D01*
X158965579Y-100598787D01*
X159131213Y-100764421D01*
X159323093Y-100898777D01*
X159535389Y-100997772D01*
X159535395Y-100997773D01*
X159535396Y-100997774D01*
X159570041Y-101007057D01*
X159761649Y-101058398D01*
X159922638Y-101072483D01*
X159994999Y-101078814D01*
X159995000Y-101078814D01*
X159995001Y-101078814D01*
X160033891Y-101075411D01*
X160228351Y-101058398D01*
X160454611Y-100997772D01*
X160666907Y-100898777D01*
X160858787Y-100764421D01*
X161024421Y-100598787D01*
X161158777Y-100406907D01*
X161158777Y-100406905D01*
X161161882Y-100402472D01*
X161163323Y-100403481D01*
X161208172Y-100360712D01*
X161276778Y-100347484D01*
X161341645Y-100373447D01*
X161367294Y-100403048D01*
X161368118Y-100402472D01*
X161371222Y-100406905D01*
X161371223Y-100406907D01*
X161505579Y-100598787D01*
X161671213Y-100764421D01*
X161863093Y-100898777D01*
X162075389Y-100997772D01*
X162075395Y-100997773D01*
X162075396Y-100997774D01*
X162110041Y-101007057D01*
X162301649Y-101058398D01*
X162462638Y-101072483D01*
X162534999Y-101078814D01*
X162535000Y-101078814D01*
X162535001Y-101078814D01*
X162573891Y-101075411D01*
X162768351Y-101058398D01*
X162994611Y-100997772D01*
X163206907Y-100898777D01*
X163398787Y-100764421D01*
X163564421Y-100598787D01*
X163698777Y-100406907D01*
X163698777Y-100406905D01*
X163701882Y-100402472D01*
X163703323Y-100403481D01*
X163748172Y-100360712D01*
X163816778Y-100347484D01*
X163881645Y-100373447D01*
X163907294Y-100403048D01*
X163908118Y-100402472D01*
X163911222Y-100406905D01*
X163911223Y-100406907D01*
X164045579Y-100598787D01*
X164211213Y-100764421D01*
X164403093Y-100898777D01*
X164615389Y-100997772D01*
X164615395Y-100997773D01*
X164615396Y-100997774D01*
X164650041Y-101007057D01*
X164841649Y-101058398D01*
X165002638Y-101072483D01*
X165074999Y-101078814D01*
X165075000Y-101078814D01*
X165075001Y-101078814D01*
X165113891Y-101075411D01*
X165308351Y-101058398D01*
X165534611Y-100997772D01*
X165746907Y-100898777D01*
X165938787Y-100764421D01*
X166104421Y-100598787D01*
X166238777Y-100406907D01*
X166337772Y-100194611D01*
X166398398Y-99968351D01*
X166418814Y-99735000D01*
X166416109Y-99704088D01*
X166406322Y-99592216D01*
X166398398Y-99501649D01*
X166337772Y-99275389D01*
X166238777Y-99063093D01*
X166104421Y-98871213D01*
X165938787Y-98705579D01*
X165746907Y-98571223D01*
X165534611Y-98472228D01*
X165534607Y-98472227D01*
X165534603Y-98472225D01*
X165308356Y-98411603D01*
X165308346Y-98411601D01*
X165075001Y-98391186D01*
X165074999Y-98391186D01*
X164841653Y-98411601D01*
X164841643Y-98411603D01*
X164615396Y-98472225D01*
X164615389Y-98472227D01*
X164615389Y-98472228D01*
X164403093Y-98571223D01*
X164211213Y-98705579D01*
X164211211Y-98705580D01*
X164211208Y-98705583D01*
X164045583Y-98871208D01*
X164045580Y-98871211D01*
X164045579Y-98871213D01*
X163916608Y-99055403D01*
X163908118Y-99067528D01*
X163906680Y-99066521D01*
X163861810Y-99109297D01*
X163793202Y-99122513D01*
X163728340Y-99096540D01*
X163702702Y-99066953D01*
X163701882Y-99067528D01*
X163693392Y-99055403D01*
X163564421Y-98871213D01*
X163398787Y-98705579D01*
X163206907Y-98571223D01*
X162994611Y-98472228D01*
X162994607Y-98472227D01*
X162994603Y-98472225D01*
X162768356Y-98411603D01*
X162768346Y-98411601D01*
X162535001Y-98391186D01*
X162534999Y-98391186D01*
X162301653Y-98411601D01*
X162301643Y-98411603D01*
X162075396Y-98472225D01*
X162075389Y-98472227D01*
X162075389Y-98472228D01*
X161863093Y-98571223D01*
X161671213Y-98705579D01*
X161671211Y-98705580D01*
X161671208Y-98705583D01*
X161505583Y-98871208D01*
X161505580Y-98871211D01*
X161505579Y-98871213D01*
X161376608Y-99055403D01*
X161368118Y-99067528D01*
X161366680Y-99066521D01*
X161321810Y-99109297D01*
X161253202Y-99122513D01*
X161188340Y-99096540D01*
X161162702Y-99066953D01*
X161161882Y-99067528D01*
X161153392Y-99055403D01*
X161024421Y-98871213D01*
X160858787Y-98705579D01*
X160666907Y-98571223D01*
X160454611Y-98472228D01*
X160454607Y-98472227D01*
X160454603Y-98472225D01*
X160228356Y-98411603D01*
X160228346Y-98411601D01*
X159995001Y-98391186D01*
X159994999Y-98391186D01*
X159761653Y-98411601D01*
X159761643Y-98411603D01*
X159535396Y-98472225D01*
X159535389Y-98472227D01*
X159535389Y-98472228D01*
X159323093Y-98571223D01*
X159131213Y-98705579D01*
X159131211Y-98705580D01*
X159131208Y-98705583D01*
X158965583Y-98871208D01*
X158965580Y-98871211D01*
X158965579Y-98871213D01*
X158875401Y-99000000D01*
X158831223Y-99063093D01*
X158732229Y-99275387D01*
X158732225Y-99275396D01*
X158671603Y-99501643D01*
X158671601Y-99501653D01*
X158651186Y-99734999D01*
X158651186Y-99735000D01*
X158007000Y-99735000D01*
X158007000Y-99112437D01*
X158006700Y-99109297D01*
X157992416Y-98959710D01*
X157992415Y-98959709D01*
X157992415Y-98959700D01*
X157934737Y-98763266D01*
X157840926Y-98581297D01*
X157714372Y-98420370D01*
X157559649Y-98286303D01*
X157541540Y-98275848D01*
X157382355Y-98183942D01*
X157382350Y-98183939D01*
X157382344Y-98183936D01*
X157382342Y-98183936D01*
X157188884Y-98116979D01*
X156986242Y-98087844D01*
X156986240Y-98087843D01*
X156781747Y-98097584D01*
X156582784Y-98145852D01*
X156582780Y-98145853D01*
X156396571Y-98230892D01*
X156396559Y-98230899D01*
X156229796Y-98349650D01*
X156229793Y-98349653D01*
X156088517Y-98497819D01*
X155977833Y-98670048D01*
X155926960Y-98797122D01*
X155883770Y-98852043D01*
X155817743Y-98874895D01*
X155749842Y-98858422D01*
X155724162Y-98838716D01*
X155649621Y-98764175D01*
X155649615Y-98764170D01*
X155468666Y-98637468D01*
X155468662Y-98637466D01*
X155451062Y-98629259D01*
X155268450Y-98544106D01*
X155268447Y-98544105D01*
X155268445Y-98544104D01*
X155055070Y-98486930D01*
X155055062Y-98486929D01*
X154835002Y-98467677D01*
X154834998Y-98467677D01*
X154614937Y-98486929D01*
X154614929Y-98486930D01*
X154401554Y-98544104D01*
X154401548Y-98544107D01*
X154201340Y-98637465D01*
X154201338Y-98637466D01*
X154020381Y-98764172D01*
X153922680Y-98861873D01*
X153861356Y-98895357D01*
X153791665Y-98890373D01*
X153747318Y-98861872D01*
X153649621Y-98764175D01*
X153649615Y-98764170D01*
X153468666Y-98637468D01*
X153468662Y-98637466D01*
X153451062Y-98629259D01*
X153268450Y-98544106D01*
X153268447Y-98544105D01*
X153268445Y-98544104D01*
X153055070Y-98486930D01*
X153055062Y-98486929D01*
X152835002Y-98467677D01*
X152834998Y-98467677D01*
X152614937Y-98486929D01*
X152614929Y-98486930D01*
X152401554Y-98544104D01*
X152401548Y-98544107D01*
X152201340Y-98637465D01*
X152201338Y-98637466D01*
X152020381Y-98764172D01*
X151922680Y-98861873D01*
X151861356Y-98895357D01*
X151791665Y-98890373D01*
X151747318Y-98861872D01*
X151649621Y-98764175D01*
X151649615Y-98764170D01*
X151468666Y-98637468D01*
X151468662Y-98637466D01*
X151451062Y-98629259D01*
X151268450Y-98544106D01*
X151268447Y-98544105D01*
X151268445Y-98544104D01*
X151055070Y-98486930D01*
X151055062Y-98486929D01*
X150835002Y-98467677D01*
X150834998Y-98467677D01*
X150614937Y-98486929D01*
X150614929Y-98486930D01*
X150401554Y-98544104D01*
X150401548Y-98544107D01*
X150201340Y-98637465D01*
X150201338Y-98637466D01*
X150020381Y-98764172D01*
X149922680Y-98861873D01*
X149861356Y-98895357D01*
X149791665Y-98890373D01*
X149747318Y-98861872D01*
X149649621Y-98764175D01*
X149649615Y-98764170D01*
X149468666Y-98637468D01*
X149468662Y-98637466D01*
X149451062Y-98629259D01*
X149268450Y-98544106D01*
X149268447Y-98544105D01*
X149268445Y-98544104D01*
X149055070Y-98486930D01*
X149055062Y-98486929D01*
X148835002Y-98467677D01*
X148834998Y-98467677D01*
X148614937Y-98486929D01*
X148614929Y-98486930D01*
X148401554Y-98544104D01*
X148401548Y-98544107D01*
X148201340Y-98637465D01*
X148201338Y-98637466D01*
X148020381Y-98764172D01*
X147922680Y-98861873D01*
X147861356Y-98895357D01*
X147791665Y-98890373D01*
X147747318Y-98861872D01*
X147649621Y-98764175D01*
X147649615Y-98764170D01*
X147468666Y-98637468D01*
X147468662Y-98637466D01*
X147451062Y-98629259D01*
X147268450Y-98544106D01*
X147268447Y-98544105D01*
X147268445Y-98544104D01*
X147055070Y-98486930D01*
X147055062Y-98486929D01*
X146835002Y-98467677D01*
X146834998Y-98467677D01*
X146614937Y-98486929D01*
X146614929Y-98486930D01*
X146401554Y-98544104D01*
X146401548Y-98544107D01*
X146201340Y-98637465D01*
X146201338Y-98637466D01*
X146020381Y-98764172D01*
X145922680Y-98861873D01*
X145861356Y-98895357D01*
X145791665Y-98890373D01*
X145747318Y-98861872D01*
X145649621Y-98764175D01*
X145649615Y-98764170D01*
X145468666Y-98637468D01*
X145468662Y-98637466D01*
X145451062Y-98629259D01*
X145268450Y-98544106D01*
X145268447Y-98544105D01*
X145268445Y-98544104D01*
X145055070Y-98486930D01*
X145055063Y-98486929D01*
X144885646Y-98472107D01*
X144820578Y-98446654D01*
X144779599Y-98390063D01*
X144775721Y-98320301D01*
X144778515Y-98310287D01*
X144785674Y-98288256D01*
X144805460Y-98100000D01*
X144785674Y-97911744D01*
X144727179Y-97731716D01*
X144632533Y-97567784D01*
X144505871Y-97427112D01*
X144463440Y-97396284D01*
X144352734Y-97315851D01*
X144352729Y-97315848D01*
X144179807Y-97238857D01*
X144179802Y-97238855D01*
X144034001Y-97207865D01*
X143994646Y-97199500D01*
X143805354Y-97199500D01*
X143772897Y-97206398D01*
X143620197Y-97238855D01*
X143620192Y-97238857D01*
X143447270Y-97315848D01*
X143447266Y-97315850D01*
X143393350Y-97355023D01*
X143327544Y-97378502D01*
X143259490Y-97362676D01*
X143210796Y-97312570D01*
X143196921Y-97244091D01*
X143213078Y-97192706D01*
X143227179Y-97168284D01*
X143285674Y-96988256D01*
X143305460Y-96800000D01*
X143285674Y-96611744D01*
X143227179Y-96431716D01*
X143132533Y-96267784D01*
X143005871Y-96127112D01*
X143005870Y-96127111D01*
X142852734Y-96015851D01*
X142852729Y-96015848D01*
X142679807Y-95938857D01*
X142679802Y-95938855D01*
X142516386Y-95904121D01*
X142494646Y-95899500D01*
X142305354Y-95899500D01*
X142234200Y-95914623D01*
X142164535Y-95909307D01*
X142108802Y-95867169D01*
X142089507Y-95817578D01*
X142087027Y-95818106D01*
X142085675Y-95811747D01*
X142027181Y-95631722D01*
X142027180Y-95631721D01*
X142027179Y-95631716D01*
X141932533Y-95467784D01*
X141805871Y-95327112D01*
X141787136Y-95313500D01*
X141652734Y-95215851D01*
X141652732Y-95215850D01*
X141572690Y-95180212D01*
X141519454Y-95134961D01*
X141515818Y-95123000D01*
X153653540Y-95123000D01*
X153673326Y-95311256D01*
X153673327Y-95311259D01*
X153731818Y-95491277D01*
X153731821Y-95491284D01*
X153826467Y-95655216D01*
X153944875Y-95786721D01*
X153953129Y-95795888D01*
X154106265Y-95907148D01*
X154106270Y-95907151D01*
X154279192Y-95984142D01*
X154279197Y-95984144D01*
X154464354Y-96023500D01*
X154464355Y-96023500D01*
X154653644Y-96023500D01*
X154653646Y-96023500D01*
X154838803Y-95984144D01*
X155011730Y-95907151D01*
X155164871Y-95795888D01*
X155291533Y-95655216D01*
X155386179Y-95491284D01*
X155444674Y-95311256D01*
X155464460Y-95123000D01*
X155451112Y-94996000D01*
X155939540Y-94996000D01*
X155959326Y-95184256D01*
X155959327Y-95184259D01*
X156017818Y-95364277D01*
X156017821Y-95364284D01*
X156112467Y-95528216D01*
X156226817Y-95655214D01*
X156239129Y-95668888D01*
X156392265Y-95780148D01*
X156392270Y-95780151D01*
X156565192Y-95857142D01*
X156565197Y-95857144D01*
X156750354Y-95896500D01*
X156750355Y-95896500D01*
X156939644Y-95896500D01*
X156939646Y-95896500D01*
X157124803Y-95857144D01*
X157297730Y-95780151D01*
X157446864Y-95671798D01*
X157512668Y-95648320D01*
X157580722Y-95664145D01*
X157592633Y-95671800D01*
X157594126Y-95672884D01*
X157594129Y-95672888D01*
X157747266Y-95784148D01*
X157747270Y-95784151D01*
X157920192Y-95861142D01*
X157920197Y-95861144D01*
X158105354Y-95900500D01*
X158105355Y-95900500D01*
X158294644Y-95900500D01*
X158294646Y-95900500D01*
X158479803Y-95861144D01*
X158652730Y-95784151D01*
X158677114Y-95766434D01*
X158742919Y-95742954D01*
X158810973Y-95758778D01*
X158822879Y-95766429D01*
X158847266Y-95784148D01*
X158847269Y-95784150D01*
X158847270Y-95784151D01*
X159020192Y-95861142D01*
X159020197Y-95861144D01*
X159205354Y-95900500D01*
X159205355Y-95900500D01*
X159394644Y-95900500D01*
X159394646Y-95900500D01*
X159579803Y-95861144D01*
X159752730Y-95784151D01*
X159905871Y-95672888D01*
X160032533Y-95532216D01*
X160127179Y-95368284D01*
X160185674Y-95188256D01*
X160205460Y-95000000D01*
X160185674Y-94811744D01*
X160127179Y-94631716D01*
X160032533Y-94467784D01*
X159905871Y-94327112D01*
X159901862Y-94324199D01*
X159752734Y-94215851D01*
X159752729Y-94215848D01*
X159579807Y-94138857D01*
X159579802Y-94138855D01*
X159404629Y-94101622D01*
X159394646Y-94099500D01*
X159205354Y-94099500D01*
X159195371Y-94101622D01*
X159020197Y-94138855D01*
X159020192Y-94138857D01*
X158847270Y-94215848D01*
X158847265Y-94215851D01*
X158822885Y-94233565D01*
X158757079Y-94257045D01*
X158689025Y-94241219D01*
X158677115Y-94233565D01*
X158652734Y-94215851D01*
X158652729Y-94215848D01*
X158479807Y-94138857D01*
X158479802Y-94138855D01*
X158304629Y-94101622D01*
X158294646Y-94099500D01*
X158105354Y-94099500D01*
X158095371Y-94101622D01*
X157920197Y-94138855D01*
X157920192Y-94138857D01*
X157747270Y-94215848D01*
X157747265Y-94215851D01*
X157598137Y-94324199D01*
X157532331Y-94347679D01*
X157464277Y-94331853D01*
X157452367Y-94324199D01*
X157297734Y-94211851D01*
X157297729Y-94211848D01*
X157124807Y-94134857D01*
X157124802Y-94134855D01*
X156968448Y-94101622D01*
X156939646Y-94095500D01*
X156750354Y-94095500D01*
X156721552Y-94101622D01*
X156565197Y-94134855D01*
X156565192Y-94134857D01*
X156392270Y-94211848D01*
X156392265Y-94211851D01*
X156239129Y-94323111D01*
X156112466Y-94463785D01*
X156017821Y-94627715D01*
X156017818Y-94627722D01*
X155959327Y-94807740D01*
X155959326Y-94807744D01*
X155939540Y-94996000D01*
X155451112Y-94996000D01*
X155444674Y-94934744D01*
X155386179Y-94754716D01*
X155291533Y-94590784D01*
X155164871Y-94450112D01*
X155163971Y-94449458D01*
X155011734Y-94338851D01*
X155011729Y-94338848D01*
X154838807Y-94261857D01*
X154838802Y-94261855D01*
X154693001Y-94230865D01*
X154653646Y-94222500D01*
X154464354Y-94222500D01*
X154431897Y-94229398D01*
X154279197Y-94261855D01*
X154279192Y-94261857D01*
X154106270Y-94338848D01*
X154106265Y-94338851D01*
X153953129Y-94450111D01*
X153826466Y-94590785D01*
X153731821Y-94754715D01*
X153731818Y-94754722D01*
X153675059Y-94929409D01*
X153673326Y-94934744D01*
X153653540Y-95123000D01*
X141515818Y-95123000D01*
X141499133Y-95068112D01*
X141515739Y-95004935D01*
X141550179Y-94945284D01*
X141608674Y-94765256D01*
X141628460Y-94577000D01*
X141608674Y-94388744D01*
X141550179Y-94208716D01*
X141455533Y-94044784D01*
X141328871Y-93904112D01*
X141328870Y-93904111D01*
X141175734Y-93792851D01*
X141175729Y-93792848D01*
X141002807Y-93715857D01*
X141002802Y-93715855D01*
X140857001Y-93684865D01*
X140817646Y-93676500D01*
X140628354Y-93676500D01*
X140595897Y-93683398D01*
X140443197Y-93715855D01*
X140443192Y-93715857D01*
X140270270Y-93792848D01*
X140270265Y-93792851D01*
X140117129Y-93904111D01*
X139990466Y-94044785D01*
X139895821Y-94208715D01*
X139895818Y-94208722D01*
X139842209Y-94373715D01*
X139837326Y-94388744D01*
X139817540Y-94577000D01*
X137292533Y-94577000D01*
X137285674Y-94511744D01*
X137227179Y-94331716D01*
X137132533Y-94167784D01*
X137005871Y-94027112D01*
X136996245Y-94020118D01*
X136852734Y-93915851D01*
X136852729Y-93915848D01*
X136679807Y-93838857D01*
X136679802Y-93838855D01*
X136534001Y-93807865D01*
X136494646Y-93799500D01*
X136305354Y-93799500D01*
X136272897Y-93806398D01*
X136120197Y-93838855D01*
X136120192Y-93838857D01*
X135947270Y-93915848D01*
X135947265Y-93915851D01*
X135794129Y-94027111D01*
X135667466Y-94167785D01*
X135572821Y-94331715D01*
X135572818Y-94331722D01*
X135527106Y-94472410D01*
X135514326Y-94511744D01*
X135494540Y-94700000D01*
X130598046Y-94700000D01*
X130582674Y-94553744D01*
X130524179Y-94373716D01*
X130429533Y-94209784D01*
X130302871Y-94069112D01*
X130235435Y-94020117D01*
X130192771Y-93964788D01*
X130186792Y-93895175D01*
X130219398Y-93833380D01*
X130276589Y-93799929D01*
X131615479Y-93445517D01*
X131672988Y-93444099D01*
X131673194Y-93444142D01*
X131673197Y-93444144D01*
X131858354Y-93483500D01*
X131858355Y-93483500D01*
X132047644Y-93483500D01*
X132047646Y-93483500D01*
X132232803Y-93444144D01*
X132405730Y-93367151D01*
X132405734Y-93367148D01*
X132410563Y-93364998D01*
X132479813Y-93355712D01*
X132511437Y-93364998D01*
X132516265Y-93367148D01*
X132516270Y-93367151D01*
X132689197Y-93444144D01*
X132874354Y-93483500D01*
X132874355Y-93483500D01*
X133063644Y-93483500D01*
X133063646Y-93483500D01*
X133248803Y-93444144D01*
X133421730Y-93367151D01*
X133574871Y-93255888D01*
X133580173Y-93250000D01*
X138054540Y-93250000D01*
X138074326Y-93438256D01*
X138074327Y-93438259D01*
X138132818Y-93618277D01*
X138132821Y-93618284D01*
X138227467Y-93782216D01*
X138315653Y-93880156D01*
X138354129Y-93922888D01*
X138507265Y-94034148D01*
X138507270Y-94034151D01*
X138680192Y-94111142D01*
X138680197Y-94111144D01*
X138865354Y-94150500D01*
X138865355Y-94150500D01*
X139054644Y-94150500D01*
X139054646Y-94150500D01*
X139239803Y-94111144D01*
X139412730Y-94034151D01*
X139565871Y-93922888D01*
X139692533Y-93782216D01*
X139787179Y-93618284D01*
X139845674Y-93438256D01*
X139865460Y-93250000D01*
X139845674Y-93061744D01*
X139787179Y-92881716D01*
X139692533Y-92717784D01*
X139654460Y-92675500D01*
X154294540Y-92675500D01*
X154314326Y-92863756D01*
X154314327Y-92863759D01*
X154372818Y-93043777D01*
X154372821Y-93043784D01*
X154467467Y-93207716D01*
X154574867Y-93326995D01*
X154594129Y-93348388D01*
X154747265Y-93459648D01*
X154747270Y-93459651D01*
X154920192Y-93536642D01*
X154920197Y-93536644D01*
X155105354Y-93576000D01*
X155105355Y-93576000D01*
X155294644Y-93576000D01*
X155294646Y-93576000D01*
X155479803Y-93536644D01*
X155652730Y-93459651D01*
X155805871Y-93348388D01*
X155932533Y-93207716D01*
X156027179Y-93043784D01*
X156085674Y-92863756D01*
X156105460Y-92675500D01*
X156085674Y-92487244D01*
X156027179Y-92307216D01*
X155965132Y-92199748D01*
X155948660Y-92131850D01*
X155965133Y-92075751D01*
X156027179Y-91968284D01*
X156069836Y-91837000D01*
X159368540Y-91837000D01*
X159388326Y-92025256D01*
X159388327Y-92025259D01*
X159446818Y-92205277D01*
X159446821Y-92205284D01*
X159541467Y-92369216D01*
X159648654Y-92488259D01*
X159668129Y-92509888D01*
X159821265Y-92621148D01*
X159821270Y-92621151D01*
X159994192Y-92698142D01*
X159994197Y-92698144D01*
X160179354Y-92737500D01*
X160179355Y-92737500D01*
X160368644Y-92737500D01*
X160368646Y-92737500D01*
X160422750Y-92726000D01*
X161781540Y-92726000D01*
X161801326Y-92914256D01*
X161801327Y-92914259D01*
X161859818Y-93094277D01*
X161859820Y-93094281D01*
X161859821Y-93094284D01*
X161954467Y-93258216D01*
X162042253Y-93355712D01*
X162081129Y-93398888D01*
X162234265Y-93510148D01*
X162234270Y-93510151D01*
X162407192Y-93587142D01*
X162407197Y-93587144D01*
X162592354Y-93626500D01*
X162592355Y-93626500D01*
X162781644Y-93626500D01*
X162781646Y-93626500D01*
X162966803Y-93587144D01*
X163139730Y-93510151D01*
X163292871Y-93398888D01*
X163419533Y-93258216D01*
X163514179Y-93094284D01*
X163572674Y-92914256D01*
X163592460Y-92726000D01*
X163572674Y-92537744D01*
X163514179Y-92357716D01*
X163419533Y-92193784D01*
X163292871Y-92053112D01*
X163265609Y-92033305D01*
X163139734Y-91941851D01*
X163139729Y-91941848D01*
X162966807Y-91864857D01*
X162966802Y-91864855D01*
X162810890Y-91831716D01*
X162781646Y-91825500D01*
X162592354Y-91825500D01*
X162563110Y-91831716D01*
X162407197Y-91864855D01*
X162407192Y-91864857D01*
X162234270Y-91941848D01*
X162234265Y-91941851D01*
X162081129Y-92053111D01*
X161954466Y-92193785D01*
X161859821Y-92357715D01*
X161859818Y-92357722D01*
X161802590Y-92533853D01*
X161801326Y-92537744D01*
X161781540Y-92726000D01*
X160422750Y-92726000D01*
X160553803Y-92698144D01*
X160726730Y-92621151D01*
X160879871Y-92509888D01*
X161006533Y-92369216D01*
X161101179Y-92205284D01*
X161159674Y-92025256D01*
X161179460Y-91837000D01*
X161159674Y-91648744D01*
X161101179Y-91468716D01*
X161006533Y-91304784D01*
X160879871Y-91164112D01*
X160876185Y-91161434D01*
X160726734Y-91052851D01*
X160726729Y-91052848D01*
X160553807Y-90975857D01*
X160553802Y-90975855D01*
X160408001Y-90944865D01*
X160368646Y-90936500D01*
X160179354Y-90936500D01*
X160146897Y-90943398D01*
X159994197Y-90975855D01*
X159994192Y-90975857D01*
X159821270Y-91052848D01*
X159821265Y-91052851D01*
X159668129Y-91164111D01*
X159541466Y-91304785D01*
X159446821Y-91468715D01*
X159446818Y-91468722D01*
X159388327Y-91648740D01*
X159388326Y-91648744D01*
X159368540Y-91837000D01*
X156069836Y-91837000D01*
X156085674Y-91788256D01*
X156105460Y-91600000D01*
X156085674Y-91411744D01*
X156027179Y-91231716D01*
X155958060Y-91111999D01*
X155941588Y-91044100D01*
X155958061Y-90988000D01*
X155968368Y-90970148D01*
X156027179Y-90868284D01*
X156085674Y-90688256D01*
X156105460Y-90500000D01*
X156085674Y-90311744D01*
X156044817Y-90186000D01*
X160638540Y-90186000D01*
X160658326Y-90374256D01*
X160658327Y-90374259D01*
X160716818Y-90554277D01*
X160716821Y-90554284D01*
X160811467Y-90718216D01*
X160934978Y-90855388D01*
X160938129Y-90858888D01*
X161091265Y-90970148D01*
X161091270Y-90970151D01*
X161264192Y-91047142D01*
X161264197Y-91047144D01*
X161449354Y-91086500D01*
X161449355Y-91086500D01*
X161638644Y-91086500D01*
X161638646Y-91086500D01*
X161823803Y-91047144D01*
X161996730Y-90970151D01*
X162149871Y-90858888D01*
X162276533Y-90718216D01*
X162371179Y-90554284D01*
X162429674Y-90374256D01*
X162449460Y-90186000D01*
X162429674Y-89997744D01*
X162371179Y-89817716D01*
X162276533Y-89653784D01*
X162149871Y-89513112D01*
X162149870Y-89513111D01*
X161996734Y-89401851D01*
X161996729Y-89401848D01*
X161823807Y-89324857D01*
X161823802Y-89324855D01*
X161678001Y-89293865D01*
X161638646Y-89285500D01*
X161449354Y-89285500D01*
X161416897Y-89292398D01*
X161264197Y-89324855D01*
X161264192Y-89324857D01*
X161091270Y-89401848D01*
X161091265Y-89401851D01*
X160938129Y-89513111D01*
X160811466Y-89653785D01*
X160716821Y-89817715D01*
X160716818Y-89817722D01*
X160659463Y-89994244D01*
X160658326Y-89997744D01*
X160638540Y-90186000D01*
X156044817Y-90186000D01*
X156027179Y-90131716D01*
X155932533Y-89967784D01*
X155805871Y-89827112D01*
X155803988Y-89825744D01*
X155652734Y-89715851D01*
X155652729Y-89715848D01*
X155479807Y-89638857D01*
X155479802Y-89638855D01*
X155334001Y-89607865D01*
X155294646Y-89599500D01*
X155105354Y-89599500D01*
X155072897Y-89606398D01*
X154920197Y-89638855D01*
X154920192Y-89638857D01*
X154747270Y-89715848D01*
X154747265Y-89715851D01*
X154594129Y-89827111D01*
X154467466Y-89967785D01*
X154372821Y-90131715D01*
X154372818Y-90131722D01*
X154323248Y-90284284D01*
X154314326Y-90311744D01*
X154294540Y-90500000D01*
X154314326Y-90688256D01*
X154314327Y-90688259D01*
X154372818Y-90868277D01*
X154372821Y-90868284D01*
X154430821Y-90968744D01*
X154441939Y-90988000D01*
X154458412Y-91055900D01*
X154441939Y-91112000D01*
X154372821Y-91231715D01*
X154372818Y-91231722D01*
X154325048Y-91378744D01*
X154314326Y-91411744D01*
X154294540Y-91600000D01*
X154314326Y-91788256D01*
X154314327Y-91788259D01*
X154372818Y-91968277D01*
X154372820Y-91968281D01*
X154372821Y-91968284D01*
X154434866Y-92075750D01*
X154434867Y-92075751D01*
X154451339Y-92143651D01*
X154434867Y-92199748D01*
X154431837Y-92204998D01*
X154372820Y-92307218D01*
X154372818Y-92307222D01*
X154321277Y-92465851D01*
X154314326Y-92487244D01*
X154294540Y-92675500D01*
X139654460Y-92675500D01*
X139565871Y-92577112D01*
X139565870Y-92577111D01*
X139412734Y-92465851D01*
X139412729Y-92465848D01*
X139239807Y-92388857D01*
X139239802Y-92388855D01*
X139062413Y-92351151D01*
X139054646Y-92349500D01*
X138865354Y-92349500D01*
X138857601Y-92351148D01*
X138680197Y-92388855D01*
X138680192Y-92388857D01*
X138507270Y-92465848D01*
X138507265Y-92465851D01*
X138354129Y-92577111D01*
X138227466Y-92717785D01*
X138132821Y-92881715D01*
X138132818Y-92881722D01*
X138074521Y-93061144D01*
X138074326Y-93061744D01*
X138054540Y-93250000D01*
X133580173Y-93250000D01*
X133701533Y-93115216D01*
X133796179Y-92951284D01*
X133804808Y-92924725D01*
X133844240Y-92867053D01*
X133891010Y-92843171D01*
X133901307Y-92840445D01*
X133908179Y-92838627D01*
X133939904Y-92834500D01*
X135765990Y-92834500D01*
X135766000Y-92834500D01*
X135873456Y-92822947D01*
X135924967Y-92811741D01*
X135960225Y-92800006D01*
X136027497Y-92777616D01*
X136027501Y-92777613D01*
X136027504Y-92777613D01*
X136148543Y-92699825D01*
X136201347Y-92654070D01*
X136295567Y-92545336D01*
X136355338Y-92414459D01*
X136372000Y-92357715D01*
X136375022Y-92347425D01*
X136375023Y-92347419D01*
X136375024Y-92347416D01*
X136395500Y-92205000D01*
X136395500Y-89916000D01*
X140191540Y-89916000D01*
X140211326Y-90104256D01*
X140211327Y-90104259D01*
X140269818Y-90284277D01*
X140269821Y-90284284D01*
X140364467Y-90448216D01*
X140482766Y-90579600D01*
X140491129Y-90588888D01*
X140587315Y-90658771D01*
X140629981Y-90714101D01*
X140635960Y-90783714D01*
X140603355Y-90845509D01*
X140587316Y-90859407D01*
X140494127Y-90927113D01*
X140367466Y-91067785D01*
X140272821Y-91231715D01*
X140272818Y-91231722D01*
X140225048Y-91378744D01*
X140214326Y-91411744D01*
X140194540Y-91600000D01*
X140214326Y-91788256D01*
X140214327Y-91788259D01*
X140272818Y-91968277D01*
X140272820Y-91968281D01*
X140272821Y-91968284D01*
X140367467Y-92132216D01*
X140433252Y-92205277D01*
X140494129Y-92272888D01*
X140647265Y-92384148D01*
X140647270Y-92384151D01*
X140820192Y-92461142D01*
X140820197Y-92461144D01*
X141005354Y-92500500D01*
X141005355Y-92500500D01*
X141194644Y-92500500D01*
X141194646Y-92500500D01*
X141379803Y-92461144D01*
X141552730Y-92384151D01*
X141705871Y-92272888D01*
X141832533Y-92132216D01*
X141889640Y-92033302D01*
X141940205Y-91985089D01*
X142008812Y-91971865D01*
X142073677Y-91997833D01*
X142104412Y-92033302D01*
X142115849Y-92053112D01*
X142142467Y-92099216D01*
X142269129Y-92239888D01*
X142422265Y-92351148D01*
X142422270Y-92351151D01*
X142595192Y-92428142D01*
X142595197Y-92428144D01*
X142780354Y-92467500D01*
X142780355Y-92467500D01*
X142969644Y-92467500D01*
X142969646Y-92467500D01*
X143154803Y-92428144D01*
X143327730Y-92351151D01*
X143480871Y-92239888D01*
X143607533Y-92099216D01*
X143702179Y-91935284D01*
X143760674Y-91755256D01*
X143780460Y-91567000D01*
X143760674Y-91378744D01*
X143702179Y-91198716D01*
X143607533Y-91034784D01*
X143480871Y-90894112D01*
X143408893Y-90841817D01*
X143366228Y-90786489D01*
X143360249Y-90716875D01*
X143392854Y-90655080D01*
X143408894Y-90641182D01*
X143431464Y-90624784D01*
X143480871Y-90588888D01*
X143607533Y-90448216D01*
X143702179Y-90284284D01*
X143760674Y-90104256D01*
X143780460Y-89916000D01*
X143760674Y-89727744D01*
X143702179Y-89547716D01*
X143607533Y-89383784D01*
X143480871Y-89243112D01*
X143480870Y-89243111D01*
X143327734Y-89131851D01*
X143327729Y-89131848D01*
X143154807Y-89054857D01*
X143154802Y-89054855D01*
X143009001Y-89023865D01*
X142969646Y-89015500D01*
X142780354Y-89015500D01*
X142747897Y-89022398D01*
X142595197Y-89054855D01*
X142595192Y-89054857D01*
X142422270Y-89131848D01*
X142422265Y-89131851D01*
X142269129Y-89243111D01*
X142142466Y-89383785D01*
X142093387Y-89468793D01*
X142042820Y-89517008D01*
X141974213Y-89530232D01*
X141909349Y-89504264D01*
X141878613Y-89468793D01*
X141839964Y-89401851D01*
X141829533Y-89383784D01*
X141702871Y-89243112D01*
X141702870Y-89243111D01*
X141549734Y-89131851D01*
X141549729Y-89131848D01*
X141376807Y-89054857D01*
X141376802Y-89054855D01*
X141231001Y-89023865D01*
X141191646Y-89015500D01*
X141002354Y-89015500D01*
X140969897Y-89022398D01*
X140817197Y-89054855D01*
X140817192Y-89054857D01*
X140644270Y-89131848D01*
X140644265Y-89131851D01*
X140491129Y-89243111D01*
X140364466Y-89383785D01*
X140269821Y-89547715D01*
X140269818Y-89547722D01*
X140211327Y-89727740D01*
X140211326Y-89727744D01*
X140191540Y-89916000D01*
X136395500Y-89916000D01*
X136395500Y-89122344D01*
X136394945Y-89105677D01*
X136394103Y-89088842D01*
X136387814Y-89059256D01*
X136364190Y-88948110D01*
X136340084Y-88882526D01*
X136340083Y-88882523D01*
X136271730Y-88755916D01*
X136271728Y-88755914D01*
X136267516Y-88748112D01*
X136270178Y-88746674D01*
X136251288Y-88695268D01*
X136266470Y-88627068D01*
X136267626Y-88625021D01*
X136297725Y-88572888D01*
X136336179Y-88506284D01*
X136394674Y-88326256D01*
X136414460Y-88138000D01*
X136411334Y-88108259D01*
X136423904Y-88039530D01*
X136471636Y-87988507D01*
X136539376Y-87971389D01*
X136586719Y-87982759D01*
X136776565Y-88070591D01*
X137115726Y-88184868D01*
X137465254Y-88261805D01*
X137821052Y-88300500D01*
X137821058Y-88300500D01*
X138178942Y-88300500D01*
X138178948Y-88300500D01*
X138534746Y-88261805D01*
X138698342Y-88225794D01*
X138768043Y-88230607D01*
X138824079Y-88272340D01*
X138848316Y-88333931D01*
X138851685Y-88365979D01*
X138851687Y-88365990D01*
X138906930Y-88536012D01*
X138906933Y-88536018D01*
X138996324Y-88690848D01*
X139037995Y-88737129D01*
X139115947Y-88823704D01*
X139115950Y-88823706D01*
X139115953Y-88823709D01*
X139260590Y-88928795D01*
X139423916Y-89001512D01*
X139598792Y-89038683D01*
X139598793Y-89038683D01*
X139777572Y-89038683D01*
X139777574Y-89038683D01*
X139952450Y-89001512D01*
X140115776Y-88928795D01*
X140260413Y-88823709D01*
X140380042Y-88690848D01*
X140469433Y-88536018D01*
X140524680Y-88365986D01*
X140543368Y-88188183D01*
X140524680Y-88010380D01*
X140469433Y-87840348D01*
X140380042Y-87685518D01*
X140312117Y-87610079D01*
X140269559Y-87562814D01*
X140239329Y-87499823D01*
X140247954Y-87430487D01*
X140276435Y-87389818D01*
X140308213Y-87359716D01*
X140399668Y-87273086D01*
X140631365Y-87000311D01*
X140634966Y-86995000D01*
X142527815Y-86995000D01*
X142546503Y-87172805D01*
X142546504Y-87172807D01*
X142601747Y-87342829D01*
X142601750Y-87342835D01*
X142691141Y-87497665D01*
X142721800Y-87531715D01*
X142810764Y-87630521D01*
X142810767Y-87630523D01*
X142810770Y-87630526D01*
X142955407Y-87735612D01*
X143118733Y-87808329D01*
X143293609Y-87845500D01*
X143293610Y-87845500D01*
X143472389Y-87845500D01*
X143472391Y-87845500D01*
X143647267Y-87808329D01*
X143669451Y-87798451D01*
X143738701Y-87789165D01*
X143801978Y-87818792D01*
X143837820Y-87873411D01*
X143871748Y-87977831D01*
X143871750Y-87977835D01*
X143961141Y-88132665D01*
X143968902Y-88141284D01*
X144080764Y-88265521D01*
X144080767Y-88265523D01*
X144080770Y-88265526D01*
X144225407Y-88370612D01*
X144388733Y-88443329D01*
X144563609Y-88480500D01*
X144563610Y-88480500D01*
X144742389Y-88480500D01*
X144742391Y-88480500D01*
X144917267Y-88443329D01*
X145080593Y-88370612D01*
X145225230Y-88265526D01*
X145228581Y-88261805D01*
X145261005Y-88225794D01*
X145344859Y-88132665D01*
X145434250Y-87977835D01*
X145489497Y-87807803D01*
X145493155Y-87773000D01*
X153526540Y-87773000D01*
X153546326Y-87961256D01*
X153546327Y-87961259D01*
X153604818Y-88141277D01*
X153604821Y-88141284D01*
X153699467Y-88305216D01*
X153758350Y-88370612D01*
X153826129Y-88445888D01*
X153979265Y-88557148D01*
X153979270Y-88557151D01*
X154152192Y-88634142D01*
X154152197Y-88634144D01*
X154337354Y-88673500D01*
X154337355Y-88673500D01*
X154526644Y-88673500D01*
X154526646Y-88673500D01*
X154711803Y-88634144D01*
X154884730Y-88557151D01*
X155037871Y-88445888D01*
X155164533Y-88305216D01*
X155259179Y-88141284D01*
X155317674Y-87961256D01*
X155324112Y-87900000D01*
X155694540Y-87900000D01*
X155714326Y-88088256D01*
X155714327Y-88088259D01*
X155772818Y-88268277D01*
X155772821Y-88268284D01*
X155867467Y-88432216D01*
X155960926Y-88536012D01*
X155994129Y-88572888D01*
X156147265Y-88684148D01*
X156147270Y-88684151D01*
X156320192Y-88761142D01*
X156320197Y-88761144D01*
X156505354Y-88800500D01*
X156505355Y-88800500D01*
X156694644Y-88800500D01*
X156694646Y-88800500D01*
X156879803Y-88761144D01*
X157052730Y-88684151D01*
X157077114Y-88666434D01*
X157142919Y-88642954D01*
X157210973Y-88658778D01*
X157222879Y-88666429D01*
X157247266Y-88684148D01*
X157247269Y-88684150D01*
X157247270Y-88684151D01*
X157420192Y-88761142D01*
X157420197Y-88761144D01*
X157605354Y-88800500D01*
X157605355Y-88800500D01*
X157794644Y-88800500D01*
X157794646Y-88800500D01*
X157979803Y-88761144D01*
X158152730Y-88684151D01*
X158305871Y-88572888D01*
X158432533Y-88432216D01*
X158527179Y-88268284D01*
X158585674Y-88088256D01*
X158605460Y-87900000D01*
X160638540Y-87900000D01*
X160658326Y-88088256D01*
X160658327Y-88088259D01*
X160716818Y-88268277D01*
X160716821Y-88268284D01*
X160811467Y-88432216D01*
X160904926Y-88536012D01*
X160938129Y-88572888D01*
X161091265Y-88684148D01*
X161091270Y-88684151D01*
X161264192Y-88761142D01*
X161264197Y-88761144D01*
X161449354Y-88800500D01*
X161449355Y-88800500D01*
X161638644Y-88800500D01*
X161638646Y-88800500D01*
X161823803Y-88761144D01*
X161996730Y-88684151D01*
X162149871Y-88572888D01*
X162276533Y-88432216D01*
X162371179Y-88268284D01*
X162429674Y-88088256D01*
X162449460Y-87900000D01*
X162429674Y-87711744D01*
X162371179Y-87531716D01*
X162276533Y-87367784D01*
X162149871Y-87227112D01*
X162106752Y-87195784D01*
X161996734Y-87115851D01*
X161996729Y-87115848D01*
X161823807Y-87038857D01*
X161823802Y-87038855D01*
X161678001Y-87007865D01*
X161638646Y-86999500D01*
X161449354Y-86999500D01*
X161416897Y-87006398D01*
X161264197Y-87038855D01*
X161264192Y-87038857D01*
X161091270Y-87115848D01*
X161091265Y-87115851D01*
X160938129Y-87227111D01*
X160811466Y-87367785D01*
X160716821Y-87531715D01*
X160716818Y-87531722D01*
X160684716Y-87630523D01*
X160658326Y-87711744D01*
X160638540Y-87900000D01*
X158605460Y-87900000D01*
X158585674Y-87711744D01*
X158527179Y-87531716D01*
X158432533Y-87367784D01*
X158305871Y-87227112D01*
X158262752Y-87195784D01*
X158152734Y-87115851D01*
X158152729Y-87115848D01*
X157979807Y-87038857D01*
X157979802Y-87038855D01*
X157834001Y-87007865D01*
X157794646Y-86999500D01*
X157605354Y-86999500D01*
X157572897Y-87006398D01*
X157420197Y-87038855D01*
X157420192Y-87038857D01*
X157247270Y-87115848D01*
X157247265Y-87115851D01*
X157222885Y-87133565D01*
X157157079Y-87157045D01*
X157089025Y-87141219D01*
X157077115Y-87133565D01*
X157052734Y-87115851D01*
X157052729Y-87115848D01*
X156879807Y-87038857D01*
X156879802Y-87038855D01*
X156734001Y-87007865D01*
X156694646Y-86999500D01*
X156505354Y-86999500D01*
X156472897Y-87006398D01*
X156320197Y-87038855D01*
X156320192Y-87038857D01*
X156147270Y-87115848D01*
X156147265Y-87115851D01*
X155994129Y-87227111D01*
X155867466Y-87367785D01*
X155772821Y-87531715D01*
X155772818Y-87531722D01*
X155740716Y-87630523D01*
X155714326Y-87711744D01*
X155694540Y-87900000D01*
X155324112Y-87900000D01*
X155337460Y-87773000D01*
X155317674Y-87584744D01*
X155259179Y-87404716D01*
X155164533Y-87240784D01*
X155037871Y-87100112D01*
X155037870Y-87100111D01*
X154884734Y-86988851D01*
X154884729Y-86988848D01*
X154711807Y-86911857D01*
X154711802Y-86911855D01*
X154566001Y-86880865D01*
X154526646Y-86872500D01*
X154337354Y-86872500D01*
X154304897Y-86879398D01*
X154152197Y-86911855D01*
X154152192Y-86911857D01*
X153979270Y-86988848D01*
X153979265Y-86988851D01*
X153826129Y-87100111D01*
X153699466Y-87240785D01*
X153604821Y-87404715D01*
X153604818Y-87404722D01*
X153546327Y-87584740D01*
X153546326Y-87584744D01*
X153526540Y-87773000D01*
X145493155Y-87773000D01*
X145508185Y-87630000D01*
X145489497Y-87452197D01*
X145434250Y-87282165D01*
X145344859Y-87127335D01*
X145265193Y-87038857D01*
X145225235Y-86994478D01*
X145225232Y-86994476D01*
X145225231Y-86994475D01*
X145225230Y-86994474D01*
X145080593Y-86889388D01*
X144917267Y-86816671D01*
X144917265Y-86816670D01*
X144789594Y-86789533D01*
X144742391Y-86779500D01*
X144563609Y-86779500D01*
X144526439Y-86787400D01*
X144388734Y-86816670D01*
X144388729Y-86816672D01*
X144366542Y-86826550D01*
X144297291Y-86835833D01*
X144234016Y-86806202D01*
X144198179Y-86751587D01*
X144164252Y-86647170D01*
X144164249Y-86647164D01*
X144163080Y-86645139D01*
X144074859Y-86492335D01*
X144028003Y-86440296D01*
X143955235Y-86359478D01*
X143955232Y-86359476D01*
X143955231Y-86359475D01*
X143955230Y-86359474D01*
X143810593Y-86254388D01*
X143647267Y-86181671D01*
X143647265Y-86181670D01*
X143519594Y-86154533D01*
X143472391Y-86144500D01*
X143293609Y-86144500D01*
X143262954Y-86151015D01*
X143118733Y-86181670D01*
X143118728Y-86181672D01*
X142955408Y-86254387D01*
X142810768Y-86359475D01*
X142691140Y-86492336D01*
X142601750Y-86647164D01*
X142601747Y-86647170D01*
X142546504Y-86817192D01*
X142546503Y-86817194D01*
X142527815Y-86995000D01*
X140634966Y-86995000D01*
X140832211Y-86704085D01*
X140999853Y-86387880D01*
X141132324Y-86055403D01*
X141149095Y-85995000D01*
X149335540Y-85995000D01*
X149355326Y-86183256D01*
X149355327Y-86183259D01*
X149413818Y-86363277D01*
X149413821Y-86363284D01*
X149508467Y-86527216D01*
X149526489Y-86547231D01*
X149635129Y-86667888D01*
X149788265Y-86779148D01*
X149788270Y-86779151D01*
X149961192Y-86856142D01*
X149961197Y-86856144D01*
X150146354Y-86895500D01*
X150146355Y-86895500D01*
X150335644Y-86895500D01*
X150335646Y-86895500D01*
X150520803Y-86856144D01*
X150693730Y-86779151D01*
X150739614Y-86745813D01*
X150805421Y-86722334D01*
X150873475Y-86738159D01*
X150885386Y-86745814D01*
X150931271Y-86779152D01*
X151104192Y-86856142D01*
X151104197Y-86856144D01*
X151289354Y-86895500D01*
X151289355Y-86895500D01*
X151478644Y-86895500D01*
X151478646Y-86895500D01*
X151663803Y-86856144D01*
X151836730Y-86779151D01*
X151989871Y-86667888D01*
X152116533Y-86527216D01*
X152211179Y-86363284D01*
X152269674Y-86183256D01*
X152289460Y-85995000D01*
X152269674Y-85806744D01*
X152211179Y-85626716D01*
X152116533Y-85462784D01*
X151989871Y-85322112D01*
X151955500Y-85297140D01*
X151836734Y-85210851D01*
X151836729Y-85210848D01*
X151663807Y-85133857D01*
X151663802Y-85133855D01*
X151518001Y-85102865D01*
X151478646Y-85094500D01*
X151289354Y-85094500D01*
X151256897Y-85101398D01*
X151104197Y-85133855D01*
X151104192Y-85133857D01*
X150931270Y-85210848D01*
X150931266Y-85210851D01*
X150885384Y-85244186D01*
X150819578Y-85267665D01*
X150751524Y-85251839D01*
X150739616Y-85244186D01*
X150693733Y-85210851D01*
X150693729Y-85210848D01*
X150520807Y-85133857D01*
X150520802Y-85133855D01*
X150375001Y-85102865D01*
X150335646Y-85094500D01*
X150146354Y-85094500D01*
X150113897Y-85101398D01*
X149961197Y-85133855D01*
X149961192Y-85133857D01*
X149788270Y-85210848D01*
X149788265Y-85210851D01*
X149635129Y-85322111D01*
X149508466Y-85462785D01*
X149413821Y-85626715D01*
X149413818Y-85626722D01*
X149356784Y-85802256D01*
X149355326Y-85806744D01*
X149335540Y-85995000D01*
X141149095Y-85995000D01*
X141228071Y-85710552D01*
X141268690Y-85462785D01*
X141285970Y-85357385D01*
X141285970Y-85357382D01*
X141285972Y-85357371D01*
X141305348Y-85000000D01*
X141285972Y-84642629D01*
X141280679Y-84610346D01*
X141228073Y-84289460D01*
X141228072Y-84289459D01*
X141228071Y-84289448D01*
X141181380Y-84121283D01*
X141132327Y-83944607D01*
X141132325Y-83944600D01*
X141113322Y-83896907D01*
X141093663Y-83847567D01*
X141393000Y-83847567D01*
X141407583Y-84000289D01*
X141407584Y-84000296D01*
X141407585Y-84000300D01*
X141465263Y-84196734D01*
X141530117Y-84322533D01*
X141559074Y-84378703D01*
X141644846Y-84487772D01*
X141685628Y-84539630D01*
X141840351Y-84673697D01*
X142017650Y-84776061D01*
X142211117Y-84843021D01*
X142413758Y-84872155D01*
X142413759Y-84872156D01*
X142413759Y-84872155D01*
X142413760Y-84872156D01*
X142618255Y-84862415D01*
X142817212Y-84814149D01*
X142898708Y-84776931D01*
X143003428Y-84729107D01*
X143003431Y-84729105D01*
X143003438Y-84729102D01*
X143170204Y-84610349D01*
X143311482Y-84462181D01*
X143422166Y-84289953D01*
X143473039Y-84162875D01*
X143516229Y-84107957D01*
X143582255Y-84085104D01*
X143650156Y-84101577D01*
X143675837Y-84121283D01*
X143750378Y-84195824D01*
X143750384Y-84195829D01*
X143931333Y-84322531D01*
X143931335Y-84322532D01*
X143931338Y-84322534D01*
X144131550Y-84415894D01*
X144344932Y-84473070D01*
X144502123Y-84486822D01*
X144564998Y-84492323D01*
X144565000Y-84492323D01*
X144565002Y-84492323D01*
X144620017Y-84487509D01*
X144785068Y-84473070D01*
X144998450Y-84415894D01*
X145198662Y-84322534D01*
X145379620Y-84195826D01*
X145477319Y-84098127D01*
X145538642Y-84064642D01*
X145608334Y-84069626D01*
X145652681Y-84098127D01*
X145750378Y-84195824D01*
X145750384Y-84195829D01*
X145931333Y-84322531D01*
X145931335Y-84322532D01*
X145931338Y-84322534D01*
X146131550Y-84415894D01*
X146344932Y-84473070D01*
X146502123Y-84486822D01*
X146564998Y-84492323D01*
X146565000Y-84492323D01*
X146565002Y-84492323D01*
X146620017Y-84487509D01*
X146785068Y-84473070D01*
X146998450Y-84415894D01*
X147198662Y-84322534D01*
X147379620Y-84195826D01*
X147477319Y-84098127D01*
X147538642Y-84064642D01*
X147608334Y-84069626D01*
X147652681Y-84098127D01*
X147750378Y-84195824D01*
X147750384Y-84195829D01*
X147931333Y-84322531D01*
X147931335Y-84322532D01*
X147931338Y-84322534D01*
X148131550Y-84415894D01*
X148344932Y-84473070D01*
X148502123Y-84486822D01*
X148564998Y-84492323D01*
X148565000Y-84492323D01*
X148565002Y-84492323D01*
X148620017Y-84487509D01*
X148785068Y-84473070D01*
X148998450Y-84415894D01*
X149198662Y-84322534D01*
X149379620Y-84195826D01*
X149477319Y-84098127D01*
X149538642Y-84064642D01*
X149608334Y-84069626D01*
X149652681Y-84098127D01*
X149750378Y-84195824D01*
X149750384Y-84195829D01*
X149931333Y-84322531D01*
X149931335Y-84322532D01*
X149931338Y-84322534D01*
X150131550Y-84415894D01*
X150344932Y-84473070D01*
X150502123Y-84486822D01*
X150564998Y-84492323D01*
X150565000Y-84492323D01*
X150565002Y-84492323D01*
X150620017Y-84487509D01*
X150785068Y-84473070D01*
X150998450Y-84415894D01*
X151198662Y-84322534D01*
X151379620Y-84195826D01*
X151477319Y-84098127D01*
X151538642Y-84064642D01*
X151608334Y-84069626D01*
X151652681Y-84098127D01*
X151750378Y-84195824D01*
X151750384Y-84195829D01*
X151931333Y-84322531D01*
X151931335Y-84322532D01*
X151931338Y-84322534D01*
X152131550Y-84415894D01*
X152344932Y-84473070D01*
X152502123Y-84486822D01*
X152564998Y-84492323D01*
X152565000Y-84492323D01*
X152565002Y-84492323D01*
X152620017Y-84487509D01*
X152785068Y-84473070D01*
X152998450Y-84415894D01*
X153198662Y-84322534D01*
X153379620Y-84195826D01*
X153477319Y-84098127D01*
X153538642Y-84064642D01*
X153608334Y-84069626D01*
X153652681Y-84098127D01*
X153750378Y-84195824D01*
X153750384Y-84195829D01*
X153931333Y-84322531D01*
X153931335Y-84322532D01*
X153931338Y-84322534D01*
X154131550Y-84415894D01*
X154344932Y-84473070D01*
X154502123Y-84486822D01*
X154564998Y-84492323D01*
X154565000Y-84492323D01*
X154565002Y-84492323D01*
X154620017Y-84487509D01*
X154785068Y-84473070D01*
X154998450Y-84415894D01*
X155198662Y-84322534D01*
X155379620Y-84195826D01*
X155452443Y-84123003D01*
X155513766Y-84089518D01*
X155583458Y-84094502D01*
X155639391Y-84136374D01*
X155659101Y-84175748D01*
X155665262Y-84196732D01*
X155759074Y-84378703D01*
X155844846Y-84487772D01*
X155885628Y-84539630D01*
X156040351Y-84673697D01*
X156217650Y-84776061D01*
X156411117Y-84843021D01*
X156613758Y-84872155D01*
X156613759Y-84872156D01*
X156613759Y-84872155D01*
X156613760Y-84872156D01*
X156818255Y-84862415D01*
X157017212Y-84814149D01*
X157098708Y-84776931D01*
X157203428Y-84729107D01*
X157203431Y-84729105D01*
X157203438Y-84729102D01*
X157370204Y-84610349D01*
X157511482Y-84462181D01*
X157622166Y-84289953D01*
X157698255Y-84099891D01*
X157737000Y-83898864D01*
X157737000Y-83225000D01*
X158651186Y-83225000D01*
X158671601Y-83458346D01*
X158671603Y-83458356D01*
X158732225Y-83684603D01*
X158732227Y-83684607D01*
X158732228Y-83684611D01*
X158831223Y-83896907D01*
X158965579Y-84088787D01*
X159131213Y-84254421D01*
X159323093Y-84388777D01*
X159535389Y-84487772D01*
X159535395Y-84487773D01*
X159535396Y-84487774D01*
X159589853Y-84502365D01*
X159761649Y-84548398D01*
X159948329Y-84564730D01*
X159994999Y-84568814D01*
X159995000Y-84568814D01*
X159995001Y-84568814D01*
X160033891Y-84565411D01*
X160228351Y-84548398D01*
X160454611Y-84487772D01*
X160666907Y-84388777D01*
X160858787Y-84254421D01*
X161024421Y-84088787D01*
X161158777Y-83896907D01*
X161158777Y-83896905D01*
X161161882Y-83892472D01*
X161163323Y-83893481D01*
X161208172Y-83850712D01*
X161276778Y-83837484D01*
X161341645Y-83863447D01*
X161367294Y-83893048D01*
X161368118Y-83892472D01*
X161371222Y-83896905D01*
X161371223Y-83896907D01*
X161505579Y-84088787D01*
X161671213Y-84254421D01*
X161863093Y-84388777D01*
X162075389Y-84487772D01*
X162075395Y-84487773D01*
X162075396Y-84487774D01*
X162101269Y-84494706D01*
X162162586Y-84511136D01*
X162222246Y-84547500D01*
X162252776Y-84610347D01*
X162244482Y-84679723D01*
X162199997Y-84733601D01*
X162156283Y-84752199D01*
X162153202Y-84752853D01*
X162153192Y-84752857D01*
X161980270Y-84829848D01*
X161980266Y-84829851D01*
X161934384Y-84863186D01*
X161868578Y-84886665D01*
X161800524Y-84870839D01*
X161788616Y-84863186D01*
X161742733Y-84829851D01*
X161742729Y-84829848D01*
X161569807Y-84752857D01*
X161569802Y-84752855D01*
X161424001Y-84721865D01*
X161384646Y-84713500D01*
X161195354Y-84713500D01*
X161162897Y-84720398D01*
X161010197Y-84752855D01*
X161010192Y-84752857D01*
X160837270Y-84829848D01*
X160837265Y-84829851D01*
X160684129Y-84941111D01*
X160557466Y-85081785D01*
X160462821Y-85245715D01*
X160462818Y-85245722D01*
X160426537Y-85357385D01*
X160404326Y-85425744D01*
X160384540Y-85614000D01*
X160404326Y-85802256D01*
X160404327Y-85802259D01*
X160462818Y-85982277D01*
X160462821Y-85982284D01*
X160557467Y-86146216D01*
X160684129Y-86286888D01*
X160837265Y-86398148D01*
X160837270Y-86398151D01*
X161010192Y-86475142D01*
X161010197Y-86475144D01*
X161195354Y-86514500D01*
X161195355Y-86514500D01*
X161384644Y-86514500D01*
X161384646Y-86514500D01*
X161569803Y-86475144D01*
X161742730Y-86398151D01*
X161788614Y-86364813D01*
X161854421Y-86341334D01*
X161922475Y-86357159D01*
X161934386Y-86364814D01*
X161980271Y-86398152D01*
X162153192Y-86475142D01*
X162153197Y-86475144D01*
X162338354Y-86514500D01*
X162338355Y-86514500D01*
X162527644Y-86514500D01*
X162527646Y-86514500D01*
X162712803Y-86475144D01*
X162885730Y-86398151D01*
X163038871Y-86286888D01*
X163165533Y-86146216D01*
X163260179Y-85982284D01*
X163318674Y-85802256D01*
X163338460Y-85614000D01*
X163318674Y-85425744D01*
X163264112Y-85257823D01*
X163260181Y-85245722D01*
X163260180Y-85245721D01*
X163260179Y-85245716D01*
X163165533Y-85081784D01*
X163038871Y-84941112D01*
X163004500Y-84916140D01*
X162885734Y-84829851D01*
X162885732Y-84829850D01*
X162766877Y-84776931D01*
X162713641Y-84731680D01*
X162693320Y-84664831D01*
X162712366Y-84597607D01*
X162764732Y-84551352D01*
X162785213Y-84543879D01*
X162994611Y-84487772D01*
X163206907Y-84388777D01*
X163398787Y-84254421D01*
X163564421Y-84088787D01*
X163698777Y-83896907D01*
X163698777Y-83896905D01*
X163701882Y-83892472D01*
X163703323Y-83893481D01*
X163748172Y-83850712D01*
X163816778Y-83837484D01*
X163881645Y-83863447D01*
X163907294Y-83893048D01*
X163908118Y-83892472D01*
X163911222Y-83896905D01*
X163911223Y-83896907D01*
X164045579Y-84088787D01*
X164211213Y-84254421D01*
X164403093Y-84388777D01*
X164615389Y-84487772D01*
X164615395Y-84487773D01*
X164615396Y-84487774D01*
X164669853Y-84502365D01*
X164841649Y-84548398D01*
X165028329Y-84564730D01*
X165074999Y-84568814D01*
X165075000Y-84568814D01*
X165075001Y-84568814D01*
X165113891Y-84565411D01*
X165308351Y-84548398D01*
X165534611Y-84487772D01*
X165746907Y-84388777D01*
X165938787Y-84254421D01*
X166104421Y-84088787D01*
X166238777Y-83896907D01*
X166337772Y-83684611D01*
X166398398Y-83458351D01*
X166418814Y-83225000D01*
X166398398Y-82991649D01*
X166337772Y-82765389D01*
X166238777Y-82553093D01*
X166104421Y-82361213D01*
X165938787Y-82195579D01*
X165746907Y-82061223D01*
X165534611Y-81962228D01*
X165534607Y-81962227D01*
X165534603Y-81962225D01*
X165308356Y-81901603D01*
X165308346Y-81901601D01*
X165075001Y-81881186D01*
X165074999Y-81881186D01*
X164841653Y-81901601D01*
X164841643Y-81901603D01*
X164615396Y-81962225D01*
X164615389Y-81962227D01*
X164615389Y-81962228D01*
X164403093Y-82061223D01*
X164211213Y-82195579D01*
X164211211Y-82195580D01*
X164211208Y-82195583D01*
X164045583Y-82361208D01*
X164045580Y-82361211D01*
X164045579Y-82361213D01*
X163911223Y-82553093D01*
X163908118Y-82557528D01*
X163906680Y-82556521D01*
X163861810Y-82599297D01*
X163793202Y-82612513D01*
X163728340Y-82586540D01*
X163702702Y-82556953D01*
X163701882Y-82557528D01*
X163698777Y-82553093D01*
X163564421Y-82361213D01*
X163398787Y-82195579D01*
X163206907Y-82061223D01*
X162994611Y-81962228D01*
X162994607Y-81962227D01*
X162994603Y-81962225D01*
X162768356Y-81901603D01*
X162768346Y-81901601D01*
X162535001Y-81881186D01*
X162534999Y-81881186D01*
X162301653Y-81901601D01*
X162301643Y-81901603D01*
X162075396Y-81962225D01*
X162075389Y-81962227D01*
X162075389Y-81962228D01*
X161863093Y-82061223D01*
X161671213Y-82195579D01*
X161671211Y-82195580D01*
X161671208Y-82195583D01*
X161505583Y-82361208D01*
X161505580Y-82361211D01*
X161505579Y-82361213D01*
X161371223Y-82553093D01*
X161368118Y-82557528D01*
X161366680Y-82556521D01*
X161321810Y-82599297D01*
X161253202Y-82612513D01*
X161188340Y-82586540D01*
X161162702Y-82556953D01*
X161161882Y-82557528D01*
X161158777Y-82553093D01*
X161024421Y-82361213D01*
X160858787Y-82195579D01*
X160666907Y-82061223D01*
X160454611Y-81962228D01*
X160454607Y-81962227D01*
X160454603Y-81962225D01*
X160228356Y-81901603D01*
X160228346Y-81901601D01*
X159995001Y-81881186D01*
X159994999Y-81881186D01*
X159761653Y-81901601D01*
X159761643Y-81901603D01*
X159535396Y-81962225D01*
X159535389Y-81962227D01*
X159535389Y-81962228D01*
X159323093Y-82061223D01*
X159131213Y-82195579D01*
X159131211Y-82195580D01*
X159131208Y-82195583D01*
X158965583Y-82361208D01*
X158965580Y-82361211D01*
X158965579Y-82361213D01*
X158881851Y-82480789D01*
X158831223Y-82553093D01*
X158732229Y-82765387D01*
X158732225Y-82765396D01*
X158671603Y-82991643D01*
X158671601Y-82991653D01*
X158651186Y-83224999D01*
X158651186Y-83225000D01*
X157737000Y-83225000D01*
X157737000Y-82602437D01*
X157736700Y-82599297D01*
X157722416Y-82449710D01*
X157722415Y-82449709D01*
X157722415Y-82449700D01*
X157664737Y-82253266D01*
X157570926Y-82071297D01*
X157444372Y-81910370D01*
X157289649Y-81776303D01*
X157112350Y-81673939D01*
X157112344Y-81673936D01*
X157112342Y-81673936D01*
X156918884Y-81606979D01*
X156716242Y-81577844D01*
X156716240Y-81577843D01*
X156511747Y-81587584D01*
X156312784Y-81635852D01*
X156312780Y-81635853D01*
X156126571Y-81720892D01*
X156126559Y-81720899D01*
X155959796Y-81839650D01*
X155959793Y-81839653D01*
X155818517Y-81987819D01*
X155707833Y-82160048D01*
X155656960Y-82287122D01*
X155613770Y-82342043D01*
X155547743Y-82364895D01*
X155479842Y-82348422D01*
X155454162Y-82328716D01*
X155379621Y-82254175D01*
X155379615Y-82254170D01*
X155198666Y-82127468D01*
X155198662Y-82127466D01*
X155198660Y-82127465D01*
X154998450Y-82034106D01*
X154998447Y-82034105D01*
X154998445Y-82034104D01*
X154785070Y-81976930D01*
X154785062Y-81976929D01*
X154565002Y-81957677D01*
X154564998Y-81957677D01*
X154344937Y-81976929D01*
X154344929Y-81976930D01*
X154131554Y-82034104D01*
X154131550Y-82034106D01*
X154109103Y-82044572D01*
X153931340Y-82127465D01*
X153931338Y-82127466D01*
X153750381Y-82254172D01*
X153652680Y-82351873D01*
X153591356Y-82385357D01*
X153521665Y-82380373D01*
X153477318Y-82351872D01*
X153379621Y-82254175D01*
X153379615Y-82254170D01*
X153198666Y-82127468D01*
X153198662Y-82127466D01*
X153198660Y-82127465D01*
X152998450Y-82034106D01*
X152998447Y-82034105D01*
X152998445Y-82034104D01*
X152785070Y-81976930D01*
X152785062Y-81976929D01*
X152565002Y-81957677D01*
X152564998Y-81957677D01*
X152344937Y-81976929D01*
X152344929Y-81976930D01*
X152131554Y-82034104D01*
X152131550Y-82034106D01*
X152109103Y-82044572D01*
X151931340Y-82127465D01*
X151931338Y-82127466D01*
X151750381Y-82254172D01*
X151652680Y-82351873D01*
X151591356Y-82385357D01*
X151521665Y-82380373D01*
X151477318Y-82351872D01*
X151379621Y-82254175D01*
X151379615Y-82254170D01*
X151198666Y-82127468D01*
X151198662Y-82127466D01*
X151198660Y-82127465D01*
X150998450Y-82034106D01*
X150998447Y-82034105D01*
X150998445Y-82034104D01*
X150785070Y-81976930D01*
X150785062Y-81976929D01*
X150565002Y-81957677D01*
X150564998Y-81957677D01*
X150344937Y-81976929D01*
X150344929Y-81976930D01*
X150131554Y-82034104D01*
X150131550Y-82034106D01*
X150109103Y-82044572D01*
X149931340Y-82127465D01*
X149931338Y-82127466D01*
X149750381Y-82254172D01*
X149652680Y-82351873D01*
X149591356Y-82385357D01*
X149521665Y-82380373D01*
X149477318Y-82351872D01*
X149379621Y-82254175D01*
X149379615Y-82254170D01*
X149198666Y-82127468D01*
X149198662Y-82127466D01*
X149198660Y-82127465D01*
X148998450Y-82034106D01*
X148998447Y-82034105D01*
X148998445Y-82034104D01*
X148785070Y-81976930D01*
X148785062Y-81976929D01*
X148565002Y-81957677D01*
X148564998Y-81957677D01*
X148344937Y-81976929D01*
X148344929Y-81976930D01*
X148131554Y-82034104D01*
X148131550Y-82034106D01*
X148109103Y-82044572D01*
X147931340Y-82127465D01*
X147931338Y-82127466D01*
X147750381Y-82254172D01*
X147652680Y-82351873D01*
X147591356Y-82385357D01*
X147521665Y-82380373D01*
X147477318Y-82351872D01*
X147379621Y-82254175D01*
X147379615Y-82254170D01*
X147198666Y-82127468D01*
X147198662Y-82127466D01*
X147198660Y-82127465D01*
X146998450Y-82034106D01*
X146998447Y-82034105D01*
X146998445Y-82034104D01*
X146785070Y-81976930D01*
X146785062Y-81976929D01*
X146565002Y-81957677D01*
X146564998Y-81957677D01*
X146344937Y-81976929D01*
X146344929Y-81976930D01*
X146131554Y-82034104D01*
X146131550Y-82034106D01*
X146109103Y-82044572D01*
X145931340Y-82127465D01*
X145931338Y-82127466D01*
X145750381Y-82254172D01*
X145652680Y-82351873D01*
X145591356Y-82385357D01*
X145521665Y-82380373D01*
X145477318Y-82351872D01*
X145379621Y-82254175D01*
X145379615Y-82254170D01*
X145198666Y-82127468D01*
X145198662Y-82127466D01*
X145198660Y-82127465D01*
X144998450Y-82034106D01*
X144998447Y-82034105D01*
X144998445Y-82034104D01*
X144785070Y-81976930D01*
X144785062Y-81976929D01*
X144565002Y-81957677D01*
X144564998Y-81957677D01*
X144344937Y-81976929D01*
X144344929Y-81976930D01*
X144131554Y-82034104D01*
X144131550Y-82034106D01*
X144109103Y-82044572D01*
X143931340Y-82127465D01*
X143931338Y-82127466D01*
X143750381Y-82254172D01*
X143677556Y-82326997D01*
X143616232Y-82360481D01*
X143546541Y-82355496D01*
X143490607Y-82313625D01*
X143470899Y-82274252D01*
X143464737Y-82253266D01*
X143370926Y-82071297D01*
X143244372Y-81910370D01*
X143089649Y-81776303D01*
X142912350Y-81673939D01*
X142912344Y-81673936D01*
X142912342Y-81673936D01*
X142718884Y-81606979D01*
X142516242Y-81577844D01*
X142516240Y-81577843D01*
X142311747Y-81587584D01*
X142112784Y-81635852D01*
X142112780Y-81635853D01*
X141926571Y-81720892D01*
X141926559Y-81720899D01*
X141759796Y-81839650D01*
X141759793Y-81839653D01*
X141618517Y-81987819D01*
X141507834Y-82160046D01*
X141431744Y-82350110D01*
X141393000Y-82551135D01*
X141393000Y-83847567D01*
X141093663Y-83847567D01*
X141059278Y-83761265D01*
X140999857Y-83612129D01*
X140999848Y-83612111D01*
X140832215Y-83295922D01*
X140832213Y-83295919D01*
X140832211Y-83295915D01*
X140631365Y-82999689D01*
X140631361Y-82999684D01*
X140631358Y-82999680D01*
X140399668Y-82726914D01*
X140268259Y-82602437D01*
X140139837Y-82480789D01*
X140139830Y-82480783D01*
X140139827Y-82480781D01*
X140072245Y-82429407D01*
X139854919Y-82264200D01*
X139548253Y-82079685D01*
X139548252Y-82079684D01*
X139548248Y-82079682D01*
X139548244Y-82079680D01*
X139223447Y-81929414D01*
X139223441Y-81929411D01*
X139223435Y-81929409D01*
X139037076Y-81866617D01*
X138884273Y-81815131D01*
X138534744Y-81738194D01*
X138178949Y-81699500D01*
X138178948Y-81699500D01*
X137821052Y-81699500D01*
X137821050Y-81699500D01*
X137465255Y-81738194D01*
X137115726Y-81815131D01*
X136776565Y-81929409D01*
X136571566Y-82024251D01*
X136502457Y-82034534D01*
X136438759Y-82005822D01*
X136400696Y-81947231D01*
X136395500Y-81911711D01*
X136395500Y-81124500D01*
X136415185Y-81057461D01*
X136467989Y-81011706D01*
X136519500Y-81000500D01*
X140087528Y-81000500D01*
X140087532Y-81000500D01*
X140259938Y-80970101D01*
X140424445Y-80910225D01*
X140576055Y-80822692D01*
X140710163Y-80710163D01*
X140822692Y-80576055D01*
X140910225Y-80424445D01*
X140970101Y-80259938D01*
X141000500Y-80087532D01*
X141000500Y-80002705D01*
X141000736Y-79997299D01*
X141004476Y-79954554D01*
X141005784Y-79941277D01*
X141016918Y-79828223D01*
X141020542Y-79808309D01*
X141038402Y-79741653D01*
X141066683Y-79648424D01*
X141072953Y-79632037D01*
X141104420Y-79564558D01*
X141105872Y-79561653D01*
X141150764Y-79477666D01*
X141154657Y-79471331D01*
X141200994Y-79405155D01*
X141203827Y-79401420D01*
X141263122Y-79329168D01*
X141267162Y-79324710D01*
X141324710Y-79267162D01*
X141329168Y-79263122D01*
X141401404Y-79203840D01*
X141405142Y-79201003D01*
X141464951Y-79159123D01*
X141531152Y-79136799D01*
X141598919Y-79153809D01*
X141646733Y-79204757D01*
X141659411Y-79273466D01*
X141632930Y-79338123D01*
X141628220Y-79343673D01*
X141507466Y-79477784D01*
X141412821Y-79641715D01*
X141412818Y-79641722D01*
X141388810Y-79715613D01*
X141354326Y-79821744D01*
X141334540Y-80010000D01*
X141354326Y-80198256D01*
X141354327Y-80198259D01*
X141412818Y-80378277D01*
X141412821Y-80378284D01*
X141507467Y-80542216D01*
X141609220Y-80655224D01*
X141634129Y-80682888D01*
X141787265Y-80794148D01*
X141787270Y-80794151D01*
X141960192Y-80871142D01*
X141960197Y-80871144D01*
X142145354Y-80910500D01*
X142145355Y-80910500D01*
X142334644Y-80910500D01*
X142334646Y-80910500D01*
X142519803Y-80871144D01*
X142692730Y-80794151D01*
X142802117Y-80714676D01*
X142867920Y-80691198D01*
X142935974Y-80707023D01*
X142947871Y-80714668D01*
X143018057Y-80765661D01*
X143057270Y-80794151D01*
X143230192Y-80871142D01*
X143230197Y-80871144D01*
X143415354Y-80910500D01*
X143415355Y-80910500D01*
X143604644Y-80910500D01*
X143604646Y-80910500D01*
X143789803Y-80871144D01*
X143962730Y-80794151D01*
X144072117Y-80714676D01*
X144137920Y-80691198D01*
X144205974Y-80707023D01*
X144217871Y-80714668D01*
X144288057Y-80765661D01*
X144327270Y-80794151D01*
X144500192Y-80871142D01*
X144500197Y-80871144D01*
X144685354Y-80910500D01*
X144685355Y-80910500D01*
X144874644Y-80910500D01*
X144874646Y-80910500D01*
X145059803Y-80871144D01*
X145232730Y-80794151D01*
X145385871Y-80682888D01*
X145512533Y-80542216D01*
X145607179Y-80378284D01*
X145665674Y-80198256D01*
X145685460Y-80010000D01*
X145665674Y-79821744D01*
X145607179Y-79641716D01*
X145512533Y-79477784D01*
X145385871Y-79337112D01*
X145366263Y-79322866D01*
X145231312Y-79224818D01*
X145188646Y-79169488D01*
X145182667Y-79099875D01*
X145215273Y-79038080D01*
X145276111Y-79003723D01*
X145304197Y-79000500D01*
X154415803Y-79000500D01*
X154482842Y-79020185D01*
G37*
%TD.AperFunction*%
%TD*%
%TA.AperFunction,Conductor*%
%TO.N,VBUS*%
G36*
X135833039Y-81020185D02*
G01*
X135878794Y-81072989D01*
X135890000Y-81124500D01*
X135890000Y-82399185D01*
X135870315Y-82466224D01*
X135851275Y-82489208D01*
X135600332Y-82726914D01*
X135368641Y-82999680D01*
X135368634Y-82999690D01*
X135167790Y-83295913D01*
X135167784Y-83295922D01*
X135000151Y-83612111D01*
X135000142Y-83612129D01*
X134867674Y-83944600D01*
X134867672Y-83944607D01*
X134771932Y-84289434D01*
X134771926Y-84289460D01*
X134714029Y-84642614D01*
X134714028Y-84642631D01*
X134694652Y-84999997D01*
X134694652Y-85000002D01*
X134698331Y-85067848D01*
X134713030Y-85338972D01*
X134714028Y-85357368D01*
X134714029Y-85357385D01*
X134771926Y-85710539D01*
X134771932Y-85710565D01*
X134867672Y-86055392D01*
X134867674Y-86055399D01*
X135000142Y-86387870D01*
X135000151Y-86387888D01*
X135167784Y-86704077D01*
X135167787Y-86704082D01*
X135167789Y-86704085D01*
X135368635Y-87000311D01*
X135411769Y-87051092D01*
X135440166Y-87114929D01*
X135429542Y-87183986D01*
X135383270Y-87236337D01*
X135343042Y-87252657D01*
X135229196Y-87276856D01*
X135229192Y-87276857D01*
X135056270Y-87353848D01*
X135056265Y-87353851D01*
X134903129Y-87465111D01*
X134776466Y-87605785D01*
X134681821Y-87769715D01*
X134681818Y-87769722D01*
X134632888Y-87920315D01*
X134623326Y-87949744D01*
X134603540Y-88138000D01*
X134623326Y-88326256D01*
X134623327Y-88326259D01*
X134681818Y-88506277D01*
X134681821Y-88506284D01*
X134776467Y-88670216D01*
X134903129Y-88810888D01*
X135056265Y-88922148D01*
X135056270Y-88922151D01*
X135229192Y-88999142D01*
X135229197Y-88999144D01*
X135414354Y-89038500D01*
X135414355Y-89038500D01*
X135603644Y-89038500D01*
X135603646Y-89038500D01*
X135740221Y-89009470D01*
X135809886Y-89014786D01*
X135865620Y-89056923D01*
X135889725Y-89122503D01*
X135890000Y-89130760D01*
X135890000Y-92205000D01*
X135870315Y-92272039D01*
X135817511Y-92317794D01*
X135766000Y-92329000D01*
X133857999Y-92329000D01*
X129555598Y-93467871D01*
X129523867Y-93472000D01*
X129413000Y-93472000D01*
X126235000Y-93472000D01*
X126167961Y-93452315D01*
X126122206Y-93399511D01*
X126111000Y-93348000D01*
X126111000Y-90342363D01*
X126111340Y-90335878D01*
X126114482Y-90305972D01*
X126127460Y-90182500D01*
X126116927Y-90082284D01*
X126112799Y-90043000D01*
X130539540Y-90043000D01*
X130559326Y-90231256D01*
X130559327Y-90231259D01*
X130617818Y-90411277D01*
X130617821Y-90411284D01*
X130712467Y-90575216D01*
X130747839Y-90614500D01*
X130839129Y-90715888D01*
X130992265Y-90827148D01*
X130992270Y-90827151D01*
X131165192Y-90904142D01*
X131165197Y-90904144D01*
X131350354Y-90943500D01*
X131350355Y-90943500D01*
X131539644Y-90943500D01*
X131539646Y-90943500D01*
X131724803Y-90904144D01*
X131885509Y-90832591D01*
X131954759Y-90823307D01*
X132018035Y-90852935D01*
X132053876Y-90907552D01*
X132078319Y-90982780D01*
X132078321Y-90982784D01*
X132172967Y-91146716D01*
X132299629Y-91287388D01*
X132452765Y-91398648D01*
X132452770Y-91398651D01*
X132625692Y-91475642D01*
X132625697Y-91475644D01*
X132810854Y-91515000D01*
X132810855Y-91515000D01*
X133000144Y-91515000D01*
X133000146Y-91515000D01*
X133185303Y-91475644D01*
X133358230Y-91398651D01*
X133511371Y-91287388D01*
X133638033Y-91146716D01*
X133732679Y-90982784D01*
X133791174Y-90802756D01*
X133810960Y-90614500D01*
X133791174Y-90426244D01*
X133732679Y-90246216D01*
X133638033Y-90082284D01*
X133511371Y-89941612D01*
X133511370Y-89941611D01*
X133358234Y-89830351D01*
X133358229Y-89830348D01*
X133185307Y-89753357D01*
X133185302Y-89753355D01*
X133039501Y-89722365D01*
X133000146Y-89714000D01*
X132810854Y-89714000D01*
X132778397Y-89720898D01*
X132625697Y-89753355D01*
X132625692Y-89753357D01*
X132464990Y-89824908D01*
X132395740Y-89834193D01*
X132332463Y-89804565D01*
X132296623Y-89749947D01*
X132272181Y-89674721D01*
X132272179Y-89674718D01*
X132272179Y-89674716D01*
X132190647Y-89533499D01*
X132174175Y-89465600D01*
X132190648Y-89409500D01*
X132222040Y-89355127D01*
X132272179Y-89268284D01*
X132330674Y-89088256D01*
X132350460Y-88900000D01*
X132330674Y-88711744D01*
X132274723Y-88539545D01*
X132272181Y-88531722D01*
X132272180Y-88531721D01*
X132272179Y-88531716D01*
X132177533Y-88367784D01*
X132050871Y-88227112D01*
X132050870Y-88227111D01*
X131897734Y-88115851D01*
X131897729Y-88115848D01*
X131724807Y-88038857D01*
X131724802Y-88038855D01*
X131579001Y-88007865D01*
X131539646Y-87999500D01*
X131350354Y-87999500D01*
X131317897Y-88006398D01*
X131165197Y-88038855D01*
X131165192Y-88038857D01*
X130992270Y-88115848D01*
X130992265Y-88115851D01*
X130839129Y-88227111D01*
X130712466Y-88367785D01*
X130617821Y-88531715D01*
X130617818Y-88531722D01*
X130559327Y-88711740D01*
X130559326Y-88711744D01*
X130539540Y-88900000D01*
X130559326Y-89088256D01*
X130559327Y-89088259D01*
X130617818Y-89268277D01*
X130617820Y-89268281D01*
X130617821Y-89268284D01*
X130638500Y-89304101D01*
X130699352Y-89409501D01*
X130715824Y-89477401D01*
X130699352Y-89533499D01*
X130617820Y-89674718D01*
X130617818Y-89674722D01*
X130566003Y-89834193D01*
X130559326Y-89854744D01*
X130539540Y-90043000D01*
X126112799Y-90043000D01*
X126111340Y-90029120D01*
X126111000Y-90022635D01*
X126111000Y-89655243D01*
X126130685Y-89588204D01*
X126183489Y-89542449D01*
X126234687Y-89531243D01*
X128418568Y-89525805D01*
X128418577Y-89525804D01*
X128418582Y-89525804D01*
X128509324Y-89515875D01*
X128525384Y-89514119D01*
X128576586Y-89502913D01*
X128678504Y-89468920D01*
X128799543Y-89391132D01*
X128852347Y-89345377D01*
X128946567Y-89236643D01*
X129006338Y-89105766D01*
X129026023Y-89038727D01*
X129026024Y-89038723D01*
X129046500Y-88896307D01*
X129046500Y-85852000D01*
X131428540Y-85852000D01*
X131448326Y-86040256D01*
X131448327Y-86040259D01*
X131506818Y-86220277D01*
X131506821Y-86220284D01*
X131601467Y-86384216D01*
X131721406Y-86517421D01*
X131728129Y-86524888D01*
X131881265Y-86636148D01*
X131881270Y-86636151D01*
X132054192Y-86713142D01*
X132054197Y-86713144D01*
X132239354Y-86752500D01*
X132239355Y-86752500D01*
X132428644Y-86752500D01*
X132428646Y-86752500D01*
X132613803Y-86713144D01*
X132786730Y-86636151D01*
X132939871Y-86524888D01*
X133066533Y-86384216D01*
X133161179Y-86220284D01*
X133219674Y-86040256D01*
X133239460Y-85852000D01*
X133219674Y-85663744D01*
X133161179Y-85483716D01*
X133066533Y-85319784D01*
X132939871Y-85179112D01*
X132939870Y-85179111D01*
X132786734Y-85067851D01*
X132786729Y-85067848D01*
X132613807Y-84990857D01*
X132613802Y-84990855D01*
X132468001Y-84959865D01*
X132428646Y-84951500D01*
X132239354Y-84951500D01*
X132206897Y-84958398D01*
X132054197Y-84990855D01*
X132054192Y-84990857D01*
X131881270Y-85067848D01*
X131881265Y-85067851D01*
X131728129Y-85179111D01*
X131601466Y-85319785D01*
X131506821Y-85483715D01*
X131506818Y-85483722D01*
X131455969Y-85640220D01*
X131448326Y-85663744D01*
X131428540Y-85852000D01*
X129046500Y-85852000D01*
X129046500Y-81124500D01*
X129066185Y-81057461D01*
X129118989Y-81011706D01*
X129170500Y-81000500D01*
X135766000Y-81000500D01*
X135833039Y-81020185D01*
G37*
%TD.AperFunction*%
%TD*%
%TA.AperFunction,Conductor*%
%TO.N,Net-(SW5-A)*%
G36*
X124323032Y-81020185D02*
G01*
X124368787Y-81072989D01*
X124378731Y-81142147D01*
X124363381Y-81186496D01*
X124358503Y-81194947D01*
X124348819Y-81211720D01*
X124348818Y-81211722D01*
X124290327Y-81391740D01*
X124290326Y-81391744D01*
X124270540Y-81580000D01*
X124290326Y-81768256D01*
X124290327Y-81768259D01*
X124348818Y-81948277D01*
X124348821Y-81948284D01*
X124443467Y-82112216D01*
X124512802Y-82189220D01*
X124570129Y-82252888D01*
X124723265Y-82364148D01*
X124723270Y-82364151D01*
X124896192Y-82441142D01*
X124896197Y-82441144D01*
X125081354Y-82480500D01*
X125081355Y-82480500D01*
X125270644Y-82480500D01*
X125270646Y-82480500D01*
X125455803Y-82441144D01*
X125628730Y-82364151D01*
X125781871Y-82252888D01*
X125908533Y-82112216D01*
X126003179Y-81948284D01*
X126061674Y-81768256D01*
X126081460Y-81580000D01*
X126061674Y-81391744D01*
X126003179Y-81211716D01*
X125988619Y-81186497D01*
X125972147Y-81118600D01*
X125994999Y-81052573D01*
X126049920Y-81009383D01*
X126096007Y-81000500D01*
X128417000Y-81000500D01*
X128484039Y-81020185D01*
X128529794Y-81072989D01*
X128541000Y-81124500D01*
X128541000Y-88896307D01*
X128521315Y-88963346D01*
X128468511Y-89009101D01*
X128417309Y-89020307D01*
X126110821Y-89026051D01*
X126043733Y-89006533D01*
X125997846Y-88953843D01*
X125987731Y-88884710D01*
X126003124Y-88840053D01*
X126049179Y-88760284D01*
X126107674Y-88580256D01*
X126127460Y-88392000D01*
X126107674Y-88203744D01*
X126049179Y-88023716D01*
X125954533Y-87859784D01*
X125827871Y-87719112D01*
X125827870Y-87719111D01*
X125674734Y-87607851D01*
X125674729Y-87607848D01*
X125501807Y-87530857D01*
X125501802Y-87530855D01*
X125356001Y-87499865D01*
X125316646Y-87491500D01*
X125127354Y-87491500D01*
X125094897Y-87498398D01*
X124942197Y-87530855D01*
X124942192Y-87530857D01*
X124769270Y-87607848D01*
X124769265Y-87607851D01*
X124616129Y-87719111D01*
X124489466Y-87859785D01*
X124394821Y-88023715D01*
X124394818Y-88023722D01*
X124369998Y-88100112D01*
X124336326Y-88203744D01*
X124316540Y-88392000D01*
X124336326Y-88580256D01*
X124336327Y-88580259D01*
X124394818Y-88760277D01*
X124394820Y-88760281D01*
X124394821Y-88760284D01*
X124441423Y-88841001D01*
X124457895Y-88908901D01*
X124435042Y-88974928D01*
X124380120Y-89018118D01*
X124334035Y-89027000D01*
X122555479Y-89027000D01*
X122488440Y-89007315D01*
X122442685Y-88954511D01*
X122432158Y-88890042D01*
X122444460Y-88773000D01*
X122424674Y-88584744D01*
X122366179Y-88404716D01*
X122271533Y-88240784D01*
X122144871Y-88100112D01*
X122144870Y-88100111D01*
X121991734Y-87988851D01*
X121991729Y-87988848D01*
X121818807Y-87911857D01*
X121818802Y-87911855D01*
X121673001Y-87880865D01*
X121633646Y-87872500D01*
X121444354Y-87872500D01*
X121411897Y-87879398D01*
X121259197Y-87911855D01*
X121259192Y-87911857D01*
X121086270Y-87988848D01*
X121086265Y-87988851D01*
X120933129Y-88100111D01*
X120806466Y-88240785D01*
X120711821Y-88404715D01*
X120711818Y-88404722D01*
X120654784Y-88580256D01*
X120653326Y-88584744D01*
X120633540Y-88773000D01*
X120645841Y-88890041D01*
X120633273Y-88958768D01*
X120585541Y-89009792D01*
X120522521Y-89027000D01*
X120326780Y-89027000D01*
X120259741Y-89007315D01*
X120213986Y-88954511D01*
X120203459Y-88890040D01*
X120204019Y-88884710D01*
X120205460Y-88871000D01*
X120185674Y-88682744D01*
X120127179Y-88502716D01*
X120045647Y-88361499D01*
X120029175Y-88293600D01*
X120045648Y-88237500D01*
X120065139Y-88203740D01*
X120127179Y-88096284D01*
X120185674Y-87916256D01*
X120205460Y-87728000D01*
X120185674Y-87539744D01*
X120127179Y-87359716D01*
X120045647Y-87218499D01*
X120029175Y-87150600D01*
X120045648Y-87094500D01*
X120127179Y-86953284D01*
X120185674Y-86773256D01*
X120203883Y-86600000D01*
X121094540Y-86600000D01*
X121114326Y-86788256D01*
X121114327Y-86788259D01*
X121172818Y-86968277D01*
X121172821Y-86968284D01*
X121267467Y-87132216D01*
X121324704Y-87195784D01*
X121394129Y-87272888D01*
X121547265Y-87384148D01*
X121547270Y-87384151D01*
X121720192Y-87461142D01*
X121720197Y-87461144D01*
X121905354Y-87500500D01*
X121905355Y-87500500D01*
X122094644Y-87500500D01*
X122094646Y-87500500D01*
X122279803Y-87461144D01*
X122452730Y-87384151D01*
X122605871Y-87272888D01*
X122732533Y-87132216D01*
X122827179Y-86968284D01*
X122885674Y-86788256D01*
X122905460Y-86600000D01*
X122885674Y-86411744D01*
X122848982Y-86298818D01*
X122846987Y-86228977D01*
X122883067Y-86169144D01*
X122945768Y-86138316D01*
X122966913Y-86136500D01*
X123516605Y-86136500D01*
X123516608Y-86136500D01*
X123670934Y-86121300D01*
X123868954Y-86061232D01*
X124051450Y-85963685D01*
X124211410Y-85832410D01*
X124227663Y-85812605D01*
X124285404Y-85773272D01*
X124355248Y-85771399D01*
X124415018Y-85807585D01*
X124415642Y-85808272D01*
X124437378Y-85832413D01*
X124489129Y-85889888D01*
X124642265Y-86001148D01*
X124642270Y-86001151D01*
X124815192Y-86078142D01*
X124815197Y-86078144D01*
X125000354Y-86117500D01*
X125000355Y-86117500D01*
X125189644Y-86117500D01*
X125189646Y-86117500D01*
X125374803Y-86078144D01*
X125547730Y-86001151D01*
X125700871Y-85889888D01*
X125827533Y-85749216D01*
X125922179Y-85585284D01*
X125980674Y-85405256D01*
X126000460Y-85217000D01*
X125980674Y-85028744D01*
X125922179Y-84848716D01*
X125827533Y-84684784D01*
X125700871Y-84544112D01*
X125675126Y-84525407D01*
X125547734Y-84432851D01*
X125547729Y-84432848D01*
X125374807Y-84355857D01*
X125374802Y-84355855D01*
X125229001Y-84324865D01*
X125189646Y-84316500D01*
X125000354Y-84316500D01*
X124967897Y-84323398D01*
X124815197Y-84355855D01*
X124815192Y-84355857D01*
X124642270Y-84432848D01*
X124642265Y-84432851D01*
X124514873Y-84525407D01*
X124449067Y-84548887D01*
X124381013Y-84533061D01*
X124346134Y-84503753D01*
X124342682Y-84499547D01*
X124287945Y-84432849D01*
X124211410Y-84339589D01*
X124051452Y-84208317D01*
X124051453Y-84208317D01*
X124051450Y-84208315D01*
X123868954Y-84110768D01*
X123670934Y-84050700D01*
X123670932Y-84050699D01*
X123670934Y-84050699D01*
X123551805Y-84038966D01*
X123516608Y-84035500D01*
X122813392Y-84035500D01*
X122775298Y-84039251D01*
X122659067Y-84050699D01*
X122461043Y-84110769D01*
X122350898Y-84169643D01*
X122278550Y-84208315D01*
X122278548Y-84208316D01*
X122278547Y-84208317D01*
X122118589Y-84339589D01*
X121987317Y-84499547D01*
X121987315Y-84499550D01*
X121963496Y-84544112D01*
X121889769Y-84682043D01*
X121889768Y-84682045D01*
X121889768Y-84682046D01*
X121888937Y-84684785D01*
X121829699Y-84880067D01*
X121809417Y-85086000D01*
X121829699Y-85291932D01*
X121829700Y-85291934D01*
X121864075Y-85405256D01*
X121889769Y-85489956D01*
X121914189Y-85535642D01*
X121928431Y-85604045D01*
X121903431Y-85669289D01*
X121847127Y-85710660D01*
X121830612Y-85715386D01*
X121720197Y-85738855D01*
X121720192Y-85738857D01*
X121547270Y-85815848D01*
X121547265Y-85815851D01*
X121394129Y-85927111D01*
X121267466Y-86067785D01*
X121172821Y-86231715D01*
X121172818Y-86231722D01*
X121114327Y-86411740D01*
X121114326Y-86411744D01*
X121094540Y-86600000D01*
X120203883Y-86600000D01*
X120205460Y-86585000D01*
X120185674Y-86396744D01*
X120127179Y-86216716D01*
X120108910Y-86185073D01*
X120092438Y-86117177D01*
X120115290Y-86051150D01*
X120157843Y-86013718D01*
X120251450Y-85963685D01*
X120411410Y-85832410D01*
X120542685Y-85672450D01*
X120640232Y-85489954D01*
X120700300Y-85291934D01*
X120720583Y-85086000D01*
X120700300Y-84880066D01*
X120640232Y-84682046D01*
X120542685Y-84499550D01*
X120470826Y-84411989D01*
X120411410Y-84339589D01*
X120251452Y-84208317D01*
X120251453Y-84208317D01*
X120251450Y-84208315D01*
X120068954Y-84110768D01*
X119870934Y-84050700D01*
X119870932Y-84050699D01*
X119870934Y-84050699D01*
X119751805Y-84038966D01*
X119716608Y-84035500D01*
X119013392Y-84035500D01*
X118963390Y-84040424D01*
X118898466Y-84046819D01*
X118829820Y-84033800D01*
X118779109Y-83985735D01*
X118762435Y-83917884D01*
X118778923Y-83861420D01*
X118810179Y-83807284D01*
X118868674Y-83627256D01*
X118888460Y-83439000D01*
X118868674Y-83250744D01*
X118810179Y-83070716D01*
X118715533Y-82906784D01*
X118588871Y-82766112D01*
X118588870Y-82766111D01*
X118435734Y-82654851D01*
X118435729Y-82654848D01*
X118262807Y-82577857D01*
X118262802Y-82577855D01*
X118117001Y-82546865D01*
X118077646Y-82538500D01*
X117888354Y-82538500D01*
X117843194Y-82548099D01*
X117703199Y-82577855D01*
X117591521Y-82627578D01*
X117522271Y-82636862D01*
X117458994Y-82607234D01*
X117421781Y-82548099D01*
X117422446Y-82478232D01*
X117437087Y-82446770D01*
X117519985Y-82319117D01*
X117612154Y-82189220D01*
X117614486Y-82186143D01*
X117715655Y-82061209D01*
X117717537Y-82058998D01*
X117822773Y-81941239D01*
X117825092Y-81938787D01*
X117938787Y-81825092D01*
X117941239Y-81822773D01*
X118058998Y-81717537D01*
X118061209Y-81715655D01*
X118186143Y-81614486D01*
X118189220Y-81612154D01*
X118319127Y-81519980D01*
X118329046Y-81513537D01*
X118454808Y-81431867D01*
X118458494Y-81429655D01*
X118598078Y-81352511D01*
X118610063Y-81346403D01*
X118741606Y-81279379D01*
X118745972Y-81277366D01*
X118893815Y-81216127D01*
X119043254Y-81158764D01*
X119048268Y-81157083D01*
X119203279Y-81112425D01*
X119356196Y-81071451D01*
X119361796Y-81070227D01*
X119524284Y-81042618D01*
X119676791Y-81018464D01*
X119682968Y-81017803D01*
X119866566Y-81007493D01*
X119998380Y-81000584D01*
X120001622Y-81000500D01*
X124255993Y-81000500D01*
X124323032Y-81020185D01*
G37*
%TD.AperFunction*%
%TD*%
M02*
